<?xml version="1.0" encoding="UTF-8" standalone="no"?>
<!-- Created with Inkscape (http://www.inkscape.org/) -->

<svg
   version="1.1"
   id="svg1081"
   width="1280"
   height="1280"
   viewBox="0 0 1280 1280"
   sodipodi:docname="staticmap-amsterdam-park-13.svg"
   inkscape:version="1.1.1 (3bf5ae0d25, 2021-09-20)"
   xmlns:inkscape="http://www.inkscape.org/namespaces/inkscape"
   xmlns:sodipodi="http://sodipodi.sourceforge.net/DTD/sodipodi-0.dtd"
   xmlns="http://www.w3.org/2000/svg"
   xmlns:svg="http://www.w3.org/2000/svg">
  <defs
     id="defs1085" />
  <sodipodi:namedview
     id="namedview1083"
     pagecolor="#ffffff"
     bordercolor="#666666"
     borderopacity="1.0"
     inkscape:pageshadow="2"
     inkscape:pageopacity="0.0"
     inkscape:pagecheckerboard="0"
     showgrid="false"
     inkscape:zoom="0.68203125"
     inkscape:cx="263.91753"
     inkscape:cy="640"
     inkscape:window-width="3440"
     inkscape:window-height="1369"
     inkscape:window-x="-8"
     inkscape:window-y="-8"
     inkscape:window-maximized="1"
     inkscape:current-layer="g1087" />
  <g
     inkscape:groupmode="layer"
     inkscape:label="Image"
     id="g1087">
    <path
       style="fill:#000000"
       d="m 132.61283,1268.25 c 10.17457,-13.9492 8.98082,-12.6199 10.73005,-11.9487 1.22053,0.4684 1.15518,1.9096 -0.44774,9.8736 -1.03227,5.1288 -2.11455,10.3376 -2.40505,11.5751 -0.49313,2.1006 -1.05656,2.25 -8.48795,2.25 h -7.95975 z m 225.98047,7.5 c -0.29109,-2.3375 -0.68551,-7.0712 -0.87649,-10.5194 l -0.34723,-6.2693 5.53851,-4.1817 c 4.62545,-3.4922 7.93333,-4.86 20.06521,-8.2967 7.98969,-2.2633 15.96685,-4.8729 17.72704,-5.799 4.43043,-2.3311 5.88379,-2.132 13.19527,1.8078 3.51758,1.8955 6.72748,3.2412 7.13312,2.9905 0.40564,-0.2507 1.04428,-2.911 1.4192,-5.9118 l 0.68169,-5.456 5.65175,-1.2648 c 3.31668,-0.7422 6.87049,-2.3537 8.60156,-3.9004 l 2.94981,-2.6357 9.08363,2.1631 c 4.996,1.1897 10.65863,2.9939 12.58363,4.0095 2.49784,1.3177 6.42489,1.9791 13.7151,2.3097 l 10.2151,0.4633 3.2849,4.8446 c 1.8067,2.6646 3.55945,4.8563 3.89501,4.8705 0.33556,0.014 6.63556,-2.7269 14,-6.0913 19.88348,-9.0837 24.97988,-10.6171 33.56343,-10.0989 l 7.17355,0.4331 1.95955,4.6414 c 2.17536,5.1527 6.20795,31.428 6.19906,40.3915 l -0.006,5.75 H 457.56127 359.12255 Z M 702,1268.937 v -11.063 l -36.75,0.1304 c -20.2125,0.072 -39.3375,0.1 -42.5,0.063 l -5.75,-0.067 v -4.4387 -4.4388 l -4.25,-0.6372 c -2.3375,-0.3505 -11.11313,-0.4906 -19.5014,-0.3113 l -15.25139,0.326 10e-4,-5.0845 10e-4,-5.0845 6.25,0.9073 c 3.4375,0.499 10.3,0.6072 15.25,0.2406 4.95,-0.3667 28.73996,-0.5968 52.86657,-0.5114 l 43.86657,0.1552 -0.41577,-3.5613 -0.41577,-3.5614 h 4.2992 4.2992 v 10 10 h 28.63976 c 25.57517,0 28.77015,0.1783 29.85833,1.6665 1.07938,1.4761 1.89159,1.5292 7.11024,0.4646 4.16053,-0.8487 30.49986,-1.3748 89.64167,-1.7904 l 83.75,-0.5885 v 7.4857 7.4856 l -9.94929,0.9848 c -9.58144,0.9483 -10.29953,1.1938 -19.423,6.6382 l -9.47294,5.6535 H 803.07699 702 Z m 246.62401,-6.187 c -0.32503,-9.4875 -0.86575,-42.9084 -1.20159,-74.2687 -0.57118,-53.3351 -0.49567,-57.2598 1.16869,-60.75 0.97862,-2.0522 2.14446,-3.7313 2.59075,-3.7313 0.97815,0 59.80324,46.488 75.35324,59.5498 10.86,9.1223 11.0297,9.3302 10.7025,13.1097 -0.1829,2.1123 1.4415,12.5806 3.6098,23.2629 4.6635,22.9762 5.2472,19.6146 -7.5714,43.6092 l -8.776,16.4274 -37.64251,0.02 -37.64251,0.021 z m 194.53599,6.3333 c -0.088,-4.6291 0.1611,-8.0956 0.5535,-7.7031 0.3924,0.3924 0.7299,2.6049 0.75,4.9166 0.031,3.545 0.3782,4.2519 2.2188,4.5139 2.8875,0.4111 4.8283,-2.9881 3.3177,-5.8107 -0.5888,-1.1 -1.9811,-2 -3.0943,-2 -1.1131,0 -1.7456,-0.45 -1.4057,-1 0.9117,-1.4751 3.1403,-1.2167 4.9285,0.5714 3.7493,3.7493 -0.173,12.3184 -4.4233,9.6639 -1.6792,-1.0486 -1.9264,-0.8274 -2.2841,2.0444 -0.2205,1.7712 -0.473,-0.5672 -0.5611,-5.1964 z m -29.9834,-3.8333 c -0.2199,-10.2724 1.6127,-11.2028 4.3379,-2.2022 1.0071,3.3263 2.1656,6.2545 2.5744,6.5071 0.4088,0.2527 1.7177,-2.4688 2.9087,-6.0477 1.191,-3.579 2.5788,-6.5072 3.0839,-6.5072 0.5052,0 0.839,3.7125 0.7418,8.25 l -0.1766,8.25 -0.5734,-7 -0.5733,-7 -2.3315,6.75 c -1.2824,3.7125 -2.6736,6.75 -3.0917,6.75 -0.4181,0 -1.3253,-1.8859 -2.0159,-4.191 -0.6906,-2.305 -1.7614,-5.3425 -2.3796,-6.75 -1.0074,-2.2938 -1.1863,-1.8334 -1.726,4.441 l -0.6021,7 z m 17.7073,6.1102 c -1.7457,-2.1036 0.03,-4.7179 3.6405,-5.3602 3.5536,-0.6322 4.5472,-3 1.2589,-3 -1.3108,0 -2.9233,0.54 -3.5833,1.2 -0.8931,0.8931 -1.2,0.9021 -1.2,0.035 0,-1.729 3.7877,-3.4374 6.0378,-2.7232 1.5021,0.4767 1.9622,1.5257 1.9622,4.4736 0,2.118 0.2363,4.4666 0.5251,5.2191 0.7753,2.0204 -6.9776,2.1599 -8.6412,0.1555 z m 6.771,-1.9033 c 0.3257,-0.8487 0.3325,-1.8028 0.015,-2.1201 -1.0759,-1.0759 -5.6701,0.6923 -5.6701,2.1823 0,2.0004 4.884,1.9466 5.6549,-0.062 z m 24.0001,1.7144 c -2.2617,-2.4992 -2.0788,-6.4778 0.4009,-8.7219 1.671,-1.5122 2.4086,-1.6404 3.9389,-0.6847 1.6792,1.0486 1.9263,0.8274 2.284,-2.0444 0.2206,-1.7712 0.4663,0.6047 0.5459,5.2797 0.086,5.0712 -0.2021,7.9527 -0.715,7.1432 -0.5993,-0.9458 -1.0669,-1.0215 -1.5437,-0.25 -1.0149,1.6422 -3.0411,1.3443 -4.911,-0.7219 z M 1167.5,1267 c 0,-2.8359 -0.4141,-3.5589 -2.1823,-3.8107 -1.3962,-0.1987 -2.5797,0.4317 -3.2852,1.75 -1.5439,2.8848 0.3602,6.2878 3.2852,5.8714 1.7682,-0.2518 2.1823,-0.9748 2.1823,-3.8107 z m 5.3839,4.3602 c -1.7457,-2.1036 0.03,-4.7179 3.6405,-5.3602 3.5536,-0.6322 4.5472,-3 1.2589,-3 -1.3108,0 -2.9233,0.54 -3.5833,1.2 -0.8931,0.8931 -1.2,0.9021 -1.2,0.035 0,-1.729 3.7877,-3.4374 6.0378,-2.7232 1.5021,0.4767 1.9622,1.5257 1.9622,4.4736 0,2.118 0.2363,4.4666 0.5251,5.2191 0.7753,2.0204 -6.9776,2.1599 -8.6412,0.1555 z m 6.771,-1.9033 c 0.3257,-0.8487 0.3325,-1.8028 0.015,-2.1201 -1.0759,-1.0759 -5.6701,0.6923 -5.6701,2.1823 0,2.0004 4.884,1.9466 5.6549,-0.062 z m 5.8926,2.2931 c -0.9019,-2.8925 -1.1884,-10.4062 -0.4672,-12.2539 0.6133,-1.5712 0.7941,-1.6413 0.8494,-0.3294 0.039,0.9166 0.6328,1.9291 1.3203,2.25 1,0.4666 1,0.7 0,1.1666 -1.4856,0.6933 -1.6857,7.0294 -0.25,7.9167 0.55,0.3399 1,1.0415 1,1.559 0,1.3938 -2.0002,1.1418 -2.4525,-0.309 z m 5.3364,-0.3898 c -1.7457,-2.1036 0.03,-4.7179 3.6405,-5.3602 3.5535,-0.6322 4.5471,-3 1.2589,-3 -1.3108,0 -2.9233,0.54 -3.5833,1.2 -0.8931,0.8931 -1.2,0.9021 -1.2,0.035 0,-1.729 3.7877,-3.4374 6.0378,-2.7232 1.502,0.4767 1.9622,1.5257 1.9622,4.4736 0,2.118 0.2363,4.4666 0.5251,5.2191 0.7753,2.0204 -6.9776,2.1599 -8.6412,0.1555 z m 6.7709,-1.9033 c 0.3258,-0.8487 0.3325,-1.8028 0.015,-2.1201 -1.0759,-1.0759 -5.6701,0.6923 -5.6701,2.1823 0,2.0004 4.884,1.9466 5.6549,-0.062 z m 16.0952,2.8808 c 0.6875,-0.2774 1.8125,-0.2774 2.5,0 0.6875,0.2774 0.125,0.5044 -1.25,0.5044 -1.375,0 -1.9375,-0.227 -1.25,-0.5044 z m 10.25,-0.1348 c 0,-0.4383 1.7999,-2.5547 4,-4.7029 2.2,-2.1482 4,-4.7287 4,-5.7343 0,-2.4115 -2.7669,-3.3924 -5.2299,-1.8542 -2.5492,1.592 -3.3257,0.7869 -1.2464,-1.2925 2.0509,-2.0508 4.882,-2.0703 6.9048,-0.048 2.4782,2.4783 1.8824,4.4487 -2.595,8.5822 l -4.1664,3.8464 h 4.1664 c 2.2915,0 4.1665,0.45 4.1665,1 0,0.55 -2.25,1 -5,1 -2.75,0 -5,-0.3587 -5,-0.7971 z m 14.4411,-0.6223 c -1.4874,-1.0876 -1.9411,-2.6257 -1.9411,-6.5806 0,-3.9549 0.4537,-5.493 1.9411,-6.5806 2.5492,-1.8641 3.1801,-1.7982 5.5589,0.5806 1.3333,1.3333 2,3.3333 2,6 0,2.6667 -0.6667,4.6667 -2,6 -2.3788,2.3788 -3.0097,2.4447 -5.5589,0.5806 z M 1243.5,1265 c 0,-5.2 -0.1365,-5.5 -2.5,-5.5 -2.2371,0 -2.5329,0.4592 -2.8132,4.3644 -0.4113,5.7339 0.2983,7.3477 3.0586,6.9557 2.0272,-0.2878 2.2546,-0.8745 2.2546,-5.8201 z m 4.5,7.2029 c 0,-0.4383 1.7999,-2.5547 4,-4.7029 2.2,-2.1482 4,-4.7287 4,-5.7343 0,-2.4115 -2.7669,-3.3924 -5.2299,-1.8542 -2.5492,1.592 -3.3257,0.7869 -1.2464,-1.2925 2.0509,-2.0508 4.882,-2.0703 6.9048,-0.048 2.4782,2.4783 1.8824,4.4487 -2.595,8.5822 l -4.1664,3.8464 h 4.1664 c 2.2915,0 4.1665,0.45 4.1665,1 0,0.55 -2.25,1 -5,1 -2.75,0 -5,-0.3587 -5,-0.7971 z m 18.1747,-5.0203 c -0.1675,-6.0579 -0.2671,-6.289 -2.4247,-5.6258 -2.2214,0.6828 -2.2183,0.6572 0.25,-2.0243 l 2.5,-2.716 0.3074,4.0918 c 0.1691,2.2504 0.1352,6.0042 -0.075,8.3417 -0.2985,3.3137 -0.4213,2.8582 -0.5575,-2.0674 z m -57.1022,2.1825 c -2.7406,-3.484 -2.614,-5.6689 0.5252,-9.0593 l 2.5978,-2.8058 -2.0978,2.8849 c -2.6374,3.6269 -2.643,5.6522 -0.025,8.9802 1.1399,1.4492 1.8476,2.6349 1.5726,2.6349 -0.275,0 -1.4327,-1.1857 -2.5726,-2.6349 z m 2.3562,-2.7927 c -0.3351,-1.3351 -0.2209,-3.1214 0.2537,-3.9695 0.598,-1.0686 0.863,-0.3232 0.863,2.4275 0,4.5813 -0.2628,4.9441 -1.1167,1.542 z M 1221.5,1265 c 0,-2.095 0.3375,-3.6004 0.75,-3.3455 0.4124,0.2549 0.75,1.7604 0.75,3.3455 0,1.5851 -0.3376,3.0906 -0.75,3.3455 -0.4125,0.2549 -0.75,-1.2505 -0.75,-3.3455 z M 93.999996,1254 c 0,-10 0.25,-12 1.5,-12 1.25,0 1.5,2 1.5,12 0,10 -0.25,12 -1.5,12 -1.25,0 -1.5,-2 -1.5,-12 z M 1213.75,1257.3377 c 0.6875,-0.2774 1.8125,-0.2774 2.5,0 0.6875,0.2774 0.125,0.5044 -1.25,0.5044 -1.375,0 -1.9375,-0.227 -1.25,-0.5044 z M 1140,1237.0312 c -4.8452,-0.9534 -16.7979,-7.1713 -27.0938,-14.0943 -8.7044,-5.8528 -24.2636,-18.9129 -23.4734,-19.7031 0.2342,-0.2341 4.3951,-1.421 9.2465,-2.6375 l 8.8207,-2.2119 0.3032,-4.1036 0.3031,-4.1037 7.6969,-1.6892 c 12.1439,-2.6652 23.6179,-8.0302 33.6546,-15.736 11.0612,-8.4925 14.9305,-12.9376 18.2658,-20.9844 2.2874,-5.5185 2.6484,-8.0003 3.0205,-20.7675 0.349,-11.9777 0.081,-15.9402 -1.5403,-22.7793 -1.9264,-8.1252 -1.9276,-8.2982 -0.063,-9.2962 2.4786,-1.3266 3.1504,-0.8218 5.3254,4.0015 1.5399,3.4149 3.2862,4.8635 11.5588,9.5885 l 9.7448,5.5659 3.5666,15.2098 c 3.1682,13.5111 3.6343,17.276 4.1733,33.7098 0.3338,10.175 0.8273,19.6739 1.0968,21.1086 0.4082,2.1735 -0.019,2.8193 -2.5585,3.8713 -2.3273,0.9641 -3.0382,1.8845 -3.0051,3.8914 0.1025,6.2289 2.823,24.8608 3.9982,27.3829 0.7059,1.5149 1.0567,2.9809 0.7797,3.2579 -0.9951,0.9951 -27.6124,6.3527 -41.8212,8.4178 -7.975,1.1591 -15.4,2.2611 -16.5,2.4488 -1.1,0.1877 -3.575,0.031 -5.5,-0.3475 z M 18.09613,1201.75 c -0.66413,-8.3875 -1.90925,-17.2007 -2.76694,-19.5849 -0.86542,-2.4056 -1.17442,-4.6876 -0.69432,-5.1275 0.47582,-0.436 10.25189,-8.0261 21.724599,-16.867 11.47271,-8.8409 22.175792,-17.8642 23.784627,-20.0519 2.512505,-3.4165 3.988613,-4.2933 10.463717,-6.2156 4.46622,-1.3258 9.852149,-3.8715 13.215373,-6.2462 3.122246,-2.2045 9.05181,-5.4474 13.17681,-7.2064 5.927524,-2.5277 7.485204,-3.6269 7.429394,-5.2426 -0.0611,-1.7681 1.1549,-2.3265 9,-4.133 8.42506,-1.9401 12.02927,-2.0882 50.64247,-2.0818 48.28106,0.01 47.99468,0.051 54.30928,-8.119 2.73664,-3.5406 4.02825,-6.3266 4.38005,-9.4477 L 223.2601,1087 h 18.75644 18.75644 l 0.86351,5.75 0.86351,5.75 11.5,0.083 c 14.10633,0.102 20.10736,1.2923 35.5,7.0414 6.6,2.4651 19.73396,6.708 29.18658,9.4287 16.04158,4.6172 17.94031,4.9476 28.5,4.9582 12.84381,0.013 33.73825,2.91 39.00216,5.4079 6.09751,2.8935 8.52917,6.3523 9.03205,12.8471 l 0.44648,5.7664 -12.34922,10.8531 -12.34922,10.8531 -7.23441,0.4812 c -6.94901,0.4622 -8.42169,1.0759 -37.32845,15.5557 -33.84407,16.953 -44.35048,20.7283 -59.70618,21.4546 l -8.80022,0.4162 -12.07907,-14.5733 c -6.6435,-8.0154 -13.46118,-15.7605 -15.1504,-17.2114 l -3.07133,-2.6379 8.45062,-4.2283 c 4.64783,-2.3256 8.62071,-4.3836 8.8286,-4.5734 0.51675,-0.4717 -5.9254,-16.3337 -6.87114,-16.9182 -0.81314,-0.5025 -9.99831,2.3077 -11.27898,3.4508 -0.42468,0.3791 0.36282,3.7046 1.75,7.39 3.00836,7.9924 2.97724,7.655 0.706,7.655 -1.23424,0 -2.73417,-1.9208 -4.68139,-5.9948 l -2.86526,-5.9948 -8.56861,-2.6526 -8.56861,-2.6525 -27.94017,4.0073 -27.94017,4.0074 -26.539,-8.86 c -25.04887,-8.3625 -27.01493,-8.86 -35.01533,-8.86 h -8.476334 l -21.441477,16.25 c -11.792812,8.9375 -21.898377,16.5467 -22.45681,16.9093 -0.585398,0.3802 1.170608,3.2754 4.146977,6.8375 2.839271,3.3979 5.16231,6.5336 5.16231,6.9682 0,1.4439 -3.058376,3.3813 -3.855969,2.4426 -0.962233,-1.1324 -9.454566,-11.7717 -9.803735,-12.2822 -0.140932,-0.2061 -5.409057,3.391 -11.706946,7.9935 -13.143296,9.6051 -12.604283,8.4892 -12.622344,26.1311 L 25.999992,1217 h -3.348186 -3.34819 z m 608.27358,-64 c 0.33164,-1.2375 0.60913,-5.5125 0.61664,-9.5 0.0124,-6.5788 0.19881,-7.25 2.01365,-7.25 1.77778,0 2,0.6667 2,6 v 6 h 4.5 c 4.47619,0 4.5,0.018 4.5,3.5 v 3.5 h -7.11663 c -6.8922,0 -7.09762,-0.071 -6.51366,-2.25 z M 1128.5,1114.7304 c -5.4882,-0.942 -33.4245,-15.4292 -33.4722,-17.358 -0.072,-2.9315 3.2726,-3.854 12.8651,-3.548 l 9.6071,0.3065 3.4065,-5.0655 c 1.8736,-2.786 3.7776,-5.0654 4.2311,-5.0654 0.4534,0 3.6741,1.4052 7.157,3.1227 l 6.3326,3.1228 -2.3157,12.1272 c -1.2736,6.67 -2.4273,12.3722 -2.5637,12.6716 -0.1363,0.2994 -2.4978,0.1581 -5.2478,-0.3139 z m 112.3208,-19.3721 -29.505,-15.4503 -1.0119,-4.4221 -1.012,-4.4222 5.0773,-1.6863 c 5.9116,-1.9636 13.7997,-8.95 19.8615,-17.5913 3.9759,-5.6677 4.0578,-5.7194 10.1387,-6.3972 l 6.1305,-0.6834 8.7028,-9.1705 c 5.9393,-6.2584 9.8292,-9.5162 12.25,-10.2591 l 3.5472,-1.0887 v 6.9469 c 0,5.629 -0.4269,7.5286 -2.25,10.0132 -2.9087,3.9641 -22.9498,14.2571 -27.2608,14.0011 -2.7132,-0.1612 -3.3412,0.4222 -6.3528,5.9002 -1.8381,3.3435 -3.1832,6.2122 -2.9892,6.3748 0.194,0.1627 9.0064,4.7464 19.583,10.1862 l 19.2301,9.8904 0.02,10.5895 c 0.03,15.9326 1.7443,16.0696 -34.1593,-2.7312 z M 455,1086.1096 c 0,-2.5106 1.18527,-5.2124 4.12552,-9.4041 l 4.12553,-5.8813 -1.19359,-12.6621 c -0.65647,-6.9642 -1.40433,-13.4056 -1.66191,-14.3144 -0.36522,-1.2886 0.91566,-2.0678 5.81806,-3.5394 l 6.28639,-1.8871 -0.12922,-13.9606 c -0.0711,-7.6783 -0.58195,-15.8562 -1.13528,-18.1731 -0.91011,-3.8108 -0.44709,-6.0519 4.85511,-23.49997 3.22364,-10.6082 5.8819,-20.8625 5.90724,-22.7875 0.0439,-3.3326 7.1827,-29.51391 8.37172,-30.70293 0.31146,-0.31147 1.95101,0.007 3.64342,0.70828 2.34404,0.97093 3.6694,1.00473 5.56319,0.14187 l 2.48605,-1.13273 -2.56237,3.74274 c -2.08228,3.04148 -2.30422,3.91102 -1.1845,4.64088 1.13867,0.74221 0.88368,2.4349 -1.46874,9.75005 -5.07359,15.77694 -3.52095,27.15074 8.01691,58.72741 5.28989,14.4774 5.69671,16.1244 3.98271,16.1244 -1.04996,0 -2.12098,0.5625 -2.38005,1.25 -0.25907,0.6875 2.37123,14.075 5.84512,29.75 5.37401,24.2488 6.08289,28.5417 4.75242,28.7794 -0.86005,0.1537 -15.17623,1.9834 -31.81373,4.0661 l -30.25,3.7868 z m -341.64443,-17.8057 c -2.06457,-0.3999 -2.15816,-0.9998 -2.51301,-16.1096 -0.51704,-22.0159 -0.56147,-21.7982 5.02164,-24.6165 3.99188,-2.015 6.47625,-2.3964 17.8858,-2.7457 l 13.25,-0.4057 v 5.2015 5.2015 l -7.60355,1.7926 C 130.17274,1038.7965 130,1039.1063 130,1053.4733 v 10.3431 l -5.75,1.9839 c -8.52343,2.9408 -8.57527,2.9527 -10.89443,2.5036 z m 1046.79533,-11.4188 c -2.392,-4.4478 -3.9671,-8.4529 -3.5,-8.9002 0.467,-0.4473 4.838,-2.4124 9.7134,-4.3668 10.2944,-4.1269 22.0686,-11.1538 28.9939,-17.3038 2.6719,-2.3729 5.3148,-4.3143 5.873,-4.3143 0.7665,0 11.4565,7.0437 14.7147,9.6956 0.7229,0.5884 -14.147,15.2249 -17.7541,17.4754 -1.8196,1.1352 -8.2611,4.0049 -14.3146,6.3771 -6.0536,2.3722 -12.5224,5.4693 -14.3751,6.8825 -1.8528,1.4132 -3.7362,2.5631 -4.1854,2.5554 -0.4492,-0.01 -2.7738,-3.6532 -5.1658,-8.1009 z M 50.881976,1049.25 c -4.396345,-11.0177 -5.405648,-14.5945 -5.07925,-18 l 0.407341,-4.25 4.644964,-0.073 c 2.554731,-0.041 12.969965,-0.635 23.144965,-1.3211 10.175,-0.6861 18.562261,-1.2155 18.638358,-1.1765 0.369912,0.19 0.714091,17.3376 0.548377,27.3211 L 92.999996,1063 H 74.684281 56.368567 Z M 816.5529,1041.5 c -0.887,-24.3019 -0.67774,-23.5 -6.13236,-23.5 H 806 l -0.0587,-6.25 c -0.0323,-3.4375 -0.41245,-12.52767 -0.84487,-20.20047 -0.49683,-8.8157 -0.41673,-15.1544 0.2176,-17.2212 0.80043,-2.608 5.03797,-6.429 20.91534,-18.8594 10.95135,-8.57372 20.30222,-15.44918 20.77972,-15.27877 0.4775,0.17041 3.83537,4.11248 7.46192,8.76016 3.68328,4.72041 9.07633,10.21151 12.21812,12.44031 5.43605,3.8564 6.00468,4.0224 16.98321,4.958 l 11.35885,0.968 -0.47511,3.0917 c -0.2613,1.7004 -0.73322,9.1667 -1.04871,16.5917 -0.86432,20.34167 -3.4224,41.15127 -5.32335,43.30477 -1.17482,1.3308 -1.83526,5.4008 -2.51521,15.5 l -0.92208,13.6952 h -33.76844 -33.76844 l -0.65699,-18 z M 20.12783,925.12117 C 17.5328,919.4867 0,867.56531 0,865.51488 c 0,-0.3864 2.20147,-0.39978 4.89215,-0.0297 3.12601,0.42993 5.1329,0.2833 5.55902,-0.40616 1.01799,-1.64714 3.46146,-1.29289 6.25863,0.90736 3.09668,2.43585 3.8776,2.0265 4.72215,-2.47532 C 22.05324,860.19923 22.31503,860 26.045309,860 h 3.954687 l 0.01365,32.75 c 0.0075,18.0125 0.268304,33.69868 0.579542,34.85817 0.479712,1.78713 -0.04186,2.26244 -3.424999,3.12117 L 23.1773,931.74233 Z M 1222.5222,828.83316 c -5.0206,-13.9792 -11.5293,-34.15938 -11.1423,-34.54644 1.0388,-1.03871 13.1083,3.80682 15.7237,6.31255 2.6482,2.5371 2.6759,2.68388 1.1802,6.24943 -0.8424,2.00821 -1.8133,7.89021 -2.1577,13.0711 -0.4102,6.17198 -1.0569,9.56231 -1.8756,9.83315 -0.6872,0.22735 -1.4649,-0.18656 -1.7283,-0.91979 z M 105.06809,824.09563 C 102.36827,820.30408 102.43888,820 106.01905,820 c 3.45337,0 3.44649,-0.16009 -0.51623,-12 -1.85557,-5.54413 -2.55332,-6.54519 -4.74473,-6.80731 -2.406204,-0.28781 -2.973934,-1.55693 -8.946904,-20 L 85.433519,761.5 l 4.533239,-1.17191 c 2.493281,-0.64455 10.270742,-3.1984 17.283242,-5.67521 l 12.75,-4.5033 v 5.33209 c 0,4.02998 1.86736,10.78835 7.64674,27.67521 4.20571,12.28872 8.88191,27.18062 10.39156,33.09312 L 140.78312,827 H 123.95965 107.13619 Z M 993.441,788.31964 c -2.77636,-6.06898 -4.38002,-10.74833 -3.8498,-11.23335 0.49984,-0.45721 12.2361,-4.86545 26.0806,-9.79607 l 25.1718,-8.96477 5.2462,11.36923 c 3.0685,6.64965 4.8652,11.70708 4.3282,12.18307 -1.373,1.21716 -17.8545,6.74531 -36.0682,12.09783 l -16.1502,4.74611 z M 543.98005,772.25 c -0.011,-2.0625 -1.96782,-10.11294 -4.34856,-17.88987 l -4.32861,-14.13986 7.09856,-2.06683 c 3.90421,-1.13675 43.36606,-16.84605 87.693,-34.90955 55.07302,-22.44259 81.03953,-32.56483 82,-31.96518 0.92528,0.57769 3.69142,-0.15071 8.0952,-2.13167 4.27443,-1.92279 6.82412,-2.60577 7.06213,-1.89172 0.23358,0.70072 7.46638,-1.49676 19.39318,-5.89208 l 19.02067,-7.00959 5.24137,2.56632 c 4.63034,2.26714 5.34434,2.38232 6.12464,0.98799 0.75233,-1.34434 1.7867,-1.43283 6.97734,-0.5969 6.04873,0.97412 6.11857,0.95766 9.38908,-2.21225 3.26666,-3.16617 3.30711,-3.17576 4.69849,-1.11446 1.38879,2.05747 1.58397,2.00647 18.67562,-4.88043 9.49969,-3.82781 19.51895,-8.3421 22.26502,-10.03178 C 841.78326,637.38246 844.48497,636 845.041,636 c 1.68993,0 10.99676,7.36807 10.2013,8.07621 -0.40827,0.36344 -2.9923,1.471 -5.7423,2.46125 -6.79366,2.44632 -40.08799,17.19321 -55.79814,24.7144 -11.83901,5.66789 -12.7758,6.31896 -12.5,8.6876 0.25909,2.22513 -0.29133,2.76932 -4.20186,4.15435 l -4.5,1.59382 v 8.11626 8.11627 l -31,12.69632 c -27.2788,11.17227 -58.80563,25.53881 -62.15354,28.32289 -2.54758,2.11853 -2.56752,8.55635 -0.0457,14.76254 2.10869,5.1895 2.26669,6.36375 1.19606,8.88875 l -1.2336,2.90934 -0.68921,-4 c -0.37907,-2.2 -0.87764,-4.9359 -1.10794,-6.07978 -0.23029,-1.14388 -1.92268,-2.88973 -3.76086,-3.87965 -3.23397,-1.74161 -3.62147,-1.73572 -11.97074,0.182 l -8.62858,1.98187 -3.2491,-3.35222 L 646.60769,751 h -10.7184 c -14.45699,0 -23.11126,3.17749 -33.59477,12.33462 -4.78489,4.1795 -9.41585,7.17083 -13.78509,8.90435 l -6.57959,2.61049 -8.6525,-2.92473 c -4.75887,-1.6086 -8.90558,-2.92166 -9.21491,-2.9179 -0.30932,0.004 -1.63292,1.57876 -2.94131,3.5 -2.35618,3.4598 -2.44931,3.49317 -9.75,3.49317 h -7.3711 l -0.0199,-3.75 z m 292.43213,-29.51368 -7.08782,-1.94905 -3.16218,-6.41257 c -1.7392,-3.52691 -3.1613,-6.96655 -3.16023,-7.64363 0.001,-0.67709 3.46161,-3.43494 7.6901,-6.12855 7.23178,-4.60676 7.8698,-4.82427 10.74805,-3.66421 5.63388,2.27069 5.98665,2.19653 8.82604,-1.85538 2.75484,-3.93126 2.75899,-3.96238 1.01634,-7.61675 -1.73021,-3.62828 -1.72355,-3.6906 0.59465,-5.56777 1.28944,-1.04412 2.70523,-1.89841 3.14621,-1.89841 0.44097,0 3.5067,2.26018 6.81272,5.02263 l 6.01095,5.02263 -3.95312,9.71554 c -4.04676,9.94566 -6.72305,13.5099 -15.89389,21.16723 l -4.5,3.75734 z M 404.25,704.78634 c -5.1633,-2.65474 -6.25308,-3.65449 -6.2677,-5.74991 -0.0389,-5.58136 -3.92412,-46.85914 -4.85075,-51.53643 -0.54481,-2.75 -1.25613,-31.6625 -1.58072,-64.25 L 390.96066,524 404.73033,523.9667 C 423.50328,523.9214 423,524.38225 423,507.23663 v -12.94278 l 9.25,-0.61946 c 5.0875,-0.34071 13.81259,-1.67952 19.38909,-2.97515 l 10.13909,-2.35568 3.18107,11.9639 c 1.74958,6.58015 7.19949,25.14627 12.1109,41.25805 8.56962,28.11241 8.92985,29.67912 8.92985,38.83756 0,7.79279 -0.40343,10.37381 -2.19927,14.07018 -2.02267,4.16328 -2.49787,4.52675 -5.91821,4.52675 -7.37735,0 -6.99304,-1.3982 -6.82612,24.83466 l 0.15008,23.58474 -4.22114,2.0403 -4.22113,2.0403 0.65324,24 c 0.35929,13.2 0.90189,25.6875 1.2058,27.75 l 0.55255,3.75 -22.3379,0.009 c -12.28585,0.005 -24.5879,0.22974 -27.3379,0.4999 -4.23299,0.41586 -5.95876,-0.002 -11.25,-2.72225 z m 859.7284,0.96366 c -0.5382,-1.2375 -4.7366,-11.55144 -9.3298,-22.91986 l -8.3512,-20.66986 6.7602,-2.40956 6.7602,-2.40957 2.3016,5.07943 c 1.2658,2.79368 2.4074,5.24253 2.5368,5.44189 0.1294,0.19936 2.3649,-0.36314 4.9676,-1.25 2.6028,-0.88686 4.8772,-1.61247 5.0542,-1.61247 0.1771,0 0.3202,8.8875 0.3182,19.75 v 19.75 l -4.2568,1.75 c -5.3971,2.21883 -5.5806,2.20525 -6.7572,-0.5 z M 213,561.52675 c 0,-0.26029 0.98967,-2.51029 2.19927,-5 L 217.39853,552 H 229.69927 242 v 5 5 h -14.5 c -7.975,0 -14.5,-0.21296 -14.5,-0.47325 z M 1148,554.5 c -3.5751,-1.87163 -7.6653,-3.42479 -9.0896,-3.45148 -1.7502,-0.0328 -2.9513,-0.84297 -3.7064,-2.49988 -1.0342,-2.26986 -0.6396,-2.88873 5.3299,-8.35867 5.5888,-5.12116 7.3465,-6.1204 13.2064,-7.50849 l 6.7597,-1.60118 -5.156,0.20985 c -3.2172,0.13094 -4.9333,-0.16619 -4.564,-0.79015 1.5709,-2.65324 14.6829,-17.5 15.4554,-17.5 1.2978,0 8.7646,6.17975 8.7646,7.25389 0,0.50553 -1.4264,2.90522 -3.1695,5.33263 -2.8466,3.9637 -3.5804,4.41348 -7.2001,4.41348 -4.6132,0 -3.9724,1.16979 1.6196,2.95675 2.0625,0.65909 3.75,1.42244 3.75,1.69633 0,1.39377 -13.6434,23.29093 -14.5,23.27199 -0.55,-0.0122 -3.925,-1.55344 -7.5,-3.42507 z M 50.802256,500.8286 l -0.30226,-5.17139 -5.570085,-1.85197 -5.570085,-1.85196 1.439611,-10.04838 c 1.349789,-9.42142 1.323781,-10.30907 -0.416833,-14.22664 C 39.36156,465.38022 36.686572,461.475 34.438187,459 l -4.087973,-4.5 1.863187,-6.08753 1.863186,-6.08753 10.10483,1.3896 c 5.557656,0.76427 10.652366,1.17948 11.321577,0.92268 0.669211,-0.2568 1.513431,-2.70342 1.876045,-5.43693 l 0.659297,-4.97002 4.73083,1.30477 c 2.601956,0.71762 11.763386,2.30136 20.358732,3.51941 l 15.627898,2.21463 -4.244935,9.70608 C 89.302116,462.88498 81.009593,475.37327 69.202799,489.08833 61.423833,498.12457 53.231634,506 51.610894,506 c -0.278508,0 -0.642396,-2.32713 -0.808638,-5.1714 z M 470.09503,401.03254 C 465.09276,387.97314 461,376.80366 461,376.21147 c 0,-0.59218 0.7875,-1.30299 1.75,-1.57956 0.9625,-0.27658 9.175,-2.74832 18.25,-5.49276 11.30928,-3.42013 21.5875,-5.74267 32.6719,-7.38278 l 16.1719,-2.39288 3.47986,17.98682 c 2.70758,13.99503 3.2434,18.50579 2.41438,20.32529 -0.58601,1.28615 -6.0543,5.56964 -12.15176,9.51886 -9.60543,6.22128 -12.48881,7.54673 -21.58628,9.92291 -5.775,1.50839 -13.26974,3.84885 -16.65497,5.20102 l -6.15497,2.45851 z m 42.97159,-55.73173 c -0.5708,-2.09044 -2.12045,-7.28831 -3.44365,-11.55081 -2.26772,-7.30511 -2.30063,-7.75 -0.57341,-7.75 3.0829,0 3.09409,-1.54881 0.071,-9.83216 l -2.91001,-7.97361 3.3742,-0.39392 3.37419,-0.39392 2.19543,7.39531 c 1.20748,4.06742 2.71411,7.59435 3.34806,7.83762 0.63395,0.24327 2.31291,10e-4 3.73102,-0.53799 4.04627,-1.53839 7.2231,3.96033 8.98362,15.54959 l 1.39011,9.15091 -7.55361,0.66155 c -4.15449,0.36385 -8.31761,0.8813 -9.25138,1.14989 -1.28012,0.36822 -1.95309,-0.44666 -2.73561,-3.31246 z M 89.893379,315.50315 c -15.088048,-4.20778 -22.485365,-5.16629 -24.724001,-3.20362 -1.482957,1.30015 -2.407313,1.11389 -8.27735,-1.66797 L 50.284059,307.5 52.753172,296.43254 c 2.204709,-9.8823 2.695773,-11.06024 4.58575,-11 1.698361,0.0541 2.297314,-0.7724 3.030937,-4.18254 0.883663,-4.10758 1.043578,-4.25 4.772219,-4.25 h 3.857918 v 6.00847 c 0,5.75815 0.08332,5.95644 2,4.75946 1.653961,-1.03292 2,-2.33203 2,-7.50848 V 274 h 3.922946 3.922946 l -2.012265,7.11068 c -1.37052,4.84296 -1.6863,7.43665 -0.990164,8.13278 2.041159,2.04116 3.881584,-0.16853 5.038604,-6.04954 1.12241,-5.70511 1.326729,-5.99948 4.414229,-6.35993 l 3.237345,-0.37794 -0.38299,10.34626 c -0.41118,11.10781 -0.685721,10.25368 6.438109,20.02971 0.13306,0.1826 2.24845,0.8576 4.700844,1.5 l 4.45891,1.16798 -2.12425,4.62001 -2.12426,4.62001 z M 795.5,311.23344 c -5.81847,-2.39241 -6.18872,-2.42235 -12.23761,-0.98962 l -6.23762,1.47744 -2.51238,-3.29391 c -3.09898,-4.06297 -3.09853,-4.20611 0.0234,-7.46466 2.40386,-2.50909 2.81807,-2.59811 7.96437,-1.71147 l 5.42863,0.93529 7.03312,-4.9551 c 6.85107,-4.82684 7.1453,-4.92942 11.36731,-3.96329 l 4.3342,0.9918 -4.3703,10.57532 c -2.40367,5.81642 -4.46543,10.64055 -4.58169,10.72028 -0.11626,0.0797 -2.91139,-0.96521 -6.21139,-2.32208 z m 405.6085,-46.15503 -5.3915,-0.57841 13.1143,-15.58355 c 11.5325,-13.70407 13.6301,-15.73429 17.3915,-16.83343 2.3523,-0.68743 7.1436,-2.80844 10.6469,-4.71335 3.5034,-1.90492 6.4799,-3.32988 6.6143,-3.16658 0.3951,0.4795 -35.2328,41.23 -36.1494,41.3471 -0.4591,0.0586 -3.2609,-0.15366 -6.2261,-0.47178 z m -132.7444,-64.82055 -8.1359,-0.33506 -3.051,-11.2114 c -9.7129,-35.69183 -18.6296,-84.94009 -15.5901,-86.10645 0.8712,-0.33431 2.4731,6.06277 5.5601,22.20325 3.8011,19.87477 4.6692,23.05207 7.0342,25.74565 1.9386,2.20796 4.0153,7.55818 7.3783,19.00947 2.5742,8.76518 5.0131,16.30096 5.4198,16.7462 0.4068,0.44523 8.4457,-1.40941 17.8643,-4.12143 14.5303,-4.18392 17.3025,-4.71676 18.2981,-3.51714 1.4015,1.68877 2.3159,0.7616 -12.5602,12.73574 -6.555,5.27632 -12.405,9.50171 -13,9.38976 -0.5949,-0.11195 -4.7429,-0.35431 -9.2176,-0.53859 z M 23.74249,186.38829 16,180.77659 15.9644,169.13829 C 15.9448,162.73723 15.3104,154.9125 14.5546,151.75 L 13.18043,146 42.340226,145.988 c 19.963303,-0.008 34.600152,0.52021 46.4098,1.67554 l 17.250004,1.68755 v 4.32446 4.32447 l -4.75,0.0269 -4.750004,0.0269 -2.762279,6.22311 c -2.463039,5.54896 -2.760949,7.38768 -2.75,16.97312 l 0.01228,10.74997 H 61.242523 31.48502 Z M 1169,189.82666 c -3.575,-0.50192 -10.6653,-0.64089 -15.7563,-0.30882 l -9.2562,0.60375 1.0512,-2.31079 c 0.8529,-1.87488 1.8349,-2.3108 5.2055,-2.3108 h 4.1543 l 2.4193,-6.15011 2.4193,-6.15012 7.0565,2.40012 c 3.8812,1.32006 7.2141,2.40011 7.4067,2.40011 0.1927,0 1.8446,-3.2625 3.6711,-7.25 3.1976,-6.98045 4.8099,-8.70117 13.9591,-14.8976 0.5434,-0.36803 -0.6506,-3.52069 -2.7657,-7.30291 -2.6696,-4.77378 -3.4311,-7.00569 -2.6933,-7.89465 1.2185,-1.46818 12.9457,-7.20344 13.461,-6.58315 2.2762,2.74023 8.3874,14.49462 8.0258,15.43694 -0.262,0.68284 -3.4873,2.49857 -7.1674,4.03495 -3.6801,1.53638 -6.8427,2.9069 -7.0283,3.04561 -0.3961,0.29614 1.8428,11.54841 2.5247,12.68875 0.2559,0.42786 3.7055,-1.01074 7.6659,-3.1969 13.3572,-7.37337 10.1221,-3.00108 -7.9375,10.72743 -9.6006,7.29833 -18.0093,13.41843 -18.6857,13.60023 -0.6766,0.1818 -4.155,-0.0801 -7.73,-0.58204 z m -597.22092,-5.57307 c -3.73247,-3.99148 -5.72165,-4.55715 -17.26183,-4.90882 -13.12369,-0.39992 -43.64932,-3.67008 -59.01725,-6.32241 -6.05,-1.04416 -17.975,-2.64665 -26.5,-3.56108 -21.3241,-2.28731 -20,-0.66717 -20,-24.47149 v -18.66158 l 16.17828,-1.15727 c 13.4082,-0.95912 16.533,-1.48043 18.25,-3.04462 1.98521,-1.80854 5.55845,-1.91066 85.57172,-2.44551 51.50964,-0.34431 93.84419,-0.1534 110.5,0.49832 26.84741,1.0505 27.08195,1.07882 41.5,5.0117 7.975,2.17538 23.725,6.15243 35,8.83789 37.61107,8.95813 48.71681,12.96199 76.6365,27.6291 l 16.13651,8.47702 -1.54327,4.82591 c -1.52662,4.77386 -1.57572,4.8146 -4.55137,3.77729 -2.14845,-0.74896 -14.89221,-0.56299 -44.59323,0.65074 -22.87183,0.93465 -64.31014,2.36142 -92.08514,3.17058 -27.775,0.80916 -63.325,1.89901 -79,2.42188 -58.58361,1.95416 -52.63989,2.03248 -55.22092,-0.72765 z M 158,178.60504 v -7.39497 l 4.25,-0.44434 c 2.3375,-0.24438 4.31343,-0.40415 4.39096,-0.35503 0.0775,0.0491 0.31127,3.5768 0.51943,7.8393 l 0.37848,7.75 H 162.76943 158 Z M 1260.2541,93.184789 c -5.6352,-3.67663 -10.2477,-7.03332 -10.25,-7.4593 0,-0.42598 1.826,-3.67223 4.0627,-7.21389 5.3734,-8.50827 8.2752,-18.8001 7.7271,-27.406895 -0.3668,-5.761372 0,-7.532249 3.0021,-14.581257 3.3197,-7.789162 4.955,-18.190122 5.1531,-32.773447 0.045,-3.319756 0.3377,-3.75 2.5509,-3.75 h 2.5 l -0.032,48.25 c -0.032,48.740909 -0.2528,51.92853 -3.5785,51.684789 -0.4893,-0.0359 -5.5003,-3.07337 -11.1357,-6.75 z M 724.50919,33.073413 c -9.19536,-0.754239 -9.37128,-2.173857 -1.06244,-8.573413 3.57046,-2.75 6.76091,-5.7875 7.08988,-6.75 1.02321,-2.993625 1.90862,-1.986193 4.62386,5.261096 l 2.62676,7.011096 -2.52849,1.988904 c -1.39066,1.093897 -2.80529,1.90944 -3.14362,1.812317 -0.33833,-0.09712 -3.761,-0.434623 -7.60595,-0.75 z"
       id="path1091" />
  </g>
</svg>
