<?xml version="1.0" encoding="UTF-8" standalone="no"?>
<!-- Created with Inkscape (http://www.inkscape.org/) -->

<svg
   version="1.1"
   id="svg319"
   width="1200"
   height="1200"
   viewBox="0 0 1200 1200"
   sodipodi:docname="staticmap-hong-kong-2-road-13.svg"
   inkscape:version="1.1.1 (3bf5ae0d25, 2021-09-20)"
   xmlns:inkscape="http://www.inkscape.org/namespaces/inkscape"
   xmlns:sodipodi="http://sodipodi.sourceforge.net/DTD/sodipodi-0.dtd"
   xmlns="http://www.w3.org/2000/svg"
   xmlns:svg="http://www.w3.org/2000/svg">
  <defs
     id="defs323" />
  <sodipodi:namedview
     id="namedview321"
     pagecolor="#ffffff"
     bordercolor="#666666"
     borderopacity="1.0"
     inkscape:pageshadow="2"
     inkscape:pageopacity="0.0"
     inkscape:pagecheckerboard="0"
     showgrid="false"
     inkscape:zoom="0.7275"
     inkscape:cx="599.31271"
     inkscape:cy="600"
     inkscape:window-width="3440"
     inkscape:window-height="1369"
     inkscape:window-x="-8"
     inkscape:window-y="-8"
     inkscape:window-maximized="1"
     inkscape:current-layer="g325" />
  <g
     inkscape:groupmode="layer"
     inkscape:label="Image"
     id="g325">
    <path
       style="fill:#000000"
       d="m 381,1199.1399 c 0,-0.542 -1.36105,-10.5545 -3.02457,-22.25 -2.15574,-15.1562 -3.86231,-23.5626 -5.94096,-29.2646 -1.60402,-4.4 -3.54982,-10.475 -4.324,-13.5 -2.00525,-7.8352 -68.19446,-111.8896 -72.54127,-114.0403 -1.99175,-0.9854 -6.26469,-6.4382 -13.15124,-16.7826 -9.21839,-13.84699 -10.03648,-15.44309 -8.49376,-16.57119 1.55676,-1.1383 1.1464,-2.232 -4.65853,-12.4157 -4.28219,-7.5124 -6.93844,-11.1712 -8.11567,-11.1789 -1.88049,-0.012 -2.24919,-1.6752 -0.85815,-3.8706 0.512,-0.8081 0.25672,-3.6466 -0.62952,-7 -1.05788,-4.0029 -1.3456,-8.5792 -0.99089,-15.76071 l 0.49984,-10.11997 -2.88368,1.08847 c -2.1111,0.79685 -2.73219,1.56575 -2.31825,2.86997 0.68064,2.14452 -0.42076,2.33666 -1.95911,0.34176 -0.87089,-1.12936 -2.08038,-1.24654 -5.61024,-0.54355 -2.475,0.4929 -14.77457,0.91579 -27.33239,0.93974 l -22.83238,0.0435 -7.16762,-3.13541 C 184.72543,926.26533 167.1,918.31357 149.5,910.31922 127.09591,900.14273 114.10173,894.84237 106.16762,892.64383 l -11.33239,-3.14021 -16.66529,2.48001 -16.66529,2.48001 -12.51747,-2.04038 c -6.88461,-1.12221 -14.76745,-3.0083 -17.51742,-4.1913 -4.93824,-2.12437 -5.16391,-2.42412 -18.28465,-24.28649 -11.97038,-19.94558 -13.25504,-22.53601 -12.9849,-26.18314 0.29489,-3.98139 0.51546,-3.68745 13.48883,17.9756 12.16014,20.30513 13.61024,22.30284 18.58846,25.60819 4.81141,3.1946 6.64219,3.74528 16.81097,5.05658 10.61094,1.36832 12.69623,1.32971 29.72349,-0.55033 l 18.31197,-2.0219 9.68803,2.81612 c 9.27911,2.69724 32.37465,12.52366 72.18804,30.71372 l 18.5,8.45234 16.17655,0.62664 c 11.25801,0.4361 16.28651,0.29675 16.5382,-0.45831 0.1989,-0.59672 5.96946,-1.71396 12.82345,-2.48275 6.85399,-0.76879 13.10753,-1.50525 13.89675,-1.63657 1.4662,-0.24398 2.83392,-4.36068 5.94092,-17.88167 0.96625,-4.20488 2.49345,-8.76948 3.39378,-10.14356 1.33649,-2.03973 1.42902,-3.04926 0.50411,-5.49963 -1.08076,-2.86328 -0.84156,-3.33956 5.20126,-10.35644 5.39138,-6.26043 6.94368,-7.46185 10.42956,-8.0721 3.41797,-0.59836 5.36234,-2.04577 11.75432,-8.75 7.56696,-7.93661 7.71848,-8.03304 12.62288,-8.03304 2.83743,0 6.95781,0.88196 9.61814,2.05875 9.13377,4.0403 9.38611,3.87337 28.05441,-18.55875 15.43809,-18.55066 17.97468,-22.21025 35.00331,-50.5 l 18.35905,-30.5 19.63418,-22.68148 19.63417,-22.68148 11.70748,-5.6294 c 6.43911,-3.09617 12.70526,-6.56661 13.92478,-7.71211 2.59518,-2.43767 4.49777,-7.27723 18.83109,-47.90028 l 10.72458,-30.39525 -0.1483,-23 c -0.0816,-12.65 -0.87299,-31.325 -1.75872,-41.5 l -1.61041,-18.5 2.58747,-16.5 c 5.44163,-34.70058 5.33697,-31.4749 1.40114,-43.18501 -1.90681,-5.67324 -4.0296,-12.78999 -4.71731,-15.81499 -1.34632,-5.92199 -3.0861,-8 -6.69787,-8 -1.25883,0 -6.73212,-1.77022 -12.16287,-3.93383 -5.43075,-2.1636 -12.6207,-4.24456 -15.97766,-4.62436 -3.88273,-0.43928 -6.68853,-1.33692 -7.71125,-2.46701 -2.73829,-3.02578 -0.2541,-9.27885 7.19136,-18.1017 l 6.46648,-7.66276 7.68249,-1.10246 c 6.26754,-0.89941 8.69546,-0.82888 13.18248,0.38296 3.025,0.81698 5.8375,1.49076 6.25,1.49729 0.4125,0.007 0.76389,-4.37563 0.78088,-9.73813 0.0436,-13.78089 1.49184,-23.77272 3.77675,-26.05763 1.0287,-1.0287 4.29819,-6.26557 7.26555,-11.6375 l 5.3952,-9.76714 6.53895,0.64433 c 6.504,0.64089 6.61097,0.6099 20.01581,-5.79872 9.50309,-4.54326 17.31003,-9.26197 26.47686,-16.00326 7.15,-5.25811 14.2375,-9.83668 15.75,-10.1746 1.5125,-0.33791 2.75,-0.8766 2.75,-1.19708 0,-0.32048 -1.14695,-2.53981 -2.54878,-4.93185 -2.31863,-3.95645 -2.41478,-4.54048 -1.06481,-6.46784 1.35603,-1.936 1.2309,-2.56709 -1.45122,-7.31955 C 568.2421,304.66439 567,300.9863 567,298.97276 c 0,-3.17082 -0.60464,-3.91167 -6.5971,-8.08328 -5.97086,-4.15658 -6.87838,-4.49447 -9.56035,-3.55953 -2.60465,0.90799 -3.40977,0.67425 -6.6529,-1.93142 -4.71827,-3.79085 -8.08367,-5.47331 -16.43965,-8.21866 -5.77444,-1.89719 -6.75,-2.55538 -6.75,-4.55406 0,-2.0359 1.05121,-2.68643 8.17456,-5.05872 l 8.17455,-2.72238 6.07545,6.58034 c 3.34149,3.61919 7.96876,7.50667 10.28282,8.63884 3.74206,1.83083 4.79167,1.93319 9.49031,0.92551 2.9056,-0.62314 6.25326,-1.76877 7.43924,-2.54585 1.76291,-1.15511 3.32381,-1.20957 8.55569,-0.29847 l 6.39938,1.1144 16.44459,15.90112 c 11.51649,11.13589 17.19661,15.95583 18.954,16.08367 7.33155,0.53334 17.68231,-0.31364 19.35931,-1.58415 1.01745,-0.77081 2.90176,-4.29932 4.18736,-7.84111 l 2.33746,-6.43963 -2.81361,-2.69561 c -2.38431,-2.28431 -3.36049,-2.59301 -6.39783,-2.0232 -2.70292,0.50707 -5.31516,-0.007 -10.62376,-2.08946 C 623.16779,287.05209 620,285.60839 620,285.3629 c 0,-0.24549 2.24642,-6.1503 4.99203,-13.1218 l 4.99204,-12.67546 14.75796,-10.40166 c 8.11689,-5.72091 14.96703,-10.56657 15.22255,-10.76812 0.25551,-0.20155 -1.75519,-2.2574 -4.46823,-4.56855 -2.71304,-2.31115 -6.00298,-5.11617 -7.31097,-6.23338 l -2.37818,-2.0313 2.82923,-5.76868 c 2.29463,-4.67866 3.21038,-5.68063 4.8464,-5.30272 1.10944,0.25627 5.48984,1.22063 9.73421,2.14302 7.34513,1.59624 7.84864,1.88508 10.44758,5.99311 2.69997,4.26773 2.83046,4.33432 11.65735,5.94922 4.90975,0.89825 9.14831,1.41169 9.41903,1.14098 0.27071,-0.27072 -5.33184,-11.65224 -12.45012,-25.29228 -12.00893,-23.01148 -13.14708,-25.67544 -15.78137,-36.93791 l -2.83904,-12.13785 2.60697,-20.02453 2.60697,-20.02452 10.49533,-23.098858 c 10.26915,-22.60107 10.59479,-23.54498 15.10996,-43.79912 4.84668,-21.741166 5.14533,-27.331861 1.56249,-29.249339 -3.61116,-1.932635 -3.41772,-19.02793225 0.21531,-19.02793225 0.56121,0 0.59764,0.712342 0.0895,1.74999995 -0.47135,0.9625 -0.79913,4.641083 -0.72841,8.1746293 0.10041,5.017286 0.53706,6.723322 1.99335,7.788185 2.45856,1.797747 3.05651,0.272473 3.90571,-9.9628143 l 0.643,-7.74999995 h 3.41468 c 1.87807,0 3.40535,0.3375 3.39395,0.75 -0.0114,0.41249995 -0.92509,6.14999995 -2.03041,12.75000025 -1.10532,6.6 -2.89511,18.266268 -3.97731,25.925041 -2.74376,19.41772 -7.57757,34.4791 -18.54222,57.77462 l -9.27216,19.699668 -2.43827,18.30033 -2.43827,18.30034 3.51402,14.5 c 3.45273,14.24707 3.72259,14.87504 15.47086,36 6.57626,11.825 12.04065,21.59634 12.14309,21.7141 0.25037,0.28779 12.88438,-14.16196 38.22102,-43.7141 11.55285,-13.475 28.01792,-31.475 36.58905,-40 l 15.58387,-15.5 -1.78583,-4.7005 c -1.37085,-3.60819 -2.05509,-10.23104 -2.94449,-28.499998 -0.63725,-13.08973 -1.42606,-25.32481 -1.75291,-27.18908 -0.32684,-1.86427 -2.7824,-7.10731 -5.45679,-11.65121 L 775,46.322802 V 23.224061 c 0,-14.7325273 0.36219,-23.09879025 1,-23.09879025 0.63758,0 1,8.30578995 1,22.91737225 v 22.917369 l 4.66379,7.83263 c 2.79645,4.69652 4.98247,9.78509 5.45972,12.70901 0.43776,2.68201 0.9948,5.07526 1.23786,5.31832 0.24307,0.24307 3.63592,0.88456 7.53966,1.42553 5.80635,0.80464 8.18949,0.67726 13.09835,-0.70009 6.24814,-1.75314 6.71444,-2.41245 4.96348,-7.01784 -0.68084,-1.79074 -0.79956,-10.22994 -0.34557,-24.565096 0.64327,-20.311606 0.82052,-21.837205 2.53715,-21.837205 1.66457,0 1.84556,-0.931655 1.84556,-9.5000003 0,-5.666667 0.40351,-9.49999995 1,-9.49999995 0.5972,0 1,3.86550395 1,9.59651295 v 9.5965143 l 4.75,-0.447229 c 2.6125,-0.245976 9.52917,-1.24471 15.37039,-2.219408 l 10.62039,-1.77218 0.59679,-5.7097903 c 0.8959,-8.57154595 1.22369,-9.04441995 6.26942,-9.04441995 H 862 V 8.6940497 c 0,8.0805183 3.17489,24.4700613 6.08868,31.4312213 2.25031,5.376061 11.17606,17.955251 12.27857,17.304351 2.74272,-1.61925 75.50168,-51.9337293 78.77665,-54.4758553 2.99711,-2.32643195 4.62808,-2.82849595 9.18846,-2.82849595 5.24469,0 5.9892,0.335052 13.76628,6.19526195 5.08329,3.8303743 9.97378,6.6420613 12.81155,7.3657353 l 4.58981,1.170472 0.6536,-6.9360223 c 0.9376,-9.949731 1.8364,-9.578563 1.9079,0.787886 0.034,4.9041673 0.6101,12.0666673 1.2808,15.9166673 l 1.2193,7 3.9692,-0.101045 c 2.1831,-0.05558 9.5942,-0.450556 16.4692,-0.877737 14.2021,-0.882454 13.4338,-0.479032 23.9144,-12.55606 4.5435,-5.235523 5.9253,-7.671184 6.95,-12.2500003 1.1131,-4.97356595 1.5846,-5.71515795 3.634,-5.71515795 1.4019,0 2.54,0.708205 2.8123,1.74999995 0.4355,1.666666 0.4628,1.666666 0.5733,0 0.1012,-1.52674495 2.116,-2.66126495 2.116,-1.19150595 0,0.93296095 -5.8772,23.63023325 -7.371,28.46609225 l -1.3977,4.524585 19.0041,8.77238 c 10.4522,4.82481 19.1856,8.5908 19.4075,8.36886 0.2219,-0.22193 0.6903,-7.04276 1.0408,-15.157408 0.404,-9.354761 1.0732,-15.161221 1.8287,-15.866956 1.1912,-1.112757 0.8961,-9.450231 -0.3842,-10.8554743 -0.5906,-0.648113 -9.3064,0.172953 -17.1282,1.6135343 -2.7911,0.514053 -4.0818,0.171078 -6.3726,-1.6933613 -2.4668,-2.007723 -2.7734,-2.789484 -2.1705,-5.534361 0.8655,-3.94052995 2.7129,-4.29554995 1.9279,-0.370484 -0.4528,2.264321 -0.064,3.154569 1.959,4.479772 2.7317,1.789886 4.7586,1.59575 22.0544,-2.112352 5.758,-1.234479 8.0252,-2.167522 8.3666,-3.443321 0.5875,-2.19455995 2.2352,-2.30059595 2.2352,-0.143838 0,1.41168 1.12,1.517863 9.25,0.876927 5.0875,-0.401078 10.2918,-1.123851 11.5651,-1.606162 1.2733,-0.48230995 5.7733,-0.82787895 10,-0.76793095 l 7.6849,0.108996 -6,1.14100395 -6,1.141004 -2.0856,12.5000003 c -1.1471,6.875 -1.7908,12.846275 -1.4305,13.2695 0.7585,0.890922 35.2125,10.867391 35.7331,10.346825 0.191,-0.190957 1.2538,-3.445249 2.3619,-7.23176 2.0084,-6.863005 2.0494,-10.063004 0.3145,-24.5548243 -0.5236,-4.373074 -0.7925,-4.732391 -4.2263,-5.646648 -2.7025,-0.71955195 1.4623,-0.95066595 15.8329,-0.87860395 17.0825,0.08566 18.0123,0.165829 7.5,0.64664795 l -12,0.548863 0.3231,6.885715 c 0.2376,5.0633073 0.9321,7.8503303 2.6239,10.5303803 2.533,4.012423 17.6561,18.083905 19.4355,18.083905 0.6454,0 1.1175,1.768807 1.1175,4.187091 v 4.18709 l -2.9339,-2.81087 c -2.8957,-2.774287 -3.0487,-2.802177 -11.75,-2.142711 -15.1756,1.150143 -13.6471,-0.103115 -17.2061,14.108461 -1.7105,6.83014 -3.11,12.83415 -3.11,13.34223 0,0.50808 7.875,2.40418 17.5,4.21356 l 17.5,3.28979 v 3.39214 c 0,3.16972 -0.1803,3.35538 -2.75,2.83161 -9.0396,-1.84251 -33.5782,-5.60352 -33.9745,-5.20724 -0.2598,0.25981 -2.6878,9.29979 -5.3956,20.08884 -2.7077,10.789048 -5.3559,20.382248 -5.8848,21.318228 -0.5288,0.93598 -4.7939,17.60689 -9.4779,37.04647 -7.4813,31.04862 -9.7912,38.88845 -19.0041,64.5 l -10.4876,29.15531 7.3564,28.5 7.3565,28.5 12.3808,-0.22815 12.3808,-0.22816 3.2997,-3.77184 c 9.8343,-11.24146 10.164,-11.76091 9.3633,-14.75493 -0.4213,-1.57515 -1.6428,-3.34833 -2.7145,-3.94041 -1.0717,-0.59208 -2.1605,-1.21348 -2.4195,-1.38088 -1.0657,-0.68863 2.6856,-2.16608 5.536,-2.18032 2.0305,-0.0101 5.3335,-1.6194 9.7867,-4.7682 6.3969,-4.5232 6.9349,-5.22598 11.1311,-14.54231 6.5125,-14.45904 6.4417,-13.87627 1.5921,-13.10079 -4.5296,0.72432 -4.6976,0.5009 -2.6299,-3.49763 1.0794,-2.08731 1.6186,-8.96935 2.1311,-27.20034 0.5487,-19.52195 1.003,-24.95619 2.2701,-27.15516 1.0711,-1.85893 2.1401,-2.5726 3.3016,-2.20398 1.1989,0.38052 2.4928,-0.59581 4.2849,-3.23301 3.2417,-4.77057 3.54,-1.78318 0.3173,3.17783 -1.4722,2.26631 -2.8062,3.29073 -3.8588,2.9634 -3.2767,-1.01892 -3.7725,1.93054 -4.468,26.57894 -0.3796,13.45627 -1.1166,25.29198 -1.6378,26.30159 -1.2765,2.47309 -0.575,2.93031 3.0243,1.97136 1.69,-0.45027 4.3908,-2.52551 6.1097,-4.69451 2.0353,-2.56846 3.0806,-3.312 3.0806,-2.19137 0,0.93288 -1.2852,3.35726 -2.8559,5.38751 -1.5708,2.03025 -5.2629,9.21253 -8.2047,15.96064 l -5.3488,12.26928 -8.709,5.73072 c -5.6487,3.7169 -8.5804,6.25783 -8.3428,7.23072 1.5737,6.44525 1.6126,6.33726 -5.0077,13.88879 -3.5626,4.06384 -6.2645,7.73351 -6.0041,8.15482 0.2603,0.42131 8.3712,5.8676 18.024,12.10285 14.5055,9.36983 18.0719,12.1491 20.5547,16.01832 1.6523,2.57482 3.6544,5.22118 4.4492,5.8808 0.7948,0.65962 1.4451,1.88895 1.4451,2.73185 0,2.25321 -3.21,-0.87119 -7.0615,-6.87323 -2.5893,-4.03506 -6.082,-6.7576 -21.7614,-16.96291 l -18.6771,-12.1564 -13.0986,0.65447 -13.0985,0.65446 -5.301,-15.29691 c -11.679,-33.70134 -10.8277,-31.79691 -14.2131,-31.79691 -2.4002,0 -2.9201,-0.36012 -2.5268,-1.75 0.2725,-0.9625 5.7174,-15.82498 12.0998,-33.02773 11.331,-30.54052 11.96,-32.68183 26.6874,-90.8506 8.2956,-32.76508 14.8543,-59.801548 14.5748,-60.081048 -0.2795,-0.27949 -12.8326,-3.1126 -27.8957,-6.29582 l -27.3875,-5.78765 -17.9204,-8.23926 c -20.3821,-9.3711 -29.4082,-12.60573 -30.4539,-10.91369 -0.3764,0.60906 -1.2301,3.54603 -1.8972,6.52659 -0.7444,3.32644 -1.7409,5.41921 -2.5805,5.41921 -0.851,0 -2.3686,3.30601 -4.0168,8.75 -7.9316,26.19922 -14.6103,47.721608 -14.8977,48.009058 -0.1797,0.17966 -5.8949,-1.88099 -12.7005,-4.57924 -6.8056,-2.69824 -20.06715,-7.45686 -29.47013,-10.574698 l -17.09634,-5.66879 -4.17571,-10.574 -4.17571,-10.57399 1.64595,-5.86611 c 1.21093,-4.31572 2.20786,-6.03076 3.77204,-6.4891 1.16936,-0.34264 9.93718,-3.09364 19.48405,-6.11332 l 17.35795,-5.49032 -0.608,-3.03975 C 1004.2736,42.243156 1004,40.529578 1004,40.107064 c 0,-3.172964 -53.23756,14.046668 -60.46052,19.555898 -3.3289,2.53907 -3.35885,2.63588 -4.07762,13.18118 -0.72045,10.56995 -0.74227,10.64003 -4.34297,13.94745 -4.27016,3.92234 -4.83203,3.97482 -13.0056,1.21456 -3.47883,-1.17482 -6.62309,-1.73183 -7.05608,-1.25 -0.42956,0.47802 -7.86135,17.969118 -16.51508,38.869118 -21.77115,52.58048 -26.29862,59.13816 -53.54213,77.55156 -17.50289,11.82989 -17.43509,11.7715 -29.14327,25.10033 -18.05135,20.55004 -18.62104,21.47448 -24.44186,39.66236 -2.87165,8.97284 -5.94963,17.11917 -6.83995,18.10296 -0.89032,0.9838 -3.5214,5.34239 -5.84684,9.68576 -4.06715,7.59646 -4.50922,8.04432 -11.61469,11.7668 -6.29796,3.29944 -9.24558,4.13364 -20,5.66014 -6.93736,0.98471 -14.86339,2.25446 -17.61339,2.82167 -2.75,0.56721 -12.58781,1.81072 -21.8618,2.76336 -15.34611,1.57638 -17.77311,2.10147 -27,5.84152 l -10.1382,4.10945 -0.66239,4.96704 c -0.36432,2.73188 -0.70182,12.95751 -0.75,22.72363 -0.0513,10.39805 -0.725,22.00158 -1.62567,28 -1.47111,9.7975 -1.71582,10.42458 -5.62132,14.40489 -2.73577,2.78816 -5.28074,4.36691 -7.71194,4.78401 -1.99577,0.34239 -7.67868,1.51917 -12.62868,2.61505 -11.42847,2.53016 -12.15626,3.57003 -14.48651,20.69869 l -1.66779,12.25922 5.32715,8.71901 c 2.92993,4.79545 5.32715,9.55382 5.32715,10.57416 0,5.51182 -5.00638,19.67174 -12.85763,36.36616 -4.86857,10.35223 -9.35145,20.39723 -9.96197,22.32223 -1.87062,5.89814 -3.14244,23.0059 -2.23026,30 1.65688,12.70406 9.94162,42.9819 12.96516,47.38315 5.93649,8.6415 16.91638,32.16977 18.06392,38.70828 0.61861,3.52472 2.43405,11.13357 4.03433,16.90857 5.25807,18.97512 6.98645,28.81751 6.98645,39.78492 0,10.14473 -0.0821,10.51752 -3.64467,16.54682 -2.00457,3.39254 -3.65457,6.65473 -3.66667,7.24931 -0.0121,0.59457 3.02737,5.45474 6.75438,10.80037 5.50467,7.89532 10.86415,13.51012 28.55848,29.91895 18.12438,16.80763 24.31747,23.327 36.88038,38.82338 8.30404,10.24306 16.77352,19.90152 18.82106,21.46326 3.5868,2.73578 18.09926,7.40214 23.04403,7.4096 1.23584,0.002 11.32377,-2.69661 22.41761,-5.99661 11.09384,-3.3 20.96272,-6 21.93084,-6 3.62184,0 20.23561,4.98962 22.03456,6.61765 1.7794,1.61033 1.87,1.57092 1.87,-0.81344 0,-1.37817 0.41936,-3.81041 0.9319,-5.40499 0.51255,-1.59457 1.10664,-6.83208 1.3202,-11.6389 0.35035,-7.88587 0.2034,-8.79836 -1.50423,-9.34034 -1.04088,-0.33037 -1.67814,-1.12251 -1.41613,-1.76032 2.04508,-4.97828 2.04423,-4.93105 0.0699,-3.87966 -1.0459,0.55697 -6.85163,1.53164 -12.90163,2.16595 -9.33077,0.97827 -11.64412,0.92514 -15.24469,-0.3501 -3.72804,-1.3204 -4.82349,-1.32775 -9,-0.0604 -2.61542,0.79362 -5.02447,1.44781 -5.35344,1.45377 -0.32896,0.006 -1.39211,-1.74994 -2.36255,-3.90198 -1.89968,-4.21273 -3.59038,-5.0519 -10.22193,-5.07355 -3.21585,-0.0105 -4.3199,0.4189 -4.77657,1.85773 -0.35194,1.10887 -2.85528,2.73675 -6.14375,3.99517 -4.73275,1.81112 -6.18091,1.96487 -9.83666,1.04435 -3.43854,-0.86584 -4.72236,-1.85432 -6.48762,-4.99517 -2.46499,-4.38586 -3.21918,-4.58816 -8.64813,-2.3198 l -3.8196,1.59593 -2.62323,-3.21412 c -2.41967,-2.9647 -2.94149,-3.16035 -6.72445,-2.52122 -6.27688,1.06047 -17.79549,-3.49397 -31.08147,-12.28956 -1.09112,-0.72234 -1.0641,-1.49879 0.15354,-4.41301 1.46893,-3.51566 1.45589,-3.55766 -2.21808,-7.1452 -2.81686,-2.75062 -4.52616,-3.60879 -7.18794,-3.60879 -2.82168,0 -3.83333,-0.57745 -5.26873,-3.00738 l -1.77651,-3.00739 3.64577,-4.44918 c 3.50967,-4.28308 3.71849,-4.9894 5.59393,-18.92027 l 1.94816,-14.4711 -3.07259,-12.17054 c -2.87134,-11.37339 -3.00275,-12.67172 -2.00634,-19.82234 l 1.06625,-7.6518 -2.96737,-2.5 c -2.30869,-1.94506 -3.20251,-3.81712 -4.02669,-8.43366 -1.28553,-7.20076 -1.29356,-7.56634 -0.16617,-7.56634 0.49123,0 1.3852,2.8125 1.98659,6.25 0.88627,5.06586 1.67892,6.73066 4.18369,8.78696 l 3.09026,2.53696 -1.11295,8.12852 c -1.05319,7.69209 -0.95039,8.77244 1.91471,20.1211 l 3.02766,11.99257 -2.05742,15.25403 c -1.94831,14.44509 -2.23517,15.47094 -5.40916,19.34438 -2.87403,3.50737 -3.16961,4.33943 -2.07389,5.83792 0.78653,1.07565 2.59722,1.74756 4.70939,1.74756 2.72881,0 4.30628,0.89128 7.70293,4.35222 4.22888,4.3089 4.25742,4.38602 2.8681,7.75 l -1.40329,3.39778 5.76233,3.6754 c 8.7536,5.58334 19.32588,9.0937 25.0265,8.30966 4.35554,-0.59904 4.78102,-0.44881 6.81358,2.40565 l 2.16794,3.04459 5.07171,-1.99909 c 5.64874,-2.22652 6.26707,-1.92816 8.9082,4.29854 1.7288,4.07579 7.0059,5.27246 13.31325,3.01899 3.01096,-1.07575 5.27714,-2.6091 5.91052,-3.99921 0.87145,-1.91262 1.79907,-2.25246 6.11672,-2.24088 7.56045,0.0203 9.17809,0.74764 11.08943,4.98624 l 1.72506,3.82549 4.95366,-1.47108 c 4.43643,-1.31748 5.46283,-1.30196 9.83013,0.14862 4.14125,1.3755 6.3115,1.45969 14.39442,0.55839 5.23488,-0.58372 9.66822,-1.06131 9.85188,-1.06131 0.18366,0 2.0498,-2.25 4.14698,-5 2.70283,-3.54419 4.50963,-5 6.20548,-5 2.21663,0 2.39407,0.38581 2.41468,5.25 0.0294,6.93358 2.39256,10.25708 6.63139,9.32608 2.21868,-0.48731 3.28974,-1.53057 4.22409,-4.11446 1.02359,-2.8307 1.76394,-3.46162 4.06201,-3.46162 2.3475,0 2.91319,-0.51459 3.43527,-3.125 0.34375,-1.71875 0.625,-4.19375 0.625,-5.5 0,-3.03537 1.06217,-3.00218 4,0.125 2.95064,3.14081 7.47501,3.34946 9.04437,0.4171 0.99324,-1.85589 1.67823,-2.00629 6.28518,-1.38001 6.7061,0.91165 13.6499,4.51205 16.17045,8.38448 1.1,1.68997 2.2298,3.07397 2.51067,3.07555 0.28087,0.002 2.4621,-2.44265 4.84718,-5.43163 3.29652,-4.1312 5.5248,-5.86182 9.29144,-7.21629 3.46114,-1.24461 5.56676,-2.77173 6.98438,-5.06548 1.97749,-3.19964 2.20659,-3.28372 8.94789,-3.28372 H 931 v 4.5 4.5 h 4.44838 c 6.15715,0 19.33133,-4.34698 24.09377,-7.95003 3.73145,-2.82305 4.50127,-2.99798 13.45785,-3.05811 10.44186,-0.0701 8.74725,0.70028 20.12221,-9.14777 5.22667,-4.52508 5.715,-4.71517 17.37779,-6.76461 6.6,-1.15979 13.1531,-2.34435 14.5625,-2.63236 1.7546,-0.35856 4.245,-2.87628 7.8989,-7.98539 2.935,-4.10395 5.6249,-7.46173 5.9774,-7.46173 0.3526,0 1.9551,2.25 3.5612,5 2.7854,4.76918 3.1182,5 7.2101,5 4.2131,0 4.2899,0.0609 4.2899,3.40439 0,3.18621 -0.3548,3.55144 -5.5357,5.69879 -5.0255,2.08297 -5.6306,2.6717 -6.5665,6.38854 -1.0135,4.02497 -1.2802,4.22407 -15.7867,11.78505 -10.0555,5.24106 -15.1873,8.49716 -16.1104,10.22199 -1.9472,3.63825 -11.22896,10.50124 -14.20234,10.50124 -1.38429,0 -4.49273,1.57063 -6.90763,3.49029 -4.10646,3.26432 -4.86349,3.49093 -11.69275,3.5 -7.18276,0.01 -7.31881,0.0579 -8.32999,2.95856 -0.71598,2.05385 -2.06598,3.29142 -4.44798,4.07755 -1.88101,0.62079 -3.43002,1.43131 -3.44225,1.80115 -0.0122,0.36985 -0.79973,1.66191 -1.75,2.87125 -1.51613,1.92948 -4.85117,2.69911 -27.22776,6.28339 -22.64158,3.62673 -26.677,4.01356 -36,3.45096 -12.14844,-0.73311 -15.6144,0.16226 -17.09756,4.41686 -0.97942,2.80957 -1.17193,2.87373 -10.61287,3.53737 -7.39094,0.51953 -9.90576,1.07305 -10.8707,2.39268 -0.69044,0.94424 -1.59008,1.38206 -1.9992,0.97295 -0.64099,-0.641 -11.72778,4.82568 -15.07182,7.43161 -1.69688,1.32235 37.15358,64.61042 43.9802,71.64451 11.82267,12.18199 15.98919,15.11672 24.9693,17.5874 8.36597,2.3017 8.48224,2.30552 24.45264,0.80308 l 16.04669,-1.50962 10.35166,3.62844 c 8.8823,3.11341 13.09473,3.91105 29.67662,5.61944 19.29324,1.98773 19.33674,1.99772 26.53794,6.09487 5.9596,3.39076 8.5965,5.81317 15.175,13.9407 7.3591,9.0918 8.3259,9.9191 12.7654,10.9226 2.6418,0.5971 9.8544,3.5139 16.028,6.4817 9.4072,4.5223 12.6668,5.5724 20.1305,6.4853 8.8831,1.0866 8.9166,1.1015 13.1772,5.8532 l 4.2714,4.7638 -0.059,11.5 c -0.033,6.32499 -0.3501,17.47879 -0.7052,24.78619 -0.621,12.7768 -0.5591,13.3969 1.6152,16.1715 1.4141,1.8045 8.7182,6.2367 19.5,11.8328 15.8088,8.2052 18.4882,9.25 32.2966,12.5929 13.1774,3.1902 16.7984,3.6705 29,3.8468 7.6683,0.1108 15.4049,-0.1565 17.1924,-0.5938 l 3.25,-0.7953 v 4.9682 c 0,4.8214 -0.096,4.985 -3.25,5.5387 -17.1459,3.0103 -37.6548,1.3884 -60.6299,-4.7947 -23.4118,-6.3006 -27.1718,-7.7536 -38.308,-14.804 -9.6224,-6.0919 -10.0889,-6.5641 -18.5241,-18.7493 -4.7593,-6.875 -13.0021,-18.125 -18.3175,-25 -5.3154,-6.875 -13.0792,-17.76169 -17.2528,-24.19259 -7.117,-10.9661 -7.8254,-11.7305 -11.4031,-12.3038 -2.098,-0.3362 -4.4896,-0.9705 -5.3146,-1.4096 -2.0125,-1.0711 -2.4354,-4.6975 -1.0767,-9.2324 0.9594,-3.2022 0.8179,-4.3337 -1.0057,-8.044 -1.7017,-3.4623 -3.7689,-5.3376 -10.435,-9.4664 l -8.3129,-5.14876 -16.97497,-1.59777 c -18.79989,-1.76955 -27.04121,-1.48045 -44.46011,1.5596 -11.39184,1.98818 -12.32013,2.0037 -29.23882,0.48897 l -17.47345,-1.56441 -14.98937,-10.43543 -14.98937,-10.43544 -18.7718,0.50111 -18.77181,0.50111 -5.803,-6.86011 c -3.19166,-3.77306 -11.23915,-15.39626 -17.88333,-25.82933 -9.94354,-15.61392 -19.75803,-29.02781 -27.3355,-37.36064 -0.66512,-0.73142 -5.82188,-1.97455 -11.45948,-2.76251 -5.63759,-0.78796 -10.60616,-1.65267 -11.04127,-1.92158 -0.4351,-0.26891 -7.24552,-1.16929 -15.13426,-2.00084 L 727.5,840.09857 l -18,-17.74638 c -33.63432,-33.16041 -29.14199,-29.71369 -44.03345,-33.78456 -12.05426,-3.29526 -13.29135,-3.86335 -17.58304,-8.07441 -2.53906,-2.49136 -6.68096,-8.20585 -9.20421,-12.69885 -7.47921,-13.31782 -6.18996,-12.64321 -14.6066,-7.64298 -5.91039,3.5113 -7.41919,4.04503 -8.1704,2.89023 -0.50675,-0.77899 -3.66896,-6.08272 -7.02714,-11.78607 -4.82672,-8.19743 -5.81977,-10.55868 -4.74047,-11.27176 0.75092,-0.49613 3.95281,-2.49984 7.11531,-4.45269 3.1625,-1.95285 5.75,-4.2154 5.75,-5.02789 0,-2.031 -2.85123,-7.37794 -3.93425,-7.37794 -0.48558,0 -12.06153,5.33692 -25.72432,11.85983 -35.89054,17.13492 -47.72456,22.17944 -54.76975,23.34686 -5.94221,0.98466 -6.35851,1.24192 -8.57469,5.29882 -1.99055,3.64388 -4.30457,5.42917 -15.91313,12.27718 -7.93129,4.67874 -14.53919,9.31299 -15.87964,11.1367 -2.33565,3.1777 -2.21547,5.08061 0.32087,5.08061 0.77388,0 2.92891,0.72572 4.78894,1.61271 2.95484,1.40907 5.16651,4.91683 17.5147,27.77883 7.77304,14.39136 14.40477,27.52596 14.73717,29.18798 0.84708,4.2354 -1.58381,5.09718 -16.82773,5.96563 -11.81819,0.67329 -12.61203,0.85063 -13.80761,3.0846 -1.89799,3.54642 -5.34659,2.95386 -11.76501,-2.02152 -6.07907,-4.71233 -12.88009,-6.74804 -38.47043,-11.51515 -9.1723,-1.70867 -11.61259,-2.58579 -16.1505,-5.80501 -4.65181,-3.30004 -15.79406,-15.86526 -20.6558,-23.29376 l -1.61118,-2.46181 -5.62493,3.73474 c -3.09371,2.05411 -11.29923,5.99853 -18.2345,8.76539 -26.7093,10.6558 -28.33673,11.88444 -40.97331,30.93285 -5.73154,8.63973 -12.05715,16.95619 -14.25212,18.73765 -3.04182,2.46878 -6.63952,3.88368 -15.69263,6.17156 -9.77291,2.46979 -12.85923,3.74337 -18.37308,7.5817 -11.69802,8.1433 -10.9679,6.8115 -6.63382,12.10067 l 3.78713,4.62169 -8.71582,8.75639 c -4.79371,4.81602 -11.36799,10.2883 -14.60952,12.16063 -8.76825,5.06459 -8.75861,5.20578 1.971,28.84987 4.99068,10.9976 9.07396,20.7698 9.07396,21.716 0,0.9462 5.0625,9.7444 11.25,19.5515 6.1875,9.80719 13.33788,21.15129 15.88974,25.20919 2.55186,4.0579 7.11791,10.2992 10.14678,13.8696 3.06763,3.6161 5.82677,7.9792 6.22884,9.8499 0.397,1.847 9.35777,17.0832 19.91283,33.8582 14.59502,23.1956 21.00335,34.4515 26.75854,47 4.16214,9.075 8.27666,18.525 9.14339,21 0.86672,2.475 2.73233,13.95 4.14579,25.5 1.41346,11.55 2.79319,22.0125 3.06606,23.25 0.45036,2.0424 0.12532,2.25 -3.52292,2.25 -2.21048,0 -4.01905,-0.4434 -4.01905,-0.9854 z m 736.2036,-144.5974 c -2.913,-1.3304 -8.6871,-4.7069 -12.8313,-7.5034 -7.5812,-5.1157 -9.3698,-5.6463 -7.5459,-2.2383 1.8007,3.3648 4.5786,5.0656 14.1736,8.678 10.8612,4.0892 14.0104,4.6291 6.2036,1.0637 z m -28.6522,-21.6672 c -1.988,-2.3375 -9.6936,-12.0125 -17.1237,-21.5 -7.43,-9.4875 -13.7049,-17.24999 -13.9442,-17.24999 -1.8144,0 25.6429,36.24569 30.647,40.45629 4.3931,3.6966 4.5331,3.129 0.4209,-1.7063 z m 5.0037,-30.25 0.6922,-16.99999 -3.8737,-4.1761 c -3.1066,-3.3492 -4.7646,-4.2936 -8.3736,-4.77 l -4.5,-0.5939 -4.6821,6.1385 c -5.1602,6.7653 -6.8824,12.5748 -4.6497,15.685 0.7325,1.0204 6.2818,7.80249 12.3318,15.07139 l 11,13.2162 0.6814,-3.2856 c 0.3748,-1.807 0.993,-10.9355 1.3737,-20.2855 z m -805.82376,2.6338 c -10.86469,-16.98229 -11.40441,-17.73779 -12.15669,-17.01579 -0.74729,0.7171 18.35739,29.88199 19.57444,29.88199 0.44747,0 -2.89052,-5.7898 -7.41775,-12.8662 z M 1064,987.47821 c 0,-0.9058 1.575,-3.569 3.5,-5.9182 1.925,-2.3493 3.5,-4.4648 3.5,-4.7012 0,-0.2364 -1.801,-1.2419 -4.0023,-2.2346 -3.6491,-1.6455 -4.1565,-1.6658 -5.75,-0.23 -0.9612,0.8661 -3.2608,1.7224 -5.11,1.9029 l -3.3624,0.3282 4.6103,6.25 c 4.6324,6.2799 6.6144,7.6592 6.6144,4.6029 z m -786.27163,-15.1029 c -0.21432,-0.4125 -3.05338,-6.7092 -6.30902,-13.9925 -3.6177,-8.0934 -6.04432,-12.4623 -6.24074,-11.236 -0.43992,2.7465 10.66929,25.9785 12.42256,25.9785 0.28428,0 0.34151,-0.3375 0.1272,-0.75 z m 779.08913,-1.5124 c 0.2501,-1.3199 -1.2545,-2.4792 -5.9918,-4.6169 -3.4791,-1.57 -6.4638,-2.7389 -6.6325,-2.5975 -0.1688,0.1414 1.1701,2.3524 2.9753,4.9135 2.8234,4.0056 3.7037,4.6149 6.2986,4.3598 1.937,-0.1904 3.136,-0.9273 3.3504,-2.0589 z M 1033,968.32531 c 0,-1.2463 -2.2591,-3.2 -3.7,-3.2 -0.715,0 -1.3,0.9 -1.3,2 0,1.4666 0.6667,2 2.5,2 1.375,0 2.5,-0.36 2.5,-0.8 z m -87.5,-34.63719 c 5.5,-0.86395 12.25,-1.8504 15,-2.19212 l 5,-0.62129 -9.58352,-2.75124 -9.58353,-2.75123 -14.8268,1.50271 c -14.73575,1.49349 -14.88539,1.48813 -24.36679,-0.87348 -7.74492,-1.92909 -10.75634,-3.26121 -16.00443,-7.07967 -8.29999,-6.03899 -14.16728,-14.36401 -38.13493,-54.10918 -10.175,-16.87304 -18.8008,-30.68031 -19.16844,-30.68281 -0.36764,-0.002 -1.60514,1.51108 -2.75,3.36349 -2.312,3.74089 -2.63234,7.75356 -0.99415,12.45287 2.27283,6.51986 -4.84534,17.74563 -14.83738,23.3994 -2.88748,1.63382 -5.51841,3.40493 -5.84651,3.9358 -0.90001,1.45625 13.21472,22.55784 19.37434,28.96474 l 5.4039,5.62083 20.65779,0.73428 20.6578,0.73427 12.37882,9.89489 c 6.80836,5.44219 13.33395,9.93186 14.50133,9.97705 1.16737,0.0452 7.9725,0.67649 15.1225,1.4029 7.15,0.72641 14.125,1.16952 15.5,0.98468 1.375,-0.18484 7,-1.04294 12.5,-1.90689 z m -673.44578,-8.44606 c 2.44518,-1.58577 7.76521,-6.26616 11.82228,-10.40087 l 7.37651,-7.51766 -2.7452,-3.59913 c -1.50985,-1.97952 -3.02928,-3.59207 -3.3765,-3.58344 -0.34722,0.009 -3.28265,4.06765 -6.52318,9.02004 -3.24052,4.9524 -7.11405,10.23284 -8.60783,11.73431 -2.6049,2.61832 -4.58381,7.22996 -3.10246,7.22996 0.39083,0 2.7112,-1.29745 5.15638,-2.88321 z m -3.67266,-26.66873 c 0.34149,-0.88992 0.17385,-1.29132 -0.39301,-0.94098 -0.5437,0.33602 -0.98855,1.0344 -0.98855,1.55194 0,1.43843 0.71677,1.12146 1.38156,-0.61096 z m 23.46908,-17.92273 c 6.68764,-6.03607 13.3946,-11.61221 14.90436,-12.39143 1.50975,-0.77921 4.32,-2.63773 6.245,-4.13004 1.925,-1.49231 4.175,-2.93458 5,-3.20504 2.94125,-0.96425 -5.17238,-4.79108 -10.16651,-4.79508 -4.53607,-0.004 -4.8678,0.2129 -11.86748,7.74626 -3.96054,4.2625 -7.86316,9.2939 -8.67249,11.1809 -0.80934,1.88699 -4.13148,7.83439 -7.38252,13.21644 -6.37727,10.55745 -7.61717,13.49108 -3.06535,7.2527 1.5651,-2.14502 8.31735,-8.83864 15.00499,-14.87471 z m -16.58589,5.22467 c 6.8315,-10.78265 7.77999,-12.60432 6.85902,-13.1735 -0.51781,-0.32003 -3.66853,2.5788 -7.0016,6.44184 -5.54005,6.42091 -5.9632,7.23644 -4.93064,9.50268 0.62123,1.36344 1.26844,2.47898 1.43826,2.47898 0.16981,0 1.80555,-2.3625 3.63496,-5.25 z m 36.01718,-9.41253 c 3.25707,-1.63709 5.30721,-3.50506 6.42922,-5.85794 1.92836,-4.04381 1.21137,-5.31121 -2.02484,-3.57924 -2.5093,1.34294 -10.3621,8.4435 -12.71163,11.49396 -1.36212,1.76847 -1.29353,1.84287 1.03316,1.12049 1.37069,-0.42557 4.64403,-1.85534 7.27409,-3.17727 z m 16.41231,-2.80587 c 1.98712,-1.74819 2.34602,-2.47762 1.23007,-2.5 -0.86662,-0.0174 -2.63256,1.0934 -3.92431,2.4684 -3.03311,3.2286 -0.96725,3.25283 2.69424,0.0316 z m 485.87324,-1.57021 c 5.47008,-3.12966 12.63145,-10.72422 14.33323,-15.20024 0.88276,-2.32183 0.70449,-2.59011 -2.09288,-3.14958 -1.68181,-0.33637 -4.07967,-0.61157 -5.32858,-0.61157 -1.63532,0 -3.18331,-1.42209 -5.53179,-5.08188 -3.14675,-4.90377 -3.38696,-5.05879 -6.85425,-4.42303 -5.23819,0.96047 -13.1364,6.22879 -12.36232,8.24601 0.45947,1.19734 0.19038,1.44267 -1.05728,0.96389 C 793.75312,852.47704 793,852.38343 793,852.62224 c 0,0.23882 2.44121,4.17935 5.4249,8.75674 2.9837,4.57739 5.98093,9.54288 6.66052,11.03441 0.67958,1.49153 1.6711,2.71188 2.20337,2.71188 0.53227,0 3.35768,-1.36737 6.27869,-3.03861 z M 337.34093,860.12527 c 0.97468,-1.65 1.60633,-3 1.40366,-3 -0.20266,0 -1.36657,1.35 -2.58647,3 -1.2199,1.65 -1.85155,3 -1.40366,3 0.44788,0 1.61179,-1.35 2.58647,-3 z m 160.07562,-1.64313 c 0.83692,-2.18097 0.70626,-2.25737 -4.99558,-2.92106 l -4.92097,-0.5728 3,2.56353 c 3.45069,2.94864 6.00995,3.29289 6.91655,0.93033 z m 26.86058,-7.31205 c 0.76539,-0.68852 -1.95933,-6.12878 -17.77713,-35.49449 -7.31278,-13.57616 -8.34361,-15.00164 -12,-16.59418 -8.62696,-3.75746 -7.45384,-5.1463 -13.76024,16.29054 -8.3003,28.21454 -8.68433,29.67253 -7.92941,30.10449 0.83132,0.47568 25.64961,6.37201 29.18965,6.93488 3.61123,0.57418 21.35825,-0.41465 22.27713,-1.24124 z m 303.26942,-8.15963 c 0.0401,-7.85314 0.31663,-9.31198 1.99821,-10.54158 1.8783,-1.37345 1.80138,-1.55797 -2.04655,-4.90899 -8.43706,-7.34752 -10.25034,-8.41339 -16.56143,-9.73501 l -6.43678,-1.34794 -23.22553,6.49676 -23.22553,6.49676 -9.77447,-2.4226 c -5.85452,-1.45103 -10.57655,-3.22467 -11.77447,-4.42259 -1.1,-1.1 -10.53403,-11.81867 -20.96451,-23.81927 -16.69952,-19.21332 -21.3574,-23.85067 -39,-38.82806 -17.51883,-14.87232 -21.13315,-18.46301 -28.77415,-28.58605 -4.80626,-6.3675 -8.92529,-11.7639 -9.1534,-11.99201 -1.0607,-1.0607 -14.90433,1.14481 -16.79489,2.67569 -1.93464,1.56658 -1.98206,1.94857 -0.69703,5.61531 0.75835,2.16392 3.87614,7.98439 6.92841,12.93439 3.05228,4.95 8.42605,14.05074 11.94171,20.22388 3.51566,6.17313 8.46423,13.26483 10.99681,15.75933 4.28797,4.22349 5.49588,4.77851 17.56087,8.06897 l 12.95618,3.53351 18,17.71688 c 9.9,9.74429 20.925,20.50033 24.5,23.9023 l 6.5,6.18542 20,2.07495 c 28.97113,3.00568 29.77332,3.19607 35.6221,8.45463 l 4.95768,4.45738 6.21011,-4.3404 c 4.0923,-2.8602 7.77489,-4.57487 10.79855,-5.02794 l 4.58844,-0.68754 3.22725,5.02923 c 3.11758,4.85832 4.0171,5.39286 10.09587,5.99941 1.23155,0.12288 1.50833,-1.48151 1.54655,-8.96482 z M 468.958,838.37527 c 0.70194,-3.1625 3.68794,-14.28811 6.63555,-24.72358 2.94762,-10.43546 5.03241,-19.2571 4.63287,-19.60363 -0.39953,-0.34653 -7.02642,-2.8021 -14.72642,-5.45683 -7.7,-2.65473 -17.22116,-6.27615 -21.15814,-8.04761 l -7.15813,-3.22084 -11.69524,16.94584 -11.69524,16.94584 2.76768,4.2054 c 5.20042,7.90189 13.93429,17.85508 18.64651,21.24973 3.70346,2.66794 6.79598,3.80098 14.5,5.31252 5.38591,1.05673 11.63345,1.97123 13.88343,2.03224 l 4.09087,0.11092 z m -108.82168,-4.75 c 2.79846,-1.925 5.54678,-3.5 6.10739,-3.5 0.56061,0 4.89761,-1.96185 9.63779,-4.35966 4.74017,-2.39781 11.0935,-5.14855 14.1185,-6.11276 11.45718,-3.65193 15.26158,-6.91 28.64047,-24.52758 13.76011,-18.11956 13.7695,-18.13831 23.87369,-47.67216 7.60132,-22.21811 10.4183,-29.17141 14.00088,-34.55912 2.46673,-3.70961 4.48496,-6.95155 4.48496,-7.20431 0,-0.25276 -4.68768,1.65435 -10.41706,4.23802 l -10.41706,4.69757 -18.83294,22.29157 c -18.68975,22.12209 -18.96231,22.51365 -35.8475,51.5 -14.23166,24.43108 -20.43101,33.99255 -30.77054,47.45843 -1.63088,2.124 0.11773,1.39829 5.42142,-2.25 z m 485.44542,-9.25159 c -0.58122,-0.58122 -6.33505,2.54342 -7.16935,3.89334 -0.39293,0.63579 1.1485,0.10895 3.4254,-1.17074 2.27691,-1.2797 3.96169,-2.50486 3.74395,-2.7226 z M 850,820.62527 c 4.59385,-1.375 9.96065,-2.50391 11.92623,-2.50869 1.96557,-0.005 5.98348,-0.29805 8.92868,-0.65172 4.65829,-0.55937 5.47754,-0.99482 6.29762,-3.34729 1.40467,-4.02945 6.70649,-5.26339 19.17042,-4.4617 8.86575,0.57025 13.07614,0.19049 32.67705,-2.94739 29.02603,-4.64672 27.49062,-4.26238 29.1067,-7.28583 0.76631,-1.43365 2.88566,-3.23058 4.70966,-3.99316 2.12897,-0.89008 3.68568,-2.44591 4.34783,-4.34537 1.0234,-2.93572 1.09213,-2.95885 8.7929,-2.95885 7.36079,0 7.9881,-0.18017 12.15218,-3.49029 2.44041,-1.93994 5.53936,-3.49461 6.97662,-3.5 3.04219,-0.0114 10.69621,-5.68394 13.08771,-9.69953 1.1897,-1.99754 5.8945,-4.979 16.2697,-10.31018 14.4469,-7.42337 14.6071,-7.5429 15.682,-11.69819 0.9856,-3.80987 1.585,-4.40499 6.4804,-6.43401 3.7246,-1.54379 5.3943,-2.79791 5.3943,-4.05181 0,-1.43244 -0.7936,-1.81599 -3.7573,-1.81599 -3.3958,0 -4.0245,-0.44251 -6.5359,-4.6003 l -2.7787,-4.6003 -5.1312,7.1003 c -2.8222,3.90516 -5.4167,7.1003 -5.7657,7.1003 -0.3489,0 -6.813,1.10357 -14.3646,2.45238 -14.63068,2.61323 -13.91847,2.27582 -24.90269,11.79762 l -5.47954,4.75 h -9.44518 c -8.88989,0 -9.68146,0.17376 -13.4641,2.95554 -5.34846,3.93331 -18.37299,8.01559 -25.62509,8.03169 l -5.75,0.0128 v -4.5 -4.5 h -5.28439 c -4.76987,0 -5.45109,0.2822 -6.99646,2.8983 -1.15001,1.9468 -3.38303,3.49916 -6.80194,4.72858 -4.04282,1.45378 -6.13659,3.12041 -10.17815,8.10171 -2.79855,3.44927 -5.3985,6.27141 -5.77767,6.27141 -0.37916,0 -1.96045,-1.83415 -3.51398,-4.07589 -3.25232,-4.6931 -8.01516,-7.43683 -14.63206,-8.42909 -4.07779,-0.6115 -4.77341,-0.4419 -5.76171,1.40476 -1.38693,2.59149 -8.09602,2.95901 -10.09292,0.55289 -1.68348,-2.02847 -2.92413,-0.21837 -2.94541,4.29733 -0.0142,3.00683 -0.26215,3.25 -3.31442,3.25 -2.83947,0 -3.46916,0.47026 -4.51965,3.37533 -1.05252,2.91069 -1.80289,3.4686 -5.45089,4.05281 -3.82731,0.61293 -4.44424,0.41044 -6.47538,-2.12533 -1.61575,-2.01718 -2.24643,-4.13424 -2.25,-7.55281 -0.006,-5.29891 -0.98435,-5.95661 -3.39328,-2.28011 -1.37834,2.10361 -1.3954,2.38434 -0.11501,1.89301 1.91508,-0.73488 1.88819,-0.23783 -0.22714,4.19807 -1.5824,3.31831 -1.59333,3.7291 -0.12784,4.8007 1.39543,1.02035 1.48862,2.52727 0.72075,11.6551 -0.48503,5.76578 -1.15424,12.70144 -1.48712,15.41259 -0.49713,4.04878 -0.28261,5.16527 1.20084,6.25 2.73953,2.00319 9.16521,1.59187 18.42383,-1.17936 z M 486.18314,784.76681 c 1.33142,-2.03111 6.67244,-6.21851 13.51382,-10.59493 6.92746,-4.4315 13.21541,-9.37173 16.22211,-12.74517 l 4.90982,-5.50869 0.63752,-9.64638 c 1.01586,-15.37115 3.56057,-32.03264 6.13155,-40.14637 4.61639,-14.56882 3.31765,-17.0165 -13.50569,-25.45372 -8.62032,-4.32326 -12.77872,-5.80097 -18.60465,-6.61128 -4.12662,-0.57396 -7.85387,-0.82668 -8.28278,-0.5616 -0.42891,0.26509 -2.2939,4.00201 -4.14441,8.30429 -2.17066,5.04661 -5.04744,9.59653 -8.10715,12.82231 -2.60843,2.75 -5.05839,6.125 -5.44436,7.5 -0.38597,1.375 -3.24382,7 -6.35079,12.5 -3.5969,6.36729 -7.87479,16.35725 -11.77603,27.5 -3.36984,9.625 -7.17419,20.3127 -8.4541,23.75044 -1.6775,4.50562 -2.02327,6.55429 -1.23865,7.33891 0.9292,0.9292 39.44644,14.70026 41.55146,14.85588 0.40744,0.0301 1.73149,-1.45654 2.94233,-3.30369 z m 137.424,-26.70284 c 2.94283,-1.68372 5.61726,-3.49276 5.94317,-4.0201 0.64356,-1.04131 -10.48692,-19.9186 -11.74446,-19.9186 -1.13236,0 -11.80585,6.95498 -11.80585,7.69284 0,0.68352 8.73604,16.00679 10.29467,18.05716 1.26993,1.67058 1.19384,1.68943 7.31247,-1.8113 z M 552.70691,744.33345 C 561.39311,740.04794 571.2,735.38569 574.5,733.97288 l 6,-2.56874 -0.33212,-7.14099 c -0.29731,-6.39244 -0.55937,-7.18691 -2.5,-7.57898 -1.19233,-0.24089 -11.81217,-1.14691 -23.59964,-2.01337 -16.34221,-1.20127 -21.60434,-1.29614 -22.15849,-0.3995 -1.07319,1.73646 -2.78703,14.85116 -3.54197,27.10397 l -0.66234,10.75 h 4.60419 c 3.72707,0 7.61286,-1.48438 20.39728,-7.79182 z m 48.55786,-22.12056 c 8.49956,-3.79689 15.29263,-6.16386 18.98523,-6.61522 6.63627,-0.81118 6.44313,-0.19256 3.89413,-12.4724 l -1.7644,-8.5 -9.93986,0.23275 c -5.46693,0.12801 -13.61979,0.50319 -18.11747,0.83373 l -8.1776,0.601 -0.33575,14.66626 c -0.34902,15.24528 -0.20212,17.16626 1.3127,17.16626 0.49928,0 6.86364,-2.66057 14.14302,-5.91238 z m -20.73585,-16.63204 c 0.39357,-5.24943 0.49889,-9.7611 0.23406,-10.02594 -0.26484,-0.26483 -8.03721,-0.93491 -17.27193,-1.48907 -9.23472,-0.55415 -17.18956,-1.25424 -17.67742,-1.55575 -1.96266,-1.21299 -8.85529,0.82451 -9.99532,2.95467 -1.17297,2.19172 -3.87865,14.88419 -3.30251,15.49224 0.17287,0.18245 10.36504,1.13508 22.64926,2.11697 12.28422,0.98189 22.85544,1.84511 23.49162,1.91828 0.76082,0.0875 1.40156,-3.1334 1.87224,-9.4114 z m 51.3673,7.43075 c 1.75707,-0.61251 3.06172,-1.40746 2.89922,-1.76654 -1.66149,-3.67159 -9.43666,-17.11805 -9.89864,-17.1188 -0.33175,-5.5e-4 0.29422,4.49901 1.39106,9.99901 1.09684,5.5 2.08863,10 2.20397,10 0.11535,0 1.64732,-0.50115 3.40439,-1.11367 z m 13.47347,-8.69974 c 1.84022,-3.64739 2.93238,-21.20249 1.31537,-21.14296 -0.65178,0.024 -3.88506,0.62439 -7.18506,1.3342 -4.21568,0.90677 -5.91034,1.7116 -5.69852,2.70637 0.77147,3.62291 8.7071,20.71951 9.41437,20.2824 0.4391,-0.27138 1.40833,-1.70239 2.15384,-3.18001 z M 581,684.71317 c 0,-4.33573 -0.0649,-4.42146 -3.75,-4.9523 -2.0625,-0.29711 -7.6875,-0.82706 -12.5,-1.17767 L 556,677.94573 V 665.5355 653.12527 h 13.13911 13.13911 l -0.71362,-24.75 c -0.78703,-27.29567 -2.20197,-36.44863 -5.94484,-38.45578 -1.16587,-0.62521 -4.81976,-1.20129 -8.11976,-1.28018 -3.3,-0.0789 -10.43101,-1.12682 -15.84668,-2.32874 -5.41567,-1.20191 -10.63907,-2.1853 -11.60754,-2.1853 -2.97018,0 -3.40411,9.96459 -0.95652,21.96538 l 2.04973,10.0501 -2.482,13.74226 c -1.36509,7.55824 -2.77292,15.54226 -3.12849,17.74226 -0.41582,2.57283 -1.96341,5.48469 -4.33749,8.16121 l -3.69101,4.1612 -9.13492,0.65487 -9.13492,0.65486 -1.80352,-7.81607 c -1.94216,-8.41693 -2.23989,-13.4996 -1.16169,-19.83181 0.56112,-3.29543 0.28478,-4.51253 -1.54059,-6.7854 -1.37259,-1.70908 -3.33329,-2.85184 -5.12026,-2.98426 -2.86896,-0.2126 -2.93171,-0.0983 -6.74367,12.2854 -5.2549,17.0713 -5.22524,17.37748 2.38957,24.66141 3.4375,3.28813 7.80828,6.62196 9.71284,7.40851 1.90456,0.78654 9.20936,4.2274 16.23287,7.64635 12.16564,5.92205 12.81984,6.1232 13.82234,4.25 0.76393,-1.4274 2.07038,-1.95528 4.76713,-1.92616 3.23569,0.0349 4.21409,0.67296 7.58577,4.94684 4.41335,5.59426 4.34118,5.57542 22.37905,5.84495 l 11.25,0.1681 z m 19,2.43524 c 14.30793,-1.92212 18.71154,-3.55401 20.85271,-7.72757 1.84493,-3.59615 1.84308,-3.61665 -1.54639,-17.06734 -3.51504,-13.94899 -7.07718,-22.54259 -9.77293,-23.57704 -0.85767,-0.32912 -6.16604,0.0565 -11.79639,0.85689 -5.63035,0.8004 -10.5745,1.46352 -10.987,1.4736 -0.4125,0.0101 -0.75,2.66419 -0.75,5.89804 v 5.87972 l 12.35878,0.71283 12.35877,0.71283 0.68911,11.52624 c 0.379,6.33943 0.54366,11.67167 0.36591,11.84942 -0.79698,0.79698 -13.86617,2.42485 -19.52257,2.43169 l -6.25,0.008 v 4.625 c 0,4.5103 0.0682,4.61155 2.75,4.08252 1.5125,-0.29837 6.575,-1.05634 11.25,-1.68438 z m 25.98469,-1.77314 c -0.008,-0.9625 -0.44066,-2.42281 -0.96052,-3.24513 -0.81082,-1.28256 -1.15955,-1.21147 -2.45288,0.5 -1.96698,2.60292 -1.93645,3.25306 0.17871,3.8058 3.04347,0.79535 3.25033,0.72752 3.23469,-1.06067 z M 541,683.18429 c 0,-1.73246 -1.7601,-2.053 -3.00914,-0.54801 -1.02837,1.23911 -0.87956,1.48899 0.8867,1.48899 1.16734,0 2.12244,-0.42344 2.12244,-0.94098 z m 105.8238,-2.54949 c 0.24253,-0.24253 -0.94073,-5.96889 -2.62947,-12.72525 -1.68874,-6.75635 -3.37364,-14.58916 -3.74423,-17.40623 -1.0017,-7.61465 -1.03898,-7.63444 -9.49363,-5.03823 -6.23766,1.91544 -7.4004,2.60603 -7.11343,4.22494 0.35343,1.99382 7.92313,31.03805 8.62109,33.07831 0.28763,0.84081 2.17962,0.76815 7.15487,-0.27474 3.7201,-0.7798 6.96226,-1.61626 7.2048,-1.8588 z M 581,666.62527 v -11.5 H 569.5 558 v 10.42804 10.42805 l 5.25,0.57584 c 4.7974,0.52619 9.5484,0.95531 15.5,1.39997 2.21264,0.16531 2.25,-0.0228 2.25,-11.3319 z m 13.64685,8.75 c -0.28163,-1.5125 -0.7793,-4.39228 -1.10592,-6.39952 -0.32662,-2.00723 -1.25695,-4.19983 -2.06739,-4.87244 C 590.63909,663.41078 590,661.19864 590,659.00283 c 0,-3.21089 -0.34386,-3.87756 -2,-3.87756 -1.88406,0 -2,0.66667 -2,11.5 v 11.5 h 4.57946 c 4.45323,0 4.56534,-0.0758 4.06739,-2.75 z m 13.7429,1.0542 c 1.74695,-0.48781 1.83881,-1.25224 1.21568,-10.11692 -0.37073,-5.27408 -0.7903,-9.70548 -0.93238,-9.84757 -0.14208,-0.14208 -3.95164,-0.56634 -8.46569,-0.94279 L 592,654.83772 v 3.52133 c 0,1.93673 0.63589,4.04907 1.41308,4.69408 0.7772,0.64502 1.70975,3.51262 2.07234,6.37245 1.13612,8.96092 1.07301,8.87974 6.34747,8.16447 2.56691,-0.34809 5.5175,-0.87036 6.55686,-1.16058 z M 486,664.94374 c 0,-2.79639 -1.62668,-2.93323 -2.85377,-0.24006 -1.66656,3.65769 -1.41295,4.60511 0.85377,3.18952 1.1,-0.68696 2,-2.01422 2,-2.94946 z m 6,-0.21148 c 0,-0.21616 -0.675,-0.65203 -1.5,-0.96862 -0.825,-0.31658 -1.5,-0.13972 -1.5,0.39301 0,0.53274 0.675,0.96862 1.5,0.96862 0.825,0 1.5,-0.17686 1.5,-0.39301 z m 37.73579,-10.38088 c 1.77968,-2.04936 3.46999,-5.07611 3.75625,-6.72611 0.28625,-1.65 1.65322,-9.2747 3.0377,-16.94377 l 2.51725,-13.94378 -2.04046,-10.08021 c -1.64146,-8.10907 -1.86411,-11.34658 -1.13862,-16.55623 0.49601,-3.56181 0.76921,-6.62295 0.6071,-6.80254 -0.42405,-0.46979 -14.73542,-4.13591 -16.22501,-4.15633 -0.71849,-0.01 -1.25,1.22431 -1.25,2.90249 0,2.60066 0.52625,3.09443 4.81677,4.51951 l 4.81676,1.59987 3.2439,10.7305 c 2.84028,9.39532 3.15793,11.56096 2.5529,17.4048 -0.79515,7.68014 -1.79464,8.37687 -10.3828,7.23761 l -4.87224,-0.64633 -2.76855,-7.25135 -2.76856,-7.25135 -7.48453,-0.63268 c -4.11649,-0.34797 -7.57355,-0.51962 -7.68236,-0.38144 -0.10881,0.13818 -0.49461,3.26642 -0.85733,6.95165 l -0.6595,6.70041 3.48332,0.65348 c 2.31569,0.43442 4.34284,1.78036 6.04745,4.01522 2.45436,3.21782 2.51957,3.64068 1.52324,9.87744 -0.9634,6.03062 0.0289,14.66578 2.57855,22.43907 0.36096,1.10049 2.04701,1.25009 8.1838,0.72612 7.33905,-0.62663 7.89251,-0.84801 10.96497,-4.38605 z m 101.59538,-11.25639 c 7.39303,-2.36667 7.37956,-2.33996 4.7162,-9.34514 l -0.93667,-2.46362 -5.80535,1.51156 c -7.4895,1.95006 -8.30535,2.71463 -8.30535,7.78326 0,4.50384 0.51599,5.61451 2.34777,5.05358 0.63372,-0.19407 4.22625,-1.33691 7.9834,-2.53964 z M 602.85593,632.198 C 606.23517,630.49216 609,628.44075 609,627.6393 c 0,-1.69903 -3.17537,-16.81818 -3.6595,-17.4243 -0.18023,-0.22564 -2.91808,0.31842 -6.0841,1.20903 -3.16602,0.89061 -7.4439,1.88312 -9.5064,2.20558 L 586,614.2159 v 11.09459 11.09459 l 5.35593,-0.55278 c 3.04669,-0.31445 8.00498,-1.89002 11.5,-3.6543 z m 23.95714,-3.66672 7.0584,-1.59399 -1.12567,-2.65601 c -1.83829,-4.33746 -2.25271,-4.44654 -9.65178,-2.5405 -7.21276,1.85805 -8.04826,2.73421 -6.48703,6.8027 0.7536,1.96385 1.45959,1.96301 10.20608,-0.0122 z m -99.18511,-11.15601 c -1.92047,-16.29808 -1.91246,-16.94234 0.21761,-17.49936 1.88121,-0.49195 1.92837,-0.80487 0.73674,-4.88812 -0.97879,-3.35393 -2.06025,-4.75601 -4.67772,-6.06449 -1.87252,-0.93608 -3.8916,-1.72358 -4.48683,-1.75 -0.60399,-0.0268 -1.80693,4.36675 -2.72213,9.94219 l -1.63988,9.99022 2.70276,6.97045 c 2.6933,6.94606 3.32043,7.52407 8.58533,7.91293 1.6234,0.1199 1.77692,-0.4317 1.28412,-4.61382 z m 4.90858,-1.69618 c 0.70374,-5.63251 -1.08486,-13.59226 -3.03654,-13.51343 -0.57598,0.0233 -0.89308,2.46136 -0.74783,5.75 0.63306,14.33366 2.48803,18.13902 3.78437,7.76343 z m 97.26037,1.95312 c 0.1633,-0.14708 -1.32134,-3.21146 -3.2992,-6.80972 l -3.59609,-6.5423 -4.70081,1.55545 c -2.58545,0.8555 -5.01577,1.83315 -5.40073,2.17254 -0.61223,0.53978 -0.21116,3.3087 1.70774,11.79011 l 0.49164,2.17302 7.25027,-2.03584 c 3.98765,-1.11971 7.38388,-2.15618 7.54718,-2.30326 z m -34.07401,-6.9413 c 0.12259,-0.098 -0.22233,-1.79056 -0.76649,-3.76135 l -0.98939,-3.58326 -3.98351,1.01112 C 586.30688,605.29065 586,605.63353 586,608.80818 v 3.43964 l 4.75,-0.68941 c 2.6125,-0.37917 4.8503,-0.76955 4.9729,-0.8675 z m 6.62712,-2.50862 2.48022,-0.94297 -2.27065,-8.30703 c -2.2279,-8.15067 -2.32511,-8.30042 -5.16511,-7.95644 -1.59197,0.19282 -3.17373,0.52088 -3.51505,0.72902 -1.1067,0.67491 3.46895,17.4204 4.76007,17.4204 0.67667,0 2.3464,-0.42434 3.71052,-0.94298 z m -94.70817,-5.80702 c -0.34091,-2.0625 -0.62479,-7.22338 -0.63084,-11.46862 -0.008,-5.70975 -0.33634,-7.61839 -1.26101,-7.33352 -0.6875,0.2118 -2.4875,0.65625 -4,0.98767 l -2.75,0.60257 v 9.9114 c 0,10.85657 -0.21964,10.50818 6.88084,10.91432 2.20981,0.1264 2.33632,-0.13321 1.76101,-3.61382 z m 5.68607,2.33782 c 1.35277,-3.52525 2.95739,-17.70099 2.09868,-18.54046 -0.50963,-0.49821 -2.1641,-1.21146 -3.6766,-1.58501 L 509,583.90845 v 7.98341 c 0,4.39088 0.28125,9.38966 0.625,11.10841 0.64521,3.22606 2.74884,4.19912 3.70292,1.71282 z m 105.95708,-1.50361 2.785,-1.06132 -4.785,-9.01318 c -5.09349,-9.59427 -6.74204,-10.62955 -9.09817,-5.71364 -1.15868,2.41751 -1.04179,3.73704 0.91492,10.32826 2.45514,8.27017 2.60206,8.34894 10.18325,5.45988 z m -28.74188,-1.1006 c 2.44308,-0.92886 2.61325,-1.33794 1.97591,-4.75 -0.86995,-4.65738 -0.75486,-4.56036 -4.44752,-3.74932 -3.19944,0.70272 -3.75607,2.35939 -2.44122,7.26571 0.68125,2.54211 1.157,2.66157 4.91283,1.23361 z m 3.95688,-12.47807 5,-1.14699 0.30479,-4.67928 c 0.16764,-2.5736 -0.0124,-4.67927 -0.40017,-4.67927 -2.089,0 -15.43511,5.68931 -15.85467,6.75868 -0.27162,0.69228 -0.0561,2.40999 0.47888,3.81715 0.79226,2.0838 1.39,2.42101 3.22195,1.81758 1.23707,-0.40748 4.49922,-1.25702 7.24922,-1.88787 z m 14.56428,-7.02594 C 610.38696,582.18507 611,581.08043 611,579.1169 c 0,-3.56255 -1.08184,-4.29121 -4.46271,-3.00581 -2.39323,0.90991 -2.56939,1.33909 -1.95258,4.75716 0.83407,4.62205 1.75708,6.3182 2.2061,4.05401 0.18576,-0.93666 1.20882,-1.97948 2.27347,-2.31739 z m -91.76916,-1.2296 c 0.29055,-1.5125 0.4246,-2.8559 0.2979,-2.98534 -0.23861,-0.24376 -19.41108,-4.26466 -20.33477,-4.26466 -0.53638,0 0.30867,7.90606 0.90767,8.49193 0.18374,0.17972 2.60027,-0.12303 5.37007,-0.67278 3.97984,-0.78992 5.76245,-0.68315 8.5,0.50908 4.68487,2.04032 4.65904,2.04561 5.25913,-1.07823 z m 55.87235,-9.08989 c -0.28125,-8.17073 0.13548,-11.5098 2.70293,-21.65718 1.6695,-6.59839 2.71914,-12.29828 2.33253,-12.66643 -0.38661,-0.36814 -1.55757,-0.81946 -2.60212,-1.00293 -1.67381,-0.29398 -2.64934,2.33019 -8.22034,22.11276 -3.47663,12.34548 -6.22199,22.52138 -6.10081,22.6131 1.68401,1.27456 6.78015,1.92833 9.21462,1.18211 L 573.5,581.94549 Z m -13.28672,5.58989 c 0.56972,-1.7875 3.51972,-12.11141 6.55556,-22.94202 6.8071,-24.2849 10.80629,-33.80798 14.19758,-33.80798 4.06202,0 2.66973,-2.83062 -3.25715,-6.622 -4.47649,-2.86357 -5.80578,-3.31989 -6.51824,-2.23758 -0.49223,0.74777 -1.82347,2.82208 -2.9583,4.60958 -1.13482,1.7875 -2.67129,3.25 -3.41437,3.25 -1.46724,0 -1.85554,0.94266 -3.50136,8.5 -0.79421,3.64692 -2.18879,6.12488 -5.15334,9.15672 -3.88893,3.97721 -4.36343,6.34328 -1.27211,6.34328 1.88161,0 1.93477,-0.31429 -1.7147,10.13671 -2.86322,8.19943 -3.36682,8.99656 -5.43409,8.60138 -2.06709,-0.39515 -2.4578,0.22289 -4.21241,6.66318 -1.06369,3.9043 -1.74179,7.43623 -1.50689,7.84873 0.23491,0.4125 1.41305,0.75868 2.61809,0.76929 1.20504,0.0106 4.44098,0.64537 7.19098,1.41058 7.0642,1.96568 7.22938,1.93257 8.38075,-1.67987 z m 27.24352,-0.27634 C 593.52961,575.36462 594,574.28475 594,561.81447 c 0,-9.22095 2.81468,-32.32354 5.59696,-45.9392 0.55866,-2.73389 0.52984,-2.75 -4.91968,-2.75 -5.24935,0 -5.52815,0.13344 -6.57945,3.14922 -1.6976,4.86974 -1.40031,5.85078 1.773,5.85078 2.77002,0 2.89493,0.21292 3.55678,6.06295 0.42641,3.76892 0.24948,7.38543 -0.46759,9.5582 -1.07278,3.25054 -1.37431,3.4485 -4.30678,2.82746 -1.73428,-0.36729 -3.57227,-0.73098 -4.08442,-0.8082 -0.91832,-0.13847 -4.6949,14.71296 -6.43148,25.29186 -0.67043,4.08414 -0.52662,6.50381 0.57947,9.75 1.6359,4.8011 2.15342,4.97292 8.40746,2.79139 z m -49.61267,-8.521 c 0.94988,-3.87604 1.52804,-7.24636 1.28481,-7.48959 -0.24324,-0.24323 -1.78564,-0.71092 -3.42758,-1.0393 -2.87691,-0.57539 -3.02775,-0.42141 -4.15318,4.23958 -0.64231,2.66016 -1.44285,5.79856 -1.77898,6.97424 -0.48648,1.70156 -0.0324,2.3484 2.22609,3.17105 1.56048,0.56841 3.12627,1.06899 3.47952,1.11241 0.35326,0.0434 1.41945,-3.09236 2.36932,-6.96839 z m 60.47309,2.79734 c -0.012,-1.75671 -0.21673,-1.9316 -0.93402,-0.79775 -0.50529,0.79874 -0.69684,1.81124 -0.42567,2.25 0.86737,1.40343 1.37543,0.86078 1.35969,-1.45225 z M 527,572.87209 c 0,-0.13925 0.86496,-3.27778 1.92212,-6.9745 l 1.92213,-6.72132 -3.64202,-1.00561 c -4.24501,-1.1721 -4.46956,-0.98963 -6.09741,4.95461 -0.67779,2.475 -1.45289,5.26835 -1.72246,6.20745 -0.36069,1.25652 0.3824,1.95895 2.81376,2.65981 3.63757,1.04855 4.80388,1.2621 4.80388,0.87956 z m 81.79867,-3.25305 c 0.82814,-0.71475 -1.19462,-5.49377 -2.32529,-5.49377 -0.72039,0 -2.02161,-0.27314 -2.89159,-0.60699 -1.85381,-0.71137 -2.07027,1.192 -0.58101,5.10903 0.81061,2.13208 1.42816,2.50087 3.25,1.94087 1.23707,-0.38025 2.38362,-0.80736 2.54789,-0.94914 z m -89.72081,-6.48558 c 0.97452,-3.57049 1.69317,-6.56521 1.597,-6.65493 -0.0962,-0.0897 -1.04819,-0.3184 -2.1156,-0.50819 -1.5217,-0.27056 -2.13691,0.46462 -2.84934,3.40493 l -0.9086,3.75 h -6.40066 c -4.9063,0 -6.40066,0.33643 -6.40066,1.44098 0,1.83219 1.15183,2.52309 6.87287,4.12259 7.56025,2.11371 8.20807,1.76105 10.20499,-5.55538 z m -19.09818,-1.01797 c -0.95571,-8.94626 -0.44482,-35.72283 0.87049,-45.62343 l 1.34621,-10.13322 8.40181,0.52417 8.40181,0.52417 v -4.10965 -4.10966 l -8.25,0.58944 c -5.66558,0.40479 -8.76185,1.09983 -9.88394,2.2187 -1.18497,1.18158 -2.19473,6.30047 -3.67483,18.62926 -1.69839,14.14701 -1.89358,19.1817 -1.16306,30 0.48281,7.15 0.89898,13.8205 0.92483,14.82332 0.0304,1.17817 0.65902,1.70546 1.77668,1.49022 1.42272,-0.27399 1.64456,-1.13 1.25,-4.82332 z m 107.08755,-4.24022 c -0.45154,-3.38319 -0.97235,-4.25 -2.55353,-4.25 -1.09247,0 -2.12313,0.71045 -2.29035,1.57877 -0.5294,2.74892 1.62218,6.92123 3.56913,6.92123 1.58934,0 1.76418,-0.5829 1.27475,-4.25 z m -92.98842,0.0633 c 0.39291,-1.4777 0.46092,-2.9402 0.15112,-3.25 -0.30979,-0.30983 -3.41326,-0.5633 -6.8966,-0.5633 -6.62523,0 -6.91113,0.24094 -5.691,4.79606 0.56107,2.09465 1.10221,2.2701 6.16856,2 5.07631,-0.27062 5.61493,-0.52694 6.26792,-2.9828 z m 36.61175,-3.38867 c 2.7025,-7.3092 2.87193,-9.68153 0.66047,-9.24791 -1.48403,0.29098 -5.20791,10.55821 -5.3159,14.65665 -0.0842,3.19651 2.64695,0.0234 4.65543,-5.40874 z m -8.45188,-3.32592 c 1.95761,-7.77653 1.74149,-8.71729 -2.12774,-9.26221 -2.16146,-0.30441 -2.56299,0.28276 -4.21486,6.16354 -2.30002,8.18822 -2.32198,9.73951 -0.14608,10.32111 3.85276,1.02981 4.62876,0.16606 6.48868,-7.22244 z m -10.7024,4.65133 c 0.26043,-0.6875 1.34553,-4.30844 2.41134,-8.04653 l 1.93782,-6.79653 -2.31595,-0.88052 c -5.56705,-2.11659 -5.6944,-2.01088 -8.09751,6.72119 l -2.26978,8.2476 3.1489,0.91221 c 4.36683,1.26503 4.6496,1.25644 5.18518,-0.15742 z m -7.88088,-9.81377 2.13936,-8.06376 -2.56861,-0.97659 c -4.62626,-1.7589 -5.49195,-0.87937 -7.30904,7.42591 l -1.7107,7.81901 2.14679,0.86622 c 4.52432,1.82551 5.08636,1.28128 7.3022,-7.07079 z m -11.29377,4.56373 c 0.47202,-1.23008 -0.49842,-1.5 -5.39301,-1.5 -4.63877,0 -5.96862,0.33421 -5.96862,1.5 0,1.14791 1.26589,1.5 5.39301,1.5 3.8713,0 5.55543,-0.42325 5.96862,-1.5 z m 93.43802,-0.007 c 0.16481,-0.14231 -0.25256,-3.34891 -0.92747,-7.12577 l -1.22713,-6.86702 -1.27889,6 c -1.88693,8.85266 -1.79656,9.76707 0.88384,8.94316 1.2375,-0.38039 2.38484,-0.80805 2.54965,-0.95037 z m -92.37852,-4.36517 c 0.55978,-0.90575 -4.88533,-2.09746 -9.67113,-2.11661 -1.78267,-0.007 -2.75,0.51662 -2.75,1.48899 0,1.16501 1.32678,1.5 5.94098,1.5 3.26754,0 6.18361,-0.39257 6.48015,-0.87238 z m 0.89507,-4.50924 c 0.37081,-0.96631 -0.57399,-1.5642 -3.14301,-1.989 C 504.78979,538.69914 501,538.99873 501,540.55885 c 0,2.40328 12.42442,3.50873 13.3162,1.1848 z m 35.14821,-5.68379 c 5.08496,-5.43623 5.37952,-7.03344 0.85482,-4.63511 -1.55057,0.82188 -4.61923,1.87823 -6.81923,2.34743 -3.32968,0.71013 -4.05178,1.30099 -4.30897,3.52581 -0.24495,2.11902 0.16938,2.7641 2,3.11382 1.26994,0.2426 2.58489,0.50238 2.92213,0.57728 0.33724,0.0749 2.7453,-2.14325 5.35125,-4.92923 z m 42.04288,-0.96778 c 0.36364,-1.65565 0.35871,-4.80049 -0.011,-6.98854 -0.55549,-3.28792 -1.0707,-3.97827 -2.969,-3.97827 -2.03475,0 -2.39019,0.65623 -3.11446,5.75 -0.44967,3.1625 -0.83902,6.17971 -0.86523,6.70492 -0.0496,0.99424 4.44922,2.49461 5.62542,1.87609 0.37019,-0.19467 0.97059,-1.70856 1.33423,-3.3642 z m -76.19365,1.65824 c 0.53345,-1.39036 -4.85447,-2.62526 -11.45321,-2.62526 -4.09118,0 -3.76288,2.76129 0.38957,3.2766 7.23808,0.89824 10.54363,0.70357 11.06364,-0.65155 z m 22.15805,-1.49614 c 0.55253,-2.51568 1.19184,-2.94801 5.16461,-3.49254 2.4937,-0.3418 5.84262,-1.55326 7.44203,-2.69215 1.59941,-1.13888 3.33,-1.80989 3.84575,-1.49114 1.16796,0.72184 1.65422,-0.0835 2.53778,-4.20308 0.59635,-2.78047 0.41959,-3.25 -1.22348,-3.25 -1.26996,0 -2.82416,-1.66029 -4.58817,-4.90135 -1.81128,-3.32792 -4.29958,-5.94855 -7.75123,-8.16348 -4.56706,-2.93067 -5.02595,-3.55034 -4.51628,-6.09865 0.56536,-2.82683 0.54945,-2.83648 -4.6577,-2.82551 -2.87375,0.006 -6.97583,0.3002 -9.11573,0.65368 l -3.89073,0.64267 0.62992,9.09632 c 0.34645,5.00298 0.90541,10.70217 1.24213,12.66487 0.52621,3.06728 0.25606,3.80191 -1.92314,5.22977 -2.18028,1.42858 -3.32744,1.50215 -8.19152,0.5253 l -5.65618,-1.13593 0.61689,-4.59384 c 0.33929,-2.52662 0.86252,-6.24065 1.16274,-8.25341 0.4651,-3.11815 0.22807,-3.76043 -1.60212,-4.34131 -1.18139,-0.37496 -2.3759,-0.45382 -2.65447,-0.17525 -0.6071,0.6071 -3.4346,22.91764 -2.96407,23.38817 0.18036,0.18036 4.10643,0.61853 8.7246,0.9737 4.61818,0.35517 11.54668,1.65157 15.39668,2.88087 9.74948,3.11302 11.20349,3.05986 11.97169,-0.43771 z m 42.95122,-2.87912 c 0.35502,-2.0625 0.89085,-4.9875 1.19074,-6.5 0.96611,-4.87256 -2.08515,-3.13718 -4.42964,2.51933 -1.2012,2.89813 -2.18401,5.56513 -2.18401,5.92667 0,0.55986 1.66406,1.23856 4.13871,1.688 0.35129,0.0638 0.92918,-1.5715 1.2842,-3.634 z m 24.2602,-1.4375 c -0.31922,-0.79773 -0.55618,-0.56078 -0.60416,0.60417 -0.0434,1.05416 0.19293,1.64479 0.52522,1.3125 0.33229,-0.33229 0.36781,-1.1948 0.0789,-1.91667 z m 2.67131,-9.78125 c 0.40884,-2.07616 0.321,-3.07983 -0.21882,-2.5 -0.49604,0.53281 -1.16309,3.21875 -1.48234,5.96875 -0.5994,5.16323 0.40435,3.11652 1.70116,-3.46875 z m -88.23684,3.90582 c 1.70199,-0.91087 1.89795,-1.73339 1.36992,-5.75 -1.10511,-8.40633 -1.62631,-10.18707 -2.98164,-10.18707 -1.46704,0 -3.27002,13.95455 -2.05663,15.91785 0.83032,1.34349 1.1904,1.34538 3.66835,0.0192 z m -5.7535,-4.57664 c 1.05944,-7.7295 0.79775,-11.36043 -0.81877,-11.36043 -0.89196,0 -1.66563,1.35392 -2,3.5 -0.29992,1.925 -0.80303,5.14072 -1.11802,7.14604 -0.38672,2.462 -0.14316,3.9184 0.75,4.48469 2.21769,1.40609 2.52753,1.03953 3.18679,-3.7703 z m 44.20343,-4.61043 c -0.25883,-1.2375 -0.98997,-6.19516 -1.62476,-11.01702 l -1.15416,-8.76702 -6.64429,0.66584 c -3.65437,0.3662 -6.97491,1.16136 -7.37899,1.76702 -1.65105,2.47468 -0.51586,4.55276 4.10785,7.51979 3.1445,2.01782 5.7157,4.71528 7.24829,7.60424 2.58019,4.86372 6.31714,6.39193 5.44606,2.22715 z m 12.80598,-6.10802 c 6.52351,-9.5057 6.73196,-12.05331 1.22872,-15.017 -2.52944,-1.36219 -4.05899,-1.56071 -6.69064,-0.86834 -3.31221,0.87142 -3.40959,1.04094 -3.34376,5.82046 0.10226,7.42291 1.49381,18.4229 2.33059,18.4229 0.40656,0 3.32035,-3.76111 6.47509,-8.35802 z m 40.17897,1.13599 c 1.07115,-2.87212 2.09754,-5.57212 2.28087,-6 0.18334,-0.42788 -0.55408,-0.77797 -1.63871,-0.77797 -1.49132,0 -2.13769,0.91412 -2.6516,3.75 -0.37377,2.0625 -0.92263,4.7625 -1.2197,6 -1.0447,4.35182 1.30388,2.19024 3.22914,-2.97203 z m -25.94177,1.63702 c 0.35684,-1.42176 3.02651,-5.31134 5.9326,-8.64351 2.90609,-3.33218 5.04917,-6.66993 4.76241,-7.41723 -0.28677,-0.7473 -0.24281,-2.46868 0.0977,-3.82528 0.53007,-2.11196 1.13949,-2.43511 4.23891,-2.24777 l 3.61985,0.2188 3.30802,-16.37008 c 1.81942,-9.00354 3.56916,-17.05056 3.88831,-17.88227 0.95911,-2.49939 -5.39493,-11.31766 -9.39563,-13.03947 -3.99757,-1.72045 -14.06294,-1.79013 -18.19109,-0.12593 -2.42265,0.97665 -2.71842,1.76249 -3.78059,10.04484 -0.63377,4.94192 -1.83929,10.70221 -2.67892,12.80065 -2.00928,5.02162 -8.94205,10.07226 -13.82574,10.07226 -4.04116,0 -4.17145,0.48398 -2.92492,10.86497 l 0.64421,5.36496 4.46599,-0.61213 c 3.49675,-0.47928 5.28966,-0.1492 8.2613,1.52096 5.00924,2.81535 6.06629,7.34631 2.90659,12.45883 -1.19231,1.92918 -1.91251,3.76292 -1.60046,4.07498 1.68477,1.68476 7.33081,5.23613 8.39172,5.27839 0.67702,0.027 1.5229,-1.11422 1.87974,-2.53597 z m 15.35413,-3.34925 c 1.34563,-2.51434 1.32296,-5.76985 -0.0461,-6.61596 -1.1254,-0.69554 -6.38928,3.75665 -8.03998,6.80022 -0.83154,1.53319 -0.45356,1.75 3.05087,1.75 2.93123,0 4.2766,-0.51682 5.03519,-1.93426 z m 22.09756,-24.07384 c 8.94508,-19.63598 9.92279,-24.89188 5.74101,-30.86221 -1.49691,-2.13714 -1.52243,-2.13853 -3.96659,-0.21596 -5.7651,4.53483 -7.49062,8.81806 -10.30753,25.58627 -1.47832,8.8 -2.89675,16.75364 -3.15207,17.67475 -0.3199,1.15414 0.24875,1.79172 1.8293,2.05105 1.26142,0.20697 2.61214,0.12468 3.0016,-0.18285 0.38945,-0.30753 3.47388,-6.6305 6.85428,-14.05105 z M 517.4349,497.15002 C 519.93608,496.19908 520,495.94163 520,486.81954 v -9.35523 l 4.49687,-3.2294 c 6.68242,-4.79896 7.22516,-6.41119 3.66818,-10.89644 -1.61958,-2.04226 -3.87618,-4.55407 -5.01466,-5.58179 -2.03025,-1.83275 -2.15884,-1.8165 -6.70404,0.84716 l -4.63408,2.71576 -2.69977,-2.58655 c -2.3971,-2.29657 -3.08651,-2.47562 -6.14953,-1.59716 -4.23833,1.21554 -4.96297,1.23132 -4.96297,0.10809 0,-0.4847 2.08541,-1.40639 4.63424,-2.0482 4.29047,-1.08035 4.81347,-0.99854 7.05032,1.10288 l 2.41608,2.26979 4.65899,-2.47159 c 2.56244,-1.35938 4.94251,-2.47159 5.28904,-2.47159 0.62268,0 12.0467,12.97379 17.02296,19.33227 2.49592,3.18919 2.72373,3.26376 7.88087,2.57964 l 5.31065,-0.70448 -0.66785,-8.10371 c -1.33233,-16.16642 -0.94328,-15.36118 -8.4748,-17.54076 -11.37264,-3.29119 -15.79822,-3.39355 -24.1344,-0.55823 -4.0764,1.38647 -10.57838,2.7935 -14.44886,3.12674 -3.87048,0.33324 -7.48724,1.14287 -8.03724,1.79918 -0.55,0.65631 -1.76285,1.47932 -2.69522,1.82892 -1.91536,0.71816 -2.14562,-0.41788 3.68828,18.19725 3.11067,9.92572 3.65884,12.93132 3.22702,17.69355 -0.47846,5.27654 -0.34772,5.77044 1.62987,6.15699 4.24573,0.82992 12.56891,0.67399 15.08495,-0.28261 z m 84.96136,-0.61499 c 0.78629,-2.04906 0.13612,-3.03728 -2.44185,-3.71143 -2.26692,-0.59281 -3.55459,1.29524 -2.59278,3.80167 0.76228,1.98647 4.26179,1.92375 5.03463,-0.0902 z M 541.5,495.13989 c 3.3,-0.50735 7.59831,-1.17184 9.5518,-1.47666 l 3.5518,-0.55422 -0.71742,-5.74187 c -0.39458,-3.15803 -0.75539,-6.81651 -0.8018,-8.12996 -0.0823,-2.3301 -0.23908,-2.37225 -6.45459,-1.73545 l -6.37021,0.65264 -2.87979,-3.70456 c -1.58389,-2.03751 -3.15095,-4.10078 -3.48237,-4.58505 -0.33143,-0.48426 -1.90643,0.3998 -3.5,1.96457 -1.59358,1.56478 -4.08271,3.734 -5.5314,4.8205 -2.41162,1.80867 -2.68969,2.76527 -3.29392,11.33134 l -0.65995,9.35591 7.29392,-0.63738 c 4.01166,-0.35055 9.99393,-1.05247 13.29393,-1.55981 z m 27.75734,-23.69296 c 2.12567,-1.47309 4.48792,-4.16955 5.24944,-5.99214 1.42355,-3.40703 3.84585,-18.31023 3.09767,-19.05841 -0.23023,-0.23022 -1.69791,0.23227 -3.26152,1.02776 -1.56361,0.79549 -5.4307,1.76109 -8.59353,2.14577 -3.16283,0.38468 -6.42533,1.37415 -7.25,2.19882 -1.61664,1.61664 -1.93754,8.06411 -0.85142,17.10654 0.62834,5.23116 0.64337,5.25 4.18756,5.25 2.22858,0 5.00032,-1.00025 7.4218,-2.67834 z M 625,449.88472 c 0,-1.20572 -0.55693,-0.90908 -2.59501,1.3822 -1.89822,2.13405 -1.897,2.13675 0.34501,0.75946 1.2375,-0.76021 2.25,-1.72396 2.25,-2.14166 z M 486,434.66381 v -16.46145 l -4.25,-1.2432 c -4.686,-1.37073 -12.26979,-1.57824 -17.89041,-0.48953 -6.70741,1.29922 -19.88637,19.50859 -16.80576,23.22051 0.59738,0.71979 3.64214,1.61989 6.76615,2.00023 3.12401,0.38034 9.96393,2.38891 15.19982,4.46349 8.58584,3.40192 11.88642,4.41647 15.7302,4.83523 0.95489,0.10403 1.25,-3.75015 1.25,-16.32528 z m 24.5,9.94949 c 6.93757,-1.68383 15.15476,-2.86739 22.25,-3.20477 6.1875,-0.29421 11.25,-0.76011 11.25,-1.03533 0,-1.01554 -10.35121,-19.81066 -11.89609,-21.60022 -1.45113,-1.68096 -13.28262,-7.64771 -15.16467,-7.64771 -0.43128,0 -1.30393,1.575 -1.93924,3.5 -0.63531,1.925 -1.45771,3.49215 -1.82755,3.48254 -0.36985,-0.01 -5.01613,-1.29745 -10.32507,-2.8619 l -9.65262,-2.84446 -0.53955,2.69776 c -0.29675,1.48376 -0.8604,9.58801 -1.25255,18.00945 l -0.71301,15.3117 4.40518,-0.56861 c 2.42284,-0.31274 9.35517,-1.77004 15.40517,-3.23845 z m 101.58018,-3.80785 c -0.46009,-0.46009 -2.12886,-0.68614 -3.70836,-0.50232 l -2.87182,0.33422 3,1.54321 c 2.94385,1.51433 5.49121,0.53592 3.58018,-1.37511 z m -37.03499,-0.17576 c 1.90014,-0.96733 3.56878,-1.85302 3.70808,-1.9682 0.36404,-0.30102 -4.41435,-23.53063 -4.95062,-24.0669 -0.2463,-0.2463 -2.21515,0.19735 -4.37523,0.98588 -2.16008,0.78853 -8.98992,2.86701 -15.17742,4.61883 -6.1875,1.75183 -11.25,3.59779 -11.25,4.10215 0,0.50435 2.04075,4.45506 4.535,8.77935 3.92565,6.80593 5.03415,8.00305 8.25,8.90954 5.15038,1.4518 15.11894,0.74756 19.26019,-1.36065 z m 13.55716,-4.50442 c 2.0536,0 6.52904,0.48677 9.94542,1.0817 5.58804,0.97312 6.62187,0.8724 10.29848,-1.00326 2.24778,-1.14674 4.57847,-3.00352 5.1793,-4.12618 0.60083,-1.12267 5.33517,-20.3587 10.52075,-42.74674 8.57764,-37.03281 12.08563,-49.19271 18.29868,-63.4294 l 2.06155,-4.72388 -4.54735,-2.0115 c -2.50104,-1.10633 -8.27805,-2.71058 -12.8378,-3.56501 -7.6014,-1.42437 -8.57569,-1.41747 -11.72214,0.083 -5.01522,2.3916 -8.03103,8.25179 -13.26669,25.77932 l -4.64517,15.55072 1.11179,10.10375 1.11179,10.10375 -4.12403,10.70188 c -4.49428,11.6627 -6.54731,14.40163 -15.26228,20.36137 -3.17644,2.17221 -5.53692,4.33526 -5.2455,4.80678 0.29142,0.47153 1.42419,5.28451 2.51728,10.69553 3.11169,15.40353 2.78548,14.52529 4.96241,13.36024 1.05032,-0.56212 3.5899,-1.02203 5.64351,-1.02203 z m -41.0089,-16.03484 c 3.2486,-1.11916 8.60655,-2.71205 11.90655,-3.53976 7.09889,-1.78054 11.50001,-3.42493 11.49997,-4.29672 -2e-5,-0.34577 -1.57913,-1.88865 -3.50915,-3.42861 -2.49664,-1.99208 -5.74256,-3.21634 -11.24997,-4.24315 -4.25747,-0.79377 -8.75335,-1.67988 -9.99085,-1.96912 -2.09934,-0.49069 -2.25,-0.19699 -2.25,4.38616 0,3.63395 -0.42754,5.07612 -1.64313,5.54259 -0.90372,0.34679 -1.91622,0.33333 -2.25,-0.0299 -0.33378,-0.36324 -0.0444,-0.86133 0.64313,-1.10687 0.76416,-0.27291 1.25,-2.31026 1.25,-5.24177 0,-4.38536 -0.25649,-4.90159 -3,-6.03799 -1.65,-0.68345 -3.00689,-1.75055 -3.01531,-2.37132 -0.0421,-3.10407 -1.45188,-3.49195 -7.84376,-2.15809 -7.06275,1.47386 -7.43569,1.73175 -8.91169,6.16256 l -1.04373,3.13314 8.37743,3.73284 c 7.32222,3.26266 8.77219,4.34803 11.51149,8.61686 1.72373,2.6862 3.2417,4.88401 3.37327,4.88401 0.13156,0 2.89715,-0.91568 6.14575,-2.03484 z m -34.5798,-5.71516 c 0.008,-0.4125 0.26348,-1.6802 0.56881,-2.8171 0.44588,-1.66027 -0.2041,-2.40947 -3.30258,-3.80669 -3.15889,-1.42446 -4.33356,-2.81622 -6.4845,-7.6829 -2.47934,-5.60972 -2.82136,-5.94331 -6.09359,-5.94331 h -3.46681 l -0.70978,7.57438 c -0.39038,4.1659 -0.40668,7.87748 -0.0362,8.24794 0.94977,0.94977 14.54903,4.94645 17.26101,5.07283 1.2375,0.0577 2.25614,-0.23265 2.26365,-0.64515 z m 74.85154,-14.74924 c 1.5082,-1.71774 4.45815,-7.69788 6.55545,-13.2892 3.21945,-8.5829 3.70679,-10.87613 3.12947,-14.72595 l -0.6838,-4.55992 -4.90972,4.11066 c -2.70035,2.26085 -5.37027,3.82602 -5.93316,3.47813 -0.56289,-0.34788 -1.02343,-0.15596 -1.02343,0.4265 0,0.58246 -0.45,1.05902 -1,1.05902 -0.55,0 -1,-0.8065 -1,-1.79222 0,-1.14448 -2.29082,-3.1323 -6.33835,-5.5 -3.48609,-2.03928 -6.74859,-3.6987 -7.25,-3.6876 -0.50141,0.0111 -4.06165,3.85886 -7.91165,8.55058 -5.21599,6.35635 -9.1663,9.94897 -15.5,14.09655 -4.675,3.06139 -8.59465,5.64578 -8.71034,5.74309 -0.11568,0.0973 0.035,1.11493 0.33476,2.26137 0.74577,2.85184 3.42782,3.88471 16.48734,6.34932 9.76194,1.84229 11.75583,2.56569 15.20186,5.51537 l 3.96625,3.39496 5.92157,-4.15374 c 3.25686,-2.28456 7.15555,-5.55917 8.66375,-7.27692 z m -70.41824,0.8546 c 0.84829,-3.37985 0.13413,-3.96704 -5.86901,-4.82558 l -4.92207,-0.70393 1.79071,2.83707 c 3.70369,5.86789 7.88913,7.11995 9.00037,2.69244 z m 115.69385,0.6666 c 2.53848,-1.15187 6.5583,-1.98721 9.62435,-2 4.01708,-0.0168 6.62456,-0.77473 11,-3.19763 3.15417,-1.74662 5.81548,-3.21476 5.91403,-3.26252 0.54986,-0.2665 3.2984,-37.35849 3.73551,-50.41127 l 0.51402,-15.34946 -2.58202,0.64804 c -3.07435,0.77161 -10.24335,6.59032 -14.1931,11.5198 -4.97922,6.21432 -8.02333,14.99713 -13.18152,38.03108 -2.77124,12.375 -5.27897,23.2875 -5.57273,24.25 -0.66688,2.185 -0.56568,2.18014 4.74146,-0.22804 z m -101.36647,-8.37347 c 8.72736,-2.26384 19.70184,-10.34503 28.66979,-21.11133 4.36927,-5.24544 8.13178,-9.53716 8.36113,-9.53716 0.22935,0 4.14199,2.25 8.69475,5 4.55276,2.75 8.66526,4.99709 9.13888,4.99354 0.47361,-0.004 3.01841,-1.85547 5.65509,-4.11539 4.61058,-3.95175 4.77084,-4.26709 4.18928,-8.24354 -0.38684,-2.64508 -0.0424,-5.711 0.95603,-8.51034 2.5865,-7.25166 2.43021,-7.50196 -6.9483,-11.12776 -6.53928,-2.52813 -8.9657,-4.00806 -10.48177,-6.39308 -1.085,-1.70689 -2.3656,-3.69927 -2.84578,-4.42752 -1.40837,-2.13598 -6.55822,0.5945 -20.83769,11.04823 -22.62228,16.56135 -26.03237,18.78259 -31.98396,20.83347 -5.13762,1.77039 -6.67186,1.8846 -12.72821,0.94748 -3.78754,-0.58606 -6.99836,-0.93946 -7.13515,-0.78533 -1.43614,1.61811 -10.26218,20.78508 -9.71277,21.09263 0.40389,0.2261 1.85935,0.6818 3.23435,1.01266 1.53762,0.36999 3.51922,2.29843 5.14763,5.00954 2.46037,4.0962 3.06159,4.48205 8.5,5.45515 6.54366,1.17085 12.51965,0.832 20.1267,-1.14125 z M 497,390.62527 c -0.68469,-0.825 -1.63979,-1.5 -2.12244,-1.5 -0.48266,0 -0.87756,0.675 -0.87756,1.5 0,0.86218 0.90249,1.5 2.12244,1.5 1.77324,0 1.91763,-0.2468 0.87756,-1.5 z m 105.45532,-56.25 c 0.96369,-3.7125 3.76636,-10.28891 6.22815,-14.61425 3.09446,-5.43692 4.30098,-8.56159 3.90895,-10.12354 -0.31187,-1.2426 -6.82508,-8.17266 -14.47379,-15.40011 -13.37287,-12.63636 -14.12726,-13.1816 -19.65077,-14.20267 -4.77791,-0.88325 -5.99643,-0.80943 -7.24473,0.43887 -1.33428,1.33427 -1.31682,1.96028 0.1574,5.64471 1.58993,3.97364 1.57508,4.26059 -0.36122,6.97987 -2.82342,3.96513 -2.52079,8.16884 1.04264,14.4829 2.82861,5.01202 2.94846,5.60147 1.57268,7.73485 -1.40769,2.18286 -1.17088,2.79619 4.32296,11.19629 5.654,8.64499 5.99913,8.96204 12.67732,11.64595 9.90283,3.97985 9.79654,4.01387 11.82041,-3.78287 z M 649,328.62527 c 3.11741,-3.21635 3.21643,-3.5 1.22185,-3.5 -1.39212,0 -2.71762,1.05803 -3.69617,2.95034 -2.66923,5.16172 -2.11516,5.28481 2.47432,0.54966 z m 8.98469,-7.75 c -0.0124,-1.81944 -0.20082,-1.96296 -0.98469,-0.75 -1.25292,1.93876 -1.25292,3 0,3 0.55,0 0.99311,-1.0125 0.98469,-2.25 z m 4.37694,-1.25 c -0.31659,-0.825 -0.75246,-1.5 -0.96862,-1.5 -0.21615,0 -0.39301,0.675 -0.39301,1.5 0,0.825 0.43588,1.5 0.96862,1.5 0.53273,0 0.70959,-0.675 0.39301,-1.5 z m 11.30069,-1.09643 c 3.14852,-0.59066 3.46244,-0.84724 1.82101,-1.48835 -1.09083,-0.42606 -3.44583,-0.80628 -5.23333,-0.84493 -2.66058,-0.0575 -3.25,0.31183 -3.25,2.0367 0,1.4155 0.46898,1.92702 1.42899,1.55863 0.78594,-0.30159 3.14094,-0.86951 5.23333,-1.26205 z M 648.813,311.8151 c 1.04863,-2.37059 2.47784,-6.08309 3.17603,-8.25 0.69819,-2.16691 5.26535,-12.43811 10.14924,-22.82489 8.66113,-18.42 9.17835,-19.23962 21.00378,-33.28364 6.6682,-7.91923 11.95163,-14.54908 11.74097,-14.733 -1.13271,-0.98894 -18.02879,-3.63062 -19.10846,-2.98758 -0.70101,0.41751 -10.95894,7.63908 -22.79541,16.04794 -15.86578,11.27136 -21.80821,16.05012 -22.61441,18.18598 -1.0603,2.80908 -0.93048,2.99598 4.27086,6.14831 2.95042,1.78815 5.3644,3.39183 5.3644,3.56374 0,0.1719 0.69157,3.60014 1.53681,7.61831 1.16417,5.53424 2.27392,8.06624 4.57666,10.44207 l 3.03985,3.13633 -2.64389,7.4474 c -2.83924,7.99769 -5.59569,10.69185 -11.16372,10.91142 -1.98872,0.0784 -1.18937,0.49636 2.65429,1.38778 8.52211,1.97645 8.7182,1.92549 10.813,-2.81017 z m 5.15637,-2.18983 c 0,-0.55 -0.43621,-0.325 -0.96937,0.5 -0.53316,0.825 -0.96937,1.95 -0.96937,2.5 0,0.55 0.43621,0.325 0.96937,-0.5 0.53316,-0.825 0.96937,-1.95 0.96937,-2.5 z m 71.27905,-0.84749 c 22.43441,-4.50768 28.22538,-6.60728 25.56407,-9.26859 -1.17058,-1.17059 -2.75634,-1.23251 -9.07088,-0.35424 -6.97095,0.96957 -8.09342,0.87457 -12.60654,-1.06692 -4.56587,-1.96419 -5.12828,-2.59665 -7.17452,-8.06825 -1.22116,-3.26536 -2.57283,-6.15488 -3.00371,-6.42118 -0.43087,-0.2663 -4.30993,-0.76492 -8.62012,-1.10805 -6.87723,-0.54749 -8.7094,-1.14728 -14.96442,-4.8988 -4.75497,-2.85184 -9.49899,-4.76282 -14.25106,-5.74058 l -7.12336,-1.46566 -2.9193,5.11988 C 665.98191,284.44395 661,296.82378 661,300.55027 c 0,3.27399 0.40613,3.79831 4.4724,5.77386 3.81181,1.85191 4.38662,2.51467 3.8916,4.487 l -0.58082,2.31414 h 17.41407 c 16.56378,0 18.47056,-0.21228 39.05117,-4.34749 z M 667,310.15095 c 0,-0.53588 -1.35,-1.67243 -3,-2.52568 -3.33918,-1.72676 -3.848,-1.09452 -1.34501,1.67126 1.76989,1.95571 4.34501,2.46209 4.34501,0.85442 z m 106.35416,-10.50622 c 0.74133,-1.93188 -1.35441,-0.84183 -5.85416,3.04489 l -3,2.59129 4.12667,-2.03522 c 2.26966,-1.11938 4.39703,-2.73981 4.72749,-3.60096 z m -15.79529,-0.98766 c 1.67447,-1.2665 1.71196,-1.47256 0.27292,-1.5 -2.5666,-0.0489 -4.88296,1.07639 -4.26703,2.07298 0.77834,1.25939 1.75715,1.11897 3.99411,-0.57298 z m -10.40399,-2.07119 13.34512,-1.53939 7.31377,-7.28245 c 6.23837,-6.21164 7.2215,-7.65006 6.68625,-9.78265 -0.34513,-1.37512 -1.91893,-3.26308 -3.49733,-4.19546 -2.51727,-1.48699 -4.01432,-1.56781 -12.18626,-0.65792 -5.12403,0.57053 -10.69215,1.28712 -12.37358,1.59241 -3.7932,0.68872 -19.51704,-2.20296 -21.0406,-3.86945 -0.61632,-0.67414 -3.65895,-4.03429 -6.76141,-7.46701 C 715.53838,259.95124 713,257.54518 713,258.03718 c 0,1.12505 6.24389,19.14628 10.07828,29.08809 2.55659,6.62874 3.32995,7.69214 6.65717,9.15395 2.0705,0.90967 3.83425,1.69717 3.91943,1.75 0.0852,0.0528 6.16019,-0.59668 13.5,-1.44334 z M 569.54347,291.3967 c 1.04238,-1.42554 0.93679,-2.36987 -0.60231,-5.38676 -1.86579,-3.65726 -1.86739,-3.65795 -6.31098,-2.71022 -3.97906,0.84865 -5.06291,0.6359 -10.34549,-2.03074 -3.8055,-1.92101 -7.57265,-4.93565 -10.60918,-8.48995 l -4.70841,-5.51125 -6.55674,2.21176 c -3.60621,1.21647 -6.63631,2.64691 -6.73355,3.17875 -0.0973,0.53184 3.41052,2.22206 7.79503,3.75604 4.38451,1.53398 9.92727,4.31252 12.31725,6.17454 3.84778,2.99778 4.68069,3.26859 7.27321,2.36484 2.6445,-0.92188 3.53308,-0.58045 9.18275,3.52832 7.08914,5.15563 7.55339,5.30115 9.29842,2.91467 z M 775,284.87008 c 0,-0.61544 -1.35,0.17439 -3,1.75519 -1.65,1.5808 -3,3.04563 -3,3.25519 0,0.20955 1.35,-0.58029 3,-1.75519 1.65,-1.1749 3,-2.63974 3,-3.25519 z m -136.38894,3.66124 c 2.06091,-0.55319 2.07806,-0.72409 0.72167,-7.19484 -0.76416,-3.6455 -1.93913,-6.99257 -2.61106,-7.43794 -5.01345,-3.32301 -7.87784,-4.94799 -8.1743,-4.63734 C 627.81486,270.02878 623,282.52954 623,283.66376 c 0,0.65652 2.3625,2.12475 5.25,3.26273 5.69455,2.24427 7.14298,2.46861 10.36106,1.60483 z M 718,280.19227 c 0,-0.51315 -1.99702,-6.70065 -4.43781,-13.75 -4.34527,-12.54971 -4.56912,-12.93702 -10.73435,-18.57222 -3.46309,-3.16537 -6.75357,-5.61988 -7.31218,-5.45447 C 694.39684,242.74688 676,267.00788 676,268.15202 c 0,0.39217 2.8125,1.26197 6.25,1.93289 4.03272,0.78709 8.79689,2.76154 13.42907,5.56551 4.09582,2.4793 8.82008,4.51595 11,4.74215 7.54973,0.78342 11.32093,0.7167 11.32093,-0.2003 z m 398.4047,-10.69272 c -1.5945,-6.52394 -3.4047,-10.45576 -3.4047,-7.39523 0,1.84048 4.2819,15.07238 4.7319,14.62241 0.1941,-0.1941 -0.4032,-3.44633 -1.3272,-7.22718 z m -335.52175,1.37572 c 2.54823,-6.82502 2.99543,-8.9175 1.8127,-8.48179 -0.65761,0.24226 -3.59841,1.23056 -6.53512,2.19622 l -5.33947,1.75574 3.28564,3.38991 c 3.83664,3.95842 5.61239,4.25714 6.77625,1.13992 z m -31.38295,-0.75 2,-0.85943 -2,-0.055 c -1.1,-0.0302 -2.675,0.38124 -3.5,0.9144 -1.33333,0.86167 -1.33333,0.96327 0,0.9144 0.825,-0.0302 2.4,-0.44171 3.5,-0.9144 z M 734,267.74659 c 0,-0.75827 -1.4625,-1.93478 -3.25,-2.61445 -1.7875,-0.67967 -6.0977,-4.22177 -9.57823,-7.87132 -7.92292,-8.30768 -6.75446,-5.56488 1.60859,3.77594 3.42225,3.82236 7.23418,7.14469 8.47095,7.38295 1.23678,0.23826 2.36119,0.49448 2.49869,0.56938 0.1375,0.0749 0.25,-0.48423 0.25,-1.2425 z m 28.56982,-4.44509 c 7.27984,-1.60231 8.76508,-2.35864 15.17219,-7.72621 3.90631,-3.27251 7.14224,-6.62502 7.19095,-7.45002 0.0487,-0.825 4.86899,-7.10492 10.7117,-13.95537 6.94071,-8.13781 10.14341,-12.60035 9.23923,-12.87362 C 804.12275,221.06624 797.2,218.21272 789.5,214.95512 l -14,-5.9229 -13.61846,-13.55879 -13.61847,-13.5588 -21.38153,24.70674 c -11.75985,13.58871 -21.51346,25.05687 -21.6747,25.4848 -0.58362,1.54896 12.12855,14.99796 21.84855,23.11495 5.46954,4.56751 9.94461,8.66447 9.94461,9.10436 0,1.47072 17.40164,0.77384 25.56982,-1.02398 z m 17.88452,-3.5927 c 3.06008,-1.27859 7.40916,-6.05336 6.4172,-7.04533 -0.21966,-0.21966 -2.80028,1.59439 -5.7347,4.03121 -5.77372,4.79464 -5.86043,5.17759 -0.6825,3.01412 z m 333.06366,-1.83353 c -0.2306,-0.6875 -0.9422,-3.275 -1.5814,-5.75 l -1.1622,-4.5 -1.8313,4.5 c -2.5959,6.37877 -2.4605,7 1.5255,7 2.3318,0 3.3312,-0.40967 3.0494,-1.25 z m -322.53331,-8 c 0.008,-0.4125 -0.43469,-0.75 -0.98469,-0.75 -0.55,0 -0.99311,1.0125 -0.98469,2.25 0.0124,1.81944 0.20082,1.96296 0.98469,0.75 0.53316,-0.825 0.97627,-1.8375 0.98469,-2.25 z m -87.62456,-6.8118 c -2.70592,-3.76644 -3.92105,-4.76813 -4.74833,-3.91424 -0.82422,0.85073 0.0522,2.15931 3.3882,5.05909 2.475,2.15135 4.61175,3.91276 4.74834,3.91425 0.13658,0.001 -1.38811,-2.27511 -3.38821,-5.0591 z m -34.99411,-10.62629 c 2.82369,-2.02844 5.32216,-3.82912 5.55215,-4.0015 0.47019,-0.35241 -1.32582,-3.86478 -3.40175,-6.65264 -0.87058,-1.16914 -4.40332,-2.518 -9.66899,-3.69178 -4.56346,-1.01725 -8.36569,-1.76325 -8.4494,-1.65777 -0.0837,0.10548 -1.09027,2.05257 -2.23681,4.32687 l -2.08462,4.13508 6.68084,5.61492 c 3.67447,3.0882 7.08444,5.61491 7.57772,5.61491 0.49329,0 3.20718,-1.65964 6.03086,-3.68809 z M 813.72326,216.9944 c 0.6728,-0.89698 9.6728,-7.05807 20,-13.69132 32.59241,-20.93436 41.6066,-32.78459 57.30125,-75.32939 4.53435,-12.29163 8.61474,-23.07075 9.06755,-23.95359 1.30947,-2.5531 3.07066,-15.110348 2.46033,-17.542108 -0.47084,-1.87597 -20.44654,-19.35272 -22.11991,-19.35272 -0.31388,0 -6.17529,3.86264 -13.02535,8.58365 l -12.45466,8.58365 3.65754,4.98257 c 2.01165,2.74041 3.25985,5.31889 2.77377,5.72994 -0.48608,0.41105 -3.35878,2.70344 -6.38378,5.094198 -3.025,2.39077 -6.33292,5.28059 -7.35093,6.42184 l -1.85092,2.07499 -4.64908,-5.28363 -4.64907,-5.283628 -14,11.119308 c -24.03513,19.08956 -43.31592,37.06021 -58.15771,54.20581 -7.61326,8.79503 -13.9563,16.28356 -14.09564,16.64118 -0.13934,0.35762 5.93566,6.77405 13.5,14.25873 L 777.5,207.86239 792,213.8863 c 7.975,3.31316 15.175,6.23688 16,6.49717 1.60921,0.50771 3.75227,-0.76132 5.72326,-3.38907 z m 318.95984,-31.05663 c -0.3192,-0.79773 -0.5562,-0.56078 -0.6042,0.60417 -0.043,1.05416 0.193,1.64479 0.5253,1.3125 0.3323,-0.3323 0.3678,-1.1948 0.079,-1.91667 z m 1,-4 c -0.3192,-0.79773 -0.5562,-0.56078 -0.6042,0.60417 -0.043,1.05416 0.193,1.64479 0.5253,1.3125 0.3323,-0.3323 0.3678,-1.1948 0.079,-1.91667 z m 1,-4 c -0.3192,-0.79773 -0.5562,-0.56078 -0.6042,0.60417 -0.043,1.05416 0.193,1.64479 0.5253,1.3125 0.3323,-0.3323 0.3678,-1.1948 0.079,-1.91667 z M 797.07569,122.51149 c 1.33337,-1.43758 8.59634,-7.55922 16.13994,-13.60364 l 13.71563,-10.989848 -2.48726,-3.64636 c -1.36799,-2.00551 -3.67212,-7.58387 -5.1203,-12.39637 -1.44817,-4.8125 -3.15676,-8.75 -3.79687,-8.75 -0.6401,0 -3.51044,0.69687 -6.37853,1.5486 -4.2801,1.27105 -6.58075,1.3586 -12.83665,0.48848 -4.19208,-0.58306 -7.81064,-0.87143 -8.04125,-0.64081 -0.23062,0.23061 0.0707,9.62471 0.66959,20.87576 1.01874,19.138478 2.79257,29.727968 4.9797,29.727968 0.40242,0 1.82262,-1.1762 3.156,-2.61378 z m 356.82651,-17.76221 c 1.1985,-4.881798 1.9955,-9.059638 1.7711,-9.284088 -0.2245,-0.22445 -1.553,4.15739 -2.9522,9.737438 -1.3992,5.58004 -2.1962,9.75788 -1.771,9.28409 0.4251,-0.4738 1.7536,-4.85565 2.9521,-9.73744 z M 1037.8256,82.875272 c 4.5401,-14.9875 8.2366,-27.5875 8.2146,-28 -0.022,-0.4125 -1.6614,-0.75 -3.6428,-0.75 -2.0765,0 -5.6769,-1.16496 -8.499,-2.75 -3.8509,-2.16281 -4.8966,-3.2915 -4.8974,-5.286 -7e-4,-1.78972 -1.2088,-3.4643 -4.1054,-5.690522 -3.6935,-2.838756 -4.6195,-3.104004 -9.25,-2.649852 -9.6393,0.945404 -9.951,1.099167 -9.2575,4.566673 0.3403,1.701851 1.285,3.592741 2.0991,4.201981 0.8182,0.61225 2.3781,5.49841 3.4875,10.92392 l 2.0072,9.81621 -3.8784,17.03982 -3.8784,17.039818 4.1375,1.81166 c 9.8968,4.33353 16.245,6.80814 17.6729,6.88916 1.1585,0.0657 3.5619,-6.60257 9.7901,-27.162868 z m -184.05099,15.75 c 2.82711,-2.2 5.15937,-4.36753 5.18279,-4.81672 0.0234,-0.4492 -1.15212,-2.38309 -2.61234,-4.29754 -3.125,-4.09707 -3.54065,-4.01355 -11.9745,2.40623 l -6.12944,4.66569 3.48549,4.253588 c 3.89225,4.74997 2.85873,4.93965 12.048,-2.211248 z m 154.45299,-15.25 c 3.6809,-16.59466 3.7017,-16.81492 2.2478,-23.75 -2.5274,-12.05577 -2.4059,-11.74228 -4.2673,-11.00818 -0.9394,0.37052 -9.5831,3.1565 -19.2081,6.19108 -9.625,3.03457 -17.93608,5.93092 -18.46907,6.43632 -0.53299,0.50541 -1.54941,2.82284 -2.25871,5.14985 -1.22279,4.0116 -1.0949,4.73634 2.46701,13.98024 l 3.75665,9.74931 14.50206,4.92174 c 7.97613,2.70696 15.17986,4.957268 16.00826,5.000688 1.1468,0.0601 2.3924,-3.916608 5.2214,-16.671048 z m -167.37199,4.03424 c 6.40442,-4.79366 16.49616,-12.50087 22.4261,-17.12713 l 10.7817,-8.41139 -1.66566,-2.62286 c -3.23641,-5.09628 -7.90771,-11.06141 -8.68611,-11.09194 -0.4336,-0.017 -4.90633,2.73799 -9.9394,6.12222 -5.03307,3.38423 -13.34081,8.13786 -18.46164,10.56362 -5.12083,2.42576 -9.3106,4.82013 -9.3106,5.32083 0,0.50069 1.38581,4.39892 3.07958,8.66273 l 3.07957,7.75239 -2.19036,1.77364 c -1.2047,0.97551 -2.81551,1.77365 -3.57957,1.77365 -0.76407,0 -1.38922,0.24083 -1.38922,0.53518 0,0.81825 3.16353,5.46482 3.72062,5.46482 0.26983,0 5.73058,-3.92209 12.13499,-8.71576 z m 315.82749,4.52826 c -0.3192,-0.79773 -0.5562,-0.56078 -0.6042,0.60417 -0.043,1.05416 0.193,1.64479 0.5253,1.3125 0.3323,-0.3323 0.3678,-1.1948 0.079,-1.91667 z m -247.85484,-8.27668 c -0.18054,-0.15805 -1.45326,-0.61885 -2.82826,-1.02399 -2.04406,-0.60228 -2.27203,-0.49727 -1.25,0.57577 0.6875,0.72182 1.26802,2.4599 1.29004,3.8624 l 0.04,2.55 1.53822,-2.83841 c 0.84602,-1.56112 1.3905,-2.96772 1.20996,-3.12577 z m -80.83063,3.46545 c 1.7812,-0.95327 1.72708,-1.34019 -1.18902,-8.5 -2.50508,-6.15067 -3.45308,-7.50127 -5.26522,-7.50127 -1.21553,0 -2.46119,0.25113 -2.76813,0.55807 -0.30694,0.30694 0.61356,4.13194 2.04556,8.5 2.62651,8.01175 3.53605,8.89167 7.17681,6.9432 z m 101.08851,-3.14523 c 4.65774,-1.39549 6.03871,-5.20967 3.36415,-9.29157 -2.86818,-4.3774 -6.70656,-3.04674 -13.36146,4.63204 l -2.33695,2.69651 3.37406,1.47191 c 4.26265,1.85956 4.37261,1.86559 8.9602,0.49111 z M 915.90143,70.967882 C 919.25565,68.131322 922,65.433572 922,64.972892 c 0,-0.46069 8.6625,-5.17669 19.25,-10.48 16.86189,-8.44618 21.73115,-10.3708 39.25,-15.513927 11,-3.229343 20.5016,-6.055024 21.1146,-6.27929 0.8138,-0.29767 0.7857,-2.325668 -0.1038,-7.511629 -0.6702,-3.907129 -1.4743,-7.359586 -1.78682,-7.672126 -0.31254,-0.31254 -2.49741,-1.001706 -4.85526,-1.531481 -2.60888,-0.586175 -7.77388,-3.474619 -13.19465,-7.3788893 l -8.90764,-6.41566 -4.63322,3.187696 C 952.45076,16.167265 886.34523,62.449662 885.60633,63.157052 c -1.81574,1.73831 9.34881,9.62699 16.39367,11.58349 6.84524,1.90106 7.35632,1.76236 13.90143,-3.77266 z M 937,67.566252 c 0,-2.44254 -0.4429,-4.44098 -0.98422,-4.44098 -0.54133,0 -2.45383,1.33681 -4.25,2.97069 -2.51153,2.28459 -2.85935,2.97745 -1.50599,3 0.96788,0.0161 2.51065,0.90626 3.42838,1.97808 2.32702,2.71777 3.31183,1.6747 3.31183,-3.50779 z m -103.75,-3.8782 c 4.2625,-1.99284 7.75,-4.04864 7.75,-4.56844 0,-0.51981 -2.2188,-5.11868 -4.93066,-10.21972 -3.2901,-6.18869 -5.29738,-11.437353 -6.03282,-15.774621 -2.23396,-13.1749 -1.44965,-12 -8.01069,-12 h -5.81526 l -0.72446,15.457928 c -0.79516,16.966393 -0.3798,26.587743 1.32794,30.760663 1.09187,2.66802 1.183,2.693 4.89926,1.34306 2.08268,-0.75654 7.27419,-3.00603 11.53669,-4.99887 z m 328.3419,-0.85536 1.1883,-4.65803 -3.1401,-0.50762 c -1.7271,-0.27918 -12.5429,-1.43238 -24.0352,-2.56266 l -20.8952,-2.05506 -2.3509,2.20859 c -1.293,1.21472 -2.1246,2.43493 -1.8479,2.71159 0.6456,0.64565 47.6752,9.98722 48.9409,9.72124 0.5235,-0.11001 1.4866,-2.29613 2.1401,-4.85805 z m -308.18326,-10.96934 9.36405,-6.26193 -4.25285,-9.097372 c -2.33907,-5.003557 -4.80781,-11.410691 -5.48609,-14.238077 -1.0105,-4.212253 -1.62158,-5.140455 -3.38349,-5.139335 -2.65787,0.0017 -18.78973,2.804766 -19.34664,3.361677 -0.22293,0.222935 0.32044,4.588402 1.2075,9.701038 1.29316,7.453264 2.60867,11.142978 6.63716,18.615809 2.76338,5.12606 5.22053,9.32011 5.46032,9.32011 0.2398,0 4.64982,-2.81787 9.80004,-6.26192 z m 284.55876,1.7586 c 13.4114,1.36666 24.5658,2.30346 24.7875,2.08178 1.0555,-1.05557 3.3477,-13.863067 2.5987,-14.520504 -1.3445,-1.180207 -33.5997,-10.057957 -36.5431,-10.057957 -1.4541,0 -2.7938,-0.383253 -2.9772,-0.851673 -0.5809,-1.484276 -25.8271,-8.554572 -26.8595,-7.522127 -0.521,0.521027 -1.2365,7.45578 -1.59,15.410561 l -0.6427,14.46324 5.3795,2.09791 5.3794,2.09791 3.0415,-2.84199 3.0415,-2.84199 z m -87.6777,-3.49668 c 0.2877,-1.1 0.356,-2 0.1519,-2 -0.2042,0 -0.8529,0.9 -1.4416,2 -0.5913,1.10492 -0.6593,2 -0.1518,2 0.5052,0 1.1539,-0.9 1.4415,-2 z m 117.5044,-3.64378 c -0.2914,-1.37482 -0.5429,-1.12336 -0.9696,0.9696 -0.3721,1.82482 -0.2327,2.48236 0.3935,1.85622 0.5332,-0.53328 0.7925,-1.8049 0.5761,-2.82582 z m -124.1662,-3.99763 3.8721,-1.641404 -5,-1.725315 c -5.6845,-1.961521 -6.5,-1.785821 -6.5,1.400478 0,4.085081 1.6352,4.506571 7.6279,1.966241 z M 1031,38.625271 c 0,-0.862179 -0.9025,-1.5 -2.1224,-1.5 -1.7733,0 -1.9177,0.246798 -0.8776,1.5 0.6847,0.825 1.6398,1.5 2.1224,1.5 0.4827,0 0.8776,-0.675 0.8776,-1.5 z m 154.75,-0.05678 c 3.4375,-0.351778 6.25,-0.85871 6.25,-1.126517 0,-0.267806 -2.7405,-3.570508 -6.0901,-7.339336 -5.6479,-6.354971 -6.2667,-6.771912 -8.5239,-5.743453 -1.3387,0.609929 -2.6918,2.269315 -3.007,3.687523 -0.3152,1.418209 -0.9769,4.153561 -1.4705,6.078561 -1.5019,5.857924 -1.3118,6.234566 2.8415,5.629307 2.0625,-0.300569 6.5625,-0.834307 10,-1.186085 z M 1050,34.250271 c 0,-0.48125 0.2566,-2.39375 0.5701,-4.25 l 0.5702,-3.375 -2.3202,2.595129 c -1.276,1.427321 -3.2201,2.951763 -4.3201,3.387648 -1.8852,0.747036 -1.8565,0.836289 0.5,1.555191 3.5224,1.074575 5,1.100294 5,0.08703 z m 76.3236,-9.375 c 0.4264,-1.775066 1.8035,-10.924641 3.0453,-20.2326923 0.2122,-1.590943 -27.8486,0.581227 -29.5674,2.288788 -0.7165,0.711871 0.4694,11.7981463 1.3571,12.6857873 0.5662,0.566224 21.7566,7.247867 23.483,7.404524 0.6279,0.05698 1.3848,-0.908907 1.682,-2.146407 z M 855.53775,20.110988 c -1.27163,-3.875734 -1.39811,-4.009775 -0.9301,-0.985717 0.75645,4.887869 1.64218,7.684957 2.05376,6.485717 0.19146,-0.557855 -0.31419,-3.032855 -1.12366,-5.5 z m 320.88855,2.691798 c 1.6937,-1.238416 1.7058,-1.521322 0.1912,-4.45034 -0.8896,-1.72032 -1.6175,-4.668952 -1.6175,-6.552515 0,-5.6360783 -1.1368,-9.6746603 -2.7232,-9.6746603 -1.2079,0 -1.3593,1.125526 -0.8409,6.25 1.7336,17.1351833 1.6435,16.8748293 4.9904,14.4275153 z M 1061.6831,4.9377707 c -0.3192,-0.797733 -0.5562,-0.560777 -0.6042,0.604166 -0.043,1.054167 0.193,1.644792 0.5253,1.3125 0.3323,-0.332291 0.3678,-1.194791 0.079,-1.916666 z M 1068.16,1189.2086 c -0.088,-4.6291 0.1611,-8.0956 0.5535,-7.7031 0.3924,0.3924 0.7299,2.6049 0.75,4.9166 0.031,3.545 0.3782,4.2519 2.2188,4.5139 2.8876,0.4111 4.8283,-2.9881 3.3177,-5.8107 -0.5887,-1.1 -1.9811,-2 -3.0942,-2 -1.1131,0 -1.7457,-0.45 -1.4058,-1 0.9117,-1.4751 3.1404,-1.2167 4.9286,0.5714 3.7493,3.7493 -0.173,12.3184 -4.4234,9.6639 -1.6792,-1.0486 -1.9263,-0.8274 -2.284,2.0444 -0.2206,1.7712 -0.4731,-0.5672 -0.5612,-5.1964 z m -29.9834,-3.8333 c -0.2199,-10.2724 1.6127,-11.2028 4.3379,-2.2022 1.0071,3.3263 2.1656,6.2545 2.5744,6.5071 0.4088,0.2527 1.7177,-2.4688 2.9087,-6.0477 1.191,-3.579 2.5788,-6.5072 3.0839,-6.5072 0.5052,0 0.839,3.7125 0.7419,8.25 l -0.1766,8.25 -0.5734,-7 -0.5734,-7 -2.3315,6.75 c -1.2824,3.7125 -2.6736,6.75 -3.0917,6.75 -0.4181,0 -1.3253,-1.8859 -2.0159,-4.191 -0.6906,-2.305 -1.7614,-5.3425 -2.3796,-6.75 -1.0074,-2.2938 -1.1863,-1.8334 -1.726,4.441 l -0.6021,7 z m 17.7073,6.1102 c -1.7457,-2.1036 0.03,-4.7179 3.6405,-5.3602 3.5536,-0.6322 4.5472,-3 1.2589,-3 -1.3108,0 -2.9233,0.54 -3.5833,1.2 -0.8931,0.8931 -1.2,0.9021 -1.2,0.035 0,-1.729 3.7877,-3.4374 6.0378,-2.7232 1.5021,0.4767 1.9622,1.5257 1.9622,4.4736 0,2.118 0.2363,4.4666 0.5251,5.2191 0.7753,2.0204 -6.9776,2.1599 -8.6412,0.1555 z m 6.771,-1.9033 c 0.3257,-0.8487 0.3325,-1.8028 0.015,-2.1201 -1.0759,-1.0759 -5.6701,0.6923 -5.6701,2.1823 0,2.0004 4.884,1.9466 5.6549,-0.062 z m 24.0001,1.7144 c -2.2617,-2.4992 -2.0788,-6.4778 0.4009,-8.7219 1.671,-1.5122 2.4086,-1.6404 3.9389,-0.6847 1.6792,1.0486 1.9263,0.8274 2.284,-2.0444 0.2206,-1.7712 0.4663,0.6047 0.5459,5.2797 0.086,5.0712 -0.2021,7.9527 -0.715,7.1432 -0.5993,-0.9458 -1.0669,-1.0215 -1.5437,-0.25 -1.0149,1.6422 -3.0411,1.3443 -4.911,-0.7219 z m 5.845,-4.1713 c 0,-2.8359 -0.4141,-3.5589 -2.1823,-3.8107 -1.3962,-0.1987 -2.5797,0.4317 -3.2852,1.75 -1.5439,2.8848 0.3602,6.2878 3.2852,5.8714 1.7682,-0.2518 2.1823,-0.9748 2.1823,-3.8107 z m 5.3839,4.3602 c -1.7457,-2.1036 0.03,-4.7179 3.6405,-5.3602 3.5536,-0.6322 4.5472,-3 1.2589,-3 -1.3108,0 -2.9233,0.54 -3.5833,1.2 -0.8931,0.8931 -1.2,0.9021 -1.2,0.035 0,-1.729 3.7877,-3.4374 6.0378,-2.7232 1.5021,0.4767 1.9622,1.5257 1.9622,4.4736 0,2.118 0.2363,4.4666 0.5251,5.2191 0.7753,2.0204 -6.9776,2.1599 -8.6412,0.1555 z m 6.771,-1.9033 c 0.3257,-0.8487 0.3325,-1.8028 0.015,-2.1201 -1.0759,-1.0759 -5.6701,0.6923 -5.6701,2.1823 0,2.0004 4.884,1.9466 5.6549,-0.062 z m 5.8926,2.2931 c -0.9019,-2.8925 -1.1884,-10.4062 -0.4672,-12.2539 0.6133,-1.5712 0.7941,-1.6413 0.8494,-0.3294 0.039,0.9166 0.6328,1.9291 1.3203,2.25 1,0.4666 1,0.7 0,1.1666 -1.4856,0.6933 -1.6857,7.0294 -0.25,7.9167 0.55,0.3399 1,1.0415 1,1.559 0,1.3938 -2.0002,1.1418 -2.4525,-0.309 z m 5.3364,-0.3898 c -1.7457,-2.1036 0.03,-4.7179 3.6405,-5.3602 3.5536,-0.6322 4.5472,-3 1.2589,-3 -1.3108,0 -2.9233,0.54 -3.5833,1.2 -0.8931,0.8931 -1.2,0.9021 -1.2,0.035 0,-1.729 3.7877,-3.4374 6.0378,-2.7232 1.5021,0.4767 1.9622,1.5257 1.9622,4.4736 0,2.118 0.2363,4.4666 0.5251,5.2191 0.7753,2.0204 -6.9776,2.1599 -8.6412,0.1555 z m 6.771,-1.9033 c 0.3257,-0.8487 0.3325,-1.8028 0.015,-2.1201 -1.0759,-1.0759 -5.6701,0.6923 -5.6701,2.1823 0,2.0004 4.884,1.9466 5.6549,-0.062 z m 16.0951,2.8808 c 0.6875,-0.2774 1.8125,-0.2774 2.5,0 0.6875,0.2774 0.125,0.5044 -1.25,0.5044 -1.375,0 -1.9375,-0.227 -1.25,-0.5044 z m 10.25,-0.1348 c 0,-0.4383 1.8,-2.5547 4,-4.7029 2.2,-2.1482 4,-4.7287 4,-5.7343 0,-2.4115 -2.7668,-3.3924 -5.2298,-1.8542 -2.5493,1.592 -3.3257,0.7869 -1.2464,-1.2925 2.0509,-2.0508 4.882,-2.0703 6.9048,-0.048 2.4782,2.4783 1.8824,4.4487 -2.595,8.5822 l -4.1664,3.8464 h 4.1664 c 2.2915,0 4.1664,0.45 4.1664,1 0,0.55 -2.25,1 -5,1 -2.75,0 -5,-0.3587 -5,-0.7971 z m 14.4411,-0.6223 c -1.4874,-1.0876 -1.9411,-2.6257 -1.9411,-6.5806 0,-3.9549 0.4537,-5.493 1.9411,-6.5806 2.5493,-1.8641 3.1801,-1.7982 5.5589,0.5806 1.3333,1.3333 2,3.3333 2,6 0,2.6667 -0.6667,4.6667 -2,6 -2.3788,2.3788 -3.0096,2.4447 -5.5589,0.5806 z m 5.0589,-6.5806 c 0,-5.2 -0.1364,-5.5 -2.5,-5.5 -2.237,0 -2.5329,0.4592 -2.8131,4.3644 -0.4113,5.7339 0.2983,7.3477 3.0586,6.9557 2.0272,-0.2878 2.2545,-0.8745 2.2545,-5.8201 z m 4.5,7.2029 c 0,-0.4383 1.8,-2.5547 4,-4.7029 2.2,-2.1482 4,-4.7287 4,-5.7343 0,-2.4115 -2.7668,-3.3924 -5.2298,-1.8542 -2.5493,1.592 -3.3257,0.7869 -1.2464,-1.2925 2.0509,-2.0508 4.882,-2.0703 6.9048,-0.048 2.4782,2.4783 1.8824,4.4487 -2.595,8.5822 l -4.1664,3.8464 h 4.1664 c 2.2915,0 4.1664,0.45 4.1664,1 0,0.55 -2.25,1 -5,1 -2.75,0 -5,-0.3587 -5,-0.7971 z m 18.1747,-5.0203 c -0.1675,-6.0579 -0.2671,-6.289 -2.4247,-5.6258 -2.2214,0.6828 -2.2183,0.6572 0.25,-2.0243 l 2.5,-2.716 0.3075,4.0918 c 0.1691,2.2504 0.1352,6.0042 -0.075,8.3417 -0.2985,3.3137 -0.4213,2.8582 -0.5575,-2.0674 z m -57.1021,2.1825 c -2.7406,-3.484 -2.614,-5.6689 0.5251,-9.0593 l 2.5978,-2.8058 -2.0978,2.8849 c -2.6373,3.6269 -2.643,5.6522 -0.025,8.9802 1.1399,1.4492 1.8476,2.6349 1.5726,2.6349 -0.275,0 -1.4327,-1.1857 -2.5726,-2.6349 z m 2.3562,-2.7927 c -0.3351,-1.3351 -0.2209,-3.1214 0.2537,-3.9695 0.598,-1.0686 0.863,-0.3232 0.863,2.4275 0,4.5813 -0.2628,4.9441 -1.1167,1.542 z m 10.0712,-1.5724 c 0,-2.095 0.3375,-3.6004 0.75,-3.3455 0.4125,0.2549 0.75,1.7604 0.75,3.3455 0,1.5851 -0.3375,3.0906 -0.75,3.3455 -0.4125,0.2549 -0.75,-1.2505 -0.75,-3.3455 z m -1047.5,-11 c 0,-10 0.25,-12 1.5,-12 1.25,0 1.5,2 1.5,12 0,10 -0.25,12 -1.5,12 -1.25,0 -1.5,-2 -1.5,-12 z m 1039.75,3.3377 c 0.6875,-0.2774 1.8125,-0.2774 2.5,0 0.6875,0.2774 0.125,0.5044 -1.25,0.5044 -1.375,0 -1.9375,-0.227 -1.25,-0.5044 z M 0,268.27349 c 0,-4.35362 6.16507,-7.14822 15.76947,-7.14822 6.79146,0 7.50274,-0.23028 14.65021,-4.74293 l 7.51219,-4.74294 3.03306,-12.84146 c 3.87162,-16.39177 7.76825,-22.73795 15.53507,-25.30093 2.75,-0.90748 6.8,-2.44873 9,-3.42502 2.2,-0.97628 10.3,-3.89388 18,-6.48356 7.7,-2.58967 15.28361,-5.36369 16.85247,-6.1645 1.56886,-0.8008 4.71886,-2.06172 7,-2.80204 2.28114,-0.74032 9.07371,-3.17992 15.09459,-5.42133 8.74095,-3.25402 12.28096,-4.07529 17.56613,-4.07529 h 6.61907 l 2.66891,5.75 c 1.4679,3.1625 4.73364,13.4 7.25719,22.75 3.56524,13.20954 4.71404,19.37679 5.1523,27.65975 0.51348,9.70461 0.3725,10.96962 -1.57332,14.11803 -1.17554,1.90206 -2.13734,3.68808 -2.13734,3.96893 0,0.95472 5.48529,2.66308 9.5,2.95873 l 4,0.29456 0.30162,-4.67229 c 0.29011,-4.49413 0.47068,-4.742 4.73517,-6.5 4.36785,-1.80062 4.45705,-1.93317 6.01894,-8.94366 1.29455,-5.81057 2.26036,-7.76738 5.26483,-10.66707 2.02369,-1.95311 5.47944,-4.02903 7.67944,-4.61315 3.46369,-0.91965 4.25458,-1.6843 5.89877,-5.70313 l 1.89877,-4.64109 5.15401,0.60575 c 2.83471,0.33316 6.6752,0.90999 8.53442,1.28183 l 3.38041,0.67609 -2.29138,-3.21795 c -1.98489,-2.78752 -2.2004,-3.94607 -1.61123,-8.66164 l 0.68014,-5.44369 h 7.24096 c 6.74012,0 7.43974,-0.2075 10.11513,-3 1.5808,-1.65 3.43843,-3 4.12807,-3 2.2589,0 2.55694,-1.98112 1.33047,-8.84402 -1.10799,-6.19993 -1.02775,-7.2602 0.96188,-12.71009 1.54641,-4.23587 3.09229,-6.5574 5.37514,-8.07214 2.29846,-1.52511 3.99487,-4.08967 6.00018,-9.07086 2.63369,-6.54206 3.08376,-7.06629 7.76441,-9.04381 l 4.96867,-2.0992 -0.64781,-6.97021 c -0.59356,-6.3865 -0.48089,-7.02319 1.34543,-7.60284 1.71575,-0.54456 1.97795,-1.46444 1.8834,-6.6075 -0.0604,-3.28617 -0.16738,-5.97587 -0.23772,-5.9771 -0.0703,-0.001 -1.74337,0.67277 -3.71788,1.49777 -1.9745,0.825 -6.43906,1.5 -9.92123,1.5 h -6.33123 l -1.29374,-3.57776 c -1.14777,-3.17412 -1.04488,-4.24317 0.91201,-9.47587 1.98106,-5.29728 2.55079,-5.96283 5.59285,-6.53353 3.71422,-0.69679 4.16891,-1.51911 1.8871,-3.412838 -2.01072,-1.66875 -1.8951,-3.13326 0.66305,-8.39871 1.89296,-3.89627 2.87927,-4.71336 7.89885,-6.54359 3.80327,-1.38674 6.94912,-3.43437 9.33695,-6.07742 4.07759,-4.51341 4.2621,-5.18725 1.94625,-7.10784 -2.76251,-2.291 -4.3451,-7.46856 -4.3451,-14.21532 0,-10.51095 0.60161,-12.06504 5.61311,-14.499813 l 4.4245,-2.149585 -2.60458,-5.139883 c -3.685,-7.271992 -2.88284,-10.500903 4.10814,-16.536479 C 284.54353,15.864586 287,13.191349 287,12.516105 c 0,-0.675243 -1.575,-2.201119 -3.5,-3.3908343 -3.60694,-2.22921 -3.89786,-2.913498 -2.86971,-6.75 0.41314,-1.54163895 1.35932,-2.24999995 3.00539,-2.24999995 1.9941,0 2.30617,0.383519 1.83609,2.25646095 -0.4425,1.76305 0.1,2.650076 2.48095,4.056536 2.5694,1.517784 3.04728,2.412888 3.04728,5.7077793 0,3.466653 -0.68597,4.574791 -6.07769,9.818078 l -6.07769,5.910375 3.07769,6.096869 C 283.61504,37.324647 285,40.679148 285,41.425817 c 0,0.746669 -2.22582,2.400095 -4.94626,3.674285 -4.84326,2.26846 -4.96026,2.42881 -5.61898,7.70102 -0.86664,6.93635 -0.0504,10.80379 3.06045,14.50083 4.42799,5.26236 4.26919,7.09822 -1.14519,13.23935 -3.68985,4.18513 -6.1913,5.98735 -10.48155,7.55166 -4.41445,1.60958 -5.90755,2.71245 -6.89295,5.09141 -1.15329,2.78428 -1.03828,3.26596 1.38331,5.79355 4.08245,4.261158 3.48441,5.830498 -2.71212,7.116888 -4.99495,1.03695 -5.43911,1.37141 -6.63552,4.99655 -0.70523,2.13686 -1.01037,4.59366 -0.6781,5.45956 0.84714,2.2076 6.47714,2.01512 11.80771,-0.40369 2.39756,-1.08792 6.0467,-1.98792 8.1092,-2 4.21001,-0.0247 4.59768,0.97344 2.43152,6.26016 -0.768,1.87435 -1.01837,4.26168 -0.59968,5.71788 1.40039,4.87056 1.0235,7.83179 -1.08184,8.5 -1.75934,0.55839 -2,1.51303 -2,7.93347 v 7.29869 l -5.11921,1.94514 c -4.8997,1.86174 -5.24553,2.2458 -8.0652,8.95683 -2.04366,4.86406 -3.82573,7.53136 -5.81821,8.70834 -3.91341,2.31171 -7.03764,10.58861 -5.87847,15.57361 1.44287,6.20502 1.09824,14.08392 -0.61603,14.08392 -0.82341,0 -3.24046,1.575 -5.3712,3.5 -3.59194,3.2451 -4.34835,3.5 -10.3863,3.5 -6.13548,0 -6.53961,0.14325 -6.98555,2.47606 -0.32522,1.70127 0.57704,4.03577 2.88342,7.46055 1.84621,2.74147 3.35675,5.7392 3.35675,6.66162 0,1.77698 0.81775,1.78812 -15.5462,-0.21181 l -5.0462,-0.61673 -1.84739,4.09678 c -1.51673,3.36352 -2.47531,4.21458 -5.35563,4.75493 -1.92954,0.36198 -5.21609,2.20108 -7.30344,4.08688 -3.21035,2.90036 -4.0442,4.54794 -5.41101,10.69149 -1.57458,7.07744 -1.72903,7.31777 -6.05297,9.4185 -3.65005,1.77333 -4.43958,2.64587 -4.45081,4.91873 -0.008,1.51965 -0.30057,3.83506 -0.65125,5.14536 -0.61087,2.28251 -0.91583,2.35903 -7.27679,1.82575 C 159.9296,266.1519 153,263.5655 153,261.21303 c 0,-0.93229 1.18815,-4.07939 2.64034,-6.99355 2.39551,-4.80717 2.58365,-6.00763 2.02898,-12.94634 -0.6179,-7.72954 -9.18923,-41.47893 -12.29161,-48.39787 -1.49319,-3.33013 -2.08559,-3.75 -5.29086,-3.75 -3.27491,0 -14.66043,3.64345 -32.08685,10.26801 -3.575,1.35902 -11.25706,4.27626 -17.07125,6.48275 -5.81419,2.2065 -12.11419,4.34127 -14,4.74395 -1.88581,0.40267 -5.67875,1.7424 -8.42875,2.97717 -2.75,1.23477 -7.05486,2.98938 -9.56636,3.89915 -7.12724,2.58177 -10.0482,7.59314 -13.8456,23.75428 l -3.14952,13.40387 -8.21926,5.11233 c -7.89031,4.90773 -8.56682,5.13268 -16.90374,5.62066 -6.36868,0.37278 -9.43526,1.02853 -11.5,2.45912 C 0.14269,271.43064 0,271.4421 0,268.27349 Z M 715,4.0853377 c -3.06432,-2.69296 -3.94671,-3.95551995 -2.76578,-3.95736195 0.95383,-0.0015 3.17792,1.28723395 4.94243,2.86382695 l 3.20821,2.866532 6.05757,-2.865743 C 729.77409,1.4164327 733.4,0.16550075 734.5,0.21274175 c 1.59421,0.06847 -12.66606,7.75004295 -14.5,7.81071295 -0.275,0.0091 -2.525,-1.763055 -5,-3.938117 z"
       id="path329" />
  </g>
</svg>
