<?xml version="1.0" encoding="UTF-8" standalone="no"?>
<!-- Created with Inkscape (http://www.inkscape.org/) -->

<svg
   version="1.1"
   id="svg209"
   width="1280"
   height="1280"
   viewBox="0 0 1280 1280"
   sodipodi:docname="staticmap-tokyo-park-13.svg"
   inkscape:version="1.1.1 (3bf5ae0d25, 2021-09-20)"
   xmlns:inkscape="http://www.inkscape.org/namespaces/inkscape"
   xmlns:sodipodi="http://sodipodi.sourceforge.net/DTD/sodipodi-0.dtd"
   xmlns="http://www.w3.org/2000/svg"
   xmlns:svg="http://www.w3.org/2000/svg">
  <defs
     id="defs213" />
  <sodipodi:namedview
     id="namedview211"
     pagecolor="#ffffff"
     bordercolor="#666666"
     borderopacity="1.0"
     inkscape:pageshadow="2"
     inkscape:pageopacity="0.0"
     inkscape:pagecheckerboard="0"
     showgrid="false"
     inkscape:zoom="0.68203125"
     inkscape:cx="639.2669"
     inkscape:cy="640"
     inkscape:window-width="3440"
     inkscape:window-height="1369"
     inkscape:window-x="-8"
     inkscape:window-y="-8"
     inkscape:window-maximized="1"
     inkscape:current-layer="g215" />
  <g
     inkscape:groupmode="layer"
     inkscape:label="Image"
     id="g215">
    <path
       style="fill:#000000"
       d="m 210.00966,1279 c 0,-0.55 0.45,-1 1,-1 0.55,0 1,0.45 1,1 0,0.55 -0.45,1 -1,1 -0.55,0 -1,-0.45 -1,-1 z m 99,0.4573 c 0,-0.2985 1.86484,-3.067 4.14409,-6.1523 2.27925,-3.0853 5.31675,-8.5786 6.75,-12.2073 2.165,-5.4814 2.65844,-6.1428 2.91641,-3.9091 0.72926,6.3147 -7.81921,22.8114 -11.82071,22.8114 -1.09439,0 -1.98979,-0.2442 -1.98979,-0.5427 z m 36.72798,-7.5055 c -1.36567,-7.4104 -1.34156,-8.5793 0.30414,-14.75 l 1.78735,-6.7018 0.0903,12.4624 c 0.0893,12.3356 0.11826,12.4854 2.84027,14.7141 l 2.75,2.2516 -3.14441,0.036 -3.14441,0.036 -1.4832,-8.0482 z m 200.90033,1.4452 c 1.98805,-9.4841 4.3831,-17.397 5.2657,-17.397 0.41365,0 -0.20633,5.2863 -1.37773,11.7472 -1.5918,8.7797 -2.52946,11.8242 -3.71182,12.0519 -1.42794,0.275 -1.44509,-0.3484 -0.17615,-6.4021 z m 14.73871,3.853 c 0.80223,-4.1948 1.75574,-10.7667 2.09587,-14.4454 1.60064,-17.3124 1.61693,-22.4141 0.13983,-43.8046 -0.89252,-12.925 -1.80794,-24.9192 -2.03426,-26.6538 l -0.41151,-3.1539 12.67153,-0.6723 c 6.96933,-0.3698 13.39014,-0.8715 14.26844,-1.115 1.68882,-0.4681 3.50235,10.5724 7.73591,47.095 l 1.73874,15 4.61227,0.3006 4.61227,0.3007 -0.45671,4.1993 c -0.25119,2.3097 -1.60683,9.0369 -3.01253,14.9494 L 600.7807,1280 h -19.96497 -19.96498 z m 43.63298,0.875 c 0,-1.0312 0.2752,-3.251 0.61157,-4.9328 0.56069,-2.8035 0.82412,-2.977 3.16703,-2.0863 1.86931,0.7107 2.77501,0.6256 3.37312,-0.3171 1.37131,-2.1615 0.94254,-8.2092 -0.75372,-10.631 -0.8811,-1.2579 -1.4436,-2.4356 -1.25,-2.617 0.1936,-0.1814 3.53391,-0.7354 7.42291,-1.231 l 7.0709,-0.9012 -2.55437,12.2957 -2.55437,12.2957 h -7.26654 c -6.43838,0 -7.26653,-0.2137 -7.26653,-1.875 z m 42,1.2729 c 0.825,-0.2035 10.5,-1.5141 21.5,-2.9125 11,-1.3984 25.85,-3.7959 33,-5.3278 l 13,-2.7852 0.30649,-7.4362 c 0.41495,-10.0677 -0.32915,-13.5497 -3.08113,-14.4179 -2.03283,-0.6413 -1.93979,-0.7706 1.07539,-1.4943 1.81541,-0.4357 3.60786,-1.0993 3.98323,-1.4746 0.37536,-0.3754 0.85299,-8.6401 1.06139,-18.366 0.2673,-12.4749 0.78769,-18.4788 1.76677,-20.3837 0.82558,-1.6064 1.38786,-5.7827 1.38786,-10.3085 0,-5.1929 0.97799,-11.4785 3.08072,-19.7997 2.15869,-8.5427 2.78884,-12.6606 2.1055,-13.759 -1.46326,-2.3519 -1.96328,-29.1734 -0.55263,-29.6436 0.80496,-0.2684 1.25786,4.6356 1.56228,16.9166 0.38475,15.5217 0.18579,18.3708 -1.94099,27.7945 -2.15989,9.5704 -5.13629,43.3718 -5.22723,59.3628 l -0.0276,4.8629 6.87636,-0.3886 c 6.84516,-0.3867 6.87166,-0.3782 5.83949,1.8872 -0.8577,1.8824 -1.82998,2.2783 -5.62637,2.291 -7.27339,0.024 -7.31948,0.1158 -6.96532,13.8335 0.17963,6.9575 -0.0995,12.5026 -0.65569,13.0266 -1.02616,0.9667 -25.59708,5.2655 -43.90489,7.6814 -9.32655,1.2308 -32.96433,1.9268 -28.56358,0.8411 z m 80.5,-3.3979 c 3.29472,-3.3741 4.53916,-3.9976 7.95295,-3.9847 2.22588,0.01 4.64765,0.396 5.38171,0.8614 0.78302,0.4963 -0.68487,0.6519 -3.55145,0.3765 -4.60766,-0.4427 -5.06665,-0.2639 -8.05411,3.1386 -1.7424,1.9845 -3.72307,3.6082 -4.4015,3.6082 -0.67842,0 0.52416,-1.8 2.6724,-4 z m 26,2.4648 c -2.50062,-1.2044 -2.58385,-1.3433 -0.5,-0.8339 2.8335,0.6925 6.0185,2.3159 4.5,2.2936 -0.55,-0.01 -2.35,-0.6649 -4,-1.4597 z m 109.99489,0.1425 c -0.54719,-0.766 -6.74611,-3.0871 -13.77538,-5.1579 l -12.78048,-3.7652 -2.96952,2.845 -2.96951,2.845 v -2.5647 c 0,-1.4105 -0.5625,-3.0015 -1.25,-3.5356 -0.6875,-0.534 -8.69172,-2.8855 -17.78714,-5.2256 l -16.53715,-4.2548 0.39655,-3.3968 c 0.2181,-1.8682 0.57914,-3.3967 0.80229,-3.3967 0.22316,0 2.76143,1.3014 5.6406,2.8919 3.19931,1.7674 12.81732,4.8424 24.73485,7.908 32.96343,8.4794 32,8.3807 32,3.2798 0,-2.4165 0.32948,-2.7394 2.39286,-2.3449 2.21987,0.4243 2.32252,0.7121 1.41989,3.9812 -0.53513,1.9381 -0.59942,3.8912 -0.14286,4.3402 0.45656,0.449 6.00511,2.1541 12.33011,3.7891 l 11.5,2.9726 -11.00511,0.091 c -8.34367,0.069 -11.24572,-0.2458 -12,-1.3017 z m 35.5138,-0.7877 c 0.005,-1.2758 0.28545,-4.6229 0.62371,-7.438 l 0.61502,-5.1185 3.20354,0.9832 3.20355,0.9832 -1.67425,6.1353 c -1.32683,4.8621 -2.12101,6.2015 -3.82726,6.4548 -1.67888,0.2491 -2.15109,-0.1913 -2.14431,-2 z M 747.00966,1276 c -0.825,-0.5332 -1.05,-0.9694 -0.5,-0.9694 0.55,0 1.675,0.4362 2.5,0.9694 0.825,0.5332 1.05,0.9694 0.5,0.9694 -0.55,0 -1.675,-0.4362 -2.5,-0.9694 z m 401.16514,-7 c -0.08,-5.0753 0.2119,-7.9533 0.7252,-7.1432 0.5993,0.9458 1.0669,1.0215 1.5437,0.25 1.8609,-3.011 6.566,0.4356 6.566,4.8096 0,3.4817 -3.1339,6.4933 -5.8576,5.6288 -1.6248,-0.5157 -2.08,-0.1098 -2.4218,2.1599 -0.2315,1.5372 -0.4815,-1.0301 -0.5555,-5.7051 z m 6.6816,0.25 c 1.1224,-2.142 -0.2674,-6.25 -2.1145,-6.25 -1.8151,0 -3.7322,2.0547 -3.7322,4 0,3.6424 4.2583,5.2811 5.8467,2.25 z M 0.00966,1267.6667 c 0,-6.9835 0.87014,-9.3039 2.5,-6.6667 0.33992,0.55 1.66833,1 2.95203,1 3.8283,0 3.62447,2.443 -0.63557,7.6177 -2.2106,2.6853 -4.19864,5.0698 -4.41786,5.299 -0.21923,0.2291 -0.3986,-3.0334 -0.3986,-7.25 z M 1118.1863,1265.25 c -0.2199,-10.2724 1.6127,-11.2028 4.3379,-2.2022 1.0071,3.3263 2.1656,6.2545 2.5744,6.5071 0.4088,0.2527 1.7177,-2.4688 2.9087,-6.0477 1.191,-3.579 2.5788,-6.5072 3.0839,-6.5072 0.5052,0 0.839,3.7125 0.7419,8.25 l -0.1766,8.25 -0.5734,-7 -0.5734,-7 -2.3315,6.75 c -1.2824,3.7125 -2.6736,6.75 -3.0917,6.75 -0.4181,0 -1.3253,-1.8859 -2.0159,-4.191 -0.6906,-2.305 -1.7614,-5.3425 -2.3796,-6.75 -1.0074,-2.2938 -1.1863,-1.8334 -1.726,4.441 l -0.6021,7 z m 17.7073,6.1102 c -1.7457,-2.1036 0.03,-4.7179 3.6405,-5.3602 3.5536,-0.6322 4.5472,-3 1.2589,-3 -1.3108,0 -2.9233,0.54 -3.5833,1.2 -0.8931,0.8931 -1.2,0.9021 -1.2,0.035 0,-3.3878 7.9418,-3.7996 8.0576,-0.4178 0.032,0.9254 0.2267,3.2757 0.4334,5.2228 0.3699,3.4853 0.3159,3.5425 -3.4817,3.694 -2.398,0.096 -4.3371,-0.4242 -5.1254,-1.374 z m 6.1362,-1.8844 c 0.6957,-0.8383 0.9967,-1.7923 0.669,-2.1201 -1.0901,-1.0901 -5.6891,0.6587 -5.6891,2.1634 0,1.9369 3.401,1.9076 5.0201,-0.043 z m 24.6349,1.6955 c -3.5705,-3.9454 -0.3847,-11.1724 4.2733,-9.694 1.7469,0.5544 2.0897,0.2158 2.1867,-2.1599 0.095,-2.3265 0.2592,-2.1204 0.9424,1.1826 1.1629,5.6221 1.1313,12.5 -0.057,12.5 -0.55,0 -1,-0.54 -1,-1.2 0,-0.9333 -0.2667,-0.9333 -1.2,0 -1.684,1.684 -3.2222,1.496 -5.145,-0.6287 z m 6.1751,-3.5628 c 0.5071,-4.4425 -3.8139,-6.3758 -5.8301,-2.6085 -1.5106,2.8226 0.4301,6.2218 3.3177,5.8107 1.5704,-0.2236 2.2748,-1.1214 2.5124,-3.2022 z m 5.0538,3.7517 c -1.7457,-2.1036 0.03,-4.7179 3.6405,-5.3602 3.5536,-0.6322 4.5472,-3 1.2589,-3 -1.3108,0 -2.9233,0.54 -3.5833,1.2 -0.8931,0.8931 -1.2,0.9021 -1.2,0.035 0,-1.729 3.7877,-3.4374 6.0378,-2.7232 1.2028,0.3818 1.9622,1.5158 1.9622,2.9304 0,1.2692 0.2618,3.6168 0.5818,5.2168 0.5614,2.807 0.4411,2.9149 -3.424,3.069 -2.5358,0.1012 -4.4712,-0.4009 -5.2739,-1.368 z m 6.5326,-2.0033 c 0.8558,-2.23 0.1453,-2.7147 -2.8699,-1.9579 -1.4006,0.3515 -2.5466,1.3055 -2.5466,2.1201 0,2.0492 4.6211,1.9108 5.4165,-0.1622 z m 6.131,2.3931 c -0.9019,-2.8925 -1.1884,-10.4062 -0.4672,-12.2539 0.6133,-1.5712 0.7941,-1.6413 0.8494,-0.3294 0.039,0.9166 0.6328,1.9291 1.3203,2.25 0.9916,0.4627 0.9859,0.7058 -0.028,1.1759 -1.419,0.6581 -0.7091,6.9652 1.0307,9.1574 0.7112,0.896 0.5238,1.25 -0.6617,1.25 -0.9096,0 -1.8293,-0.5625 -2.0436,-1.25 z m 5.3364,-0.3898 c -1.7457,-2.1036 0.03,-4.7179 3.6405,-5.3602 3.5536,-0.6322 4.5472,-3 1.2589,-3 -1.3108,0 -2.9158,0.5325 -3.5666,1.1833 -0.6509,0.6509 -1.4549,0.9118 -1.7868,0.5799 -1.1432,-1.1432 4.4264,-3.9436 6.5211,-3.2787 1.598,0.5071 2.049,1.4979 2.049,4.5011 0,2.118 0.2363,4.4666 0.5251,5.2191 0.7753,2.0204 -6.9776,2.1599 -8.6412,0.1555 z m 5.5343,-0.9672 c 1.9657,-0.7543 2.0929,-3.393 0.1636,-3.393 -2.5133,0 -4.5818,1.177 -4.5818,2.607 0,1.474 1.7937,1.7931 4.4182,0.786 z m 17.3318,1.9447 c 0.6875,-0.2774 1.8125,-0.2774 2.5,0 0.6875,0.2774 0.125,0.5044 -1.25,0.5044 -1.375,0 -1.9375,-0.227 -1.25,-0.5044 z m 10.25,-0.1348 c 0,-0.4383 1.8,-2.5547 4,-4.7029 2.2,-2.1482 4,-4.7287 4,-5.7343 0,-2.4115 -2.7668,-3.3924 -5.2298,-1.8542 -2.5493,1.592 -3.3257,0.7869 -1.2464,-1.2925 2.0509,-2.0508 4.882,-2.0703 6.9048,-0.048 2.4782,2.4783 1.8824,4.4487 -2.595,8.5822 l -4.1664,3.8464 h 4.1664 c 2.2915,0 4.1664,0.45 4.1664,1 0,0.55 -2.25,1 -5,1 -2.75,0 -5,-0.3587 -5,-0.7971 z m 14.4411,-0.6223 c -1.4874,-1.0876 -1.9411,-2.6257 -1.9411,-6.5806 0,-3.9549 0.4537,-5.493 1.9411,-6.5806 2.5493,-1.8641 3.1801,-1.7982 5.5589,0.5806 1.3333,1.3333 2,3.3333 2,6 0,2.6667 -0.6667,4.6667 -2,6 -2.3788,2.3788 -3.0096,2.4447 -5.5589,0.5806 z m 5.0589,-6.5806 c 0,-5.2 -0.1364,-5.5 -2.5,-5.5 -2.237,0 -2.5329,0.4592 -2.8131,4.3644 -0.4113,5.7339 0.2983,7.3477 3.0586,6.9557 2.0272,-0.2878 2.2545,-0.8745 2.2545,-5.8201 z m 4.5,7.2029 c 0,-0.4383 1.8,-2.5547 4,-4.7029 2.2,-2.1482 4,-4.7287 4,-5.7343 0,-2.4115 -2.7668,-3.3924 -5.2298,-1.8542 -2.5493,1.592 -3.3257,0.7869 -1.2464,-1.2925 2.0509,-2.0508 4.882,-2.0703 6.9048,-0.048 2.4782,2.4783 1.8824,4.4487 -2.595,8.5822 l -4.1664,3.8464 h 4.1664 c 2.2915,0 4.1664,0.45 4.1664,1 0,0.55 -2.25,1 -5,1 -2.75,0 -5,-0.3587 -5,-0.7971 z m 18.1747,-5.0203 c -0.1675,-6.0579 -0.2671,-6.289 -2.4247,-5.6258 -2.2214,0.6828 -2.2183,0.6572 0.25,-2.0243 l 2.5,-2.716 0.3075,4.0918 c 0.1691,2.2504 0.1352,6.0042 -0.075,8.3417 -0.2985,3.3137 -0.4213,2.8582 -0.5575,-2.0674 z m -57.1021,2.1825 c -2.7406,-3.484 -2.614,-5.6689 0.5251,-9.0593 l 2.5978,-2.8058 -2.0978,2.8849 c -2.6373,3.6269 -2.643,5.6522 -0.025,8.9802 1.1399,1.4492 1.8476,2.6349 1.5726,2.6349 -0.275,0 -1.4327,-1.1857 -2.5726,-2.6349 z m 2.3562,-2.7927 c -0.3351,-1.3351 -0.2209,-3.1214 0.2537,-3.9695 0.598,-1.0686 0.863,-0.3232 0.863,2.4275 0,4.5813 -0.2628,4.9441 -1.1167,1.542 z M 1226.5097,1265 c 0,-2.095 0.3375,-3.6004 0.75,-3.3455 0.4125,0.2549 0.75,1.7604 0.75,3.3455 0,1.5851 -0.3375,3.0906 -0.75,3.3455 -0.4125,0.2549 -0.75,-1.2505 -0.75,-3.3455 z M 99.00966,1254 c 0,-10 0.25,-12 1.5,-12 1.25,0 1.5,2 1.5,12 0,10 -0.25,12 -1.5,12 -1.25,0 -1.5,-2 -1.5,-12 z m -94,2.1672 -4.5,-1.7241 L 0.25483,1154.7216 0,1055 h 3.42305 c 1.88267,0 4.10863,-0.2631 4.94658,-0.5846 1.21139,-0.4649 1.58669,0.3967 1.83179,4.2054 0.30539,4.7458 0.35101,4.8034 4.93024,6.2205 l 4.622,1.4303 3.52476,11.3685 3.52475,11.3685 -1.98063,7.7457 c -1.62016,6.336 -2.59191,8.2508 -5.3393,10.5211 -2.65527,2.1942 -3.49103,3.7649 -3.99073,7.5 -0.34763,2.5985 -1.27599,6.7246 -2.06301,9.169 -0.78702,2.4445 -1.09095,4.7481 -0.67539,5.1191 0.41555,0.371 5.03055,1.4175 10.25555,2.3255 5.225,0.908 12.68183,2.3802 16.57074,3.2715 l 7.07073,1.6207 -2.38142,10.6094 c -1.30978,5.8352 -4.64688,18.4844 -7.41578,28.1094 -2.76889,9.625 -7.86215,27.625 -11.31833,40 -5.98777,21.4394 -6.47603,22.7 -10.35835,26.7431 -4.16389,4.3364 -5.83147,9.0037 -4.92017,13.7709 0.55452,2.9007 0.6032,2.8947 -5.24742,0.6532 z m 758.00114,-4.8416 c -15.12437,-3.5695 -27.64823,-6.6394 -27.8308,-6.8219 -0.18257,-0.1826 -0.18308,-1.1916 -10e-4,-2.2422 0.31387,-1.8125 1.25185,-1.6946 18.3308,2.3046 9.9,2.3182 22.36934,5.2155 27.70965,6.4384 7.72524,1.769 10.02918,2.7111 11.27306,4.6094 1.446,2.2069 1.43026,2.3792 -0.20966,2.2939 -0.97518,-0.051 -14.14754,-3.0127 -29.27191,-6.5822 z m 455.7489,6.0121 c 0.6875,-0.2774 1.8125,-0.2774 2.5,0 0.6875,0.2774 0.125,0.5044 -1.25,0.5044 -1.375,0 -1.9375,-0.227 -1.25,-0.5044 z m -311.38541,-7.1024 c -2.04985,-0.3306 -1.90359,-0.9329 3.65172,-15.0398 3.1829,-8.0825 9.02009,-21.6705 12.97153,-30.1955 l 7.18445,-15.5 1.91709,-22.5 c 1.0544,-12.375 2.21127,-30.7125 2.57083,-40.75 l 0.65374,-18.25 h 2.91039 c 2.29026,0 2.80685,0.3729 2.42446,1.75 -0.26726,0.9625 -0.77089,6.925 -1.11917,13.25 -0.34829,6.325 -0.82325,13.075 -1.05547,15 -0.41903,3.4736 -0.41342,3.4793 0.74483,0.75 1.03662,-2.4426 1.6907,-2.75 5.85237,-2.75 4.63033,0 4.69724,0.047 5.70063,4 l 1.01531,4 h -6.7645 -6.76451 l -0.59036,5.75 c -0.3247,3.1625 -1.13486,13.625 -1.80035,23.25 -1.07562,15.5567 -1.52411,18.2044 -4.0388,23.8432 -1.55585,3.4888 -2.82882,6.9042 -2.82882,7.5899 0,0.7576 2.74575,1.7373 7,2.4976 6.22728,1.1128 7,1.4999 7,3.5059 v 2.2549 l -7.25,-1.3588 c -3.9875,-0.7473 -7.7,-1.5032 -8.25,-1.6798 -0.55,-0.1766 -4.96382,8.9306 -9.8085,20.2382 -4.84467,11.3076 -8.89467,20.5883 -9,20.6239 -0.10532,0.035 -1.15242,-0.09 -2.32687,-0.2797 z m -283.36463,-2.9241 v -2.9388 l 5.75,0.385 c 3.1625,0.2117 9.6875,-0.2597 14.5,-1.0477 l 8.75,-1.4327 v 3.3615 3.3615 h -11.375 c -6.25625,0 -12.78125,0.2813 -14.5,0.625 -2.93288,0.5866 -3.125,0.4443 -3.125,-2.3138 z m 45.01531,-2.9304 c 0.0481,-2.7698 2.26288,-3.1944 19.98469,-3.8321 10.175,-0.3661 19.7375,-0.9001 21.25,-1.1866 2.42391,-0.4592 2.75,-0.2151 2.75,2.0584 V 1244 l -18.25,0.011 c -10.0375,0.01 -19.9375,0.2899 -22,0.6308 -2.0625,0.341 -3.74311,0.2235 -3.73469,-0.261 z M 533.6937,1233.5 c -0.97216,-10.1596 -0.83385,-25.5 0.22991,-25.5 0.50267,0 1.06517,5.1387 1.25,11.4194 0.18483,6.2806 0.64277,11.7249 1.01766,12.0983 0.37488,0.3733 6.33738,0.048 13.25,-0.7226 6.91261,-0.7708 12.56839,-1.0938 12.56839,-0.7177 0,0.3761 -5.2875,1.2202 -11.75,1.8758 -6.4625,0.6556 -12.29415,1.3631 -12.95922,1.5723 -0.66507,0.2093 -1.59795,1.8641 -2.07307,3.6775 -0.78649,3.0017 -0.92383,2.6701 -1.53367,-3.703 z M 361.00966,1216 c 2.76003,-5.5 5.24323,-10 5.51823,-10 0.275,0 -1.7582,4.5 -4.51823,10 -2.76003,5.5 -5.24323,10 -5.51823,10 -0.275,0 1.7582,-4.5 4.51823,-10 z m 90.80973,-4.6602 -6.69026,-3.5355 -0.67661,-5.4153 c -0.37214,-2.9785 -1.00086,-5.6158 -1.39717,-5.8608 -0.3963,-0.2449 -2.25621,0.8678 -4.13312,2.4726 -4.18301,3.5767 -4.97794,3.6222 -10.2345,0.5858 -2.29794,-1.3274 -6.20307,-2.9783 -8.67807,-3.6686 -2.475,-0.6903 -4.90714,-1.6089 -5.40476,-2.0413 -0.51978,-0.4517 0.47068,-3.9408 2.32775,-8.2001 l 3.23249,-7.4138 8.67226,-1.1064 c 4.76974,-0.6084 14.29726,-1.3611 21.17226,-1.6725 6.875,-0.3114 13.95885,-0.7923 15.7419,-1.0688 3.18305,-0.4936 3.22278,-0.4524 2.1885,2.268 -0.57936,1.5238 -0.94428,6.8631 -0.81093,11.865 0.23834,8.9399 0.17822,9.2002 -3.53606,15.3146 -2.07819,3.4211 -4.07212,7.2984 -4.43097,8.6163 l -0.65244,2.3963 z m 327.48579,-9.4273 -0.92747,-5.7591 5.88698,-1.4829 c 5.21023,-1.3125 5.82134,-1.3119 5.31597,0.01 -0.31405,0.8184 -0.571,3.6254 -0.571,6.2377 v 4.7497 l -4.38851,1.0043 -4.38851,1.0042 -0.92746,-5.759 z M 371.55868,1197 c 3.69053,-6.5712 13.71065,-20.9751 16.00001,-23 2.44458,-2.1622 2.3479,-1.8919 -0.71549,2 -1.94812,2.475 -5.91898,8.1 -8.82413,12.5 -4.87492,7.3833 -8.54564,12.2129 -6.46039,8.5 z m 345.61729,-4 c -0.0401,-1.925 0.5274,-6.425 1.26117,-10 1.72596,-8.4091 1.80215,-4.8282 0.11703,5.5 -0.74751,4.5815 -1.33643,6.5044 -1.3782,4.5 z m 130.83369,-0.3219 c 0,-0.177 0.73413,-2.4764 1.6314,-5.1097 1.3755,-4.0369 1.41471,-4.9252 0.25,-5.6629 -0.86036,-0.5449 1.48747,-0.8807 6.22471,-0.8902 l 7.60612,-0.015 -0.96568,4.884 -0.96568,4.8839 -5.55722,1.1161 c -5.62414,1.1294 -8.22365,1.3805 -8.22365,0.7941 z m 428.37774,-5.8626 c -3.0274,-3.2147 -3.0786,-3.4191 -1.6836,-6.7213 1.4376,-3.4029 1.4405,-3.4041 3.4337,-1.4108 1.5476,1.5476 1.9251,3.0546 1.6836,6.7212 l -0.3114,4.7264 z M 720.57896,1171 c 0.83171,-5.7062 1.94338,-7.9852 2.61645,-5.364 0.26325,1.0252 -0.36533,3.664 -1.39686,5.864 l -1.8755,4 z m -389.52477,-21.428 c -2.73287,-4.4218 -2.62414,-4.9449 1.48829,-7.1596 l 3.53282,-1.9026 2.71718,3.472 c 1.49445,1.9095 2.71718,3.8891 2.71718,4.399 0,0.51 -1.89246,1.731 -4.20547,2.7133 l -4.20547,1.7861 z m 699.51511,-33.7472 c 1.3422,-3.9463 2.4404,-8.6775 2.4404,-10.5139 0,-1.8363 1.1637,-7.5335 2.586,-12.6604 l 2.586,-9.3217 6.9906,1.1991 c 8.0331,1.3779 6.9829,2.3881 10.89,-10.4752 1.8431,-6.0681 2.4629,-7.0527 4.4391,-7.0527 h 2.2968 l -2.9582,9.199 c -1.6271,5.0595 -3.181,9.5595 -3.4533,10 -0.2723,0.4406 0.1205,0.801 0.8729,0.801 0.7523,0 2.191,0.6019 3.1971,1.3376 1.7127,1.2523 1.2074,2.3997 -7.9267,18 L 1042.774,1123 h -7.3226 -7.3226 z m -685.30964,-34.8452 c -5.0875,-7.6831 -9.25,-14.3799 -9.25,-14.8818 0,-0.9918 9.80928,-10.1046 10.85815,-10.0871 0.35302,0.01 2.66685,3.1479 5.14185,6.9823 2.475,3.8344 7.03866,9.2131 10.14148,11.9528 4.82628,4.2613 5.69761,5.5697 6.02995,9.0546 0.38794,4.0679 0.37989,4.0784 -5.80396,7.5366 -3.40584,1.9046 -6.56932,3.4515 -7.02995,3.4374 -0.46064,-0.014 -5.00002,-6.3117 -10.08752,-13.9948 z m 334.33439,-10.7439 c -0.63623,-15.6186 -3.00767,-46.4408 -4.02738,-52.3447 l -0.45063,-2.6091 17.19681,-0.9713 c 9.45825,-0.5341 17.25589,-0.9351 17.32809,-0.8909 0.0722,0.044 0.8765,7.7303 1.78732,17.0803 0.91082,9.35 2.52375,21.95 3.5843,28 1.06054,6.05 2.06751,14.2014 2.2377,18.1142 l 0.30944,7.1143 -16.52502,1.1868 c -9.08876,0.6527 -17.47764,1.3824 -18.64196,1.6214 -2.06806,0.4246 -2.13268,0.048 -2.79867,-16.301 z m 329.39565,6.1213 c -0.011,-2.6714 -1.0888,-9.0195 -2.395,-14.107 l -2.375,-9.25 h 7.5663 c 5.6371,0 8.0325,-0.422 9.395,-1.655 1.7413,-1.5759 1.8321,-1.4683 1.8998,2.25 0.039,2.1478 0.4264,7.955 0.8607,12.905 1.0613,12.0962 0.3843,13.5 -6.5105,13.5 -2.8918,0 -5.9695,0.2731 -6.8395,0.607 -1.3071,0.5016 -1.5853,-0.2365 -1.6018,-4.25 z m 233.27,1.8221 c -2.3375,-1.4611 -4.25,-3.2465 -4.25,-3.9675 0,-1.5212 2.8082,-7.2116 3.5589,-7.2116 0.2792,0 2.7248,1.1235 5.4347,2.4968 l 4.9271,2.4967 -1.7809,4.1935 c -0.9795,2.3063 -2.1992,4.2958 -2.7104,4.421 -0.5112,0.1252 -2.8419,-0.9678 -5.1794,-2.4289 z m -186.8233,-23.647 c 0.3003,-1.1176 0.5521,-5.5196 0.5596,-9.7821 l 0.014,-7.75 h 3.5 3.5 v 9.395 9.3949 l -4.0597,0.3872 c -3.676,0.3505 -4.008,0.1951 -3.5136,-1.645 z M 345.644,1042.25 c -0.27524,-0.9625 -1.88056,-7.522 -3.56739,-14.5766 -2.71259,-11.3447 -3.06695,-14.5509 -3.06695,-27.75002 V 985 h 2.43019 c 2.26528,0 2.36707,0.22011 1.5,3.2434 -1.41499,4.93381 -1.11024,24.3139 0.51598,32.8124 0.79521,4.1556 2.53019,10.5431 3.85551,14.1943 1.69117,4.6591 2.0949,6.9533 1.354,7.6942 -1.51904,1.5191 -2.44955,1.3052 -3.02134,-0.6943 z m 674.4805,-9.2018 c -1.506,-3.1068 -1.6704,-6.228 -1.3211,-25.0902 l 0.3989,-21.54201 9.1537,0.38352 c 7.5446,0.3161 9.971,0.0297 13.8031,-1.62932 l 4.6493,-2.01284 2.0973,5.04656 c 1.5458,3.71969 2.4268,4.79606 3.3506,4.0938 0.6894,-0.52403 3.8822,-3.05539 7.0951,-5.62524 L 1065.193,982 l 9.1584,-0.01 c 5.5934,-0.006 13.0873,0.82447 19.252,2.13359 l 10.0938,2.14348 -2.2242,12.11641 c -1.2521,6.82082 -3.626,15.46532 -5.4314,19.77882 l -3.2071,7.6624 -3.5756,-1.494 c -2.9247,-1.2221 -4.0011,-1.2664 -5.9124,-0.2434 -2.0358,1.0895 -2.3368,1.996 -2.3368,7.0372 v 5.7867 l -4.1257,-1.4557 c -4.6942,-1.6561 -21.9112,-1.9935 -26.4751,-0.5187 -1.5945,0.5152 -8.6739,1.0994 -15.7318,1.2981 l -12.8327,0.3614 -1.7199,-3.5482 z m -356.36933,-32.1846 c 1.48322,-1.43798 4.40913,-1.75176 18.92396,-2.02948 9.4432,-0.18069 17.5057,0.008 17.91666,0.41868 0.41096,0.41096 -1.0153,0.7748 -3.16946,0.8085 -2.15417,0.034 -11.00619,0.6108 -19.67116,1.2823 -14.83762,1.1499 -15.65238,1.1219 -14,-0.48 z M 585.02969,995.75 c 0.011,-0.6875 -1.34392,-20.825 -3.01099,-44.75 -4.91796,-70.5806 -5.04768,-72.49943 -6.52353,-96.5 -0.77788,-12.65 -1.43034,-28.04076 -1.44992,-34.20168 -0.0303,-9.54933 -2.09692,-38.93794 -3.43589,-48.86145 -0.38123,-2.82539 -0.20711,-3.03291 2.2435,-2.67382 l 2.6568,0.38931 -0.3384,8.67382 c -0.18611,4.7706 0.64676,21.72382 1.85084,37.67382 4.96999,65.83603 11.64272,179.99823 10.56384,180.73469 -1.61072,1.0995 -2.57869,0.91596 -2.55625,-0.48469 z m 623.98001,-15.82753 -4.5,-4.07212 4.5947,3.13284 c 3.5725,2.43584 5.2035,2.98007 7.3308,2.44615 1.5048,-0.37768 2.9756,-1.3111 3.2685,-2.07425 0.2928,-0.76315 0.086,-5.72443 -0.4608,-11.02506 -1.1117,-10.78684 0.07,-19.19942 3.6509,-25.98675 2.6459,-5.0154 2.6394,-3.28191 -0.017,4.58437 -1.9528,5.78228 -2.0529,7.25635 -1.185,17.44417 0.871,10.2242 0.7843,11.47342 -1.0663,15.37818 -2.672,5.6377 -5.5294,5.68013 -11.6158,0.17247 z m -803.61739,-44.07521 -6.11736,-1.94166 1.96334,-5.32974 1.96333,-5.32974 3.58008,1.09875 c 2.55653,0.78462 3.68301,0.78999 3.94008,0.0188 0.19801,-0.59401 0.97607,-1.92253 1.72905,-2.95228 1.32864,-1.81703 1.4814,-1.8187 5.177,-0.0564 l 3.80796,1.81589 -2.74883,1.66458 c -1.84022,1.11435 -3.44239,3.5652 -4.84706,7.41457 -1.15402,3.1625 -2.15043,5.70251 -2.21423,5.64446 -0.0638,-0.058 -2.86882,-0.97928 -6.23336,-2.0472 z m 250.61735,-11.70321 c 0,-6.54173 -0.26992,-13.24365 -0.59982,-14.89316 l -0.59983,-2.99912 14.84983,-0.67341 c 8.1674,-0.37038 16.04054,-0.90251 17.49586,-1.18251 l 2.64604,-0.50909 0.68013,12.80662 c 0.37407,7.04364 0.88084,13.53003 1.12614,14.41419 0.38653,1.39317 -1.6575,1.76581 -15.32617,2.79406 -8.6747,0.65257 -16.78468,1.40024 -18.02218,1.66148 -2.23384,0.47158 -2.25,0.38959 -2.25,-11.41906 z m 224.67178,-1.2144 -3.36844,-3.93526 2.01663,-8.9972 L 881.34626,901 h 3.3317 c 3.77627,0 3.81675,-0.17328 1.90667,-8.16229 -1.27674,-5.34001 -1.2453,-5.69066 0.55238,-6.16076 1.75237,-0.45826 3.09457,-2.85235 7.18187,-12.81044 l 1.49137,-3.6335 22.21156,11.29536 c 12.21637,6.21244 22.65645,11.74023 23.20019,12.28397 0.65149,0.65149 0.0662,2.56259 -1.71632,5.60424 -2.55709,4.36334 -2.61724,4.74947 -1.10048,7.06434 0.88245,1.34679 1.60446,2.89373 1.60446,3.43764 0,1.20225 -9.28101,16.06922 -10.036,16.07637 -0.2948,0.003 -1.9823,-1.87673 -3.75,-4.17671 -2.16235,-2.81347 -3.214,-5.28959 -3.214,-7.56739 0,-2.93053 -0.26883,-3.30028 -2,-2.75083 -2.40082,0.76199 -2.43353,0.47335 -0.47705,-4.20917 0.83762,-2.00471 1.17512,-3.95957 0.75,-4.34412 -1.01543,-0.91853 -14.3097,-5.25621 -14.70965,-4.7995 -0.16992,0.19404 -1.09062,1.88856 -2.046,3.76561 -1.69824,3.33656 -1.68814,3.44971 0.45194,5.06398 l 2.18899,1.65116 -7.09524,7.59751 c -5.23024,5.60049 -8.26855,7.9973 -11.55901,9.11847 l -4.46377,1.52096 z m -433.17178,1.5626 c -0.55,-0.19243 -6.32034,-0.65334 -12.82298,-1.02426 l -11.82297,-0.67441 7.57297,-7.78195 c 5.28297,-5.42876 7.57298,-8.52827 7.57298,-10.25 0,-2.37182 0.20468,-2.44927 5.25,-1.98636 2.8875,0.26492 5.3132,0.53636 5.39045,0.6032 0.44017,0.38086 0.81934,21.60789 0.38481,21.54258 -0.28889,-0.0434 -0.97526,-0.23638 -1.52526,-0.4288 z M 1243.2373,905.6272 c -1.4311,-2.08851 -2.201,-4.65911 -2.1532,-7.18908 0.072,-3.81816 0.1481,-3.72721 2.4929,2.98564 1.3302,3.80807 2.2991,7.04315 2.1532,7.18908 -0.1459,0.14592 -1.2677,-1.19762 -2.4929,-2.98564 z M 1239.9565,885 c -0.8,-11.58499 1.1106,-14.68884 15.3532,-24.94204 8.1286,-5.85174 11.8897,-9.23253 13.104,-11.77906 0.9368,-1.96441 1.3416,-3.91981 0.8996,-4.34534 -0.442,-0.42553 -4.9921,-2.44231 -10.1114,-4.48172 -6.8765,-2.73944 -9.1622,-4.08776 -8.75,-5.16172 0.3068,-0.79953 0.5578,-2.99189 0.5578,-4.87191 0,-3.22826 0.1911,-3.41821 3.4387,-3.41821 3.3392,0 3.4587,0.13749 4.1262,4.75 0.8843,6.11057 1.5878,6.89585 6.8903,7.691 4.108,0.61604 4.4874,0.94239 5.8935,5.06894 l 1.5028,4.4105 -15.6758,14.17514 -15.6757,14.17515 -0.5176,8.11464 -0.5177,8.11463 z m -136.9468,-4.03711 c 0,-1.54394 -4.0236,-13.70539 -8.9414,-27.02544 -7.5511,-20.45284 -10.3784,-26.72298 -18.184,-40.32786 -11.5819,-20.18659 -22.5562,-36.09023 -27.9607,-40.51969 -4.6668,-3.82481 -25.7395,-29.89294 -28.4327,-35.17273 -0.9587,-1.87944 -4.0883,-6.11717 -6.9546,-9.41717 -2.8664,-3.3 -13.00792,-15.9 -22.53668,-28 -9.52875,-12.1 -21.29962,-26.64185 -26.15748,-32.31523 -4.85787,-5.67338 -8.83248,-10.64058 -8.83248,-11.03824 0,-0.39765 2.10715,-2.48436 4.68255,-4.63713 3.48951,-2.91687 4.80146,-3.54408 5.14927,-2.46176 0.2567,0.7988 4.15375,5.27736 8.6601,9.95236 11.09269,11.50781 52.50812,62.61854 52.50812,64.80021 0,0.96069 3.6482,5.33615 8.107,9.72325 4.4589,4.3871 10.0293,10.57903 12.3787,13.75986 2.3494,3.18082 6.3079,7.36979 8.7967,9.30882 3.7876,2.95086 7.1895,8.15617 20.8714,31.93529 8.9904,15.62539 16.8339,28.42392 17.4299,28.44118 3.2417,0.0939 25.3696,56.38358 23.7865,60.50899 -0.2615,0.68155 -3.6018,2.15117 -7.4228,3.26582 l -6.9474,2.02663 z M 494.00966,869.77643 V 864 h 5.36628 5.36629 l -1.5053,5.40822 c -1.45696,5.23452 -1.62932,5.42005 -5.36629,5.77643 l -3.86098,0.3682 z m -480.1274,-9.00009 -5.62741,-0.96695 -0.93774,-5.82286 -0.93775,-5.82286 5.56515,-0.3814 c 3.06084,-0.20977 5.63019,-0.3591 5.70969,-0.33184 0.0795,0.0273 0.56045,3.31207 1.0688,7.29957 0.50835,3.9875 0.89331,7.19224 0.85546,7.12164 -0.0378,-0.0706 -2.60113,-0.56348 -5.6962,-1.0953 z M 826.00966,835 v -13 h -3.5 c -3.91898,0 -3.91512,0.005 -2.42333,-3.26893 1.03381,-2.26897 1.31245,-2.32506 7,-1.40911 l 5.92333,0.95392 V 833.13794 848 h -3.5 -3.5 z m 10.68999,-41.25078 c -4.44441,-0.76042 -5.67838,-1.33708 -5.25,-2.45343 0.30801,-0.80265 0.56001,-2.99756 0.56001,-4.87758 0,-3.37318 0.058,-3.41821 4.40122,-3.41821 3.92884,0 4.61251,0.35809 6.36972,3.33634 1.08267,1.83499 2.75387,4.53499 3.71378,6 l 1.7453,2.66366 -2.86501,-0.12836 c -1.57576,-0.0706 -5.47951,-0.57568 -8.67502,-1.12242 z m -734.43999,-21.54827 -6.25,-2.5163 v -6.64914 -6.64913 l 6.92701,0.93767 6.92702,0.93768 2.10142,5.61913 c 2.70751,7.23983 2.7166,7.10519 -0.61563,9.11963 -2.73904,1.65583 -3.06163,1.62745 -9.08982,-0.79954 z m 22.95,-3.76175 c -5.07409,-4.34324 -6.89186,-9.61652 -7.56272,-21.9392 -0.37671,-6.91949 -1.94495,-15.79188 -5.09085,-28.80168 -2.50053,-10.34093 -4.54643,-21.22081 -4.54643,-24.17752 0,-4.81469 0.3212,-5.62722 3.07712,-7.78405 3.03545,-2.3756 3.16591,-2.38829 9.63454,-0.9372 6.21857,1.39499 6.61507,1.37358 7.67288,-0.41427 2.01266,-3.40168 2.41484,-5.77255 2.51578,-14.83056 0.092,-8.25762 0.30441,-9.15897 2.76283,-11.72501 l 2.66314,-2.77972 -1.81962,-4.03519 c -1.00079,-2.21935 -1.6367,-4.20814 -1.41314,-4.41953 0.22356,-0.21139 3.70289,-0.80464 7.73185,-1.31833 6.98963,-0.89119 7.61765,-0.79821 13.70176,2.02859 l 6.37637,2.96259 2.65874,-3.15973 c 1.46231,-1.73786 3.49018,-4.16069 4.50638,-5.38407 l 1.84763,-2.22432 10.29187,5.42391 c 11.58393,6.10484 41.74253,25.14781 41.77241,26.37624 0.0107,0.44009 -4.70554,7.76152 -10.48054,16.26985 -5.775,8.50833 -10.5,16.09767 -10.5,16.86519 0,0.76753 -2.87321,7.1711 -6.38491,14.23016 -3.5117,7.05906 -6.70628,14.40965 -7.09907,16.33465 -0.39278,1.925 -2.67187,6.67479 -5.06464,10.55509 -4.17944,6.7777 -4.48459,7.03943 -7.76097,6.65693 l -3.41048,-0.39815 -1.91531,-9.08205 c -1.10569,-5.24301 -2.47931,-9.27005 -3.24958,-9.52681 -1.08427,-0.36142 -1.26689,2.46734 -0.97465,15.09752 l 0.35961,15.54227 -10,2.11942 c -5.5,1.16568 -13.69343,2.94759 -18.20762,3.9598 l -8.20762,1.84038 z m 335.82271,-14.61588 c 0.0387,-2.25364 6.26849,-12.96056 12.11602,-20.82332 3.06776,-4.125 10.47904,-12.911 16.46951,-19.52445 6.01078,-6.63588 14.62129,-17.68139 19.2141,-24.64774 7.46356,-11.3207 8.19046,-12.83445 7.04438,-14.66961 -1.08435,-1.73633 -0.99411,-2.35995 0.59572,-4.11669 1.85727,-2.05227 1.8372,-2.0847 -2.29439,-3.70763 l -4.16805,-1.63726 v -6.34831 c 0,-6.3302 0.008,-6.34831 2.88386,-6.34831 2.55833,0 3.13583,0.62082 5.11614,5.5 1.22776,3.025 2.55374,5.5 2.94662,5.5 1.2204,0 7.37953,-9.18222 10.29678,-15.35075 1.52917,-3.23342 5.17253,-9.53976 8.09636,-14.01409 C 544.80828,625.28148 556.65554,611 558.12652,611 c 1.56402,0 9.88314,6.38775 9.88314,7.58867 0,3.32267 -10.63763,23.29508 -17.55308,32.95635 -16.47352,23.01441 -38.25869,49.03439 -50.02765,59.75251 -8.41579,7.66435 -14.73976,14.73209 -23.98476,26.80563 -11.60939,15.16133 -15.46979,19.09897 -15.4118,15.72016 z m 58.47729,-10.81865 c -4.95,-2.04922 -8.88518,-4.24555 -8.74485,-4.88072 C 511.20738,736.1208 550.32428,693 551.69886,693 c 2.16628,0 1.52746,1.77197 -3.04774,8.45387 -2.3972,3.50101 -4.88916,8.47276 -5.5377,11.04832 -0.95546,3.79448 -1.50399,4.55639 -2.89146,4.01624 -3.16426,-1.23187 -3.45728,-1.03309 -4.9666,3.36946 -1.36726,3.98818 -1.35587,4.47095 0.125,5.29969 2.37717,1.33033 1.95911,3.3379 -2.69213,12.92769 l -4.17857,8.61526 z M 1098.1488,690.9509 c -3.9265,-4.42701 -7.1391,-8.37658 -7.1391,-8.77682 0,-2.26982 14.2532,-14.35979 20.725,-17.57957 3.9738,-1.97698 7.4613,-3.59451 7.75,-3.59451 0.2888,0 0.525,1.62138 0.525,3.60307 0,2.86215 0.9254,4.6323 4.5,8.60815 2.475,2.7528 4.5,5.33381 4.5,5.73558 0,0.92836 -21.8699,20.0532 -22.9315,20.0532 -0.4347,0 -4.003,-3.6221 -7.9294,-8.0491 z m -233.401,-12.54609 c -1.1842,-1.1842 6.98467,-15.63602 12.79504,-22.63611 3.81614,-4.59754 6.024,-6.49212 7.08924,-6.08335 1.17292,0.45009 -0.0226,2.19234 -4.94352,7.20416 -4.35932,4.43986 -7.76454,9.17097 -10.37033,14.40823 -2.13387,4.28875 -4.19056,7.48693 -4.57043,7.10707 z m 75.71248,-43.37061 c -7.67284,-9.33119 -14.65955,-16.98119 -15.52601,-17 -1.44412,-0.0314 -35.52846,-39.02468 -42.36774,-48.46973 -1.61872,-2.23546 -7.4784,-9.23947 -13.02151,-15.56447 -16.99392,-19.39102 -22.72154,-26.83658 -22.11856,-28.75278 0.36523,-1.16064 -1.62678,-4.50933 -5.9335,-9.97457 -3.56581,-4.52504 -6.4833,-8.59224 -6.4833,-9.03823 0,-0.86721 8.47842,-8.23442 9.47643,-8.23442 0.32753,0 2.3477,3.62329 4.48925,8.05175 2.28541,4.72593 5.53088,9.57934 7.85722,11.75 2.17991,2.03404 10.59001,12.92325 18.68911,24.19825 11.1334,15.49914 16.94078,22.57353 23.80616,29 7.92444,7.41781 63.68188,72.9031 63.6818,74.79219 -4e-5,0.90578 -6.61575,6.20781 -7.74592,6.20781 -0.46905,0 -7.13059,-7.63461 -14.80343,-16.9658 z m 314.19882,0.73305 c -0.3211,-1.22802 -0.1486,-2.66802 0.3834,-3.2 0.6229,-0.623 0.9672,0.17166 0.9672,2.23275 0,3.73952 -0.527,4.1169 -1.3506,0.96725 z M 881.00484,620.97144 c -0.65885,-3.90612 -0.98743,-7.31252 -0.73019,-7.56977 0.25725,-0.25725 5.18155,1.39378 10.94288,3.66896 9.50654,3.75416 10.43472,4.34823 10.03781,6.42452 -0.39601,2.07158 -1.16086,2.35126 -8.09151,2.95881 -4.2098,0.36903 -8.39822,0.88439 -9.30762,1.14525 -1.35586,0.38892 -1.86905,-0.80395 -2.85137,-6.62777 z m 270.02166,-4.04985 c -0.01,-0.31813 2.39,-5.94313 5.3316,-12.5 2.9416,-6.55688 7.0634,-16.64659 9.1596,-22.42159 4.0786,-11.2365 4.2388,-11.5865 4.9705,-10.85478 0.6825,0.68246 -14.7252,38.98269 -17.3004,43.00522 -1.1794,1.84226 -2.152,3.08927 -2.1613,2.77115 z M 600.65185,561.25 c 0.70721,-5.3625 1.30203,-10.48276 1.32182,-11.37836 0.0232,-1.05159 1.4528,-1.98799 4.03599,-2.64367 l 4,-1.01531 v 11.34398 c 0,9.74883 0.24608,11.48731 1.75,12.36326 1.30964,0.7628 -0.0295,1.02693 -5.32182,1.04969 l -7.07183,0.0304 1.28584,-9.75 z m 57.23902,1.12356 -2.22533,-2.36876 2.27818,-4.86401 2.27817,-4.864 5.74196,1.4464 5.74196,1.4464 -0.93629,5.16521 c -0.51496,2.84086 -1.00909,5.21783 -1.09807,5.28215 -0.089,0.0643 -2.27532,0.34384 -4.85852,0.62115 -4.01594,0.43113 -5.01928,0.16087 -6.92206,-1.86454 z m 611.61883,-13.9575 -3,-5.57694 2.8058,-2.41956 c 1.5431,-1.33076 3.1553,-2.41956 3.5826,-2.41956 1.2915,0 7.1116,7.76607 7.1116,9.48933 0,1.67813 -4.7666,6.42686 -6.5,6.47557 -0.55,0.0155 -2.35,-2.48152 -4,-5.54884 z M 93.25966,547.19669 c -5.92292,-1.29838 -6.25,-1.52254 -6.25,-4.28338 V 540 h 6.7992 6.7992 l -0.37168,3.75 c -0.20442,2.0625 -0.45155,3.99002 -0.54919,4.28339 -0.0976,0.29336 -2.99003,-0.0832 -6.42753,-0.8367 z m 673.18437,-1.50713 c -0.57967,-1.51058 5.71254,-15.04429 7.51142,-16.15605 0.54756,-0.33842 1.27481,0.49724 1.61609,1.85701 0.43725,1.74217 -0.36625,4.32087 -2.72068,8.73151 -3.43486,6.43463 -5.41409,8.15458 -6.40683,5.56753 z m 147.24433,-16.3429 c -5.7909,-6.40934 -11.33534,-13.15078 -12.32097,-14.98097 -1.74218,-3.23505 -1.73731,-3.36901 0.17511,-4.81486 3.01716,-2.28106 3.86164,-1.92247 7.53407,3.19917 1.87327,2.6125 7.34955,8.98469 12.16952,14.16042 4.81996,5.17573 8.76357,9.76271 8.76357,10.19329 0,0.84402 -4.00988,3.89629 -5.11869,3.89629 -0.37052,0 -5.4117,-5.244 -11.20261,-11.65334 z m -703.11145,-6.0559 c -2.51199,-1.95707 -4.56725,-3.85811 -4.56725,-4.22453 0,-1.99229 3.04715,-3.06623 8.7,-3.06623 h 6.3 v 4.40217 c 0,3.96981 -0.28805,4.50259 -2.93275,5.42454 -2.6113,0.91031 -3.43336,0.63235 -7.5,-2.53595 z m 410.79425,-18.0957 c -2.11274,-0.30127 -2.12045,-0.38403 -0.64027,-6.87317 1.73699,-7.61499 1.31398,-8.28168 -5.27043,-8.30658 -4.00109,-0.0151 -4.04456,-0.0551 -3.65847,-3.36216 l 0.39072,-3.34685 5.03939,0.91594 c 2.77166,0.50376 5.36729,0.54735 5.76805,0.0969 0.6461,-0.72627 3.01408,-15.76423 3.01079,-19.12012 -7.1e-4,-0.71556 -1.57628,-1.9591 -3.50128,-2.76342 -1.925,-0.80431 -3.5,-1.66608 -3.5,-1.91504 0,-0.24896 0.74905,-2.02343 1.66456,-3.94327 1.14831,-2.40804 2.55444,-3.68607 4.53388,-4.12083 3.52582,-0.77439 4.68811,-2.5825 8.82894,-13.73457 2.50528,-6.74722 3.92029,-9.16857 6.116,-10.46561 2.34167,-1.38326 2.85662,-2.36964 2.85662,-5.47184 0,-4.29353 0.15077,-4.38693 3.51886,-2.18008 2.39959,1.57227 2.60797,1.4674 10.43209,-5.25 l 7.9836,-6.85431 3.53273,-10.50188 c 3.0789,-9.15282 3.53272,-11.74781 3.53272,-20.20035 0,-7.39251 -0.3417,-9.88966 -1.43713,-10.5027 -0.99885,-0.55898 0.95507,-1.75406 6.40695,-3.91869 l 7.84407,-3.11444 1.9778,5.36901 1.97779,5.369 h -3.26229 c -4.16488,0 -5.08442,1.24143 -5.92565,8 -1.10575,8.88375 -6.41105,24.76203 -11.77785,35.25 -4.12521,8.06162 -5.3875,9.75 -7.28944,9.75 -2.63491,0 -3.51425,1.67674 -3.51425,6.70098 0,2.28539 -1.25134,5.59733 -3.53552,9.3575 -2.99001,4.92207 -4.03152,5.86804 -6.75,6.13081 -3.05136,0.29494 -3.24609,0.56443 -3.83737,5.31071 -0.70803,5.68336 -5.65762,16.5 -7.55024,16.5 -1.83528,0 -3.32687,3.34592 -3.32687,7.46278 0,2.03145 -1.34684,6.26233 -3.09756,9.73048 -1.70463,3.37686 -3.61579,9.32236 -4.25,13.22148 -1.03748,6.37851 -1.36575,7.05484 -3.29094,6.78032 z M 823.45502,492.25 c -2.7172,-3.7125 -8.4881,-10.575 -12.82421,-15.25 -4.33612,-4.675 -10.02937,-11.65 -12.65167,-15.5 -2.6223,-3.85 -6.65866,-8.8 -8.96969,-11 -6.97138,-6.63645 -29.58434,-36.72455 -39.71942,-52.84943 -9.0483,-14.39582 -26.33205,-47.43446 -31.61059,-60.42503 l -2.45721,-6.04723 4.79982,-1.99471 4.79982,-1.99472 5.72676,13.90574 c 3.14971,7.64816 6.61346,14.91816 7.69721,16.15556 1.08375,1.2374 4.43557,7.15283 7.4485,13.14541 6.51237,12.95279 22.10366,36.61887 34.65596,52.60441 13.67309,17.41288 29.57423,35.32799 32.77281,36.92367 1.88383,0.93978 3.43769,2.95261 4.57174,5.92208 0.94488,2.47413 3.42726,6.47335 5.51639,8.88716 2.08913,2.4138 3.79842,4.77875 3.79842,5.25543 0,0.47669 -1.43413,1.98908 -3.18695,3.36087 l -3.18695,2.49416 4.68695,5.6932 c 2.57782,3.13125 4.68695,6.0915 4.68695,6.57831 0,2.16434 -1.96456,0.40652 -6.55464,-5.86488 z m 279.53938,-34.5 c -0.02,-4.21678 -1.3096,-6.15981 -3.6776,-5.54056 -1.7957,0.46958 -1.8502,0.0879 -1.0149,-7.10661 0.4855,-4.18155 1.033,-7.755 1.2167,-7.94099 0.1838,-0.18599 2.4147,0.88118 4.9578,2.37149 2.543,1.49031 4.7674,2.54249 4.943,2.33816 0.1757,-0.20432 0.8779,-1.44318 1.5604,-2.75301 l 1.241,-2.38153 2.8233,4.38153 c 1.5528,2.40983 3.2476,6.76506 3.7664,9.67827 0.9319,5.23323 0.9046,5.32618 -2.2732,7.75 -2.4533,1.8712 -4.4396,2.45325 -8.372,2.45325 -5.1468,0 -5.1556,-0.006 -5.1709,-3.25 z m -514.945,-26.76698 c -6.70241,-5.31211 -12.09061,-12.26548 -10.63362,-13.72247 0.30289,-0.3029 6.42014,0.70485 13.59388,2.23945 7.17374,1.5346 13.19618,2.61238 13.38319,2.39509 0.18702,-0.2173 3.1649,-5.72985 6.61751,-12.25011 5.04108,-9.52009 6.00388,-12.03478 4.88839,-12.76766 -0.764,-0.50195 -3.86409,-2.36719 -6.88909,-4.14497 l -5.5,-3.23235 h -14.75 -14.75 l -0.0136,-6 c -0.008,-3.3 -0.2743,-6.97158 -0.59285,-8.15906 -0.56423,-2.10325 -0.286,-2.16927 10.76365,-2.55411 7.8642,-0.27389 14.71636,0.15621 22.34285,1.40243 13.93373,2.27687 13.17785,2.3344 14.97432,-1.1396 2.42932,-4.69779 1.49118,-23.16709 -1.96211,-38.62822 C 618.81251,331.24549 614.76996,330 605.17097,330 c -7.69013,0 -10.30716,0.52827 -21.70295,4.38091 -7.1271,2.4095 -19.98342,7.5845 -28.56961,11.5 C 542.81319,351.39205 538.25446,353 534.715,353 c -2.82646,0 -8.58193,1.47402 -15.07421,3.86062 -10.45053,3.84168 -10.52077,3.85232 -14.31659,2.16893 l -3.81454,-1.6917 6,-0.58459 c 6.22728,-0.60673 32.32706,-9.60231 41.78934,-14.40315 2.86586,-1.45405 13.08566,-5.79842 22.71066,-9.65416 15.04244,-6.02595 19.17618,-7.25102 29.43588,-8.72354 11.63779,-1.67031 12.11231,-1.66336 19,0.27816 3.88527,1.09518 9.60858,3.27159 12.71847,4.83645 6.60998,3.32606 7.85267,5.78391 10.32082,20.41298 2.18691,12.96213 1.94624,18.16962 -1.25605,27.17752 -2.40527,6.76595 -4.6079,10.11857 -16.30799,24.82248 -7.43991,9.35 -15.44364,19.76249 -17.78606,23.13887 -3.28596,4.7364 -4.70105,6.02327 -6.19408,5.63283 -1.49061,-0.3898 -2.2823,0.32485 -3.44648,3.11113 -0.83124,1.98944 -1.84281,3.59372 -2.24793,3.56506 -0.40512,-0.0287 -4.0937,-2.71285 -8.19684,-5.96487 z m 384.96026,-33.2846 c 0,-3.59417 -0.24756,-7.17999 -0.55014,-7.96849 -0.42025,-1.09516 1.20178,-1.78225 6.87017,-2.91015 l 7.42031,-1.4765 1.97879,8.82836 1.97879,8.82836 -6.59896,0.0136 c -3.62943,0.008 -7.61146,0.285 -8.84896,0.61664 -2.16531,0.58028 -2.25,0.357 -2.25,-5.93187 z M 289.50966,399 c -0.48538,-1.52931 -1.51303,-2 -4.36659,-2 -3.65109,0 -3.72327,-0.0731 -3.33709,-3.38109 0.38426,-3.29143 0.57118,-3.41856 7.0492,-4.79431 6.32534,-1.34332 6.66942,-1.56427 6.95652,-4.4671 0.24601,-2.48745 0.92602,-3.24539 3.66625,-4.08639 3.36193,-1.0318 3.36558,-1.02923 5.36238,3.7756 l 1.99816,4.80811 -7.39884,6.07259 C 295.37028,398.26733 291.61412,401 291.09262,401 c -0.5215,0 -1.23383,-0.9 -1.58296,-2 z m 888.50004,-7.4585 c -2.475,-1.30095 -6.075,-4.0184 -8,-6.03876 l -3.5,-3.6734 3.5653,1.68248 c 2.913,1.37463 4.6661,1.51587 9.5816,0.77189 l 6.0163,-0.91059 -0.788,4.06344 c -0.4335,2.23489 -0.8077,4.62594 -0.8316,5.31344 -0.059,1.6933 -0.808,1.54353 -6.0436,-1.2085 z m 72,-21.22077 c 0,-3.42561 0.3625,-4.33308 1.75,-4.38034 0.9625,-0.0328 3.8866,-0.41131 6.4981,-0.84117 l 4.748,-0.78156 2.5901,4.41968 c 1.4246,2.43082 2.4379,4.5553 2.252,4.72107 -0.186,0.16577 -4.2757,0.49978 -9.0882,0.74223 l -8.75,0.44083 z M 776.79501,364.75 c -5.87727,-7.78991 -13.61445,-24.22448 -15.02631,-31.91742 l -1.40718,-7.66742 3.70164,-1.45404 3.70163,-1.45404 2.87244,6.1143 c 1.57984,3.36286 6.35993,12.04466 10.62243,19.29289 4.2625,7.24822 7.74039,13.55144 7.72865,14.00716 -0.0259,1.00434 -7.40386,6.32857 -8.76974,6.32857 -0.53434,0 -2.07495,-1.4625 -3.42356,-3.25 z m -354.76248,-7.54595 c -4.18239,-1.42193 -4.32873,-1.58835 -2.22287,-2.52801 1.47568,-0.65847 2.61529,-2.43965 3.29956,-5.15714 0.9522,-3.78154 1.29223,-4.11501 3.81803,-3.7443 l 2.77273,0.40695 -1.42125,6.15198 c -0.78169,3.38359 -1.49951,6.20613 -1.59516,6.27232 -0.0956,0.0662 -2.18862,-0.56462 -4.65104,-1.4018 z M 306.00966,333.5 V 321 l 6.25,-0.0153 c 3.4375,-0.008 6.925,-0.44187 7.75,-0.96321 1.20893,-0.76397 1.5679,-4.13014 1.84993,-17.34713 l 0.34993,-16.39923 3.434,-1.63756 C 327.63576,283.68752 331.58235,283 335.04359,283 h 5.96607 v 17 17 h -8.875 -8.875 l -0.625,3.125 c -0.34375,1.71875 -0.625,8.24375 -0.625,14.5 V 346 h -8 -8 z m 249.81021,-23 -0.40861,-3.5 h 4.2992 c 2.36456,0 4.31749,-0.3375 4.33984,-0.75 0.0223,-0.4125 1.32176,-2.2474 2.88757,-4.07755 l 2.84693,-3.32755 0.38828,4.07147 0.38827,4.07147 -6.67208,3.50608 C 560.21963,312.42226 556.99473,314 556.72283,314 c -0.2719,0 -0.67823,-1.575 -0.90296,-3.5 z m 229.09387,-6.72471 c -3.19293,-0.80011 -3.70725,-1.38762 -4.58937,-5.24249 l -0.99345,-4.3414 4.87774,-2.2846 4.87773,-2.28461 2.6901,2.69009 2.6901,2.6901 -2.47847,4.5805 c -1.36315,2.51927 -2.70346,4.69592 -2.97846,4.837 -0.275,0.14107 -2.11816,-0.14899 -4.09592,-0.64459 z M 694.2017,283.25 c -3.48181,-4.92502 -11.19204,-21.14985 -11.19204,-23.55169 0,-3.79241 -21.49725,-44.81483 -32.85621,-62.69831 -17.59395,-27.69983 -33.82661,-48.98033 -47.02681,-61.65065 l -11.61698,-11.15066 3.95295,-4.09934 c 2.17412,-2.25464 4.19912,-4.09628 4.5,-4.09252 0.30088,0.004 1.66074,1.69126 3.02192,3.75 1.36117,2.05874 5.90664,7.34317 10.10104,11.74317 17.07433,17.9113 61.31546,81.43115 70.61662,101.38883 2.07909,4.46114 4.29998,8.11117 4.93531,8.11117 0.95844,0 4.37216,11.89803 4.37216,15.23851 0,0.54626 2.5875,6.14259 5.75,12.4363 l 5.75,11.44312 -3.26578,2.94103 c -4.02213,3.62218 -4.6053,3.638 -7.04218,0.19104 z m -275.41643,-4.03941 c -2.04841,-1.49082 -3.73591,-3.08208 -3.75,-3.53612 -0.0413,-1.33173 13.39776,-23.61907 14.25957,-23.64806 0.43185,-0.0145 1.84732,0.66952 3.14548,1.52011 l 2.36029,1.54652 -5.28448,13.16648 c -2.90646,7.24156 -5.67192,13.2779 -6.14547,13.41407 -0.47355,0.13618 -2.53697,-0.97217 -4.58539,-2.463 z M 29.50002,277.56719 25.49037,276.5 l 0.8265,-6.09597 0.82649,-6.09597 4.2615,0.97517 4.26151,0.97517 -0.85597,5.6208 c -0.47078,3.09144 -0.95604,5.87604 -1.07835,6.18799 -0.12231,0.31196 -2.02673,0.087 -4.23203,-0.5 z M 650.35206,256.9424 c -1.41687,-1.41687 1.85204,-12.32654 3.81174,-12.7213 0.7615,-0.1534 2.22946,0.33891 3.26213,1.09402 1.8123,1.32518 1.77685,1.55864 -1.01934,6.71367 -3.07088,5.66143 -4.30508,6.66306 -6.05453,4.91361 z m 419.65764,-22.60529 c 0,-0.0957 1.5156,-1.11069 3.368,-2.25555 4.2214,-2.60892 18.0243,-3.00844 21.1909,-0.61336 1.8035,1.36411 1.6221,1.47662 -2.5589,1.58707 -2.475,0.0654 -8.4375,0.41969 -13.25,0.78735 -4.8125,0.36766 -8.75,0.59018 -8.75,0.49449 z m -104.07414,-14.74465 -4.5741,-1.09246 3.99569,-14.74508 c 2.19762,-8.1098 4.16869,-14.57208 4.38014,-14.36063 0.21145,0.21146 -0.31576,3.0867 -1.17159,6.38943 -2.01089,7.76029 -2.08582,7.34628 1.80951,9.99837 l 3.35188,2.28209 -1.4348,6.21067 c -0.78914,3.41586 -1.51307,6.25553 -1.60872,6.31036 -0.0956,0.0548 -2.23225,-0.3919 -4.74801,-0.99275 z m -9.95683,-7.33148 c -1.24878,-0.26367 -1.45844,-1.65369 -1.1376,-7.54212 0.21632,-3.97037 0.48806,-7.32667 0.60384,-7.45844 0.11579,-0.13177 1.69053,-0.53559 3.49943,-0.89737 l 3.2889,-0.65778 -0.73748,3.39737 c -1.77392,8.17187 -3.99906,13.47887 -5.51709,13.15834 z m 118.99537,-9.6807 c -0.02,-0.59415 -0.6402,-3.60849 -1.3792,-6.69853 l -1.3435,-5.61825 11.8791,-1.96203 c 7.9847,-1.31879 11.8909,-1.60787 11.9148,-0.88175 0.02,0.59415 0.6402,3.60849 1.3792,6.69853 l 1.3435,5.61825 -11.8791,1.96203 c -7.9847,1.31879 -11.8909,1.60787 -11.9148,0.88175 z M 184.52041,186.50452 c -0.35968,-4.40249 -0.87706,-8.79202 -1.14974,-9.75452 -0.44453,-1.56907 0.38998,-1.75 8.0716,-1.75 h 8.56739 v -5.41821 c 0,-8.29849 -0.25112,-8.58179 -7.60699,-8.58179 h -6.39301 v -4.91821 c 0,-2.70502 -0.25174,-5.57425 -0.55943,-6.37607 -0.46919,-1.22269 1.99081,-1.56622 15.25,-2.12961 8.69519,-0.36946 17.04693,-0.91098 18.55943,-1.20338 2.21312,-0.42785 2.75,-0.16472 2.75,1.34781 0,2.74792 1.97617,4.27946 5.52182,4.27946 h 3.12183 l -1.28584,9.75 c -0.70721,5.3625 -1.30203,10.5375 -1.32182,11.5 -0.031,1.50791 -1.07351,1.75 -7.53599,1.75 h -7.5 v 7.32569 c 0,10.62919 -1.02081,11.37627 -16.16765,11.83217 l -11.66765,0.35118 z m 504.57037,-2.305 c -2.33336,-4.70485 -7.35617,-12.94583 -11.1618,-18.31331 -3.80563,-5.36747 -6.91932,-10.15691 -6.91932,-10.64318 0,-1.01102 12.51786,-11.25422 13.7134,-11.2215 1.19052,0.0326 25.2866,35.65367 25.2866,37.38102 0,4.33101 -2.33216,6.5284 -9.47913,8.93136 l -7.19727,2.41987 z m 280.99783,2.21715 c 0.048,-1.16495 0.28494,-1.4019 0.60416,-0.60417 0.28887,0.72187 0.25335,1.58437 -0.0789,1.91667 -0.33229,0.33229 -0.56864,-0.25834 -0.52522,-1.3125 z m 1,-4 c 0.048,-1.16495 0.28494,-1.4019 0.60416,-0.60417 0.28887,0.72187 0.25335,1.58437 -0.0789,1.91667 -0.33229,0.33229 -0.56864,-0.25834 -0.52522,-1.3125 z m 1,-4 c 0.048,-1.16495 0.28494,-1.4019 0.60416,-0.60417 0.28887,0.72187 0.25335,1.58437 -0.0789,1.91667 -0.33229,0.33229 -0.56864,-0.25834 -0.52522,-1.3125 z M 431.65223,165.62335 c 0.95032,-1.99284 1.98201,-3.62822 2.29264,-3.63417 0.31064,-0.006 2.58979,-0.62568 5.06479,-1.37716 l 4.5,-1.36632 -0.35069,4.37715 -0.3507,4.37715 h -4.81752 c -2.64963,0 -5.54851,0.28051 -6.44195,0.62335 -1.46701,0.56295 -1.45699,0.27223 0.10343,-3 z M 975.40226,167 c 0.37835,-1.375 2.19605,-8.8 4.03933,-16.5 1.84328,-7.7 5.6022,-21.425 8.35315,-30.5 2.75095,-9.075 5.5316,-19.0875 6.17922,-22.25 0.64762,-3.1625 1.56692,-5.75 2.04289,-5.75 0.47597,0 0.034,3.0375 -0.98218,6.75 -1.01616,3.7125 -3.94693,14.85 -6.5128,24.75 -5.01745,19.35899 -12.4064,44.68512 -13.27472,45.5 -0.29304,0.275 -0.22323,-0.625 0.15511,-2 z M 697.61777,154.69359 C 699.5458,149.22897 699.46102,149 695.50966,149 c -3.22222,0 -3.5,-0.2381 -3.5,-3 v -3 h 9.41118 9.41118 l 0.37867,6.25 c 0.20826,3.4375 0.36073,6.3187 0.33882,6.40267 -0.0219,0.084 -3.4787,0.79016 -7.68174,1.56931 l -7.64189,1.41665 z m 40.3509,0.44023 c -0.0225,-0.8986 -1.07121,-8.4427 -2.33038,-16.76465 l -2.28939,-15.13084 8.83038,-1.44869 c 8.73724,-1.43341 8.83083,-1.42675 8.87316,0.63084 0.0235,1.14373 0.84197,8.71702 1.81875,16.82952 1.20708,10.02524 1.43362,14.75038 0.70722,14.75118 -0.58781,6.5e-4 -4.33125,0.62337 -8.31875,1.38382 -6.60381,1.25941 -7.25365,1.23703 -7.29099,-0.25118 z M 4.75966,142.26496 l -4.75,-0.37454 v -6.94521 c 0,-4.88959 0.36997,-6.94516 1.25,-6.94504 1.83667,2.5e-4 17.05553,2.97202 17.50088,3.41738 0.20917,0.20916 -1.04216,2.90078 -2.78074,5.98138 -2.0218,3.58242 -3.75736,5.53611 -4.81559,5.42082 -0.91,-0.0991 -3.79205,-0.34879 -6.40455,-0.55479 z m 326.75,-11.26371 c -3.85,-2.17654 -7.40857,-4.10341 -7.90794,-4.28194 -1.13693,-0.40647 -0.13247,-4.59921 1.70305,-7.10874 1.3172,-1.80089 1.7527,-1.64154 9.29343,3.40038 4.3513,2.9094 8.08453,5.43271 8.29606,5.60737 0.77564,0.64042 -2.16274,6.38103 -3.25592,6.36097 -0.62077,-0.0114 -4.27868,-1.80151 -8.12868,-3.97804 z m 601.89181,-6.07391 c -4.35978,-2.52645 -5.0392,-3.32108 -4.63727,-5.42364 0.44091,-2.30649 3.47192,-3.71003 12.55848,-5.81533 0.44715,-0.1036 1.56329,1.04815 2.4803,2.55946 1.59638,2.63098 1.56269,2.93929 -0.79213,7.25 -1.35268,2.47619 -2.91882,4.47686 -3.4803,4.44592 -0.56149,-0.0309 -3.31958,-1.38833 -6.12908,-3.01641 z m -365.89181,-18.7795 c -6.31073,-4.708 -13.93032,-8.99701 -25.5,-14.353748 -14.60914,-6.764003 -18.70332,-8.164017 -35.72659,-12.21678 L 487.05647,75 h -22.83698 c -25.37834,0 -37.07689,1.196483 -58.20983,5.953478 -7.425,1.671357 -20.10839,4.088964 -28.1853,5.372461 l -14.6853,2.33363 -0.86621,-6.079785 c -0.47641,-3.343881 -0.84302,-6.147701 -0.81469,-6.230711 0.0838,-0.245563 50.13827,-9.085184 61.5515,-10.869996 5.775,-0.9031 15.59829,-2.001132 21.82953,-2.440071 6.23124,-0.438938 11.83374,-1.30228 12.45,-1.918538 3.06983,-3.069829 47.55399,0.897738 50.3554,4.491226 0.6242,0.800699 8.2742,3.869477 17,6.819505 8.72579,2.950028 19.24007,6.778995 23.36507,8.508815 7.45306,3.125445 36.96454,20.902586 36.98782,22.280746 0.0236,1.39993 -6.38747,9.77829 -7.43032,9.7103 -0.58163,-0.0379 -5.1075,-3.09036 -10.0575,-6.78322 z m 339.5,-21.73378 c 0,-2.337767 -0.24791,-4.896526 -0.55091,-5.686132 -0.41911,-1.092189 0.87766,-1.665711 5.42048,-2.397311 l 5.97139,-0.961664 0.36937,6.065523 c 0.20315,3.336038 0.35143,6.122197 0.32952,6.191465 -0.0219,0.06927 -2.62735,0.33129 -5.78985,0.582273 l -5.75,0.456331 z m 51.79998,-4.876995 c -0.1911,-3.870386 -0.33677,-7.109842 -0.32371,-7.198793 0.0131,-0.08895 4.83183,-1.034705 10.7084,-2.101679 l 10.68466,-1.939951 1.18206,7.101679 c 0.65013,3.905923 1.33879,7.370742 1.53036,7.699596 0.19156,0.328855 -5.00279,1.245534 -11.54301,2.037065 l -11.89132,1.439148 z m 38.20002,6.394155 c 0,-4.636313 13.19694,-48.163529 14.76064,-48.684765 0.5526,-0.184194 -1.1557,6.641032 -3.7962,15.167169 -2.6405,8.526137 -5.7932,19.796036 -7.006,25.044221 C 999.75536,82.70603 998.36859,87 997.88639,87 c -0.4822,0 -0.87673,-0.480951 -0.87673,-1.06878 z m -832.52662,-12.154585 -16.02663,-1.999208 0.90432,-7.764518 0.90431,-7.764517 5.12231,1.418519 c 4.50983,1.248906 36.71286,4.201532 46.87231,4.297621 l 3.75,0.03547 v 7 7 l -12.75,-0.112078 c -7.0125,-0.06164 -19.96198,-1.011722 -28.77662,-2.111287 z M 928.92817,67.75 c -0.0448,-3.4375 -0.42567,-11.875 -0.84633,-18.75 -0.42067,-6.875 -0.39768,-13.175 0.0511,-14 0.65113,-1.197045 0.82148,-1.09606 0.84343,0.5 0.11195,8.1384 2.34676,34.434502 3.08076,36.25 0.76078,1.881715 0.58582,2.25 -1.06889,2.25 -1.75167,0 -1.9879,-0.716699 -2.06005,-6.25 z m 15.58149,4.656133 c 4.68451,-0.753041 11.2731,-0.847891 10.84553,-0.156133 -0.25496,0.4125 -3.24951,0.688718 -6.65455,0.613818 -3.40504,-0.0749 -5.29098,-0.280858 -4.19098,-0.457685 z m -815,-5.829507 c -9.26166,-1.971056 -11.25518,-2.868695 -27,-12.157469 C 80.59176,41.488525 62.04156,27.11451 51.43463,14.842588 46.99336,9.704165 42.5541,4.2625 41.56962,2.75 L 39.77964,0 h 14.55044 14.55043 l 5.81458,6.6401 c 7.74173,8.840866 29.02444,22.769165 46.81457,30.637426 7.15,3.162319 14.34519,6.633192 15.98932,7.713051 l 2.98932,1.963381 -0.33627,10.773021 c -0.18495,5.925162 -0.40514,10.819104 -0.48932,10.875428 -0.0842,0.05632 -4.65305,-0.855277 -10.15305,-2.025781 z m 192.74458,-14.109175 -1.9503,-5.294348 10.32242,-2.586551 c 5.67733,-1.422604 12.24862,-2.596014 14.60286,-2.607579 2.35424,-0.01157 15.08585,-2.621169 28.29247,-5.79912 16.27397,-3.916062 25.37774,-5.647852 28.25,-5.373938 4.17237,0.3979 4.23797,0.463183 4.23797,4.217333 0,2.097247 0.24566,4.453351 0.54591,5.235785 0.43767,1.140557 -2.58585,1.860066 -15.25,3.629052 -9.69659,1.354463 -17.34044,2.965073 -19.79591,4.171125 -2.22944,1.095035 -12.8528,3.51205 -24,5.460454 -11,1.922675 -20.74365,3.663704 -21.65256,3.868954 -1.2125,0.273806 -2.17191,-1.036664 -3.60286,-4.921167 z M 1232.1443,41.823174 c -2.824,-2.297254 -5.1346,-4.512728 -5.1346,-4.923275 0,-0.410546 1.1216,-2.079402 2.4925,-3.708568 3.5178,-4.180754 7.6323,-4.570975 11.7534,-1.114725 l 3.2541,2.72903 -3,5.593685 c -1.65,3.076527 -3.2769,5.595259 -3.6154,5.597182 -0.3384,0.0019 -2.9259,-1.876075 -5.75,-4.173329 z M 643.00966,23.489615 C 643.00966,19.329936 645.17283,16 647.875,16 c 1.81941,0 14.53378,10.470703 12.98032,10.68972 -0.74011,0.104347 -5.05816,0.367429 -9.59566,0.584628 l -8.25,0.394907 z"
       id="path219" />
  </g>
</svg>
