<?xml version="1.0" encoding="UTF-8" standalone="no"?>
<!-- Created with Inkscape (http://www.inkscape.org/) -->

<svg
   version="1.1"
   id="svg3490"
   width="1280"
   height="1280"
   viewBox="0 0 1280 1280"
   sodipodi:docname="staticmap-shibuya-park-13.svg"
   inkscape:version="1.2 (dc2aedaf03, 2022-05-15)"
   xmlns:inkscape="http://www.inkscape.org/namespaces/inkscape"
   xmlns:sodipodi="http://sodipodi.sourceforge.net/DTD/sodipodi-0.dtd"
   xmlns="http://www.w3.org/2000/svg"
   xmlns:svg="http://www.w3.org/2000/svg">
  <defs
     id="defs3494" />
  <sodipodi:namedview
     id="namedview3492"
     pagecolor="#ffffff"
     bordercolor="#000000"
     borderopacity="0.25"
     inkscape:showpageshadow="2"
     inkscape:pageopacity="0.0"
     inkscape:pagecheckerboard="0"
     inkscape:deskcolor="#d1d1d1"
     showgrid="false"
     inkscape:zoom="0.80234375"
     inkscape:cx="-1.8695229"
     inkscape:cy="640"
     inkscape:window-width="1350"
     inkscape:window-height="1230"
     inkscape:window-x="883"
     inkscape:window-y="219"
     inkscape:window-maximized="0"
     inkscape:current-layer="g3496" />
  <g
     inkscape:groupmode="layer"
     inkscape:label="Image"
     id="g3496">
    <path
       style="fill:#000000"
       d="m 1148.16,1269.0833 c -0.088,-4.6291 0.1611,-8.0956 0.5535,-7.7031 0.3924,0.3924 0.7299,2.6049 0.75,4.9166 0.031,3.545 0.3782,4.2519 2.2188,4.5139 2.8876,0.4111 4.8283,-2.9881 3.3177,-5.8107 -0.5887,-1.1 -1.9811,-2 -3.0942,-2 -1.1131,0 -1.7457,-0.45 -1.4058,-1 0.9117,-1.4751 3.1404,-1.2167 4.9286,0.5714 3.7493,3.7493 -0.173,12.3184 -4.4234,9.6639 -1.6792,-1.0486 -1.9263,-0.8274 -2.284,2.0444 -0.2206,1.7712 -0.4731,-0.5672 -0.5612,-5.1964 z m -29.9834,-3.8333 c -0.2199,-10.2724 1.6127,-11.2028 4.3379,-2.2022 1.0071,3.3263 2.1656,6.2545 2.5744,6.5071 0.4088,0.2527 1.7177,-2.4688 2.9087,-6.0477 1.191,-3.579 2.5788,-6.5072 3.0839,-6.5072 0.5052,0 0.839,3.7125 0.7419,8.25 l -0.1766,8.25 -0.5734,-7 -0.5734,-7 -2.3315,6.75 c -1.2824,3.7125 -2.6736,6.75 -3.0917,6.75 -0.4181,0 -1.3253,-1.8859 -2.0159,-4.191 -0.6906,-2.305 -1.7614,-5.3425 -2.3796,-6.75 -1.0074,-2.2938 -1.1863,-1.8334 -1.726,4.441 l -0.6021,7 z m 17.7073,6.1102 c -1.7457,-2.1036 0.03,-4.7179 3.6405,-5.3602 3.5536,-0.6322 4.5472,-3 1.2589,-3 -1.3108,0 -2.9233,0.54 -3.5833,1.2 -0.8931,0.8931 -1.2,0.9021 -1.2,0.035 0,-1.729 3.7877,-3.4374 6.0378,-2.7232 1.5021,0.4767 1.9622,1.5257 1.9622,4.4736 0,2.118 0.2363,4.4666 0.5251,5.2191 0.7753,2.0204 -6.9776,2.1599 -8.6412,0.1555 z m 6.771,-1.9033 c 0.3257,-0.8487 0.3325,-1.8028 0.015,-2.1201 -1.0759,-1.0759 -5.6701,0.6923 -5.6701,2.1823 0,2.0004 4.884,1.9466 5.6549,-0.062 z m 24.0001,1.7144 c -2.2617,-2.4992 -2.0788,-6.4778 0.4009,-8.7219 1.671,-1.5122 2.4086,-1.6404 3.9389,-0.6847 1.6792,1.0486 1.9263,0.8274 2.284,-2.0444 0.2206,-1.7712 0.4663,0.6047 0.5459,5.2797 0.086,5.0712 -0.2021,7.9527 -0.715,7.1432 -0.5993,-0.9458 -1.0669,-1.0215 -1.5437,-0.25 -1.0149,1.6422 -3.0411,1.3443 -4.911,-0.7219 z M 1172.5,1267 c 0,-2.8359 -0.4141,-3.5589 -2.1823,-3.8107 -1.3962,-0.1987 -2.5797,0.4317 -3.2852,1.75 -1.5439,2.8848 0.3602,6.2878 3.2852,5.8714 1.7682,-0.2518 2.1823,-0.9748 2.1823,-3.8107 z m 5.3839,4.3602 c -1.7457,-2.1036 0.03,-4.7179 3.6405,-5.3602 3.5536,-0.6322 4.5472,-3 1.2589,-3 -1.3108,0 -2.9233,0.54 -3.5833,1.2 -0.8931,0.8931 -1.2,0.9021 -1.2,0.035 0,-1.729 3.7877,-3.4374 6.0378,-2.7232 1.5021,0.4767 1.9622,1.5257 1.9622,4.4736 0,2.118 0.2363,4.4666 0.5251,5.2191 0.7753,2.0204 -6.9776,2.1599 -8.6412,0.1555 z m 6.771,-1.9033 c 0.3257,-0.8487 0.3325,-1.8028 0.015,-2.1201 -1.0759,-1.0759 -5.6701,0.6923 -5.6701,2.1823 0,2.0004 4.884,1.9466 5.6549,-0.062 z m 5.8926,2.2931 c -0.9019,-2.8925 -1.1884,-10.4062 -0.4672,-12.2539 0.6133,-1.5712 0.7941,-1.6413 0.8494,-0.3294 0.039,0.9166 0.6328,1.9291 1.3203,2.25 1,0.4666 1,0.7 0,1.1666 -1.4856,0.6933 -1.6857,7.0294 -0.25,7.9167 0.55,0.3399 1,1.0415 1,1.559 0,1.3938 -2.0002,1.1418 -2.4525,-0.309 z m 5.3364,-0.3898 c -1.7457,-2.1036 0.03,-4.7179 3.6405,-5.3602 3.5536,-0.6322 4.5472,-3 1.2589,-3 -1.3108,0 -2.9233,0.54 -3.5833,1.2 -0.8931,0.8931 -1.2,0.9021 -1.2,0.035 0,-2.662 7.7374,-4.0174 8.0935,-1.4178 0.051,0.3754 0.174,2.7286 0.2725,5.2292 l 0.179,4.5466 -3.6966,0.1474 c -2.2487,0.09 -4.1931,-0.451 -4.9645,-1.3804 z m 6.771,-1.9033 c 0.3257,-0.8487 0.3325,-1.8028 0.015,-2.1201 -1.0759,-1.0759 -5.6701,0.6923 -5.6701,2.1823 0,2.0004 4.884,1.9466 5.6549,-0.062 z m 16.0951,2.8808 c 0.6875,-0.2774 1.8125,-0.2774 2.5,0 0.6875,0.2774 0.125,0.5044 -1.25,0.5044 -1.375,0 -1.9375,-0.227 -1.25,-0.5044 z m 10.25,-0.1348 c 0,-0.4383 1.8,-2.5547 4,-4.7029 2.2,-2.1482 4,-4.7287 4,-5.7343 0,-2.4115 -2.7668,-3.3924 -5.2298,-1.8542 -2.5493,1.592 -3.3257,0.7869 -1.2464,-1.2925 2.0509,-2.0508 4.882,-2.0703 6.9048,-0.048 2.4782,2.4783 1.8824,4.4487 -2.595,8.5822 l -4.1664,3.8464 h 4.1664 c 2.2915,0 4.1664,0.45 4.1664,1 0,0.55 -2.25,1 -5,1 -2.75,0 -5,-0.3587 -5,-0.7971 z m 14.4411,-0.6223 c -1.4874,-1.0876 -1.9411,-2.6257 -1.9411,-6.5806 0,-3.9549 0.4537,-5.493 1.9411,-6.5806 2.5493,-1.8641 3.1801,-1.7982 5.5589,0.5806 1.3333,1.3333 2,3.3333 2,6 0,2.6667 -0.6667,4.6667 -2,6 -2.3788,2.3788 -3.0096,2.4447 -5.5589,0.5806 z M 1248.5,1265 c 0,-5.2 -0.1364,-5.5 -2.5,-5.5 -2.237,0 -2.5329,0.4592 -2.8131,4.3644 -0.4113,5.7339 0.2983,7.3477 3.0586,6.9557 2.0272,-0.2878 2.2545,-0.8745 2.2545,-5.8201 z m 4.5,7.2029 c 0,-0.4383 1.8,-2.5547 4,-4.7029 2.2,-2.1482 4,-4.7287 4,-5.7343 0,-2.4115 -2.7668,-3.3924 -5.2298,-1.8542 -2.5493,1.592 -3.3257,0.7869 -1.2464,-1.2925 2.0509,-2.0508 4.882,-2.0703 6.9048,-0.048 2.4782,2.4783 1.8824,4.4487 -2.595,8.5822 l -4.1664,3.8464 h 4.1664 c 2.2915,0 4.1664,0.45 4.1664,1 0,0.55 -2.25,1 -5,1 -2.75,0 -5,-0.3587 -5,-0.7971 z m 13.5238,-0.8219 c -2.0793,-2.0794 -1.3029,-2.8845 1.2464,-1.2925 1.0807,0.6749 2.6995,0.9452 3.5973,0.6007 2.3341,-0.8957 2.0709,-4.7618 -0.3675,-5.3995 -1.1,-0.2876 -2,-0.868 -2,-1.2897 0,-0.4217 0.9,-1.0021 2,-1.2897 1.1,-0.2877 2,-1.0293 2,-1.6481 0,-1.7694 -3.0763,-2.4956 -5.1325,-1.2115 -2.2407,1.3993 -2.5064,-0.075 -0.3379,-1.8753 2.1175,-1.7573 6.4704,0.263 6.4704,3.0032 0,1.1118 -0.5197,2.0214 -1.155,2.0214 -0.691,0 -0.4902,0.7346 0.5,1.8287 2.2682,2.5064 2.0745,4.7641 -0.5675,6.6146 -2.822,1.9766 -4.2288,1.9625 -6.2537,-0.062 z m -52.4512,-2.0159 c -2.7406,-3.484 -2.614,-5.6689 0.5251,-9.0593 l 2.5978,-2.8058 -2.0978,2.8849 c -2.6373,3.6269 -2.643,5.6522 -0.025,8.9802 1.1399,1.4492 1.8476,2.6349 1.5726,2.6349 -0.275,0 -1.4327,-1.1857 -2.5726,-2.6349 z m 2.3562,-2.7927 c -0.3351,-1.3351 -0.2209,-3.1214 0.2537,-3.9695 0.598,-1.0686 0.863,-0.3232 0.863,2.4275 0,4.5813 -0.2628,4.9441 -1.1167,1.542 z M 1226.5,1265 c 0,-2.095 0.3375,-3.6004 0.75,-3.3455 0.4125,0.2549 0.75,1.7604 0.75,3.3455 0,1.5851 -0.3375,3.0906 -0.75,3.3455 -0.4125,0.2549 -0.75,-1.2505 -0.75,-3.3455 z M 99,1254 c 0,-10 0.25,-12 1.5,-12 1.25,0 1.5,2 1.5,12 0,10 -0.25,12 -1.5,12 -1.25,0 -1.5,-2 -1.5,-12 z m 964.5502,6.8578 c 0.8442,-2.3927 2.954,-5.8145 4.6885,-7.6041 2.5685,-2.6499 3.9295,-3.2537 7.3346,-3.2537 h 4.181 l -0.4697,4.75 c -0.6244,6.3149 -3.7209,9.25 -9.7586,9.25 -2.3993,0 -5.0708,0.2718 -5.9366,0.6041 -1.4279,0.5479 -1.4315,0.1999 -0.039,-3.7463 z m 155.1998,-3.5201 c 0.6875,-0.2774 1.8125,-0.2774 2.5,0 0.6875,0.2774 0.125,0.5044 -1.25,0.5044 -1.375,0 -1.9375,-0.227 -1.25,-0.5044 z m -23.2372,-8.317 c -0.6881,-1.1133 0.7301,-4.1474 2.7043,-5.7859 0.7295,-0.6054 5.607,-2.6307 10.8389,-4.5007 l 9.5126,-3.3999 -0.6999,5.5829 c -0.385,3.0706 -0.7379,6.3704 -0.7843,7.3329 -0.075,1.5495 -1.2804,1.75 -10.5254,1.75 -5.7425,0 -10.7133,-0.4407 -11.0462,-0.9793 z m -745.26173,-14.0922 c -1.9263,-6.6035 -1.93299,-6.9064 -0.18735,-8.4862 0.99564,-0.901 2.29981,-1.3357 2.89816,-0.9659 1.14576,0.7082 8.39281,14.5413 7.8523,14.9885 -0.1728,0.143 -2.17073,0.4965 -4.43984,0.7857 l -4.12566,0.5257 z m 561.58393,1.3481 -3.6651,-0.3872 2.7166,-6.6286 c 2.9123,-7.1058 3.8352,-7.9998 6.2189,-6.0243 1.2577,1.0423 1.3666,2.3576 0.6223,7.5135 -0.4963,3.4375 -1.2005,6.1744 -1.565,6.0819 -0.3645,-0.092 -2.312,-0.3423 -4.3277,-0.5553 z m 188.863,-15.6608 -2.5258,-7.5123 5.1639,-1.6747 c 2.8402,-0.921 5.5251,-2.003 5.9665,-2.4043 0.4414,-0.4013 -0.2911,-3.2027 -1.6279,-6.2253 l -2.4304,-5.4956 4.6279,-1.4532 c 2.5453,-0.7993 6.8051,-1.2692 9.4663,-1.0441 4.3775,0.3702 4.7837,0.6133 4.2636,2.5514 -0.3161,1.1783 -0.5809,5.4048 -0.5884,9.3923 l -0.014,7.25 h -3.5 -3.5 v 6.5 6.5 h -4.9182 c -2.705,0 -5.5797,0.2538 -6.3881,0.564 -1.0996,0.422 -2.1061,-1.3282 -3.9957,-6.9482 z M 326.33958,1196.221 c -4.03576,-1.9918 -5.24811,-3.1444 -5.56279,-5.2885 -0.3754,-2.5577 -0.0865,-2.804 4.30858,-3.673 l 4.71096,-0.9315 1.24373,5.8608 c 0.68406,3.2234 1.06738,6.0224 0.85184,6.2199 -0.21555,0.1976 -2.71409,-0.7869 -5.55232,-2.1877 z m -133.68678,-17.4583 -7.43106,-3.8787 -3.09853,-8.192 c -2.77963,-7.3489 -3.57209,-8.4903 -7.69985,-11.0901 -4.19974,-2.6452 -4.98149,-2.8111 -8.95741,-1.9013 l -4.35609,0.9968 -2.32732,-10.0987 -2.32732,-10.0987 -9.04244,-0.097 c -8.80505,-0.094 -9.2685,-0.2199 -17.65315,-4.7904 l -8.61071,-4.6937 1.44432,-4.2096 c 0.79438,-2.3153 3.91087,-7.2773 6.92554,-11.0266 7.47647,-9.2985 7.33476,-10.5147 -1.26878,-10.8892 l -6.75,-0.2938 1.32742,-7.5982 1.32743,-7.5983 6.04823,1.3973 c 3.32653,0.7685 8.67885,2.7252 11.89406,4.3482 5.35168,2.7016 6.71466,2.9498 16.12434,2.9373 5.65319,-0.01 11.2862,-0.2837 12.51781,-0.6138 2.19651,-0.5887 2.20606,-0.6572 0.5,-3.5829 l -1.73929,-2.9828 4.37861,-3.9034 c 4.17987,-3.7262 4.68738,-3.9034 11.18127,-3.9034 h 6.80267 l 0.68769,7.8835 c 0.78547,9.0044 0.67633,8.7658 5.75343,12.579 3.70346,2.7815 3.89153,2.8148 7.13934,1.2661 l 3.33568,-1.5907 1.24783,4.4568 c 0.6863,2.4513 1.61629,4.6845 2.06664,4.9629 0.45034,0.2783 2.3612,-0.1384 4.24635,-0.9261 l 3.42755,-1.4321 5.75875,12.9441 c 3.16732,7.1192 6.0827,14.7156 6.47864,16.8808 0.70747,3.8689 0.6617,3.9477 -2.65333,4.5696 -1.85526,0.3481 -3.60518,1.0082 -3.88869,1.4669 -0.28352,0.4587 1.02258,5.5773 2.90243,11.3745 3.39066,10.4564 3.40604,10.5876 1.92872,16.4523 l -1.48921,5.9119 -11.15218,4.0021 c -15.46031,5.5482 -16.15947,5.5751 -24.99939,0.9611 z m 1072.9387,-3.6717 c 0.7355,-3.0751 1.3533,-6.0756 1.3729,-6.6678 0.034,-1.0306 2.2822,-0.9926 9.7856,0.1657 2.7629,0.4265 3.25,0.9165 3.25,3.2693 0,4.3115 -4.4467,7.8132 -10.6228,8.3656 l -5.1229,0.4582 z M 540.40547,1150.25 c -0.90772,-3.1625 -1.82064,-6.0451 -2.0287,-6.4057 -0.20806,-0.3607 1.57747,-1.3222 3.96785,-2.1367 l 4.34615,-1.4808 1.55697,4.8687 1.55696,4.8688 -3.43714,3.0178 c -1.89044,1.6599 -3.63392,3.0179 -3.87442,3.0179 -0.2405,0 -1.17995,-2.5875 -2.08767,-5.75 z m 637.05233,2.5601 c -1.604,-0.7307 -1.958,-1.6514 -1.6497,-4.2917 l 0.3924,-3.3614 4.6202,1.9805 c 2.5412,1.0892 5.4211,1.771 6.3998,1.5151 3.0864,-0.8071 1.9452,0.2304 -2.9705,2.7008 -3.5226,1.7702 -5.2777,2.1466 -6.7922,1.4567 z m -535.44768,-4.9642 c -4.11943,-1.0958 -7.58359,-2.086 -7.69814,-2.2006 -0.11454,-0.1145 -1.29803,-4.8297 -2.62996,-10.4781 l -2.42169,-10.2698 5.61983,-2.7882 c 7.27208,-3.6078 12.91275,-3.2695 18.46558,1.1075 l 3.84574,3.0314 8.8312,-0.986 c 8.8162,-0.9843 8.84777,-0.998 18.5769,-8.0805 9.21339,-6.707 10.1179,-7.1312 16.56044,-7.766 3.74812,-0.3694 7.15794,-0.5578 7.57737,-0.4188 1.44026,0.4772 10.26261,13.4485 10.26261,15.0888 0,1.2864 -1.34917,1.7607 -6.25,2.1969 -4.1446,0.369 -10.12394,2.1338 -17.75,5.239 -16.50835,6.7218 -15.49046,5.9489 -13.04495,9.9058 1.12472,1.8198 2.04495,3.5483 2.04495,3.841 0,1.0513 -9.68723,2.6667 -19.5,3.2519 -5.5,0.3279 -11.125,0.7587 -12.5,0.9572 -1.375,0.1985 -5.87044,-0.5357 -9.98988,-1.6315 z m 468.70788,-15.7706 c 0.3652,-9.1779 3.312,-42.3552 3.811,-42.9063 0.1648,-0.1821 1.2921,0.2001 2.5051,0.8492 2.1267,1.1382 2.1878,1.5959 1.7126,12.8311 -0.271,6.4079 -1.2878,17.3478 -2.2596,24.3109 -1.6069,11.5141 -1.9635,12.6977 -3.9386,13.0753 -2.1129,0.4039 -2.1624,0.1831 -1.8305,-8.1602 z m 60.6261,-10.3253 c -1.7488,-14.2295 -1.8485,-17.4934 -0.8013,-26.25 l 1.1959,-10 0.1307,8.9434 c 0.1285,8.7967 1.7353,33.9407 2.5758,40.3066 0.236,1.7875 0.084,3.25 -0.3375,3.25 -0.4216,0 -1.6652,-7.3125 -2.7636,-16.25 z m -743.49081,11.4181 -6.64672,-2.3324 0.94743,-3.4313 c 1.08155,-3.917 0.51007,-5.4044 -2.0765,-5.4044 -1.62672,0 -1.71233,-0.507 -0.86906,-5.1465 0.69118,-3.8028 0.62003,-5.3415 -0.27248,-5.8931 -0.66434,-0.4106 -4.91125,-1.055 -9.43757,-1.432 l -8.22969,-0.6856 1.95793,-7.7963 1.95794,-7.7964 10.65771,2.339 c 5.86175,1.2864 11.20051,2.3551 11.86391,2.3749 0.79937,0.024 1.30529,2.4813 1.5,7.286 0.26515,6.5427 0.50312,7.2798 2.43915,7.5558 2.8847,0.4113 4.22304,6.5059 3.44637,15.6944 l -0.59171,7.0002 z m 792.94801,-49.6399 c 0.2446,-4.4155 0.5019,-8.0903 0.5717,-8.1662 0.07,-0.076 4.627,-0.3124 10.127,-0.5254 l 10,-0.3875 -0.3559,8.0255 c -0.1958,4.414 -0.4208,8.0875 -0.5,8.1634 -0.079,0.076 -4.6764,0.3136 -10.2159,0.5282 l -10.0718,0.3902 z m 50.0021,-24.7416 c 0.24,-3.4576 0.5661,-6.4328 0.7247,-6.6115 0.1586,-0.1787 2.1297,0.8936 4.3801,2.3829 3.4428,2.2783 4.0918,3.2418 4.0918,6.0749 0,3.1661 -0.204,3.3671 -3.4182,3.3671 -1.88,0 -4.0474,0.2415 -4.8165,0.5366 -1.133,0.4348 -1.3155,-0.6557 -0.9619,-5.75 z M 85.116807,1037.7497 C 84.502563,1032.3479 84,1026.7929 84,1025.4051 c 0,-1.4274 -0.434255,-2.2547 -1,-1.9051 -0.55,0.3399 -1,3.7415 -1,7.559 0,5.5031 -0.310738,6.941 -1.5,6.941 -1.164363,0 -1.5,-1.3242 -1.5,-5.9182 0,-3.255 -0.244076,-6.5543 -0.54239,-7.3317 -0.365302,-0.9519 0.768119,-1.9282 3.471458,-2.9901 l 4.013848,-1.5767 5.528542,10.3069 C 94.512156,1036.159 97,1041.448 97,1042.2435 c 0,2.2932 -3.184154,4.4927 -7.133193,4.9276 l -3.633193,0.4 z m 818.138433,-7.2535 c -4.73516,-6.1312 -4.68089,-6.177 5.16314,-4.3632 l 6.14897,1.133 -0.37944,3.2501 c -0.34186,2.9283 -3.14552,5.4955 -5.98496,5.4801 -0.38662,0 -2.61309,-2.4771 -4.94771,-5.5 z m 137.10076,-6.5261 c 0.3657,-1.8284 0.7759,-3.4353 0.9117,-3.5711 0.1357,-0.1358 3.0155,-0.8865 6.3995,-1.6682 6.1327,-1.4168 6.1563,-1.4137 7.2428,0.9709 1.4988,3.2895 1.6895,3.0728 -4.16,4.7282 -11.5619,3.2721 -11.1441,3.2906 -10.394,-0.4598 z M 366,1018.3728 c -2.475,-1.9383 -4.62478,-3.8645 -4.77728,-4.2804 -0.31398,-0.8562 7.78287,-11.0924 8.77411,-11.0924 0.35374,0 2.61405,1.687 5.0229,3.7489 l 4.37973,3.7489 -2.94167,0.5095 c -2.67614,0.4636 -3.01699,0.9827 -3.77601,5.7511 -0.45888,2.8829 -1.1375,5.2184 -1.50805,5.1902 -0.37055,-0.028 -2.69873,-1.6374 -5.17373,-3.5758 z m 760.778,-7.1105 c 0.1528,-5.9192 0.982,-13.77211 1.8426,-17.45077 l 1.5647,-6.68847 5.1573,-0.83213 c 4.9978,-0.80638 5.157,-0.93377 5.1445,-4.11617 -0.011,-2.80619 0.2799,-3.20532 2,-2.74305 1.1071,0.29754 5.1748,0.54713 9.0393,0.55464 l 7.0265,0.0136 -0.3632,3.80754 -0.3631,3.80754 -5.8989,-0.42669 c -4.4016,-0.31838 -6.0097,-0.0791 -6.3351,0.94246 -0.2398,0.75303 -1.1981,8.34415 -2.1295,16.8691 l -1.6936,15.5 -6.1347,0.01 c -3.3742,0 -6.8098,0.3477 -7.6348,0.7623 -1.2952,0.6509 -1.462,-0.7157 -1.222,-10.0085 z M 731.5,997.86777 c -4.92601,-3.68868 -5.06031,-4.03444 -2.25261,-5.79958 3.55655,-2.23591 9.85356,-1.47622 12.50261,1.50836 2.88427,3.24958 2.83902,3.64429 -0.65429,5.70784 -3.84471,2.27111 -4.87384,2.11921 -9.59571,-1.41662 z m 143.895,-21.31615 c -1.37189,-2.99661 -3.32067,-5.71064 -4.33062,-6.03119 -1.07714,-0.34187 -2.61074,-2.74031 -3.70964,-5.80162 L 865.48136,959.5 856.7694,959.21149 c -9.96032,-0.32986 -9.52809,-0.76281 -10.012,10.02877 l -0.2574,5.74027 -5.90406,-7.64287 C 831.60452,955.69816 831.02055,953.4708 832.37986,936 c 1.10906,-14.25433 1.19342,-14.60487 4.97899,-20.68956 2.7949,-4.49236 5.49227,-7.26828 9.83706,-10.12353 l 5.98624,-3.93397 9.39943,4.03738 c 8.86214,3.80658 9.72118,4.44812 15.02789,11.22295 3.95792,5.0529 7.2245,8.04647 11.00599,10.08615 2.95765,1.59532 5.37912,3.23704 5.38104,3.64827 0.002,0.41122 -1.62784,3.01839 -3.62171,5.79371 l -3.62521,5.04602 2.00995,5.45629 2.00995,5.45629 h -3.88474 c -4.3841,0 -4.38805,0.01 -2.52191,6.21048 0.90916,3.02092 1.04509,5.09612 0.40834,6.23394 -1.53723,2.74687 -0.3631,2.79214 5.47324,0.21103 l 5.49302,-2.42927 1.68491,3.53329 c 0.9267,1.9433 1.32328,3.8621 0.88128,4.26399 -0.44199,0.40188 -3.19651,1.50727 -6.12116,2.45642 -3.59614,1.16707 -5.15175,2.15777 -4.80539,3.06036 0.44098,1.14917 -6.84323,6.45976 -8.86046,6.45976 -0.34499,0 -1.74971,-2.45177 -3.12161,-5.44838 z M 124.02032,956.03984 c -1.11117,-2.17809 -2.01475,-4.31559 -2.00794,-4.75 0.0118,-0.74958 6.40888,-5.28984 7.45327,-5.28984 0.5969,0 4.53946,7.59411 4.52197,8.71016 -0.0118,0.74958 -6.40888,5.28984 -7.45327,5.28984 -0.27154,0 -1.40285,-1.78207 -2.51403,-3.96016 z m 603.0751,-9.70051 c -6.71337,-8.09762 -8.11972,-11.16616 -5.51498,-12.03328 0.59425,-0.19782 4.85584,3.18014 9.47021,7.50658 l 8.38977,7.86626 -1.74326,2.66056 c -0.9588,1.4633 -2.12088,2.66055 -2.58241,2.66055 -0.46153,0 -4.07022,-3.8973 -8.01933,-8.66067 z M 682.1925,917.47076 C 680.43663,914.97968 679,912.54455 679,912.05936 679,910.9656 691.96502,899 693.15013,899 694.3746,899 708,910.25603 708,911.26757 c 0,1.09554 -5.2986,7.73236 -6.17327,7.7324 -0.37031,2e-5 -2.08726,-1.18976 -3.81546,-2.64394 l -3.14218,-2.64397 -4.2224,4.14397 C 688.32438,920.13521 686.19046,922 685.90465,922 c -0.28581,0 -1.95627,-2.03816 -3.71215,-4.52924 z M 977.10034,903.41941 C 974.29515,900.35009 972,897.36737 972,896.79114 c 0,-0.87598 5.46157,-11.2501 6.72,-12.76447 0.67095,-0.80741 13.27725,6.40672 13.27867,7.5989 7.3e-4,0.61906 -1.12367,3.66939 -2.49867,6.77851 -1.375,3.10912 -2.5,5.92364 -2.5,6.25449 0,0.33084 2.025,0.37329 4.5,0.0943 4.21357,-0.47493 4.5,-0.35591 4.5,1.86995 0,2.27319 -0.30176,2.37716 -6.89966,2.37716 h -6.89965 l -5.10035,-5.58059 z M 1268,902.6357 c 0,-0.32527 1.2187,-3.07636 2.7083,-6.11355 2.4666,-5.02928 3.0021,-5.52215 6,-5.52215 3.2738,0 3.2917,0.0267 3.2917,4.89301 0,3.22423 -0.468,5.07259 -1.3722,5.41956 -2.3826,0.91429 -10.6278,1.94079 -10.6278,1.32313 z m -909.56164,-4.82992 c -0.35037,-1.10391 -0.25483,-2.36132 0.2123,-2.79424 3.54288,-3.2834 13.4154,-11.00914 14.05553,-10.99916 1.37244,0.0214 5.50458,7.17862 4.62855,8.01705 -0.4591,0.43941 -4.75528,2.37045 -9.54705,4.29119 -8.42386,3.37664 -8.73339,3.42581 -9.34933,1.48516 z m 69.25517,-3.55257 c -10.33597,-0.308 -10.77843,-0.41037 -10.16242,-2.35123 0.44856,-1.4133 -0.90261,-4.7091 -4.45156,-10.85838 -2.80259,-4.85604 -6.61917,-12.17238 -8.48129,-16.25854 -2.87927,-6.31815 -3.16402,-7.5692 -1.9037,-8.36419 1.29094,-0.8143 1.22946,-1.59939 -0.47692,-6.09021 l -1.9589,-5.15541 9.40777,-4.25048 c 5.52894,-2.498 9.75267,-3.87411 10.24428,-3.33763 0.95291,1.0399 20.60566,51.72434 21.38924,55.16286 0.38308,1.68105 0.0939,2.1963 -1.14365,2.03762 -0.91101,-0.11681 -6.51929,-0.35729 -12.46285,-0.53441 z M 378.67386,887.75 c -1.51971,-1.11194 -0.9683,-1.78666 4.9926,-6.10898 6.25398,-4.53484 6.78881,-4.73889 8.01727,-3.05887 2.2736,3.10933 1.44249,4.83234 -3.69866,7.66785 -5.59709,3.08697 -6.86345,3.29098 -9.31121,1.5 z M 1106,877.50139 c -3.025,-1.89939 -5.95,-3.63833 -6.5,-3.86432 -0.55,-0.22598 0.6956,-2.14927 2.768,-4.27397 l 3.768,-3.8631 4.5715,2.59233 c 2.5143,1.42578 4.5814,2.90093 4.5936,3.27811 0.061,1.89134 -2.3266,9.62659 -2.9655,9.60697 -0.4046,-0.0124 -3.2106,-1.57663 -6.2356,-3.47602 z m 122.7156,-33.40568 C 1227.772,842.49835 1227,840.92983 1227,840.6101 c 0,-0.55523 11.4004,-6.6101 12.4458,-6.6101 1.0072,0 3.6188,6.08647 3.0243,7.04838 -0.6587,1.06574 -9.8706,5.95162 -11.2212,5.95162 -0.4497,0 -1.5897,-1.30693 -2.5333,-2.90429 z M 19.75,834.93191 C 17.6875,833.84308 16,832.49062 16,831.92645 c 0,-2.06827 3.312712,-7.52287 6.745943,-11.10764 l 3.525573,-3.68119 -2.885758,-2.61583 -2.885758,-2.61583 5.25,2.56386 c 2.8875,1.41013 5.25,2.79232 5.25,3.07154 0,0.27921 -1.836938,3.41625 -4.082084,6.97118 -3.32491,5.26463 -3.959377,7.02221 -3.420544,9.47549 0.363846,1.65658 0.513284,2.99208 0.332083,2.96777 -0.1812,-0.0243 -2.016955,-0.93505 -4.079455,-2.02389 z m 84.5,-9.00628 c -2.3375,-1.01399 -4.25,-2.07855 -4.25,-2.36569 0,-0.28714 1.42671,-3.41529 3.17047,-6.95144 2.94586,-5.9739 3.34011,-6.36488 5.5651,-5.51894 1.31704,0.50074 2.60916,0.91044 2.87135,0.91044 0.2622,0 1.83315,-3.02321 3.491,-6.71825 2.28677,-5.09677 3.23839,-6.36388 3.94287,-5.25 1.63092,2.57875 1.0775,4.45164 -4.79079,16.21311 l -5.75,11.52439 z m 381.36806,-5.60037 c -0.93708,-1.96508 -1.57199,-3.69826 -1.41092,-3.85152 0.16107,-0.15326 1.802,0.98666 3.6465,2.53316 3.15684,2.6468 3.23964,2.87281 1.41092,3.85151 -1.67166,0.89465 -2.18043,0.54122 -3.6465,-2.53315 z m -34.93357,-0.8607 c -1.55446,-3.25973 -1.5259,-3.38351 1.73015,-7.49818 1.82089,-2.30105 3.67211,-4.16518 4.11383,-4.14251 0.44173,0.0227 1.80604,2.50631 3.03182,5.5192 l 2.22868,5.47798 -4.76196,1.97898 -4.76197,1.97898 z m 17.5102,-10.49006 -3.01554,-6.82728 3.88898,-2.57361 C 473.73107,796.48782 474,796.45333 474,798.94098 c 0,2.83848 1.47672,3.3045 5.347,1.68739 l 3.43504,-1.43525 2.6997,6.35215 c 1.48483,3.49368 2.44089,6.77091 2.12456,7.28273 -1.09691,1.77483 -4.58712,2.02869 -5.49861,0.39994 -0.79723,-1.42457 -1.39719,-1.37428 -5.89253,0.4939 l -5.00492,2.07995 z m 85.23711,-29.24344 c -3.55484,-3.1291 -4.4318,-4.55242 -4.4318,-7.1929 0,-2.97813 0.45271,-3.48361 4.75,-5.3036 2.6125,-1.10645 7.5625,-2.20308 11,-2.43696 l 6.25,-0.42522 0.0136,6.56381 c 0.008,3.6101 0.26721,7.50828 0.5771,8.66263 0.51808,1.92983 -0.0119,2.1767 -6.58185,3.06604 l -7.14529,0.96723 -4.43181,-3.90103 z m 32.29083,-1.6837 c -0.29446,-1.12605 -1.36502,-2.06766 -2.37901,-2.09246 -1.01399,-0.0248 -3.13143,-0.59519 -4.70542,-1.26751 l -2.86179,-1.22239 4.64096,-5.16187 4.64096,-5.16186 4.47083,1.52337 c 2.45896,0.83785 4.45495,1.81856 4.43553,2.17936 -0.0194,0.3608 -1.76136,3.48981 -3.87098,6.95336 -3.15023,5.172 -3.93136,5.93148 -4.37108,4.25 z m -102.49897,-10.63292 -5.00611,-4.37923 1.99641,-5.41954 c 1.70008,-4.6151 2.42676,-5.48271 4.89562,-5.84506 4.98941,-0.73229 9.4181,3.33148 11.15801,10.23861 l 1.46944,5.83341 -4.75362,1.97552 -4.75363,1.97552 z M 320.48529,764.75 c -0.24857,-0.6875 -1.0904,-3.09423 -1.87073,-5.34829 l -1.41879,-4.09829 4.52303,-2.19746 c 2.48767,-1.2086 4.67227,-2.04822 4.85467,-1.86582 0.1824,0.18239 0.72744,2.85566 1.2112,5.94059 l 0.87957,5.60896 -3.36604,1.60515 c -4.04885,1.93076 -4.23819,1.94474 -4.81291,0.35516 z m 599.88645,-5.96131 -10.12826,-3.006 2.56695,-5.9492 c 2.17291,-5.03598 4.00568,-7.16836 11.93953,-13.89135 5.15491,-4.36818 9.99883,-7.94214 10.76425,-7.94214 4.24804,0 6.69429,2.74386 13.56918,15.21999 3.91385,7.10262 6.90818,13.12177 6.65406,13.37589 -1.12344,1.12344 -18.57839,5.37048 -21.73745,5.28904 -1.925,-0.0496 -8.05772,-1.44293 -13.62826,-3.09623 z m 273.12396,-28.64736 c -4.4024,-0.91038 -9.3831,-2.63701 -11.0682,-3.83695 -2.9232,-2.08151 -3.045,-2.44868 -2.6502,-7.99305 l 0.4137,-5.81133 -7.5955,-3.74181 c -4.1775,-2.058 -7.5955,-4.1383 -7.5955,-4.62289 0,-0.48458 0.912,-2.94285 2.0267,-5.4628 2.9118,-6.58253 3.0439,-18.95071 0.3028,-28.35087 l -2.0932,-7.17836 3.8009,-5.32164 c 2.0905,-2.9269 4.3824,-5.32163 5.0931,-5.32163 1.6896,0 5.4248,-13.09084 6.3425,-22.22875 l 0.7114,-7.08388 4.9079,2.03964 c 3.6683,1.52448 4.9139,2.57426 4.9315,4.15632 0.017,1.57613 1.3237,2.68822 5.1147,4.35478 2.8001,1.23097 5.4288,2.02943 5.8415,1.77436 0.4127,-0.25507 1.2614,-3.06222 1.8859,-6.23812 l 1.1355,-5.77435 h 7.2363 7.2363 l 0.8724,-4.09449 0.8724,-4.09449 5.2478,1.93319 5.2479,1.93318 -4.4193,10.42704 c -4.9167,11.60044 -5.4036,16.66623 -1.6531,17.20095 1.4079,0.20073 2.0212,0.88614 1.7898,2 -0.1937,0.93204 -1.3369,10.35712 -2.5405,20.94462 -1.5364,13.51486 -2.5591,19.25 -3.4328,19.25 -1.8388,0 -2.4584,2.4149 -2.4584,9.58179 V 705 h 4 4 v 7 7 h -7.6307 c -4.1968,0 -12.1227,-0.71416 -17.6129,-1.58703 -7.1877,-1.14272 -10.2867,-1.2827 -11.0694,-0.5 -1.8208,1.82084 0.3016,2.74784 10.3345,4.51373 l 9.5216,1.67589 -0.3766,3.9487 c -0.3408,3.57327 -0.644,3.94871 -3.1897,3.94871 -1.5473,0 -3.4125,0.17923 -4.145,0.39828 -0.7325,0.21906 -4.9337,-0.34657 -9.3361,-1.25695 z M 415,689.09255 v -6.90745 l 5.75,-0.39212 c 3.1625,-0.21566 5.81192,-0.36981 5.8876,-0.34255 0.0757,0.0273 0.3154,3.31207 0.53269,7.29957 l 0.39509,7.25 H 421.28269 415 Z M 114.5,675.40687 c -4.30022,-1.96445 -6.70298,-2.29272 -17.167941,-2.3455 L 85.164118,673 84.799444,665.75 c -0.487824,-9.69832 0.381892,-10.75971 7.773169,-9.48629 3.04819,0.52517 5.853838,0.64358 6.234775,0.26315 0.380937,-0.38044 0.91916,-5.94211 1.196052,-12.35928 0.30635,-7.09989 1.03527,-12.60457 1.86194,-14.06099 0.85948,-1.51425 1.1996,-4.30943 0.92594,-7.60948 -0.37561,-4.52936 -0.2093,-5.15767 1.26331,-4.77257 0.96861,0.2533 2.73434,3.08769 4.11746,6.60947 2.13508,5.43646 2.74564,6.17111 5.16038,6.20929 3.5451,0.056 11.68194,10.06693 12.69781,15.62231 0.89367,4.88706 -2.15726,23.26127 -4.6421,27.9571 L 119.5,677.69099 Z m 297,-8.94298 c -1.65,-0.75553 -5.28702,-1.39398 -8.08227,-1.41879 L 398.33545,665 l 0.38852,-5.25 c 0.34816,-4.70472 -0.0241,-5.92511 -3.58436,-11.75 -2.18508,-3.575 -3.81043,-6.66246 -3.61189,-6.86101 0.19853,-0.19856 7.96059,1.31786 17.24902,3.36983 l 16.88804,3.73084 -2.39278,6.63017 c -2.5806,7.15064 -6.16276,13.16182 -7.772,13.04212 -0.55,-0.0409 -2.35,-0.69254 -4,-1.44806 z m 741.25,-41.02686 c -3.7125,-1.90554 -6.75,-3.70133 -6.75,-3.99066 0,-1.45678 4.1751,-8.44637 5.0453,-8.44637 1.3361,0 14.9547,6.87764 14.9547,7.55241 0,1.68195 -4.2407,8.43959 -5.2703,8.39841 -0.6763,-0.0271 -4.2672,-1.60826 -7.9797,-3.51379 z m -761.76365,-15.0704 c -0.008,-5.42665 -0.27535,-10.84222 -0.59519,-12.03461 -0.46215,-1.72294 -0.10012,-2.23613 1.76366,-2.5 2.02096,-0.28612 2.41431,-1.02328 2.84518,-5.33202 0.49875,-4.98746 0.5042,-4.99407 2.17342,-2.63683 1.55282,2.19287 2.21318,2.33591 9.16363,1.98493 l 7.49021,-0.37824 0.40945,10.01507 c 0.2252,5.50829 -0.0382,12.15257 -0.58538,14.76507 l -0.99483,4.75 -8.57825,0.0136 c -4.71804,0.008 -9.59075,0.285 -10.82825,0.61664 -2.22141,0.59531 -2.25017,0.47762 -2.26365,-9.26366 z M 915.20311,577.75 c 2.77861,-8.3875 5.33788,-15.57078 5.68729,-15.96284 0.57901,-0.6497 12.1096,13.34917 12.1096,14.70184 0,0.32014 -2.07858,1.47306 -4.61907,2.56204 l -4.61907,1.97996 0.43288,5.9845 0.43288,5.9845 h -7.23826 -7.23825 z m 201.86459,-6.76569 c -3.6592,-3.12832 -3.6199,-3.90392 0.4766,-9.40952 1.5156,-2.03698 2.9984,-1.66253 7.924,2.00096 1.9447,1.44642 1.9389,1.51758 -0.4791,5.9441 -1.3461,2.46408 -2.9068,4.46186 -3.4683,4.43951 -0.5615,-0.0223 -2.5655,-1.36112 -4.4532,-2.97505 z M 617.26289,561.73899 C 616.73284,561.05755 613.01275,554.2 608.99602,546.5 c -4.01672,-7.7 -7.45772,-14.18618 -7.64665,-14.41374 -0.18893,-0.22756 -8.78233,3.48911 -19.09644,8.25925 -10.31411,4.77015 -19.23874,8.66883 -19.83252,8.66374 -0.59377,-0.005 -3.9444,-2.59675 -7.44585,-5.75925 -8.03329,-7.25565 -20.47403,-26.11891 -25.10931,-38.07199 -2.74539,-7.07957 -3.42479,-8.15848 -3.68848,-5.85746 -0.17778,1.55131 0.16175,4.21178 0.75451,5.91216 0.59276,1.70038 0.94915,3.22019 0.79199,3.37736 -0.15717,0.15716 -1.9592,-1.77787 -4.00451,-4.30008 C 520.48222,500.31882 520,499.04377 520,494.4771 c 0,-4.47343 0.36342,-5.4852 2.46482,-6.86209 1.35565,-0.88826 2.67977,-1.61501 2.9425,-1.61501 0.26273,0 0.64994,1.9125 0.86047,4.25 l 0.3828,4.25 0.1747,-4.36011 c 0.20146,-5.02774 8.04818,-55.3467 8.73838,-56.03689 0.25278,-0.25279 3.13294,0.81813 6.40036,2.37981 l 5.94074,2.83941 4.38679,-4.91111 c 2.41274,-2.70111 5.85578,-6.59861 7.65121,-8.66111 2.84629,-3.26967 3.82754,-3.75 7.66082,-3.75 3.9385,0 4.39641,-0.24292 4.39641,-2.33222 0,-1.77905 0.80291,-2.57864 3.38515,-3.37115 l 3.38515,-1.03893 0.47017,4.89308 c 0.40796,4.24571 2.02015,7.17983 12.18543,22.17696 10.32681,15.23544 12.44763,17.77716 17.89468,21.446 3.39868,2.28918 10.10354,5.58176 14.89969,7.31686 l 8.72027,3.15472 4.96127,9.62734 c 3.02163,5.86347 6.73039,11.35367 9.48637,14.04299 2.4888,2.42861 4.28683,4.80118 3.99561,5.27238 -0.29122,0.4712 -3.08995,2.14925 -6.21941,3.72899 -5.19939,2.62465 -6.93891,2.93132 -20.17716,3.55715 -7.96797,0.37668 -15.33054,0.92213 -16.36127,1.21211 -1.72268,0.48465 -1.83421,1.38696 -1.38079,11.17048 0.47676,10.28713 0.69489,11.12022 6.51929,24.89897 3.31431,7.84065 5.67416,14.4732 5.24409,14.73899 -0.43006,0.26579 -1.2156,-0.0743 -1.74565,-0.75573 z m 354.04819,-12.37071 c -0.68704,-1.7904 6.29532,-16.67462 10.26177,-21.87491 2.30224,-3.01839 2.9186,-3.23228 12.14548,-4.21485 7.76977,-0.82739 10.50407,-0.75853 13.62667,0.34319 2.1485,0.75806 4.9225,1.37829 6.1644,1.37829 2.2531,0 9.4906,6.91948 9.4906,9.07365 0,1.55307 -6.3652,12.90047 -7.2442,12.91448 -0.4094,0.007 -5.7175,-3.6414 -11.7958,-8.1065 l -11.0516,-8.11836 -4.2932,1.63959 c -3.61595,1.38094 -4.67354,2.46067 -6.7042,6.84457 C 979.42954,544.60454 974.50694,551 972.86502,551 c -0.51028,0 -1.20956,-0.73427 -1.55394,-1.63172 z m 273.46512,-3.42554 c -3.521,-1.85671 -3.6604,-2.11281 -2.5601,-4.70319 1.8901,-4.44935 2.4609,-4.68895 6.66,-2.79543 l 3.9424,1.77778 -1.2404,3.58276 c -0.6822,1.97052 -1.6539,3.69953 -2.1592,3.84225 -0.5054,0.14271 -2.5946,-0.62417 -4.6427,-1.70417 z M 772.36842,531.51771 c -0.4601,-1.19902 4.47816,-8.51493 10.7103,-15.86705 C 783.91963,514.65864 788,515.74573 788,516.96179 788,518.54194 775.64573,533 774.29551,533 c -0.74705,0 -1.61424,-0.66703 -1.92709,-1.48229 z m 138.93827,-29.53582 -0.92322,-5.73269 4.26246,-0.97538 c 4.15634,-0.95111 4.28782,-0.90263 5.28147,1.94776 l 1.01901,2.92315 3.08988,-1.82237 c 2.72416,-1.60666 3.01789,-2.20693 2.48165,-5.07149 -0.58702,-3.13578 -0.52427,-3.21087 1.79879,-2.15242 2.38965,1.0888 2.39629,1.13393 0.91958,6.24913 -0.8181,2.83383 -1.55402,5.238 -1.63539,5.34259 -0.0814,0.1046 -3.57312,1.27788 -7.75947,2.60729 l -7.61153,2.41711 z m -1.31098,-14.45364 c 0.6243,-4.11366 7.44746,-14.55982 9.46774,-14.49498 0.5701,0.0183 2.15478,0.96354 3.5215,2.10054 l 2.48495,2.06727 -2.37584,1.92383 c -2.37284,1.92142 -2.37357,1.92885 -0.57847,5.90966 0.98854,2.1922 1.61444,4.15877 1.39088,4.37016 -0.22356,0.21139 -3.58358,0.78924 -7.46672,1.28412 l -7.06025,0.89978 z M 344.47045,471.20282 339.4409,468.5 l 0.87973,-5.66024 0.87973,-5.66025 5.14982,-0.4228 c 4.73679,-0.38889 5.42823,-0.15644 8.62121,2.8983 l 3.47138,3.3211 -2.97138,5.50845 c -1.63427,3.02964 -3.64639,5.48879 -4.47139,5.46477 -0.825,-0.024 -3.7633,-1.25996 -6.52955,-2.74651 z m 920.59495,-4.3608 c -7.389,-3.7828 -13.6245,-7.06781 -13.8567,-7.30002 -0.342,-0.34198 27.1757,-54.02625 28.4273,-55.45867 0.2002,-0.22916 0.364,15.40834 0.364,34.75 0,19.34167 -0.3375,35.10363 -0.75,35.02658 -0.4125,-0.077 -6.7956,-3.2351 -14.1846,-7.01789 z M 877.49773,460.75 c -0.24173,-0.6875 -1.62504,-4.625 -3.07403,-8.75 -1.44898,-4.125 -2.9656,-7.85602 -3.37026,-8.29115 -0.40465,-0.43513 -3.69487,0.28296 -7.3116,1.59576 l -6.57586,2.38691 -3.33299,-7.31146 c -1.83314,-4.02131 -3.61261,-7.3269 -3.95437,-7.34576 -0.34176,-0.0189 -6.50598,2.15218 -13.69828,4.82455 l -13.07689,4.85886 -5.14259,-12.81525 c -4.25998,-10.6158 -5.87737,-13.49255 -9.42382,-16.76155 -3.96641,-3.65611 -4.84671,-3.99929 -11.97138,-4.66692 -4.22958,-0.39635 -9.41064,-0.48986 -11.51346,-0.20782 l -3.82331,0.51282 -0.43565,-9.6395 c -0.52996,-11.72642 1.34085,-20.95299 6.71948,-33.13949 3.36417,-7.62226 3.80227,-9.59695 4.24264,-19.12289 l 0.49107,-10.62289 5.12678,1.29347 c 2.81974,0.71141 18.0062,3.41644 33.74771,6.01118 l 28.62092,4.7177 5.51729,13.82106 5.5173,13.82105 -3.63821,1.17197 c -5.29098,1.70438 -5.33423,1.76843 -3.4041,5.04194 1.35541,2.29878 3.07344,3.35883 7.39111,4.56043 l 5.62522,1.5655 3.5659,8.95553 3.5659,8.95552 -8.09731,8.43434 -8.0973,8.43434 5.60669,13.23087 c 6.93628,16.3685 9.15827,24.34322 7.0122,25.16675 -2.05833,0.78985 -2.31169,0.72799 -2.8088,-0.68587 z m 37.37745,-14.87084 c -2.05749,-0.75436 -3.41362,-2.84462 -6.27428,-9.67077 -3.45846,-8.25263 -3.98218,-8.93234 -10.00706,-12.98745 l -6.3576,-4.27906 -6.44932,-15.91234 -6.44931,-15.91233 20.08119,-12.24599 c 11.04466,-6.7353 21.6562,-13.49357 23.5812,-15.01838 1.925,-1.52481 6.46341,-3.68568 10.08535,-4.80194 3.62195,-1.11625 7.33841,-2.86167 8.25881,-3.8787 1.60071,-1.76876 8.00474,-19.15664 7.31099,-19.85039 -0.18386,-0.18385 -1.59292,2.93103 -3.13125,6.92196 -1.53833,3.99092 -3.11965,7.61786 -3.51405,8.05985 -1.43906,1.61271 -8.18189,-2.72051 -10.10786,-6.49573 C 930.8559,337.75737 930,335.84241 930,335.55241 c 0,-0.29 3.0375,-2.04841 6.75,-3.90758 4.80038,-2.40397 7.32766,-3.14998 8.75,-2.58286 3.57667,1.42612 4.22161,1.00399 5.51303,-3.6085 0.70012,-2.5006 3.22998,-7.60539 5.6219,-11.34398 l 4.34894,-6.79745 9.25807,1.30879 c 5.09193,0.71983 9.98117,1.32462 10.86498,1.34398 1.08666,0.0238 2.69165,2.86812 4.95731,8.78519 3.1967,8.34863 3.81705,9.19771 13.52398,18.51025 9.03869,8.67146 10.50549,10.57506 13.14849,17.06448 l 2.9749,7.30423 -2.6317,1.51037 c -2.1446,1.23087 -2.9702,2.94653 -4.4612,9.2708 l -1.8295,7.76043 2.4145,2.66472 c 2.3328,2.57466 2.3955,3.04407 1.8553,13.88904 l -0.559,11.22432 -6.7901,4.45465 c -4.58758,3.00966 -9.00923,4.95937 -13.63113,6.0106 -3.76253,0.85577 -13.08197,4.51771 -20.70987,8.13764 -10.80136,5.12594 -37.15421,15.48536 -50.3689,19.80023 -0.825,0.26938 -2.68117,0.0567 -4.12482,-0.4726 z m 52.06806,-6.08995 c -0.59801,-2.22084 -1.4692,-5.04239 -1.93598,-6.27011 -0.74011,-1.94664 -0.42501,-2.36224 2.46312,-3.24863 l 3.31179,-1.01642 2.48894,5.76841 2.48894,5.76841 -3.86476,1.51812 -3.86475,1.51813 z M 1186.3478,414.75 l -1.8805,-12.25 7.0164,-1.18724 c 3.8589,-0.65298 8.2517,-1.21548 9.7616,-1.25 l 2.7453,-0.0628 -6.7281,13.5 c -3.7005,7.425 -7.247,13.5 -7.8811,13.5 -0.7056,0 -1.8828,-4.75385 -3.0336,-12.25 z M 342.53819,422 c 1.83108,-3.34914 5.88873,-8.15811 7.70267,-9.1289 3.65733,-1.95735 2.69487,-0.23959 -2.90655,5.18749 -3.08892,2.99278 -5.24717,4.76641 -4.79612,3.94141 z M 373.5,403.69065 c 2.85382,-1.30439 11.5,-2.90884 11.5,-2.13404 0,0.43377 -6.05685,2.02625 -11,2.89214 l -3.5,0.6131 z m 12.58333,-3.07213 c 1.47305,-1.34866 12.97469,-6.52141 12.38736,-5.5711 -0.3997,0.64673 -3.15695,2.25063 -6.12722,3.56422 -4.99165,2.20755 -7.28089,2.94143 -6.26014,2.00688 z m 793.91547,-4.99405 c -6e-4,-0.61846 -0.6138,-4.33709 -1.3627,-8.26362 l -1.3615,-7.13916 7.306,-1.45376 7.306,-1.45375 3.2301,4.59291 c 1.7766,2.5261 3.3385,4.74187 3.4711,4.92393 0.1325,0.18206 1.1794,-0.17127 2.3266,-0.78518 1.954,-1.04577 2.0856,-0.86156 2.0856,2.91898 0,2.5527 -0.4592,4.04123 -1.25,4.05164 -0.6875,0.009 -5.8625,0.85256 -11.5,1.87447 -7.1554,1.29705 -10.2504,1.51852 -10.2512,0.73354 z m 86.561,-12.41309 c -7.117,-3.69126 -13.5295,-7.24174 -14.25,-7.88995 -1.9994,-1.79908 -1.5653,-5.85035 0.9639,-8.9947 4.9547,-6.15978 5.0414,-6.67821 0.5079,-3.03568 -8.3551,6.713 -14.3349,8.7099 -26.0601,8.70249 l -10.2215,-0.006 -4.7478,-4.06949 c -6.6191,-5.67337 -16.0854,-17.51366 -19.3913,-24.25423 L 1190.5834,338 h -4.6569 c -7.1711,0 -9.0598,-2.11233 -13.5081,-15.10771 -3.9583,-11.56392 -4.3522,-12.21458 -10.005,-16.52611 -4.3697,-3.33299 -4.441,-6.5748 -0.2694,-12.24738 3.1409,-4.27087 3.142,-4.27722 1.1501,-6.26914 -1.8859,-1.88595 -1.9245,-2.40975 -0.7121,-9.6718 0.7051,-4.22282 2.484,-11.72786 3.9532,-16.67786 2.3725,-7.99312 2.5977,-10.00688 2.0129,-18 -0.3621,-4.95 -0.8624,-9.70399 -1.1117,-10.56442 -0.3833,-1.32252 0.4371,-1.50063 5.3051,-1.15186 8.0187,0.57451 26.3579,-2.95881 33.8987,-6.53111 3.3771,-1.59982 7.975,-4.4793 10.2175,-6.39883 2.9347,-2.51197 6.865,-4.34134 14.0243,-6.52767 l 9.947,-3.03761 2.8355,2.31979 c 3.8489,3.14888 8.1701,3.01276 12.9355,-0.40748 2.145,-1.53956 8.2875,-5.13364 13.65,-7.98685 l 9.75,-5.18765 v 95.98685 c 0,52.79276 -0.1125,95.96946 -0.25,95.94822 -0.1375,-0.0212 -6.0731,-3.05874 -13.1902,-6.75 z m 0.9834,-38.52765 c 0.3198,-1.27395 0.4409,-4.53645 0.2691,-7.25 L 1267.5,332.5 l -1.7663,5.0572 -1.7664,5.05719 -9.2336,-0.29875 c -10.5659,-0.34184 -10.4441,-0.0947 1.2663,2.56974 11.0076,2.5045 10.8634,2.50702 11.5432,-0.20165 z m -223.2162,-16.99243 -2.0091,-5.45405 6.8646,-1.50631 c 5.1363,-1.12707 7.8658,-1.2522 10.8411,-0.49699 L 1064,321.24328 V 326.62164 332 l -6.75,0.0136 c -3.7125,0.008 -7.6869,0.26522 -8.8319,0.57268 -1.7764,0.47698 -2.3768,-0.24146 -4.0911,-4.89503 z M 761,324.13112 l -17.5,-3.67628 -10,-6.59116 c -5.5,-3.62513 -11.54099,-8.21738 -13.42442,-10.20498 -2.10433,-2.22072 -5.38104,-4.24343 -8.5,-5.24705 -4.15203,-1.33603 -7.02592,-3.5603 -15.79405,-12.22395 -8.30962,-8.21058 -10.60509,-11.05111 -10.21393,-12.63922 0.27749,-1.12666 -0.33939,-6.14239 -1.37086,-11.14605 l -1.8754,-9.09758 3.58933,-6.97906 c 6.60333,-12.83945 9.59922,-16.05961 19.58933,-21.05575 4.95,-2.47554 9.17625,-4.66277 9.39166,-4.86051 0.21542,-0.19774 -0.68458,-1.27668 -2,-2.39766 l -2.39166,-2.03813 5,1.91186 c 2.75,1.05152 10.625,4.23659 17.5,7.07793 7.68098,3.17444 16.9335,6.09522 24,7.57616 6.325,1.32555 14.55797,3.54639 18.29549,4.9352 5.86995,2.18119 8.42628,2.52511 18.76905,2.52511 11.89348,0 11.97033,0.0151 11.49056,2.25 -0.26566,1.2375 -1.23499,11.33036 -2.15408,22.42857 l -1.67107,20.17857 5.63502,6.78885 C 812.86195,298.26852 813,298.58518 813,304.57133 v 6.13648 l -7.07086,6.14609 c -3.88898,3.38036 -7.70194,6.1461 -8.47325,6.1461 -0.77131,0 -3.41042,-0.97558 -5.86468,-2.16795 l -4.46229,-2.16795 -4.31446,4.57165 -4.31446,4.57165 z m 212.01923,-17.32427 c -4.11443,-0.51429 -7.64766,-1.10195 -7.85163,-1.30591 -0.68174,-0.68175 6.31621,-11.44381 7.45996,-11.47258 0.62015,-0.0156 1.59098,0.53414 2.1574,1.22164 0.8798,1.06788 6.4603,12.98517 5.91001,12.62096 -0.10723,-0.071 -3.56132,-0.54982 -7.67574,-1.06411 z M 316.8067,280.65778 315.42839,271.5 l 4.5358,-0.60495 c 2.4947,-0.33272 4.59903,-0.55772 4.6763,-0.5 0.0773,0.0577 0.54941,3.80594 1.04921,8.32936 l 0.90873,8.22441 -4.20671,1.43337 -4.20671,1.43338 z m 833.7919,-5.13098 c 1.8363,-10.80077 4.1937,-21.9687 8.9547,-42.42144 0.423,-1.81734 0.8372,-2.11485 1.718,-1.23405 2.0492,2.04921 0.7495,16.61656 -2.8613,32.06832 -1.8713,8.00821 -3.4041,16.64864 -3.4062,19.20096 0,4.50685 -0.099,4.65173 -3.3119,5.0268 l -3.3082,0.38621 z M 181.99922,280.75 c -4.2e-4,-0.6875 0.73616,-4.9625 1.63685,-9.5 l 1.63762,-8.25 h 6.99802 6.99801 l -2.88486,2.21553 c -3.81869,2.93269 -3.91296,3.09792 -5.29785,9.28628 -1.03356,4.61841 -1.61345,5.48606 -4.29027,6.4192 -3.98107,1.38781 -4.79657,1.35874 -4.79752,-0.17101 z m 812.4275,-22.35337 c -0.7388,-0.30665 -0.4732,-4.24783 0.85229,-12.6467 2.32711,-14.74553 6.77209,-24.59395 14.38559,-31.87283 4.9025,-4.68704 21.3354,-16.56419 21.3354,-15.42051 0,0.3427 -0.8845,2.35681 -1.9655,4.4758 -2.6374,5.16965 -9.1814,10.68312 -16.7845,14.14126 l -6.25,2.8427 v 6.06402 c 0,5.10386 -0.6473,7.35142 -4.088,14.19472 -2.60841,5.18781 -4.28781,10.06606 -4.63994,13.4778 -0.54548,5.2852 -0.74388,5.61598 -2.84534,4.74374 z M 510,255.37434 c 0,-0.34411 -1.14929,-7.43161 -2.55397,-15.75 -1.99888,-11.8371 -3.34102,-16.79759 -6.17511,-22.82282 l -3.62113,-7.69849 1.82698,-4.05151 c 1.76308,-3.90981 1.76389,-4.19143 0.0232,-8.05152 -1.77206,-3.92972 -1.89599,-4 -7.05405,-4 -4.86995,0 -5.32208,-0.20592 -6.2412,-2.8425 -0.98776,-2.83348 -0.96031,-2.85735 8.65218,-7.5259 8.5974,-4.17555 24.15265,-8.5108 24.13826,-6.72734 -0.003,0.32765 2.03009,10.2865 4.51719,22.13076 2.4871,11.84427 5.5782,27.46515 6.86912,34.71307 l 2.34712,13.17804 -7.61431,2.54156 c -4.18787,1.39785 -8.96431,3.64829 -10.61431,5.00097 -2.99179,2.45269 -4.5,3.09139 -4.5,1.90568 z M 0.32814019,246.5 c 0.004436,-3.85 0.18518237,-5.30246 0.40165789,-3.2277 0.21647552,2.07477 0.2128458,5.22477 -0.008066,7 C 0.5008202,252.04754 0.32370386,250.35 0.32814019,246.5 Z M 982.59937,240.25 c 1.28265,-6.4625 3.52581,-15.88002 4.98481,-20.92783 2.33862,-8.0911 3.12425,-9.55675 6.63493,-12.37801 5.19452,-4.17443 10.43149,-5.46545 11.79979,-2.90885 1.5706,2.93478 1.2536,3.74079 -4.0402,10.2708 -2.83442,3.49628 -5.71962,8.40028 -6.62465,11.2599 -1.26854,4.00825 -2.03949,5.05223 -3.69239,5 -1.7622,-0.0557 -2.70204,1.61615 -6.00617,10.68399 -2.15439,5.9125 -4.24807,10.75 -4.65263,10.75 -0.40456,0 0.31387,-5.2875 1.59651,-11.75 z m -967.825952,1.78641 -2.4963,-1.96359 1.496147,-7.51903 1.496147,-7.51902 -3.701655,-4.51739 c -2.0359111,-2.48456 -3.3340289,-4.51575 -2.8847066,-4.51375 2.3431106,0.0104 16.5181636,6.04806 19.4504906,8.28466 3.097421,2.36251 3.36025,2.97098 3.037303,7.03151 -0.302436,3.80263 -0.629435,4.37304 -2.262192,3.94606 C 27.233993,234.82793 27,235.33272 27,239.38337 V 244 h -4.865141 c -3.320874,0 -5.657504,-0.62327 -7.361441,-1.96359 z M 0,220.5 c 0,-4.33333 0.11111111,-4.5 3,-4.5 3.5598997,0 3.5573918,-0.0129 0.9796761,5.03984 C 1.3311986,226.23128 0,226.05071 0,220.5 Z m 17,-10.44777 -7.5,-3.84879 3.5,-0.92361 c 3.294377,-0.86936 3.5,-1.16916 3.5,-5.10302 0,-3.89299 0.188453,-4.17931 2.75,-4.1781 2.228537,0.001 2.75,0.45213 2.75,2.37885 0,2.93033 1.156827,3.92462 7.508102,6.4532 5.08446,2.02423 5.076057,2.13929 -0.27311,3.73955 -0.695754,0.20814 -1.697116,1.51497 -2.225249,2.90406 -0.528133,1.3891 -1.308879,2.50336 -1.734992,2.47614 C 24.848638,213.92329 21.125,212.16907 17,210.05223 Z m 1196.1224,-1.47898 c 1.5736,-5.48686 1.2252,-5.90991 -8.2326,-9.99701 l -9.0798,-3.92376 -3.1376,-6.36256 -3.1375,-6.36255 2.8434,-5.05832 c 2.8103,-4.99925 2.839,-5.21997 2.4633,-18.89981 l -0.3801,-13.84148 5.0193,-1.39147 c 3.8484,-1.06687 5.0939,-1.89926 5.3393,-3.56834 0.4345,-2.95414 -1.6081,-3.50684 -6.5354,-1.7684 -3.6504,1.28793 -4.193,1.28174 -4.7055,-0.0537 -0.3185,-0.83021 -0.5792,-1.71366 -0.5792,-1.96322 0,-0.87363 9.5548,-4.6191 15.5,-6.07599 9.2089,-2.25667 10.5,-2.28828 10.5,-0.25707 0,1.29066 -1.0894,1.95863 -3.9948,2.44949 -5.0688,0.85639 -5.7466,1.95117 -2.1341,3.44751 1.8692,0.77424 3.5994,2.78721 5.0421,5.86606 1.2081,2.57802 4.3328,6.96186 6.944,9.74185 4.4224,4.70834 5.2425,5.14298 11.9738,6.34593 7.0247,1.25539 7.2852,1.40725 9.3402,5.44547 1.1627,2.28474 5.2669,7.52907 9.1204,11.65407 5.9753,6.39608 10.6004,13.45279 9.517,14.52018 -0.1697,0.1672 -3.6836,2.20158 -7.8086,4.52084 -4.125,2.31926 -7.6672,4.36349 -7.8715,4.54274 -0.2043,0.17924 0.8479,2.40655 2.3382,4.94957 1.4903,2.54303 2.5446,4.78869 2.3429,4.99038 -0.2017,0.20168 -2.2492,0.78966 -4.55,1.30663 -3.8822,0.87226 -4.5415,0.68919 -9.1585,-2.54291 l -4.9752,-3.48284 -3.813,3.02055 c -2.8101,2.22617 -5.8189,3.38711 -11.4405,4.41436 l -7.6276,1.3938 0.8776,-3.06005 z M 1095.7836,198.13379 1093.42,190.5 l 4.54,-0.60495 c 2.497,-0.33272 4.605,-0.55772 4.6845,-0.5 0.079,0.0577 0.5542,3.3189 1.0549,7.24705 l 0.9104,7.14211 -3.2313,0.99169 -3.2312,0.99168 z m -30.2432,-26.24842 c 9.2911,-9.55729 13.972,-15.41087 20.5,-25.63534 4.6528,-7.28748 8.7971,-13.24998 9.2096,-13.25 2.0787,-9e-5 -0.096,4.56788 -8.841,18.56909 -9.3755,15.0112 -9.8175,15.53095 -19.6801,23.14347 -5.549,4.28308 -10.7956,8.18583 -11.659,8.67278 -0.8635,0.48695 3.8483,-4.68805 10.4705,-11.5 z m -792.45709,4.34921 c -1.19615,-2.46203 -2.00964,-4.64158 -1.80777,-4.84345 0.20187,-0.20187 4.4732,-1.20925 9.49183,-2.23862 l 9.1248,-1.87159 0.83569,5.10954 c 0.45963,2.81025 0.59639,5.20259 0.30391,5.31633 -0.29247,0.11373 -3.96119,0.8362 -8.15271,1.60549 l -7.62094,1.39871 z m 101.10447,-30.14454 -1.99582,-5.90996 5.15402,-0.4008 c 2.83471,-0.22043 5.17195,-0.37345 5.19387,-0.34004 0.0219,0.0334 -0.13056,2.87326 -0.33882,6.31076 -0.36954,6.09926 -0.44667,6.25 -3.19805,6.25 -2.54932,0 -3.01054,-0.56607 -4.8152,-5.90996 z M 95.274911,134.75 c -1.636044,-1.77512 -2.151815,-3.8857 -2.443747,-10 C 92.473131,117.25127 92.534713,117 94.730567,117 96.886317,117 97,117.37244 97,124.4349 c 0,4.0892 0.438862,8.5892 0.975249,10 1.203389,3.16515 0.05042,3.29969 -2.700338,0.3151 z m 903.096139,-6.53208 c 0.26701,-0.94485 0.78406,-4.93698 1.14901,-8.8714 0.76764,-8.27534 1.31724,-7.80028 -10.27006,-8.87627 -6.61538,-0.6143 -7.25,-0.86713 -7.25,-2.88832 v -2.2151 l 11.25,1.41644 c 6.1875,0.77904 11.2707,1.484 11.2961,1.56658 0.025,0.0826 -0.1296,4.50842 -0.3443,9.8352 l -0.3904,9.68506 -2.9629,1.03287 c -2.58919,0.90258 -2.90168,0.81617 -2.47745,-0.68506 z M 760.75,117.38001 c -1.5125,-0.79414 -2.75,-1.87099 -2.75,-2.39301 0,-0.52202 1.44658,-3.88265 3.21463,-7.46807 C 763.99648,101.87765 764.79572,101 767.15122,101 h 2.72196 l -2.92591,8.65598 c -1.60925,4.76079 -3.04321,8.77117 -3.18659,8.91195 -0.14337,0.14077 -1.49818,-0.39379 -3.01068,-1.18792 z m -639.84526,-4.11285 -8.59526,-0.34051 2.48808,-12.46333 L 117.28563,88 h 12.96417 c 11.41079,0 12.89145,0.189532 12.35719,1.581787 -0.33385,0.869984 -0.64252,3.007484 -0.68594,4.75 -0.0434,1.742517 -0.30592,2.605713 -0.58333,1.918213 C 141.00279,95.419962 138.52136,95 133.95185,95 125.80429,95 125,95.847632 125,104.43426 V 110 h 8.5 8.5 l 0.0761,-2.75 c 0.0732,-2.64476 0.12474,-2.61606 1.34782,0.75 1.26171,3.47237 1.24729,3.50505 -1.82608,4.14028 -5.4507,1.12659 -11.87271,1.47632 -20.69308,1.12688 z M 743.8,45.8 c 1.46059,-1.460594 1.65166,-19.481836 0.24576,-23.179639 -0.91572,-2.408529 -0.78583,-2.522159 3.21792,-2.815099 3.67625,-0.268978 4.27425,-0.663423 5.031,-3.318516 l 0.85885,-3.013254 10.67323,0.353528 c 10.64675,0.352651 10.68001,0.346406 13.39934,-2.516523 1.49936,-1.5785291 3.34335,-4.6566525 4.09776,-6.8402748 L 782.69552,0.5 790.84776,0.20955766 799,-0.08088469 V 4.9928014 c 0,3.4471962 -0.81196,6.6760056 -2.53282,10.0719756 l -2.53283,4.998289 5.83438,2.718467 5.83438,2.718467 -2.24211,6 c -2.12085,5.675492 -2.24607,5.810703 -2.31521,2.5 -0.12175,-5.829532 -1.03682,-7.621334 -4.8737,-9.543272 -3.08619,-1.545905 -6.78952,-1.904703 -23.2104,-2.248744 l -19.5383,-0.409357 -1.83762,3.412248 c -1.71884,3.191693 -1.74363,3.96798 -0.3835,12.010048 l 1.45412,8.597798 -2.95319,0.59064 C 744.68333,47.413333 742.42027,47.179728 743.8,45.8 Z M 500,23.114975 v -5.885026 l 6.87251,2.004799 6.8725,2.004799 -1.52419,3.880226 C 510.71505,28.953081 510.63195,29 505.34831,29 H 500 Z M 297.82159,7.3201687 c -3.52219,-2.8096758 -5.47511,-5.0595059 -5.14301,-5.9249371 0.7445,-1.940152 7.11023,-1.70813038 10.88339,0.3966839 2.93543,1.6374995 3.02597,1.8837119 2.19115,5.9580845 -0.47895,2.3375 -1.18184,4.216222 -1.56197,4.174937 -0.38013,-0.04129 -3.24644,-2.1134304 -6.36956,-4.6047683 z M 1220.7512,3.5445431 C 1209.8314,1.6965812 1209.8716,0 1220.8352,0 h 9.2352 l -1.1707,2.25 c -0.6438,1.2375 -1.2222,2.2919942 -1.2852,2.3433204 -0.063,0.051326 -3.1514,-0.4206236 -6.8633,-1.0487773 z"
       id="path3617" />
  </g>
</svg>
