<?xml version="1.0" encoding="UTF-8" standalone="no"?>
<!-- Created with Inkscape (http://www.inkscape.org/) -->

<svg
   version="1.1"
   id="svg9"
   width="1280"
   height="1280"
   viewBox="0 0 1280 1280"
   sodipodi:docname="staticmap-tokyo-water-13.svg"
   inkscape:version="1.1.1 (3bf5ae0d25, 2021-09-20)"
   xmlns:inkscape="http://www.inkscape.org/namespaces/inkscape"
   xmlns:sodipodi="http://sodipodi.sourceforge.net/DTD/sodipodi-0.dtd"
   xmlns="http://www.w3.org/2000/svg"
   xmlns:svg="http://www.w3.org/2000/svg">
  <defs
     id="defs13" />
  <sodipodi:namedview
     id="namedview11"
     pagecolor="#ffffff"
     bordercolor="#666666"
     borderopacity="1.0"
     inkscape:pageshadow="2"
     inkscape:pageopacity="0.0"
     inkscape:pagecheckerboard="0"
     showgrid="false"
     inkscape:zoom="0.4359375"
     inkscape:cx="640"
     inkscape:cy="638.85305"
     inkscape:window-width="3440"
     inkscape:window-height="1369"
     inkscape:window-x="-8"
     inkscape:window-y="-8"
     inkscape:window-maximized="1"
     inkscape:current-layer="g15" />
  <g
     inkscape:groupmode="layer"
     inkscape:label="Image"
     id="g15">
    <path
       style="fill:#000000"
       d="m 253.08954,1277.25 c -0.002,-1.5351 -1.76749,-5.4007 -3.99682,-8.75 -2.1965,-3.3 -3.99507,-6.3215 -3.99682,-6.7145 -0.002,-0.393 -2.02818,-4.05 -4.50318,-8.1267 -2.475,-4.0766 -4.5,-7.9277 -4.5,-8.5578 0,-0.6302 6.41789,-9.7982 14.26197,-20.3734 7.84409,-10.5752 15.99064,-21.6013 18.10346,-24.5025 l 3.84149,-5.2749 -6.86243,-7.2251 c -3.77433,-3.9738 -9.89589,-10.9826 -13.60346,-15.5751 -6.04961,-7.4935 -6.74103,-8.8041 -6.74103,-12.7785 0,-6.8755 -4.61508,-14.8781 -11.96366,-20.7452 l -6.10432,-4.8736 -18.21601,1.1942 c -10.0188,0.6569 -19.34101,1.5411 -20.71601,1.9649 -1.68963,0.5209 -9.04322,-0.6833 -22.68599,-3.7148 l -20.18598,-4.4855 -4.56402,-10.2249 c -2.5102,-5.6237 -4.5661,-11.2963 -4.56865,-12.6057 -0.006,-2.8197 -10.98418,-18.7003 -19.49536,-28.1998 -7.17532,-8.0086 -9.44128,-8.968 -26.499997,-11.2194 -6.875,-0.9074 -16.90688,-3.0238 -22.29307,-4.7032 -9.59229,-2.9908 -9.86906,-3.1636 -13.5,-8.428 -3.39534,-4.9229 -4.27493,-5.5493 -10.46429,-7.4522 -5.37154,-1.6515 -7.47365,-2.9144 -10.25,-6.1579 -1.92095,-2.2442 -3.49264,-4.93 -3.49264,-5.9685 0,-1.8309 0.0834,-1.8284 2.75,0.082 1.5125,1.0837 3.85417,3.1534 5.2037,4.5994 1.41113,1.512 4.81032,3.2966 8,4.2001 4.38395,1.2417 6.82924,2.8266 11.66799,7.5626 l 6.12169,5.9917 22.37831,4.7842 c 12.30807,2.6314 23.168267,5.1132 24.133777,5.5152 3.00052,1.2493 18.57822,19.5844 24.23991,28.5307 3.02694,4.783 6.51797,12.018 7.96159,16.5 3.77394,11.717 4.44994,12.2783 18.82445,15.6311 17.67265,4.1221 27.03072,4.6115 38.74324,2.0264 5.21144,-1.1503 14.10918,-2.2217 19.77276,-2.381 l 10.29742,-0.2896 9.3211,8.212 9.32111,8.2121 2.25214,9.7855 c 2.64664,11.4995 5.79702,18.2608 9.69878,20.8152 1.54662,1.0125 9.56203,8.4384 17.81203,16.502 11.16143,10.9092 18.19881,16.8116 27.5,23.0647 11.53307,7.7535 26.47158,15.8654 27.32544,14.8381 0.6129,-0.7373 52.34914,-88.3084 53.42794,-90.4345 0.55815,-1.1 2.24805,-6.3687 3.75533,-11.7081 l 2.74052,-9.7081 -3.81018,-11.2919 -3.81018,-11.2919 -11.71265,-12 c -10.03869,-10.285 -12.36371,-13.3059 -16.26799,-21.1375 -2.50544,-5.0257 -6.82624,-16.5519 -9.60178,-25.6139 l -5.04645,-16.4762 -0.11831,-15.8861 c -0.0651,-8.73735 -0.40543,-17.22705 -0.75634,-18.86599 -0.60684,-2.83426 -2.0549,-3.58531 -29.63169,-15.36881 l -28.99366,-12.38892 -68,-2.98024 -68,-2.98024 -8,-5.30511 c -4.4,-2.91782 -15.2,-10.19425 -24,-16.16986 l -15.999997,-10.86475 -25.28071,-9.35349 -25.2807,-9.35349 -6.45863,-7.07654 -6.45863,-7.07654 -18.01066,-0.42511 C 8.1975233,883.9432 0.09272326,883.35772 0.09272326,882.87595 0.09272326,882.39418 8.0708233,882 17.821833,882 h 17.72912 l 8.12269,8.0805 8.1227,8.0805 26.39819,9.42018 26.398187,9.42017 23.29933,15.68733 23.29934,15.68733 66.20066,1.91831 66.20067,1.91831 30.77536,11.03499 c 16.92645,6.06925 30.9375,10.85891 31.13567,10.64369 0.19816,-0.21522 2.94607,-5.56631 6.10646,-11.89131 3.91018,-7.8256 11.27109,-19.22357 23.0379,-35.67292 9.51046,-13.29511 17.73061,-24.99511 18.26701,-26 0.5364,-1.00489 4.4493,-11.05208 8.69534,-22.32708 10.88062,-28.89257 42.22528,-94.08983 53.62768,-111.54619 12.2045,-18.68432 32.47681,-43.09027 45.79961,-55.13838 9.5868,-8.66956 14.42121,-14.376 34.68761,-40.94447 C 548.67694,653.39193 559.63191,638.825 560.06973,638 c 0.43783,-0.825 4.71075,-13.65 9.49538,-28.5 l 8.69932,-27 3.94554,-28.5 c 3.21765,-23.24215 3.91731,-31.0828 3.7925,-42.5 l -0.15304,-14 7.62164,-26.74774 c 4.19191,-14.71126 7.62078,-28.43626 7.61972,-30.5 -0.002,-3.38065 -0.49693,-4.08963 -5,-7.15877 -2.74894,-1.87358 -4.99908,-3.44858 -5.00032,-3.5 -10e-4,-0.0514 3.03626,0.0296 6.75,0.18013 l 6.75225,0.27363 7.06913,-9.77363 c 3.88802,-5.37549 12.619,-17.34125 19.40219,-26.59057 l 12.33306,-16.81695 0.97414,-9.18305 c 0.92692,-8.73788 0.82033,-9.76478 -2.19869,-21.18305 -1.74506,-6.6 -3.37371,-12.68187 -3.61922,-13.51526 -0.96875,-3.28849 -11.57835,-7.65423 -22.96061,-9.44806 l -11,-1.73359 -42.5,16.26626 c -37.61352,14.39603 -43.57819,16.40009 -51.87753,17.4303 l -9.37753,1.16404 -36.12247,-8.19517 c -30.20203,-6.85199 -39.04077,-9.27526 -53.9279,-14.78514 -23.41736,-8.667 -27.95303,-12.4007 -46.38481,-38.18338 -13.41123,-18.75985 -16.5113,-24.71941 -20.58123,-39.56522 -3.1577,-11.51832 -3.3614,-13.08252 -2.44481,-18.77402 l 0.9999,-6.20879 15.21962,-14.72599 15.21962,-14.72598 0.71299,-8.31531 0.71299,-8.31532 -6.266,-8.18468 c -3.44629,-4.50158 -7.33786,-9.49603 -8.64792,-11.09877 -1.63318,-1.99805 -8.09571,-5.56872 -20.55843,-11.35892 l -18.17649,-8.44483 -42.5,-3.06193 -42.5,-3.06193 -44.5,3.48483 c -41.75821,3.27011 -45.9171,3.4319 -67.5,2.62592 l -23,-0.8589 L 50.342723,134.78172 0.09272326,124.65328 v -5.32664 c 0,-2.92965 0.3375,-5.32317 0.75,-5.31894 0.41250004,0.004 9.97499974,1.80388 21.24999974,3.99921 18.26296,3.55593 25.62883,4.38761 67.5,7.62138 l 46.999997,3.62988 44.5,-1.77169 c 35.94754,-1.4312 49.48262,-2.38306 70.42547,-4.95271 l 25.92547,-3.18101 15.57453,2.40555 c 15.23787,2.35355 15.90958,2.56364 31.07453,9.71907 10.242,4.83258 19.16906,8.25497 26.31599,10.08881 l 10.81599,2.7753 5.46277,6.57925 c 3.66605,4.41533 8.51138,12.66394 14.73185,25.07926 l 9.26909,18.5 -0.37551,7.13776 -0.3755,7.13775 -7.17234,3.29533 c -11.14947,5.12262 -22.49387,13.9054 -27.01299,20.91332 l -3.84064,5.9558 1.8318,10.75667 c 1.76415,10.35934 2.18031,11.38547 11.26653,27.78002 7.01231,12.65253 11.18711,18.93324 16.25989,24.46192 6.35038,6.9211 8.2372,8.20805 27.12313,18.5 l 20.29796,11.06143 38.68268,6.90503 38.68269,6.90504 17.7683,-5.23188 c 15.18453,-4.47108 21.33098,-6.95746 42.26831,-17.09853 23.64616,-11.45309 24.94804,-11.95067 37.356,-14.27749 l 12.85601,-2.41085 14.64399,5.35655 14.644,5.35654 7.26803,7.67719 7.26802,7.67719 5.21748,-5.85388 c 2.86961,-3.21964 7.42786,-9.48786 10.12943,-13.9294 5.66401,-9.31192 7.01404,-11.00522 11.09088,-13.91092 l 2.97385,-2.11956 -3.08738,5.47749 c -7.7112,13.68084 -12.36031,22.76299 -12.36031,24.14614 0,0.82734 -3.16535,4.16536 -7.03412,7.4178 l -7.03412,5.91354 0.16654,16.5 c 0.16464,16.31146 0.12721,16.61998 -3.27562,27 -3.35121,10.22256 -3.81522,10.98026 -17.56075,28.6758 -7.76522,9.99669 -14.78879,19.22169 -15.60791,20.5 -0.81913,1.27831 -3.97387,9.7492 -7.01052,18.8242 l -5.5212,16.5 -6.17249,50.5 -6.1725,50.5 -9.94444,35.93575 c -5.46944,19.76467 -10.22718,36.41467 -10.57274,37 -0.34557,0.58534 -8.92454,12.86047 -19.06439,27.27806 -17.65937,25.10943 -19.34008,27.14161 -39.89365,48.23602 -20.34871,20.88416 -21.33728,22.07459 -19.12983,23.03584 1.28026,0.5575 16.47789,6.11423 33.77251,12.34829 17.29462,6.23406 31.6066,11.82016 31.8044,12.41355 0.1978,0.59339 -7.47308,-1.99477 -17.0464,-5.75149 -9.57332,-3.75671 -23.38473,-8.47859 -30.69202,-10.49306 -7.30729,-2.01447 -15.27253,-4.62781 -17.70053,-5.80743 -2.90932,-1.41345 -4.65249,-1.78642 -5.11239,-1.09385 -0.3838,0.578 -9.66948,13.10441 -20.63484,27.83647 L 454.7187,796.22371 428.11989,857.36186 401.52107,918.5 383.6047,944 c -15.66518,22.29593 -18.27479,26.56802 -20.76885,34 -2.80581,8.36092 -2.84132,8.75161 -2.1707,23.8771 0.76127,17.17 1.27016,18.4399 7.88641,19.6812 4.55666,0.8548 203.60806,-11.1662 213.29116,-12.881 7.21476,-1.2777 7.25,-1.2731 7.25,0.944 0,1.2254 2.02314,27.3494 4.49588,58.0533 2.47273,30.704 4.49773,56.431 4.5,57.1712 0.003,1.0626 2.19493,1.276 10.41489,1.0143 9.02937,-0.2876 10.68299,-0.085 12.46239,1.5251 2.00447,1.814 2.35705,1.7861 15.33923,-1.213 11.9648,-2.7642 16.57284,-3.2396 46.28761,-4.7753 18.15,-0.938 33.98829,-2.0657 35.19621,-2.506 1.45602,-0.5307 2.41405,-1.9617 2.84257,-4.2459 0.76845,-4.0962 -10.41663,-107.5513 -11.82726,-109.395 -0.52602,-0.6875 -1.91381,-1.2662 -3.08396,-1.286 -1.95624,-0.033 -1.89216,-0.2284 0.79586,-2.4258 l 2.92342,-2.38989 -5.68623,-101.32415 c -3.12742,-55.72829 -6.01796,-102.86345 -6.42342,-104.74481 l -0.73719,-3.42065 -17.14223,-5.71711 c -10.79675,-3.60084 -21.10813,-7.8444 -27.85608,-11.46396 l -10.71385,-5.74684 -16.64392,1.65118 c -22.91304,2.27313 -24.3163,1.85012 -2.73914,-0.8257 l 17.90478,-2.22041 33.59522,13.38007 c 26.99011,10.74943 45.42908,19.09619 93.78513,42.45365 38.53944,18.61575 61.02085,30.01646 62.5,31.69485 2.25136,2.55462 2.25325,2.57334 0.0743,0.73625 -2.39549,-2.01958 -121.24607,-59.29878 -125.01421,-60.24969 -2.04365,-0.51573 -2.25,-0.21276 -2.25,3.3035 0,2.12923 2.49066,51.11551 5.5348,108.85841 4.94411,93.78256 6.09429,110.6641 10.77718,158.1809 2.88331,29.2567 5.55764,53.5092 5.94297,53.8945 0.38533,0.3853 35.4731,-1.6632 77.97282,-4.5524 42.49973,-2.8891 109.78176,-7.3761 149.51564,-9.9711 39.73387,-2.5951 72.35997,-4.9087 72.50247,-5.1415 0.1425,-0.2328 2.4557,-4.9233 5.1404,-10.4233 l 4.8814,-10 3.0052,-38.5 c 3.839,-49.18013 3.7771,-49.85673 -6.5398,-71.5 -6.6846,-14.02332 -8.1471,-16.23217 -22.4602,-33.9239 l -15.30999,-18.9239 -14.73144,-8.82875 c -12.0695,-7.2334 -19.54158,-10.74456 -41.3511,-19.43106 C 910.46646,875.8351 910.32087,875.7608 902.6872,868.89504 897.08502,863.85641 894.27168,862 892.23793,862 c -2.61677,0 -3.05697,-0.68681 -7.36787,-11.49547 l -4.58483,-11.49547 1.69895,-6.75453 c 1.56009,-6.20247 2.72779,-8.02137 14.28689,-22.25453 9.5556,-11.76616 16.254,-18.75206 27.80656,-29 8.37025,-7.425 16.13918,-14.22699 17.26431,-15.11552 2.02393,-1.59835 2.02659,-1.68605 0.24955,-8.25095 -0.98787,-3.64948 -2.29172,-7.04308 -2.89745,-7.54133 -0.60572,-0.49825 -8.64265,-3.92069 -17.85984,-7.60542 -15.78256,-6.30935 -17.41319,-7.21933 -28,-15.62553 -6.18281,-4.90931 -11.95482,-10.03561 -12.82668,-11.39177 -0.87186,-1.35616 -1.77188,-2.27907 -2.00004,-2.05091 -0.22816,0.22816 -2.07924,-2.36018 -4.11352,-5.75187 -2.51027,-4.18529 -4.46368,-9.42175 -6.07955,-16.29733 l -2.38086,-10.13062 7.57958,-11.93417 c 11.29826,-17.78928 10.13302,-16.70829 22.78525,-21.13774 l 11.20566,-3.92302 9.01511,2.50191 9.0151,2.50191 7.04613,7.94433 c 3.87537,4.36939 6.75805,8.41046 6.40595,8.98017 -0.35778,0.5789 -4.02873,-2.33286 -8.32182,-6.60077 -6.6393,-6.60036 -8.55619,-7.90914 -14.12672,-9.64519 -5.13449,-1.60016 -7.93691,-1.87955 -13.7815,-1.37397 l -7.33643,0.63463 -8.44649,7.75349 c -6.88618,6.3212 -9.10358,9.12105 -12.00351,15.15658 -3.48666,7.25667 -3.54316,7.57121 -2.85682,15.90309 0.68351,8.2975 4.27795,18.35146 6.34417,17.7452 0.45961,-0.13486 4.27119,3.97691 8.47018,9.13726 l 7.63453,9.38247 22.58333,10.55529 c 21.88309,10.228 22.72052,10.72776 27.00797,16.11753 5.09873,6.40966 5.44902,8.91679 2.1895,15.67128 -1.84263,3.81836 -4.12794,5.98796 -12.6223,11.98318 -12.90519,9.10832 -36.31532,33.14095 -43.39005,44.54381 -6.36331,10.25622 -6.43377,14.23252 -0.44444,25.08243 7.41164,13.42646 11.55509,16.1943 62.30848,41.62225 l 43.89831,21.99349 9.61118,9.83291 c 11.5879,11.85515 21.1536,26.8134 30.1307,47.1164 l 6.0649,13.7165 1.1691,20.5 c 0.9416,16.5089 0.9014,24.7831 -0.2064,42.5 -1.2856,20.5613 -1.766,23.7656 -7.346,49 -5.9517,26.9151 -5.9819,27.0102 -9.6148,30.251 -3.1526,2.8124 -3.6974,3.9593 -4.0377,8.5 l -0.3934,5.249 10.5809,6.897 c 5.8194,3.7934 10.7358,6.7184 10.9252,6.5 0.1894,-0.2183 2.4138,-4.0123 4.9432,-8.4309 2.9363,-5.1295 4.4076,-8.7653 4.0698,-10.0569 -0.4066,-1.5552 0.3017,-2.4703 3.0632,-3.9576 2.8324,-1.5253 6.7028,-6.6856 18.2967,-24.3941 19.4937,-29.7747 31.4832,-55.3596 42.8744,-91.4917 l 7.5872,-24.0658 1.5532,-29.72302 1.5532,-29.72302 -5.8035,-33.27698 -5.8035,-33.27698 -9.5574,-22.5 c -8.7378,-20.57032 -11.1385,-25.07291 -27.9914,-52.5 l -18.4339,-30 -17.266,-17.5 c -14.6536,-14.85219 -21.7866,-23.32517 -47.14356,-56 -16.43265,-21.175 -49.66579,-62.0512 -73.85143,-90.836 -69.62395,-82.8637 -66.82352,-79.37124 -75.47367,-94.12406 -6.47115,-11.03653 -8.66491,-13.95036 -11.86521,-15.75972 -2.9043,-1.64201 -5.63252,-4.89549 -10.4819,-12.5 -4.81086,-7.54409 -7.54315,-10.81104 -10.26581,-12.27462 -2.53621,-1.36335 -9.56557,-9.2736 -22.21597,-25 -15.61859,-19.41631 -21.18729,-27.33171 -35.69264,-50.73392 -16.49049,-26.60492 -17.7064,-28.93449 -30.01207,-57.5 -7.0539,-16.37442 -12.95675,-29.94635 -13.11743,-30.15983 -0.16069,-0.21348 -2.57201,0.0626 -5.35849,0.61359 -4.30434,0.85107 -5.20602,0.75905 -5.99503,-0.61185 -2.5063,-4.35466 -2.56961,-4.38527 -5.71032,-2.76115 -2.23641,1.15649 -1.27137,-0.25448 3.8673,-5.65428 3.76604,-3.95743 6.84735,-7.54096 6.84735,-7.9634 0,-0.42244 -2.45282,-5.65886 -5.45072,-11.63649 -3.72874,-7.43491 -5.81224,-13.03716 -6.5951,-17.73334 -1.64306,-9.8564 -6.61969,-18.11485 -38.61969,-64.08733 -19.8552,-28.52477 -32.31629,-45.2851 -44.04867,-59.24605 L 594.0178,107.56311 574.7882,95.509901 C 557.488,84.66606 553.15225,82.470522 531.57566,73.627929 l -23.98294,-9.828767 -24.65167,-2.050414 -24.65168,-2.050414 -48.75424,7.900833 C 367.95389,74.337584 360.7131,75.75747 360.32017,77.25 c -0.25339,0.9625 -0.67684,1.75 -0.94099,1.75 -0.26415,0 -7.52416,1.626039 -16.13337,3.613421 -10.6698,2.463058 -18.19995,4.849424 -23.65309,7.495853 l -8,3.882433 -36.5,3.854698 c -32.10779,3.390845 -36.83358,3.687715 -39.27213,2.467025 -2.11856,-1.060516 -7.65897,-1.364294 -23.5,-1.288497 -16.69934,0.0799 -26.07258,-0.480721 -48.22787,-2.88457 l -27.5,-2.983751 -19.5,-6.864389 L 97.592723,79.427834 76.539353,65.333619 C 64.960003,57.5818 51.970863,48.148038 47.674603,44.369702 38.764963,36.534142 20.056123,13.276195 16.509603,5.626848 L 14.132603,0.5 26.852113,0.218335 c 9.66932,-0.21412 12.81301,0.02568 13.10946,1 0.21448,0.704916 8.28471,9.250925 17.93385,18.991132 l 17.54389,17.709467 21.56163,13.216071 c 11.858887,7.268839 22.693407,13.602503 24.076697,14.074809 1.3833,0.472307 12.57709,2.643315 24.87511,4.824463 L 168.31278,74 h 31.9443 31.9443 l 65.19567,-11.016215 c 54.01346,-9.126741 68.96906,-12.015239 87.19567,-16.840823 l 22,-5.824608 -0.1177,-3.909177 -0.11769,-3.909177 1.82669,4.25 c 1.38113,3.213349 2.38551,4.255967 4.11769,4.274462 1.26006,0.01345 21.86601,-1.170865 45.79101,-2.631821 l 43.5,-2.656282 31.2145,9.13182 C 549.9752,49.890681 564.25512,54 564.54037,54 c 0.28526,0 1.61839,2.1375 2.9625,4.75 2.28082,4.433138 3.0475,5.008283 11.49302,8.621862 8.67043,3.709804 10.00238,4.744401 31.82301,24.718483 14.22044,13.017055 23.56188,20.858455 24.87208,20.878135 1.52773,0.0229 5.87818,4.9681 16,18.18719 7.64596,9.98561 14.20036,18.61177 14.56535,19.16922 0.42269,0.64561 2.51011,0.24619 5.75,-1.10024 2.79751,-1.1626 5.08639,-1.91505 5.08639,-1.67211 0,0.24293 -1.63095,2.24697 -3.62434,4.45341 l -3.62434,4.01171 11.75695,18.74117 c 6.46632,10.30764 11.92274,18.92913 12.12537,19.15887 0.20263,0.22973 3.26454,-0.73136 6.80424,-2.13576 5.10048,-2.02365 6.54374,-2.27222 6.95595,-1.19802 0.32913,0.8577 -1.4837,2.55396 -4.93685,4.61938 -3.00134,1.79518 -5.45698,3.61782 -5.45698,4.05031 0,0.75266 8.82616,18.80725 9.6096,19.65719 0.28982,0.31441 16.64958,-6.4182 18.20763,-7.49308 0.17448,-0.12037 -0.92843,-2.6261 -2.45091,-5.56829 -3.57067,-6.90031 -5.91597,-22.47082 -3.75479,-24.92817 2.60254,-2.95919 1.6241,-34.9234 -2.99246,-97.758687 L 711.4257,24.825146 713.71472,14.662573 C 714.97369,9.073158 716.25734,3.4875 716.56729,2.25 716.8943,0.944364 717.89687,0 718.95596,0 c 1.70811,0 1.63173,0.866826 -1.19117,13.518639 l -3.0163,13.518638 5.54971,85.231363 5.5497,85.23136 5.71266,12.5 c 3.14197,6.875 7.72723,17.20329 10.18949,22.95175 2.46225,5.74846 17.13882,37.02346 32.6146,69.5 l 28.13778,59.04825 36.04514,44.4295 c 19.82483,24.43623 37.62015,46.56603 39.54515,49.17732 9.24603,12.54241 98.52715,116.53051 98.77324,115.04384 0.15029,-0.90786 -0.35822,-7.64234 -1.13001,-14.96551 l -1.40327,-13.31484 3.43777,-8.18516 c 5.05951,-12.04646 9.69112,-16.34919 23.70345,-22.02038 9.6449,-3.90353 12.8745,-4.69336 24.3635,-5.95827 13.0023,-1.43152 13.3425,-1.53207 18.5907,-5.49446 7.9296,-5.98689 8.3331,-6.56568 9.0604,-12.99392 0.4846,-4.28279 1.4897,-7.02826 3.6474,-9.96229 2.6927,-3.66139 4.4416,-4.62529 18.2177,-10.04052 l 15.2391,-5.99031 8.5,0.80798 c 14.9855,1.42447 17.1093,1.21988 20.8887,-2.01225 l 3.3887,-2.89799 -1.8887,-7.28489 c -2.9551,-11.39793 -11.306,-24.42699 -20.1325,-31.41073 -5.8549,-4.63251 -7.5094,-6.61181 -9.4229,-11.2731 -2.0647,-5.02947 -2.2814,-6.92383 -1.9624,-17.14961 l 0.3587,-11.49558 5.3146,-10.50442 5.3145,-10.50441 7.3207,-3.93826 7.3206,-3.93827 11,0.25427 c 16.1408,0.3731 22.9629,2.20405 36.8222,9.8825 l 11.8223,6.54984 2.5628,-2.56285 2.5629,-2.56284 -1.1837,-9.8422 c -1.1719,-9.74422 -5.7685,-32.81013 -6.9657,-34.9537 -0.3414,-0.61133 -3.8662,-3.89909 -7.8329,-7.30614 -5.9074,-5.07402 -8.1235,-7.88018 -12.25,-15.51226 l -5.0379,-9.31763 v -9.89598 -9.89598 l 9.25,-9.01823 c 5.0875,-4.96003 12.175,-11.70176 15.75,-14.98164 3.575,-3.27987 11.1634,-10.35663 16.863,-15.72613 l 10.3631,-9.76272 -5.808,-16.23589 C 1189.476,187.4568 1184.4177,176.24137 1176.9423,162 l -10.7606,-20.5 -6.8658,-25.13282 -6.8657,-25.132817 -8.2822,-12.867181 c -6.804,-10.570689 -10.286,-14.771935 -19.5095,-23.539454 -10.711,-10.181473 -11.369,-11.045117 -14.3076,-18.779673 l -3.0802,-8.107401 2.6768,-10.230261 c 1.8617,-7.114813 3.5856,-11.369224 5.661,-13.970298 2.8747,-3.60279 3.2136,-3.740037 9.2342,-3.740066 3.4375,-1.6e-5 6.25,0.150551 6.25,0.334594 0,0.184043 -1.8565,4.796543 -4.1256,10.25 -3.4666,8.331591 -4.1906,11.273084 -4.533,18.415377 l -0.4073,8.5 14.5305,11.422877 c 14.156,11.128443 14.7095,11.708401 21.4745,22.5 10.9579,17.480164 13.4129,23.621016 18.0211,45.077123 2.2444,10.45 4.5539,20.125 5.1323,21.5 0.5784,1.375 9.5229,18.025 19.8766,37 l 18.8251,34.5 1.0656,11.5 c 0.5861,6.325 2.5866,18.07997 4.4456,26.12215 3.166,13.69694 4.032,15.91155 13.6871,35 5.669,11.20782 11.038,21.32159 11.9311,22.47506 0.8931,1.15346 3.3943,6.10346 5.5582,11 2.1639,4.89653 8.3583,17.11284 13.7653,27.14733 l 9.8309,18.24455 -0.289,8.70495 -0.289,8.70496 -10.5,-17.4677 c -6.7942,-11.3028 -19.4997,-35.88981 -36,-69.66521 -15.386,-31.49446 -25.966,-52.03669 -26.6748,-51.79204 -3.3312,1.14973 -20.8693,14.77162 -28.1842,21.89071 -8.3404,8.11715 -12.0974,13.90485 -12.0967,18.63524 2e-4,1.73491 4.546,8.08617 14.8536,20.75323 l 14.8533,18.25323 1.3403,13.24677 c 1.6248,16.05822 1.6366,15.43966 -0.5733,30.01813 -1.6736,11.04056 -2.0089,12.01508 -5.4013,15.69692 -3.1442,3.41255 -4.5628,4.11115 -10.8549,5.34584 l -7.2381,1.42028 -18.5329,-8.76498 c -16.8476,-7.96787 -19.2535,-8.82875 -26.4556,-9.46629 -10.7003,-0.94719 -16.9552,1.00841 -19.3609,6.05319 -2.2779,4.77693 -2.2759,19.32233 0,26.0124 1.0854,3.18535 6.6253,11.45404 15.6837,23.40881 16.3998,21.6435 18.0611,25.07209 16.2899,33.61888 -1.0051,4.84964 -2.4226,7.43177 -7.9401,14.46352 -5.8509,7.45665 -7.3465,8.76136 -11.6037,10.12276 -4.3789,1.4003 -5.8601,1.40918 -14.2434,0.0854 -8.5663,-1.3527 -10.0592,-1.32993 -17.6814,0.26962 -4.5787,0.96088 -8.9617,2.38376 -9.7399,3.16196 -0.7782,0.77819 -4.9088,5.97322 -9.179,11.5445 -6.2185,8.11299 -9.7453,11.58551 -17.7156,17.44273 l -9.9514,7.31312 h -12.7486 c -12.6475,0 -12.8209,0.0314 -21.8762,3.95888 -10.07075,4.36792 -16.10064,9.7603 -17.93759,16.04112 -0.563,1.925 -1.02615,7.8935 -1.02921,13.26333 l -0.006,9.76333 7.09623,14.16543 7.09627,14.16544 54.2302,63.78012 54.2302,63.78012 22.5357,35.29112 c 24.6052,38.53191 24.3623,38.10174 34.6331,61.33424 5.4884,12.41489 8.9341,22.47879 15.2361,44.5 l 8.1436,28.45687 2.7283,29.55743 2.7282,29.55742 -1.7241,25.94258 c -2.49,37.46795 -6.1921,55.92415 -17.5397,87.44255 -8.0694,22.4127 -9.3847,25.212 -28.4279,60.5 -13.0926,24.2612 -19.5091,37.1 -18.6368,37.2906 0.7316,0.1598 3.9003,-0.1125 7.0414,-0.6051 l 5.711,-0.8956 34.7091,15.3449 34.7091,15.3448 10.5,10.8389 c 37.5459,38.7576 49.2349,51.3439 47.3905,51.0287 -1.1176,-0.1909 -14.7447,-13.6222 -30.2826,-29.8472 l -28.2507,-29.5 -11.6786,-4.0129 c -7.2609,-2.495 -19.4332,-8.1039 -32.1786,-14.8278 l -20.5,-10.8149 -10.2549,0.916 c -5.6402,0.5039 -10.4122,1.1014 -10.6043,1.3279 -0.1921,0.2264 -7.8324,14.3635 -16.9784,31.4157 -17.7485,33.0911 -22.7882,45.2545 -24.0298,57.996 -0.3751,3.85 -1.3265,9.925 -2.1141,13.5 -0.7877,3.575 -1.6969,8.1875 -2.0206,10.25 l -0.5885,3.75 h -7.4547 -7.4547 v -4.7899 c 0,-2.6344 0.6286,-7.2469 1.3968,-10.25 0.7683,-3.0031 1.708,-8.3851 2.0882,-11.9601 0.3802,-3.575 3.3616,-14.825 6.6252,-25 l 5.9338,-18.5 33.4877,-58.5 33.4877,-58.5 9.5659,-25 c 9.085,-23.7435 9.8636,-26.4028 15.4903,-52.9107 l 5.9244,-27.91059 -0.011,-36.08934 -0.011,-36.08935 -3.9403,-22.5 c -3.4284,-19.57687 -4.905,-25.35817 -11.3662,-44.5 -10.6939,-31.68158 -22.7884,-55.63983 -45.2423,-89.62146 -16.1434,-24.4314 -19.2707,-28.42588 -67.3308,-86 -27.7206,-33.20819 -50.7595,-60.78244 -51.1976,-61.2761 -0.4471,-0.50387 -3.01251,0.79247 -5.84886,2.95549 -4.96116,3.78343 -6.38196,7.08021 -4.28713,9.94776 1.11963,1.53262 7.80828,6.36806 12.47649,9.01963 l 4.1689,2.36802 -2.8599,1.08733 -2.8598,1.08732 2.4929,2.71601 c 1.3711,1.4938 18.5158,21.01273 38.0994,43.37539 47.6594,54.42264 55.8794,65.16706 77.043,100.70329 20.9087,35.10805 28.4086,51.62499 36.3885,80.13732 4.84,17.29352 5.8229,22.49856 8.6867,46 3.1659,25.98029 3.2122,26.96087 2.3607,50 -0.8477,22.93547 -1.001,24.1486 -6.382,50.49998 -5.3517,26.2078 -5.8061,27.7629 -15.4853,53 -9.9389,25.9141 -10.0704,26.1784 -39.8082,80 -16.41,29.7 -30.5184,55.35 -31.352,57 -4.353,8.616 -13.0318,36.7676 -14.7979,48 -1.0377,6.6 -2.5572,14.925 -3.3766,18.5 -0.8195,3.575 -1.5057,7.9625 -1.5251,9.75 l -0.035,3.25 h -27.072 -27.0719 l 0.6643,-5.75 c 0.3653,-3.1625 1.2574,-8.45 1.9823,-11.75 0.7249,-3.3 3.1914,-16.125 5.481,-28.5 l 4.163,-22.5 11.025,-24.1574 11.0251,-24.1575 -2.2827,-3.0875 c -1.2555,-1.6981 -5.7512,-5.3645 -9.9904,-8.1477 -5.4093,-3.5513 -7.6001,-5.5656 -7.3472,-6.755 1.2156,-5.7163 5.5375,-42.4142 5.0522,-42.8995 -0.6181,-0.6182 -110.61166,5.8201 -223.40711,13.0767 -66.00941,4.2467 -66.2854,4.2735 -68,6.5988 -4.32266,5.8622 -5.22159,8.5341 -5.22159,15.5201 0,3.8622 0.37294,8.3692 0.82875,10.0156 0.45581,1.6464 0.52548,6.8184 0.15483,11.4934 l -0.67392,8.5 -0.15483,-7.8427 c -0.16189,-8.2003 -1.93397,-30.5284 -2.73075,-34.4073 -0.43248,-2.1054 -0.95909,-2.2465 -8.19313,-2.1961 -9.91327,0.069 -112.90393,9.2857 -113.80235,10.1842 -1.00989,1.0099 7.06587,78.4888 10.36483,99.4403 2.56583,16.2954 2.69648,18.2217 1.26137,18.597 -1.08555,0.2839 -2.37033,3.4457 -3.99092,9.8216 -3.49321,13.7435 -5.14002,19.1602 -5.66539,18.6348 -0.256,-0.256 0.47202,-3.8825 1.61782,-8.059 2.3545,-8.5822 2.47886,-9.1724 3.46054,-16.4228 l 0.71083,-5.25 -4.84384,0.058 c -13.16893,0.1572 -75.41789,4.6345 -76.13599,5.4762 -0.45328,0.5313 -2.07994,6.2535 -3.61479,12.716 -1.53484,6.4625 -3.19618,11.75 -3.69184,11.75 -1.31414,0 -1.16657,-1.0908 1.65184,-12.2093 1.40418,-5.5395 2.34274,-10.6199 2.08569,-11.2897 -0.25706,-0.6699 -2.41843,-1.5226 -4.80306,-1.8948 -3.0114,-0.4701 -19.53956,-9.1082 -54.11286,-28.281 -27.37744,-15.1823 -49.93262,-27.4289 -50.12262,-27.2147 -1.0299,1.1612 -17.13464,33.9221 -21.08201,42.8858 -6.92322,15.7214 -20.21535,38.0037 -22.67041,38.0037 -0.50316,0 1.35025,-2.9921 4.11869,-6.6491 2.76843,-3.6571 5.03352,-7.2249 5.03352,-7.9286 0,-0.7037 0.63614,-1.9156 1.41364,-2.6931 0.77751,-0.7775 4.87799,-8.7971 9.11217,-17.8214 4.23419,-9.0243 11.02305,-22.9873 15.08636,-31.0289 4.06331,-8.0417 7.38783,-15.6273 7.38783,-16.857 0,-1.552 0.44771,-2.0641 1.46377,-1.6742 0.80508,0.309 22.77135,12.4786 48.81395,27.0437 26.0426,14.5651 48.5418,27.0249 49.99822,27.6885 2.08615,0.9505 11.30307,0.8501 43.43605,-0.473 22.43341,-0.9237 42.63647,-1.9061 44.89569,-2.1831 6.0888,-0.7466 6.85593,-3.1067 5.32505,-16.3834 -0.66846,-5.7972 -1.60955,-11.0459 -2.09131,-11.6637 -0.48176,-0.6177 -0.61272,-1.8091 -0.29103,-2.6474 0.3217,-0.8383 -0.11345,-7.7579 -0.967,-15.3768 -0.85355,-7.6189 -2.4935,-25.7745 -3.64433,-40.3459 -1.15084,-14.5713 -2.27945,-26.6803 -2.50802,-26.9089 -0.46089,-0.4609 -181.15779,10.6968 -185.93104,11.4809 -2.50355,0.4112 -5.24345,3.4242 -16.55697,18.2071 -11.20963,14.6471 -16.07809,22.2161 -28.11757,43.7143 -8.00832,14.3 -15.22332,27.35 -16.03333,29 -0.81001,1.65 -2.51495,8.9514 -3.78876,16.2254 l -2.31602,13.2254 2.02191,6.7746 2.02191,6.7746 -8.36559,0.2889 c -4.60107,0.1589 -12.16449,0.1589 -16.80759,0 l -8.44201,-0.2889 3.43189,-5.4376 c 1.88755,-2.9907 3.71153,-6.9282 4.05331,-8.75 0.34177,-1.8218 0.95544,-3.3124 1.36371,-3.3124 0.8077,0 6.62957,-26.7737 5.95015,-27.3636 -0.22827,-0.1982 -6.94004,-4.6483 -14.91504,-9.8891 -7.975,-5.2408 -19.80412,-13.4613 -26.28694,-18.2677 -6.48282,-4.8065 -11.92951,-8.5682 -12.10375,-8.3593 -0.31754,0.3806 -35.04077,44.2911 -36.86301,46.6164 -0.99419,1.2687 6.18266,13.2267 16.44648,27.403 2.64397,3.6518 4.80722,6.9143 4.80722,7.25 0,0.3357 -1.575,0.6103 -3.5,0.6103 -3.15074,0 -3.50032,-0.2744 -3.50318,-2.75 z m 778.50316,-128.5685 c -5.5,-2.8832 -10.169,-5.1345 -10.3756,-5.0029 -0.2065,0.1316 1.127,1.4952 2.9635,3.0303 1.8364,1.5351 4.4804,3.7894 5.8755,5.0095 1.8181,1.59 3.8112,2.2165 7.0366,2.2118 l 4.5,-0.01 -10,-5.2421 z m -523.28753,-15.5166 c 47.69185,-3.716 86.91605,-6.9609 87.16488,-7.2107 0.78217,-0.7853 -8.44721,-112.4087 -9.37137,-113.3408 -0.51091,-0.5152 -11.06236,-0.1648 -25.19253,0.8367 -13.37239,0.9477 -62.24609,3.8544 -108.60824,6.4591 -81.90138,4.6015 -84.35621,4.7974 -86.45743,6.8986 l -2.16263,2.1626 3.95744,8.2648 c 2.19065,4.575 10.67591,17.6402 19.00621,29.2648 8.27683,11.55 15.32619,21.4578 15.66524,22.0174 0.33906,0.5595 2.22961,7.9384 4.20122,16.3974 2.73664,11.7413 3.58476,17.5534 3.58476,24.566 0,5.0522 0.3,9.4859 0.66667,9.8525 1.20877,1.2088 10.01423,0.652 97.54578,-6.1684 z M 994.52769,612.48832 c 4.53733,-4.06575 4.81285,-4.56574 3.41935,-6.20519 C 997.11345,605.30241 989.73565,596.4 981.55193,586.5 973.36822,576.6 947.5392,545.775 924.15412,518 900.76904,490.225 862.74963,444.325 839.66655,416 L 797.69731,364.5 785.42661,343 c -10.35398,-18.14164 -14.86332,-27.59191 -28.86849,-60.5 -15.83655,-37.21132 -29.42771,-68.49645 -30.16638,-69.43922 -0.25987,-0.33168 -14.85394,6.16474 -17.2037,7.65807 -0.22258,0.14145 1.6254,3.31015 4.10661,7.04155 6.44346,9.69006 7.60684,12.24955 8.33313,18.33322 0.49664,4.16005 6.3227,17.62449 25.27242,58.40638 l 24.627,53 19.53276,30.1025 19.53276,30.10249 28.62557,29.68166 28.62557,29.68166 4.37443,10.40609 4.37443,10.4061 11.77893,9.2099 c 7.80059,6.09927 17.72927,15.49201 29.39652,27.80976 13.24192,13.98021 18.14159,18.53784 19.72735,18.3502 1.69338,-0.20038 3.48999,1.91843 9.10348,10.73611 5.95392,9.35243 7.38054,10.98781 9.59548,10.99964 2.12106,0.0113 4.59869,2.46196 13.41,13.26389 5.94453,7.2875 9.91222,12.46152 8.81709,11.49782 -2.37282,-2.08805 -3.32885,-1.40557 -3.32885,2.37636 0,2.0919 1.53219,4.30412 6.11798,8.83333 3.36489,3.32337 6.62739,6.02232 7.25,5.99768 0.62261,-0.0247 3.35276,-2.03474 6.06699,-4.46687 z m -11.70985,-4.78165 C 981.93579,605.118 981.38116,603 981.58532,603 c 1.39041,0 4.13847,5.78955 3.53938,7.45667 -0.56986,1.58577 -1.00713,1.06451 -2.30686,-2.75 z m 165.43486,661.37663 c -0.088,-4.6291 0.1611,-8.0956 0.5535,-7.7031 0.3924,0.3924 0.7299,2.6049 0.75,4.9166 0.031,3.545 0.3782,4.2519 2.2188,4.5139 2.8876,0.4111 4.8283,-2.9881 3.3177,-5.8107 -0.5887,-1.1 -1.9811,-2 -3.0942,-2 -1.1131,0 -1.7457,-0.45 -1.4058,-1 0.9117,-1.4751 3.1404,-1.2167 4.9286,0.5714 3.7493,3.7493 -0.173,12.3184 -4.4234,9.6639 -1.6792,-1.0486 -1.9263,-0.8274 -2.284,2.0444 -0.2206,1.7712 -0.4731,-0.5672 -0.5612,-5.1964 z m -29.9834,-3.8333 c -0.2199,-10.2724 1.6127,-11.2028 4.3379,-2.2022 1.0071,3.3263 2.1656,6.2545 2.5744,6.5071 0.4088,0.2527 1.7177,-2.4688 2.9087,-6.0477 1.191,-3.579 2.5788,-6.5072 3.0839,-6.5072 0.5052,0 0.839,3.7125 0.7419,8.25 l -0.1766,8.25 -0.5734,-7 -0.5734,-7 -2.3315,6.75 c -1.2824,3.7125 -2.6736,6.75 -3.0917,6.75 -0.4181,0 -1.3253,-1.8859 -2.0159,-4.191 -0.6906,-2.305 -1.7614,-5.3425 -2.3796,-6.75 -1.0074,-2.2938 -1.1863,-1.8334 -1.726,4.441 l -0.6021,7 z m 17.7073,6.1102 c -1.7457,-2.1036 0.03,-4.7179 3.6405,-5.3602 3.5536,-0.6322 4.5472,-3 1.2589,-3 -1.3108,0 -2.9233,0.54 -3.5833,1.2 -0.8931,0.8931 -1.2,0.9021 -1.2,0.035 0,-1.729 3.7877,-3.4374 6.0378,-2.7232 1.5021,0.4767 1.9622,1.5257 1.9622,4.4736 0,2.118 0.2363,4.4666 0.5251,5.2191 0.7753,2.0204 -6.9776,2.1599 -8.6412,0.1555 z m 6.771,-1.9033 c 0.3257,-0.8487 0.3325,-1.8028 0.015,-2.1201 -1.0759,-1.0759 -5.6701,0.6923 -5.6701,2.1823 0,2.0004 4.884,1.9466 5.6549,-0.062 z m 24.0001,1.7144 c -2.2617,-2.4992 -2.0788,-6.4778 0.4009,-8.7219 1.671,-1.5122 2.4086,-1.6404 3.9389,-0.6847 1.6792,1.0486 1.9263,0.8274 2.284,-2.0444 0.2206,-1.7712 0.4663,0.6047 0.5459,5.2797 0.086,5.0712 -0.2021,7.9527 -0.715,7.1432 -0.5993,-0.9458 -1.0669,-1.0215 -1.5437,-0.25 -1.0149,1.6422 -3.0411,1.3443 -4.911,-0.7219 z m 5.845,-4.1713 c 0,-2.8359 -0.4141,-3.5589 -2.1823,-3.8107 -1.3962,-0.1987 -2.5797,0.4317 -3.2852,1.75 -1.5439,2.8848 0.3602,6.2878 3.2852,5.8714 1.7682,-0.2518 2.1823,-0.9748 2.1823,-3.8107 z m 5.3839,4.3602 c -1.7457,-2.1036 0.03,-4.7179 3.6405,-5.3602 3.5536,-0.6322 4.5472,-3 1.2589,-3 -1.3108,0 -2.9233,0.54 -3.5833,1.2 -0.8931,0.8931 -1.2,0.9021 -1.2,0.035 0,-1.729 3.7877,-3.4374 6.0378,-2.7232 1.5021,0.4767 1.9622,1.5257 1.9622,4.4736 0,2.118 0.2363,4.4666 0.5251,5.2191 0.7753,2.0204 -6.9776,2.1599 -8.6412,0.1555 z m 6.771,-1.9033 c 0.3257,-0.8487 0.3325,-1.8028 0.015,-2.1201 -1.0759,-1.0759 -5.6701,0.6923 -5.6701,2.1823 0,2.0004 4.884,1.9466 5.6549,-0.062 z m 5.8926,2.2931 c -0.9019,-2.8925 -1.1884,-10.4062 -0.4672,-12.2539 0.6133,-1.5712 0.7941,-1.6413 0.8494,-0.3294 0.039,0.9166 0.6328,1.9291 1.3203,2.25 1,0.4666 1,0.7 0,1.1666 -1.4856,0.6933 -1.6857,7.0294 -0.25,7.9167 0.55,0.3399 1,1.0415 1,1.559 0,1.3938 -2.0002,1.1418 -2.4525,-0.309 z m 5.3364,-0.3898 c -1.7457,-2.1036 0.03,-4.7179 3.6405,-5.3602 3.5536,-0.6322 4.5472,-3 1.2589,-3 -1.3108,0 -2.9233,0.54 -3.5833,1.2 -0.8931,0.8931 -1.2,0.9021 -1.2,0.035 0,-1.729 3.7877,-3.4374 6.0378,-2.7232 1.5021,0.4767 1.9622,1.5257 1.9622,4.4736 0,2.118 0.2363,4.4666 0.5251,5.2191 0.7753,2.0204 -6.9776,2.1599 -8.6412,0.1555 z m 6.771,-1.9033 c 0.3257,-0.8487 0.3325,-1.8028 0.015,-2.1201 -1.0759,-1.0759 -5.6701,0.6923 -5.6701,2.1823 0,2.0004 4.884,1.9466 5.6549,-0.062 z m 16.0951,2.8808 c 0.6875,-0.2774 1.8125,-0.2774 2.5,0 0.6875,0.2774 0.125,0.5044 -1.25,0.5044 -1.375,0 -1.9375,-0.227 -1.25,-0.5044 z m 10.25,-0.1348 c 0,-0.4383 1.8,-2.5547 4,-4.7029 2.2,-2.1482 4,-4.7287 4,-5.7343 0,-2.4115 -2.7668,-3.3924 -5.2298,-1.8542 -2.5493,1.592 -3.3257,0.7869 -1.2464,-1.2925 2.0509,-2.0508 4.882,-2.0703 6.9048,-0.048 2.4782,2.4783 1.8824,4.4487 -2.595,8.5822 l -4.1664,3.8464 h 4.1664 c 2.2915,0 4.1664,0.45 4.1664,1 0,0.55 -2.25,1 -5,1 -2.75,0 -5,-0.3587 -5,-0.7971 z m 14.4411,-0.6223 c -1.4874,-1.0876 -1.9411,-2.6257 -1.9411,-6.5806 0,-3.9549 0.4537,-5.493 1.9411,-6.5806 2.5493,-1.8641 3.1801,-1.7982 5.5589,0.5806 1.3333,1.3333 2,3.3333 2,6 0,2.6667 -0.6667,4.6667 -2,6 -2.3788,2.3788 -3.0096,2.4447 -5.5589,0.5806 z m 5.0589,-6.5806 c 0,-5.2 -0.1364,-5.5 -2.5,-5.5 -2.237,0 -2.5329,0.4592 -2.8131,4.3644 -0.4113,5.7339 0.2983,7.3477 3.0586,6.9557 2.0272,-0.2878 2.2545,-0.8745 2.2545,-5.8201 z m 4.5,7.2029 c 0,-0.4383 1.8,-2.5547 4,-4.7029 2.2,-2.1482 4,-4.7287 4,-5.7343 0,-2.4115 -2.7668,-3.3924 -5.2298,-1.8542 -2.5493,1.592 -3.3257,0.7869 -1.2464,-1.2925 2.0509,-2.0508 4.882,-2.0703 6.9048,-0.048 2.4782,2.4783 1.8824,4.4487 -2.595,8.5822 l -4.1664,3.8464 h 4.1664 c 2.2915,0 4.1664,0.45 4.1664,1 0,0.55 -2.25,1 -5,1 -2.75,0 -5,-0.3587 -5,-0.7971 z m 18.1747,-5.0203 c -0.1675,-6.0579 -0.2671,-6.289 -2.4247,-5.6258 -2.2214,0.6828 -2.2183,0.6572 0.25,-2.0243 l 2.5,-2.716 0.3075,4.0918 c 0.1691,2.2504 0.1352,6.0042 -0.075,8.3417 -0.2985,3.3137 -0.4213,2.8582 -0.5575,-2.0674 z m -57.1021,2.1825 c -2.7406,-3.484 -2.614,-5.6689 0.5251,-9.0593 l 2.5978,-2.8058 -2.0978,2.8849 c -2.6373,3.6269 -2.643,5.6522 -0.025,8.9802 1.1399,1.4492 1.8476,2.6349 1.5726,2.6349 -0.275,0 -1.4327,-1.1857 -2.5726,-2.6349 z m 2.3562,-2.7927 c -0.3351,-1.3351 -0.2209,-3.1214 0.2537,-3.9695 0.598,-1.0686 0.863,-0.3232 0.863,2.4275 0,4.5813 -0.2628,4.9441 -1.1167,1.542 z M 1226.5927,1265 c 0,-2.095 0.3375,-3.6004 0.75,-3.3455 0.4125,0.2549 0.75,1.7604 0.75,3.3455 0,1.5851 -0.3375,3.0906 -0.75,3.3455 -0.4125,0.2549 -0.75,-1.2505 -0.75,-3.3455 z M 99.092723,1254 c 0,-10 0.25,-12 1.499997,-12 1.25,0 1.5,2 1.5,12 0,10 -0.25,12 -1.5,12 -1.249997,0 -1.499997,-2 -1.499997,-12 z m 804.006587,10.25 c 0.004,-0.4125 0.94743,-2.1 2.09734,-3.75 1.98281,-2.8451 2.06062,-2.8709 1.50706,-0.5 -0.32102,1.375 -0.58983,3.0625 -0.59734,3.75 -0.008,0.6875 -0.68865,1.25 -1.51365,1.25 -0.825,0 -1.49703,-0.3375 -1.49341,-0.75 z m 315.74339,-6.9123 c 0.6875,-0.2774 1.8125,-0.2774 2.5,0 0.6875,0.2774 0.125,0.5044 -1.25,0.5044 -1.375,0 -1.9375,-0.227 -1.25,-0.5044 z M 4.3427233,1253.741 c -4.11846004,-2.0689 -4.25000004,-2.2845 -4.25000004,-6.9637 v -4.8287 l 3.11490004,1.6108 c 1.7132,0.8859 3.46476,1.235 3.89237,0.7757 0.42761,-0.4593 2.69791,-6.4601 5.0451097,-13.3351 2.3472,-6.875 4.59752,-12.8794 5.00072,-13.3431 0.4032,-0.4637 1.85615,-0.1072 3.22877,0.7921 l 2.49568,1.6353 -2.51207,9.2078 c -1.73189,6.3482 -3.42631,10.2518 -5.45577,12.569 -3.43712,3.9245 -4.80971,7.1219 -4.80971,11.204 0,3.4449 -0.1926897,3.4676 -5.7499997,0.6759 z M 627.73109,1247.5 c -0.48753,-1.2705 0.92484,-1.5 9.2308,-1.5 5.39352,0 21.4669,-0.2038 35.71862,-0.4529 l 25.91221,-0.453 -29,1.8819 c -37.05675,2.4048 -41.12038,2.4556 -41.86163,0.524 z m 79.36163,-2.8906 c 0,-0.2148 1.54343,-0.5708 3.42985,-0.791 1.88642,-0.2202 3.20987,-0.045 2.94099,0.3906 -0.48392,0.783 -6.37084,1.153 -6.37084,0.4004 z m 7.0318,-4.3236 c -0.0175,-1.2177 0.47891,-6.7054 1.10311,-12.1947 0.78759,-6.9263 1.57269,-10.1487 2.56539,-10.5296 0.99306,-0.3811 1.27946,-0.016 0.9366,1.1948 -0.27163,0.959 -0.797,5.883 -1.16747,10.9422 -0.38234,5.221 -1.26431,9.9774 -2.03971,11 -1.28647,1.6965 -1.36797,1.6724 -1.39792,-0.4127 z m 4.53913,-30.171 c -0.46401,-0.7508 -0.83808,-2.9963 -0.83125,-4.9899 0.0237,-6.9194 3.47947,-30.6385 4.82618,-33.1249 1.32595,-2.4481 1.3549,-2.4143 1.3941,1.6279 0.022,2.2703 -0.63496,5.7434 -1.45996,7.7179 -0.99011,2.3696 -1.53388,7.2551 -1.59968,14.3721 -0.10842,11.7276 -0.9115,16.6911 -2.32939,14.3969 z M 22.196853,1192.3175 c 2.14404,-7.5996 4.82187,-17.2118 5.95074,-21.3604 l 2.05248,-7.543 3.43831,0.4014 c 1.89106,0.2208 3.27918,0.6901 3.08471,1.043 -0.19447,0.3528 -2.27963,9.529 -4.63369,20.3915 l -4.2801,19.75 h -3.2765 c -1.80208,0 -3.94199,0.2554 -4.75536,0.5675 -1.124,0.4313 -0.54346,-2.748 2.41941,-13.25 z m 433.725437,3.509 c -0.26827,-1.8938 -1.02705,-2.3842 -4.07957,-2.6369 -2.0625,-0.1707 -3.75,-0.5261 -3.75,-0.7898 0,-0.2637 0.86308,-2.1713 1.91796,-4.239 1.58653,-3.1098 3.03313,-4.2019 8.37151,-6.32 l 6.45356,-2.5605 0.90393,8.8599 0.90392,8.8598 h -3.69365 c -2.03151,0 -4.36965,0.2594 -5.19587,0.5765 -1.02948,0.395 -1.60593,-0.1557 -1.83179,-1.75 z m -418.415647,-42.6276 -3.08607,-0.3012 1.35656,-7.1742 c 0.74611,-3.9459 1.16021,-7.686 0.92023,-8.3114 -0.23999,-0.6254 -3.54344,-1.4433 -7.34101,-1.8175 -6.85751,-0.6757 -6.90187,-0.6994 -6.4955,-3.4681 l 0.40917,-2.7879 9.16135,1.2955 c 5.03874,0.7125 9.88906,1.3113 10.77848,1.3307 1.47341,0.032 1.45084,0.9461 -0.25388,10.2852 -1.02905,5.6375 -1.98175,10.475 -2.11712,10.75 -0.13537,0.275 -1.63486,0.3645 -3.33221,0.1989 z M 7.0927233,1142.5297 c -4.0634,-1.3746 -6.62043004,-2.8192 -6.82125004,-3.8536 -0.2669,-1.3746 0.24075,-1.5403 3.00000004,-0.979 7.4369797,1.5129 6.9378497,2.1932 10.1242997,-13.7981 l 2.90942,-14.6011 4.56158,0.8522 c 2.50887,0.4687 4.75868,1.0493 4.99959,1.2902 0.24091,0.2409 -0.99422,2.4324 -2.74474,4.8699 -2.29534,3.1962 -4.01935,7.7424 -6.18328,16.305 -1.65029,6.5302 -3.07818,11.9271 -3.17308,11.9932 -0.0949,0.066 -3.09754,-0.8694 -6.6725397,-2.0787 z m 17.3916197,-34.8256 -3.10837,-0.9122 2.50973,-9.3436 2.50973,-9.3436 -2.76407,-9.8023 c -1.52023,-5.3913 -3.19797,-10.3402 -3.72831,-10.9976 -0.53034,-0.6574 -3.17962,-1.931 -5.88729,-2.8304 -4.9081297,-1.6302 -4.9230397,-1.6485 -4.9230397,-6.0548 V 1054 h -4.5 c -4.33333004,0 -4.50000004,-0.1111 -4.50000004,-3 0,-3.315 0.4577,-3.4473 8.23783004,-2.3809 4.2574297,0.5836 4.5874097,0.8565 5.7428497,4.75 1.63707,5.5166 2.46362,6.3612 6.96972,7.1225 l 3.83526,0.648 3.48122,12.4283 3.48121,12.4283 -1.90237,10.7519 c -1.0463,5.9135 -2.00212,11.0031 -2.12404,11.3101 -0.12192,0.307 -1.62045,0.1477 -3.33006,-0.3541 z M 1.3427233,1072.3377 c -2.38523,-0.9624 -1.35963004,-3.0813 1.25,-2.5825 1.375,0.2629 2.5,1.1005 2.5,1.8614 0,1.3885 -1.41959,1.6615 -3.75,0.7211 z M 707.02405,1051.25 c 2.65869,-4.6448 3.03766,-4.831 3.05336,-1.5 0.0123,2.6071 -0.38729,3.25 -2.01987,3.25 -1.65321,0 -1.84718,-0.3285 -1.03349,-1.75 z M 404.3611,930.68969 c -1.01726,-2.23265 -0.83513,-2.4871 2.51664,-3.51578 4.81386,-1.47742 5.22727,-0.72467 1.5962,2.90641 l -3.01621,3.01621 z M 839.84947,861.75 c -1.29512,-1.2375 -1.62228,-1.6875 -0.72702,-1 1.1684,0.89725 6.8968,1.25 20.29901,1.25 11.78084,0 18.67126,0.36904 18.67126,1 0,0.62951 -6.64808,1 -17.94424,1 -17.24446,0 -18.03606,-0.0877 -20.29901,-2.25 z m -6.35176,-5 -1.90499,-2.25 2.25,1.90499 c 2.11444,1.79022 2.70524,2.59501 1.90499,2.59501 -0.18976,0 -1.20226,-1.0125 -2.25,-2.25 z M 597.85438,770.29274 c 1.24391,-0.23919 3.04391,-0.23011 4,0.0202 0.95609,0.25029 -0.0617,0.446 -2.26166,0.4349 -2.2,-0.0111 -2.98225,-0.21589 -1.73834,-0.45508 z m -467.51166,-6.01102 c -3.76922,-1.28454 -4.25,-1.79756 -4.25,-4.53499 0,-2.43458 1.34293,-4.47765 6.35726,-9.67158 6.19,-6.41173 6.37603,-6.76031 7.07095,-13.24939 l 0.7137,-6.66441 3.58841,1.49933 c 3.25374,1.3595 3.94662,1.33781 7.42905,-0.23255 2.11235,-0.95253 3.82679,-2.00104 3.80989,-2.33 -0.0169,-0.32897 -5.64191,-3.25919 -12.5,-6.51159 -6.8581,-3.2524 -12.48886,-6.4024 -12.51281,-7 -0.0239,-0.5976 -0.40795,-2.96852 -0.85332,-5.26872 l -0.80978,-4.18217 6.10333,-0.8659 c 9.95307,-1.41206 11.63381,-0.14837 18.9113,14.21881 5.20044,10.26671 6.24316,13.24611 7.17851,20.51144 0.60187,4.675 0.92278,10.58145 0.71312,13.12545 -0.37881,4.59659 -0.41834,4.64148 -6.33611,7.19487 l -5.95493,2.56942 -4.53719,-1.94487 c -5.83886,-2.50283 -5.9014,-2.49371 -7.38027,1.07659 -1.62514,3.92344 -1.74395,3.96328 -6.74111,2.26026 z m -6.35425,-12.85703 c -0.87159,-2.14648 -4.05184,-32.33209 -3.47954,-33.02633 0.0461,-0.0559 3.27593,0.78018 7.17744,1.85795 7.09231,1.95921 7.09392,1.96047 8.60503,6.68581 1.18767,3.71395 1.30197,6.02659 0.53366,10.79739 -0.88123,5.47192 -1.50437,6.59125 -6.31337,11.34051 l -5.33564,5.26936 z M 37.870933,731.24162 c -2.59699,-1.99725 -4.62199,-3.7088 -4.5,-3.80344 0.12198,-0.0946 2.31874,-0.3971 4.88167,-0.67213 l 4.65989,-0.50006 0.34732,4.367 c 0.19103,2.40186 0.11908,4.33843 -0.15988,4.3035 -0.27897,-0.0349 -2.63202,-1.69762 -5.229,-3.69487 z m 86.428017,-18.28897 c -1.90342,-0.76392 -2.11522,-1.25418 -1.24462,-2.88092 1.78601,-3.33719 2.80465,-3.19956 3.22912,0.43629 0.22422,1.92059 0.38553,3.46346 0.35847,3.42859 -0.0271,-0.0349 -1.08139,-0.47764 -2.34297,-0.98396 z m 294.79377,-1.41113 c 0,-0.70405 2.72966,-2.46392 6.06591,-3.91081 7.04899,-3.05706 6.93409,-3.03554 6.93409,-1.29882 0,0.73255 -2.925,2.49241 -6.5,3.91081 -4.60509,1.8271 -6.5,2.20574 -6.5,1.29882 z M 759.20771,92.5 c 0.0464,-1.1 0.44466,-3.125 0.88501,-4.5 0.78459,-2.44987 0.80233,-2.439845 0.88501,0.5 0.0464,1.65 -0.35185,3.675 -0.88501,4.5 -0.79859,1.235731 -0.95451,1.147641 -0.88501,-0.5 z"
       id="path99" />
  </g>
</svg>
